<?xml version="1.0" encoding="utf-8"?>
<!-- Simulation: Adobe Illustrator 21.1.0, SVG Export Plug-In . SVG Version: 6.00 Build 0)  -->
<svg version="1.1" id="Capa_1" xmlns="http://www.w3.org/2000/svg" xmlns:xlink="http://www.w3.org/1999/xlink" x="0px" y="0px"
	 viewBox="0 0 210 28" style="enable-background:new 0 0 210 28;" xml:space="preserve">
<style type="text/css">
	.st0{fill:#FFFFFF;}
</style>
<title>Mesa de trabajo 1</title>
<path class="st0" d="M17.6,9.6c-3.4,0-6.2,2.8-6.2,6.2s2.8,6.2,6.2,6.2c0,0,0,0,0,0h2.3c1,0,1.9-0.8,1.9-1.9s-0.8-1.9-1.9-1.9h-2.3
	c-1.4,0-2.5-1.1-2.5-2.5s1.1-2.5,2.5-2.5h2.3c1,0,1.8-0.8,1.8-1.9c0-1-0.8-1.8-1.8-1.8H17.6z"/>
<path class="st0" d="M10.7,20.4c0.1,1-0.7,1.9-1.7,2c-1,0.1-1.9-0.7-2-1.7c0-0.1,0-0.2,0-0.3v-4.5C7,10,11.8,5.3,17.6,5.3
	c0,0,0,0,0,0h2.3c3.4,0,6.2,2.8,6.2,6.2c0,3.4-2.8,6.2-6.2,6.2h-2.3c-1,0.1-1.9-0.7-2-1.7s0.7-1.9,1.7-2c0.1,0,0.2,0,0.3,0h2.3
	c1.4,0,2.5-1.1,2.5-2.5S21.3,9,19.9,9h-2.3c-3.8,0-6.9,3.1-6.9,6.9c0,0,0,0,0,0L10.7,20.4z"/>
<path class="st0" d="M106.4,13.2v-2.1c0-0.2-0.1-0.4-0.2-0.4h-0.2c-0.1,0-0.2-0.1-0.2-0.2s0.1-0.2,0.2-0.2h0.1h0.2h0.3h0.3
	c0.2,0,0.4,0,0.6,0c0.2,0,0.4,0,0.6,0.1c0.2,0,0.4,0.1,0.5,0.3c0.1,0.2,0.2,0.4,0.2,0.6c0,0.3-0.1,0.6-0.3,0.7
	c-0.3,0.2-0.6,0.3-1,0.3H107c0,0-0.1,0-0.1,0c0,0,0,0.1,0,0.1v0.1c0,0.3,0,0.5,0,0.8c0,0.1,0.1,0.1,0.2,0.1h0.1h0.1
	c0.1,0,0.2,0,0.2,0.2s-0.1,0.2-0.2,0.2h-0.1H107h-0.6H106h0c-0.2,0-0.2-0.1-0.2-0.2c0,0,0-0.1,0-0.1c0,0,0.1,0,0.1,0h0.1h0.1
	C106.3,13.6,106.4,13.5,106.4,13.2z M106.9,10.9c0,0.1,0,0.2,0,0.3v0.8c0,0.1,0.1,0.1,0.2,0.2h0.3c0.2,0,0.4,0,0.6,0
	c0.3-0.1,0.5-0.3,0.5-0.6c0-0.4-0.3-0.7-0.8-0.7C107.2,10.8,106.9,10.8,106.9,10.9z"/>
<path class="st0" d="M109.9,11.5v0.1c0.2-0.2,0.4-0.4,0.7-0.4c0.2,0,0.4,0.1,0.6,0.2c0.1,0.1,0.2,0.3,0.2,0.5c0,0.1,0,0.3-0.1,0.4
	c-0.1,0.1-0.2,0.1-0.3,0.1c-0.1,0-0.2,0-0.2-0.1c0,0-0.1-0.1-0.1-0.2c0-0.1,0-0.1,0.1-0.2c0,0,0.1-0.1,0.2-0.1h0.1c0,0,0-0.1,0-0.1
	c0-0.1-0.1-0.2-0.1-0.2c-0.1-0.1-0.2-0.1-0.3-0.1c-0.2,0-0.5,0.1-0.5,0.4c-0.1,0.2-0.1,0.4-0.1,0.7v0.7c0,0.2,0.1,0.3,0.2,0.3h0.1
	h0.1c0.1,0,0.2,0.1,0.2,0.2s-0.1,0.2-0.2,0.2H110c-0.1,0-0.2,0-0.2,0h-0.3h-0.3c-0.1,0-0.2-0.1-0.2-0.2s0.1-0.2,0.2-0.2h0.1h0.1h0.1
	c0.1,0,0.1-0.1,0.1-0.2v-1.4c0-0.2-0.1-0.3-0.2-0.3h-0.2c-0.1,0-0.2-0.1-0.2-0.2s0.1-0.2,0.2-0.2h0.2c0.1,0,0.1,0,0.2,0
	c0,0,0.1,0,0.1,0h0.1C109.9,11.3,109.9,11.4,109.9,11.5z"/>
<path class="st0" d="M112.8,14c-0.3,0-0.6-0.1-0.9-0.4c-0.4-0.6-0.4-1.4,0-2c0.2-0.2,0.5-0.4,0.9-0.4c0.3,0,0.7,0.1,0.9,0.4
	c0.2,0.3,0.4,0.6,0.3,1c0,0.4-0.1,0.7-0.3,1C113.5,13.9,113.2,14,112.8,14z M112.8,11.6c-0.2,0-0.4,0.1-0.6,0.3
	c-0.1,0.2-0.2,0.5-0.2,0.7v0.1c0,0.3,0.1,0.5,0.2,0.8c0.1,0.2,0.3,0.3,0.6,0.3c0.2,0,0.4-0.1,0.6-0.3c0.2-0.2,0.2-0.5,0.2-0.8
	C113.6,11.9,113.4,11.6,112.8,11.6L112.8,11.6z"/>
<path class="st0" d="M116,10.8c0,0,0-0.1,0-0.1c-0.1-0.1-0.2-0.1-0.2-0.1c-0.1,0-0.3,0-0.3,0.2c-0.1,0.1-0.1,0.2-0.1,0.4v0.1
	c0,0,0,0.1,0,0.1c0,0,0,0,0,0h0.4c0.1,0,0.2,0.1,0.2,0.2s-0.1,0.2-0.2,0.2h-0.4c0,0-0.1,0-0.1,0.1c0,0,0,0,0,0v1.4
	c0,0.1,0,0.1,0,0.2c0,0.1,0.1,0.1,0.1,0.1h0.1h0.1c0.1,0,0.2,0.1,0.2,0.2s-0.1,0.2-0.2,0.2h-0.3h-0.3h-0.3h-0.3
	c-0.2,0-0.2-0.1-0.2-0.2c0-0.1,0.1-0.2,0.2-0.2h0.1c0,0,0.1,0,0.1,0c0.1,0,0.1,0,0.1-0.1c0-0.2,0-0.4,0-0.6v-1.1c0,0,0-0.1-0.1-0.1
	c0,0,0,0,0,0h-0.3c-0.1,0-0.2-0.1-0.2-0.2c0-0.1,0-0.2,0.1-0.2c0,0,0,0,0,0h0.3c0,0,0.1,0,0.1,0c0,0,0,0,0,0v-0.1
	c0-0.2,0.1-0.5,0.2-0.6c0.2-0.1,0.4-0.2,0.6-0.2c0.2,0,0.4,0,0.5,0.1c0.1,0.1,0.2,0.2,0.2,0.3c0,0.1,0,0.1-0.1,0.2
	c-0.1,0-0.1,0.1-0.2,0.1c-0.1,0-0.1,0-0.2-0.1C116,10.9,116,10.9,116,10.8z"/>
<path class="st0" d="M118.4,12.4c0,0.1,0,0.2,0,0.2c0,0-0.1,0-0.2,0h-1.6h-0.1c0,0,0,0,0,0.1c0,0.2,0.1,0.5,0.2,0.6
	c0.1,0.2,0.3,0.3,0.6,0.3c0.1,0,0.3,0,0.4-0.1c0.1-0.1,0.2-0.2,0.2-0.3V13c0-0.1,0.1-0.1,0.2-0.1c0.1,0,0.2,0.1,0.2,0.2
	c0,0.2-0.1,0.5-0.3,0.6c-0.2,0.2-0.5,0.3-0.8,0.3c-0.3,0-0.6-0.1-0.9-0.4c-0.2-0.3-0.3-0.6-0.3-1c0-0.4,0.1-0.7,0.3-1
	c0.2-0.3,0.6-0.4,0.9-0.4c0.3,0,0.6,0.1,0.8,0.3C118.4,11.7,118.5,12,118.4,12.4z M116.6,12.2c0,0.1,0,0.1,0.1,0.1h1.2
	c0.1,0,0.1,0,0.1-0.1c0-0.2-0.1-0.4-0.2-0.5c-0.1-0.1-0.3-0.2-0.5-0.2c-0.2,0-0.4,0.1-0.5,0.2C116.7,11.9,116.6,12.1,116.6,12.2z"/>
<path class="st0" d="M119.9,11.2c0.2,0,0.4,0.1,0.6,0.2l0,0c0-0.1,0.1-0.2,0.2-0.2c0.1,0,0.2,0,0.2,0.1c0,0,0,0,0,0c0,0,0,0.1,0,0.2
	c0,0.1,0,0.1,0,0.2c0,0,0,0.1,0,0.2c0,0.1,0,0.1,0,0.2c0,0.1-0.1,0.2-0.2,0.2s-0.2-0.1-0.2-0.2V12c0-0.1-0.1-0.2-0.2-0.3
	c-0.1-0.1-0.3-0.1-0.4-0.1c-0.1,0-0.3,0-0.4,0.1c-0.1,0.1-0.2,0.2-0.2,0.3c0,0.2,0.2,0.3,0.5,0.4h0.3c0.6,0.1,0.9,0.3,0.9,0.7
	c0,0.2-0.1,0.5-0.3,0.6c-0.2,0.2-0.5,0.2-0.7,0.2c-0.3,0-0.5-0.1-0.7-0.2v0.1c0,0.1,0,0.2-0.2,0.2s-0.2-0.1-0.2-0.2
	c0-0.1,0-0.2,0-0.3c0,0,0-0.1,0-0.1c0-0.1,0-0.2,0-0.2c0-0.1,0-0.1,0-0.2c0-0.1,0.1-0.2,0.2-0.2s0.1,0,0.1,0c0,0.1,0,0.2,0,0.3
	c0,0.2,0.1,0.3,0.2,0.4c0.2,0.1,0.4,0.2,0.6,0.1c0.2,0,0.3,0,0.4-0.1c0.1-0.1,0.2-0.2,0.2-0.3c0-0.2-0.2-0.4-0.6-0.4
	c-0.3,0-0.6-0.1-0.8-0.2c-0.2-0.1-0.3-0.3-0.3-0.5c0-0.2,0.1-0.4,0.3-0.6C119.4,11.2,119.6,11.2,119.9,11.2z"/>
<path class="st0" d="M122.2,12.4v0.7c0,0.1,0,0.2,0,0.3c0,0.2,0.1,0.2,0.1,0.2h0.1h0.1c0.1,0,0.2,0.1,0.2,0.2c0,0,0,0.1-0.1,0.1
	c0,0-0.1,0.1-0.2,0.1c-0.1,0-0.2,0-0.2,0H122c-0.1,0-0.2,0-0.3,0c-0.1,0-0.2,0-0.3,0c-0.1,0-0.2-0.1-0.2-0.2s0-0.2,0.2-0.2h0.2
	c0.1,0,0.1-0.1,0.2-0.3v-1.3c0-0.2-0.1-0.3-0.2-0.3h-0.1h-0.1c-0.1,0-0.2-0.1-0.2-0.2s0.1-0.2,0.2-0.2h0.1h0.2h0.2
	c0.1,0,0.2,0.1,0.2,0.2v0.1c0,0,0,0,0,0.1c0,0,0,0.1,0,0.3L122.2,12.4z M121.9,11c-0.1,0-0.1,0-0.2-0.1c-0.1-0.1-0.1-0.1-0.1-0.2
	c0-0.1,0-0.1,0.1-0.2c0.1-0.1,0.1-0.1,0.2-0.1c0.1,0,0.2,0,0.2,0.1c0.1,0.1,0.1,0.1,0.1,0.2c0,0.1,0,0.1-0.1,0.2
	C122.1,11,122,11,121.9,11z"/>
<path class="st0" d="M124.1,14c-0.3,0-0.7-0.1-0.9-0.4c-0.4-0.6-0.4-1.4,0-2c0.2-0.2,0.5-0.4,0.9-0.4c0.3,0,0.7,0.1,0.9,0.4
	c0.2,0.3,0.3,0.6,0.3,1c0,0.4-0.1,0.7-0.3,1C124.8,13.9,124.5,14,124.1,14z M124.1,11.6c-0.2,0-0.4,0.1-0.6,0.3
	c-0.2,0.2-0.2,0.5-0.2,0.7v0.1c0,0.3,0.1,0.5,0.2,0.8c0.1,0.2,0.3,0.3,0.6,0.3c0.2,0,0.4-0.1,0.6-0.3c0.2-0.2,0.2-0.5,0.2-0.8
	C124.9,11.9,124.7,11.6,124.1,11.6L124.1,11.6z"/>
<path class="st0" d="M126.5,11.5v0.2c0.2-0.3,0.5-0.4,0.8-0.4c0.2,0,0.4,0,0.5,0.1c0.2,0.1,0.3,0.2,0.3,0.3c0.1,0.1,0.1,0.3,0.1,0.5
	v1.2c0,0.1,0.1,0.2,0.1,0.2h0.2c0,0,0.1,0,0.1,0c0,0,0,0.1,0,0.1c0,0,0,0.1-0.1,0.1c0,0-0.1,0.1-0.1,0.1h-0.2H128h-0.2h-0.3
	c-0.1,0-0.2-0.1-0.2-0.2s0.1-0.2,0.2-0.2h0.1h0.1c0.1,0,0.1-0.1,0.1-0.3v-1c0-0.1,0-0.3,0-0.4c0-0.1-0.1-0.2-0.2-0.3
	c-0.1-0.1-0.2-0.1-0.4-0.1c-0.2,0-0.5,0.1-0.6,0.3c-0.1,0.2-0.1,0.5-0.1,0.7v0.7c0,0.1,0,0.2,0,0.3c0,0.1,0.1,0.1,0.1,0.1h0.1h0.2
	c0.1,0,0.2,0.1,0.2,0.2s-0.1,0.2-0.2,0.2h-0.3h-0.2c-0.1,0-0.2,0-0.3,0h-0.3c-0.2,0-0.2-0.1-0.2-0.2s0.1-0.2,0.2-0.2h0.1h0.1
	c0.1,0,0.2-0.1,0.2-0.3v-1.3c0-0.1,0-0.2,0-0.2c0,0-0.1-0.1-0.1-0.1H126h-0.1c-0.1,0-0.2-0.1-0.2-0.2s0.1-0.2,0.2-0.2l0,0h0.2
	c0,0,0.1,0,0.1,0h0.1C126.5,11.3,126.6,11.4,126.5,11.5C126.5,11.4,126.5,11.5,126.5,11.5z"/>
<path class="st0" d="M132.6,11.7v1.6c0,0.2,0.1,0.3,0.1,0.3h0.1h0.1c0.1,0,0.2,0.1,0.2,0.2s-0.1,0.2-0.2,0.2h-0.3h-0.3h-0.2h-0.3
	c-0.1,0-0.2-0.1-0.2-0.2s0.1-0.2,0.2-0.2h0.1h0.1c0.1,0,0.1,0,0.1-0.1c0-0.1,0-0.3,0-0.4V11c0-0.1,0-0.1,0-0.2
	c0-0.1-0.1-0.1-0.1-0.1H132h-0.1c-0.1,0-0.2,0-0.2-0.2s0.1-0.2,0.2-0.2h0.1h0.1h0.3c0.1,0,0.1,0,0.2,0c0.1,0,0.1,0,0.1,0.2v0.1
	C132.6,11,132.6,11.3,132.6,11.7z"/>
<path class="st0" d="M136,11.2c0.3,0,0.6,0.1,0.8,0.4v-0.5c0-0.1,0-0.2,0-0.2c0-0.1-0.1-0.2-0.1-0.2h-0.1h-0.1c-0.1,0-0.2,0-0.2-0.2
	s0.1-0.2,0.3-0.2h0.5c0.1,0,0.1,0.1,0.1,0.2v0.1c0,0,0,0.1,0,0.3c0,0,0,0.2,0,0.4s0,0.3,0,0.4V13c0,0.1,0,0.3,0,0.4
	c0,0.1,0.1,0.1,0.1,0.1h0.2c0.1,0,0.2,0.1,0.2,0.2s-0.1,0.2-0.2,0.2h-0.5c-0.1,0-0.1-0.1-0.1-0.2v-0.1c-0.2,0.3-0.5,0.4-0.8,0.4
	c-0.3,0-0.6-0.1-0.8-0.4c-0.2-0.3-0.3-0.6-0.3-1c0-0.4,0.1-0.7,0.3-1C135.4,11.4,135.7,11.2,136,11.2z M136.7,13c0-0.1,0-0.3,0-0.4
	c0-0.2,0-0.3,0-0.5c0-0.2-0.1-0.3-0.2-0.4c-0.1-0.1-0.3-0.2-0.5-0.2c-0.2,0-0.4,0.1-0.6,0.3c-0.2,0.2-0.2,0.5-0.2,0.7
	c0,0.3,0.1,0.5,0.2,0.8c0.3,0.3,0.7,0.4,1.1,0.1C136.6,13.3,136.7,13.2,136.7,13L136.7,13z"/>
<path class="st0" d="M140.2,12.4c0,0.1,0,0.2,0,0.2c0,0-0.1,0-0.1,0h-1.6c0,0-0.1,0-0.1,0c0,0,0,0,0,0.1c0,0.2,0.1,0.5,0.2,0.6
	c0.1,0.2,0.3,0.3,0.6,0.3c0.1,0,0.3,0,0.4-0.1c0.1-0.1,0.2-0.2,0.2-0.3l0.1-0.1c0-0.1,0.1-0.1,0.2-0.1c0.1,0,0.2,0.1,0.2,0.2
	c0,0.2-0.1,0.5-0.3,0.6c-0.2,0.2-0.5,0.3-0.8,0.3c-0.3,0-0.6-0.1-0.9-0.4c-0.2-0.3-0.3-0.6-0.3-1c0-0.4,0.1-0.7,0.3-1
	c0.2-0.3,0.5-0.4,0.9-0.4c0.3,0,0.6,0.1,0.8,0.3C140.2,11.7,140.3,12.1,140.2,12.4z M138.4,12.2c0,0.1,0,0.1,0.1,0.1h1.2
	c0.1,0,0.1,0,0.1-0.1c0-0.2-0.1-0.4-0.2-0.5c-0.1-0.1-0.3-0.2-0.5-0.2c-0.2,0-0.4,0.1-0.5,0.2C138.4,11.9,138.4,12.1,138.4,12.2z"/>
<path class="st0" d="M143.4,10.3c0.4,0,0.7,0.2,0.9,0.4v-0.1l0,0c0,0,0-0.1,0-0.1c0-0.1,0-0.2,0.2-0.2s0.2,0.1,0.2,0.2s0,0.1,0,0.2
	s0,0.3,0,0.4c0,0.1,0,0.2,0,0.3v0.2l0,0c0,0.2-0.1,0.2-0.2,0.2s-0.2-0.1-0.2-0.2v-0.2c0-0.2-0.1-0.4-0.2-0.6
	c-0.2-0.2-0.4-0.2-0.6-0.2c-0.3,0-0.6,0.1-0.8,0.4c-0.2,0.3-0.3,0.7-0.3,1.1c0,0.4,0.1,0.8,0.3,1.1c0.2,0.3,0.5,0.4,0.8,0.4
	c0.2,0,0.4,0,0.5-0.1c0.1-0.1,0.3-0.2,0.3-0.4c0-0.1,0.1-0.3,0.1-0.4c0-0.2,0.1-0.2,0.2-0.2s0.2,0.1,0.2,0.2c0,0.3-0.1,0.7-0.4,0.9
	c-0.6,0.5-1.5,0.5-2.1-0.1c-0.3-0.4-0.4-0.8-0.4-1.3c0-0.5,0.1-1,0.4-1.3C142.6,10.5,143,10.3,143.4,10.3z"/>
<path class="st0" d="M146,12.4v0.7c0,0.2,0,0.3,0,0.3s0.1,0.2,0.1,0.2h0.1h0.1c0.1,0,0.2,0.1,0.2,0.2c0,0.1,0,0.1-0.1,0.1
	c0,0-0.1,0.1-0.2,0.1c-0.1,0-0.2,0-0.2,0h-0.2c-0.1,0-0.2,0-0.3,0c-0.1,0-0.2,0-0.3,0c-0.1,0-0.2-0.1-0.2-0.2s0.1-0.2,0.2-0.2h0.2
	c0.1,0,0.1-0.1,0.1-0.3v-1.3c0-0.2-0.1-0.3-0.2-0.3h-0.1h-0.1c-0.1,0-0.2-0.1-0.2-0.2s0.1-0.2,0.2-0.2h0.1h0.2h0.3
	c0.1,0,0.1,0.1,0.1,0.2v0.1c0,0.1,0,0.2,0,0.3C146,12.1,146,12.2,146,12.4z M145.7,11c-0.1,0-0.2,0-0.2-0.1
	c-0.1-0.1-0.1-0.1-0.1-0.2c0-0.1,0-0.1,0.1-0.2c0.1-0.1,0.1-0.1,0.2-0.1c0.1,0,0.1,0,0.2,0.1c0.1,0.1,0.1,0.1,0.1,0.2
	c0,0.1,0,0.1-0.1,0.2C145.9,11,145.8,11,145.7,11z"/>
<path class="st0" d="M149.1,12.4c0,0.1,0,0.2,0,0.2c0,0-0.1,0-0.1,0h-1.6c0,0-0.1,0-0.1,0c0,0,0,0,0,0.1c0,0.2,0.1,0.5,0.2,0.6
	c0.1,0.2,0.4,0.3,0.6,0.3c0.1,0,0.3,0,0.4-0.1c0.1-0.1,0.2-0.2,0.2-0.3V13c0-0.1,0.1-0.1,0.2-0.1c0.1,0,0.2,0.1,0.2,0.2
	c0,0.2-0.1,0.5-0.3,0.6c-0.2,0.2-0.5,0.3-0.8,0.3c-0.3,0-0.6-0.1-0.9-0.4c-0.2-0.3-0.3-0.6-0.3-1c0-0.4,0.1-0.7,0.3-1
	c0.2-0.3,0.5-0.4,0.9-0.4c0.3,0,0.6,0.1,0.8,0.3C149,11.7,149.1,12,149.1,12.4z M147.2,12.2c0,0.1,0,0.1,0.1,0.1h1.2
	c0.1,0,0.1,0,0.1-0.1c0-0.2-0.1-0.4-0.2-0.5c-0.1-0.1-0.3-0.2-0.5-0.2c-0.2,0-0.4,0.1-0.5,0.2C147.3,11.9,147.2,12.1,147.2,12.2z"/>
<path class="st0" d="M150.2,11.5v0.2c0.2-0.3,0.5-0.4,0.8-0.4c0.2,0,0.4,0,0.5,0.1c0.2,0.1,0.3,0.2,0.3,0.3c0.1,0.1,0.1,0.3,0.1,0.5
	v1.2c0,0.1,0.1,0.2,0.1,0.2h0.2c0,0,0.1,0,0.1,0c0,0,0,0.1,0,0.1c0,0,0,0.1-0.1,0.1c0,0-0.1,0.1-0.1,0.1h-0.2h-0.3h-0.2h-0.3
	c-0.1,0-0.2-0.1-0.2-0.2s0.1-0.2,0.2-0.2h0.1h0.1c0.1,0,0.1-0.1,0.1-0.3v-1c0-0.1,0-0.3,0-0.4c0-0.1-0.1-0.2-0.2-0.3
	c-0.1-0.1-0.3-0.1-0.4-0.1c-0.2,0-0.5,0.1-0.6,0.3c-0.1,0.2-0.2,0.5-0.1,0.7v0.7c0,0.1,0,0.2,0,0.3c0,0.1,0.1,0.1,0.1,0.1h0.1h0.1
	c0.1,0,0.2,0.1,0.2,0.2s-0.1,0.2-0.2,0.2h-0.3h-0.2c-0.1,0-0.2,0-0.3,0h-0.2c-0.1,0-0.2-0.1-0.2-0.2s0.1-0.2,0.2-0.2h0.1h0.1
	c0.1,0,0.2-0.1,0.2-0.3v-1.3c0-0.1,0-0.2,0-0.2c0,0-0.1-0.1-0.1-0.1h-0.1h-0.1c-0.1,0-0.2-0.1-0.2-0.2s0.1-0.2,0.2-0.2l0,0h0.2
	c0,0,0.1,0,0.1,0h0.1C150.2,11.3,150.2,11.4,150.2,11.5z"/>
<path class="st0" d="M154.2,12.2c0-0.1,0.1-0.2,0.3-0.2c0-0.1-0.1-0.2-0.2-0.3c-0.1-0.1-0.2-0.1-0.4-0.1c-0.2,0-0.4,0.1-0.6,0.3
	c-0.3,0.5-0.3,1,0,1.5c0.1,0.2,0.3,0.3,0.6,0.3c0.1,0,0.3,0,0.4-0.1c0.1-0.1,0.2-0.2,0.2-0.3c0-0.1,0-0.1,0.1-0.2
	c0-0.1,0.1-0.1,0.2-0.1c0.1,0,0.1,0,0.1,0.1c0,0,0.1,0.1,0.1,0.1c0,0.1,0,0.2-0.1,0.3c0,0.1-0.1,0.2-0.2,0.3
	c-0.2,0.2-0.5,0.3-0.8,0.3c-0.3,0-0.6-0.1-0.8-0.4c-0.2-0.3-0.4-0.6-0.3-1c0-0.4,0.1-0.7,0.3-1c0.2-0.3,0.5-0.4,0.9-0.4
	c0.2,0,0.5,0.1,0.7,0.2c0.2,0.1,0.3,0.3,0.3,0.6c0,0.1,0,0.2-0.1,0.3c-0.1,0.1-0.2,0.1-0.3,0.1c-0.1,0-0.2,0-0.2-0.1
	C154.3,12.3,154.3,12.2,154.2,12.2z"/>
<path class="st0" d="M156.2,12.4v0.7c0,0.1,0,0.2,0,0.3c0,0.2,0.1,0.2,0.1,0.2h0.1h0.1c0.1,0,0.2,0.1,0.2,0.2c0,0.1,0,0.1-0.1,0.1
	c0,0-0.1,0.1-0.2,0.1c-0.1,0-0.2,0-0.2,0H156c-0.1,0-0.2,0-0.3,0c-0.1,0-0.2,0-0.3,0c-0.1,0-0.2-0.1-0.2-0.2s0.1-0.2,0.2-0.2h0.2
	c0.1,0,0.1-0.1,0.1-0.3v-1.3c0-0.2-0.1-0.3-0.1-0.3h-0.1h-0.1c-0.1,0-0.2-0.1-0.2-0.2s0.1-0.2,0.2-0.2h0.1h0.2h0.2
	c0.1,0,0.1,0.1,0.1,0.2v0.1c0,0,0,0,0,0.1V12C156.2,12.1,156.2,12.2,156.2,12.4z M155.9,11c-0.1,0-0.3-0.1-0.3-0.3c0,0,0,0,0,0
	c0-0.1,0-0.1,0.1-0.2c0.1-0.1,0.1-0.1,0.2-0.1c0.1,0,0.2,0,0.2,0.1c0.1,0.1,0.1,0.1,0.1,0.2c0,0.1,0,0.1-0.1,0.2
	C156.1,11,156,11,155.9,11z"/>
<path class="st0" d="M160.9,11.2c0.2,0,0.4,0.1,0.6,0.2l0,0c0-0.1,0.1-0.2,0.2-0.2s0.2,0.1,0.2,0.2s0,0.1,0,0.2c0,0.1,0,0.1,0,0.2
	c0,0.1,0,0.1,0,0.2c0,0.1,0,0.1,0,0.2s-0.1,0.2-0.2,0.2c-0.1,0-0.2,0-0.2-0.1c0,0,0,0,0,0V12c0-0.1-0.1-0.2-0.2-0.3
	c-0.1-0.1-0.3-0.1-0.4-0.1c-0.1,0-0.3,0-0.4,0.1c-0.1,0.1-0.2,0.2-0.2,0.3c0,0.2,0.1,0.3,0.4,0.4h0.3c0.6,0.1,0.9,0.3,0.9,0.7
	c0,0.2-0.1,0.5-0.3,0.6c-0.2,0.2-0.5,0.2-0.7,0.2c-0.3,0-0.5-0.1-0.7-0.2v0.1c0,0.1,0,0.2-0.1,0.2c0,0,0,0-0.1,0
	c-0.1,0-0.2-0.1-0.2-0.2c0-0.1,0-0.2,0-0.3c0,0,0-0.1,0-0.1c0-0.1,0-0.2,0-0.2c0-0.1,0-0.1,0-0.2c0-0.1,0-0.2,0.2-0.2
	c0,0,0.1,0,0.1,0c0,0.1,0,0.2,0,0.3c0,0.2,0.1,0.3,0.2,0.4c0.2,0.1,0.4,0.2,0.6,0.1c0.1,0,0.3,0,0.4-0.1c0.1-0.1,0.2-0.2,0.2-0.3
	c0-0.2-0.2-0.4-0.6-0.4c-0.3,0-0.6-0.1-0.8-0.2c-0.2-0.1-0.3-0.3-0.3-0.5c0-0.2,0.1-0.4,0.3-0.6C160.4,11.2,160.6,11.2,160.9,11.2z"
	/>
<path class="st0" d="M164.2,11.1c0-0.3-0.1-0.4-0.3-0.4h-0.2c0,0-0.1,0-0.1,0c0,0,0-0.1,0-0.1c0-0.1,0.1-0.2,0.2-0.2h0.1h0.7l0,0
	h1.2h0.4c0.2,0,0.3,0.1,0.3,0.2c0,0.2,0,0.1,0,0.3s0,0.2,0,0.3c0,0.1,0,0.2,0,0.2c0,0.1,0,0.2,0,0.2c0,0.1-0.1,0.2-0.1,0.2
	c0,0,0,0,0,0c-0.1,0-0.2-0.1-0.2-0.3v-0.3c0-0.3-0.1-0.5-0.2-0.5c-0.2-0.1-0.5-0.1-0.7-0.1c-0.1,0-0.3,0-0.4,0
	c-0.1,0-0.2,0.2-0.2,0.3v0.5c0,0.1,0,0.2,0.1,0.2h0.3c0.2,0,0.3-0.1,0.3-0.2s0-0.1,0-0.2c0-0.1,0-0.1,0-0.2c0-0.1,0.1-0.2,0.2-0.2
	s0.2,0.1,0.2,0.2s0,0.1,0,0.3c0,0.1,0,0.3,0,0.4c0,0.1,0,0.2,0,0.4c0,0,0,0.1,0,0.2c0,0.1,0,0.1,0,0.2c0,0.1-0.1,0.2-0.2,0.2
	s-0.2-0.1-0.2-0.2c0-0.1,0-0.1,0-0.2c0-0.1,0-0.1,0-0.2s-0.1-0.2-0.3-0.2h-0.2c-0.1,0-0.2,0-0.2,0.1c0,0.1,0,0.1,0,0.2V13
	c0,0.1,0,0.2,0,0.2c0,0.1,0,0.2,0.1,0.3c0.1,0,0.2,0,0.3,0h0.7c0.1,0,0.3,0,0.4-0.1c0.1-0.1,0.1-0.2,0.1-0.3c0-0.1,0-0.2,0-0.2
	s0-0.2,0-0.2c0-0.2,0.1-0.2,0.2-0.2s0.2,0.1,0.2,0.2s0,0.2,0,0.3s0,0.2,0,0.3c0,0.1,0,0.1,0,0.2c0,0.1,0,0.1,0,0.2
	c0,0.1-0.1,0.2-0.2,0.2c0,0,0,0-0.1,0h-1.6c-0.3,0-0.6,0-0.9,0h-0.1c-0.1,0-0.2-0.1-0.2-0.2s0-0.2,0.2-0.2h0.1h0.1
	c0.2,0,0.3-0.1,0.3-0.4L164.2,11.1z"/>
<path class="st0" d="M168.6,12.2c0-0.1,0.1-0.2,0.3-0.2c0-0.1-0.1-0.2-0.2-0.3c-0.1-0.1-0.2-0.1-0.4-0.1c-0.2,0-0.4,0.1-0.6,0.3
	c-0.1,0.2-0.2,0.5-0.2,0.8c0,0.3,0.1,0.5,0.2,0.8c0.1,0.2,0.3,0.3,0.6,0.3c0.1,0,0.3,0,0.4-0.1c0.1-0.1,0.2-0.2,0.2-0.3
	c0-0.1,0.1-0.2,0.1-0.2c0-0.1,0.1-0.1,0.2-0.1c0.1,0,0.1,0,0.1,0.1c0,0,0.1,0.1,0.1,0.1c0,0.1,0,0.2-0.1,0.3c0,0.1-0.1,0.2-0.2,0.3
	c-0.2,0.2-0.5,0.3-0.8,0.3c-0.3,0-0.6-0.1-0.9-0.4c-0.2-0.3-0.3-0.6-0.3-1c0-0.4,0.1-0.7,0.3-1c0.2-0.3,0.5-0.4,0.9-0.4
	c0.2,0,0.5,0.1,0.7,0.2c0.2,0.1,0.3,0.3,0.3,0.6c0,0.1,0,0.2-0.1,0.3c-0.1,0.1-0.2,0.1-0.3,0.1c-0.1,0-0.2,0-0.2-0.1
	C168.7,12.3,168.6,12.3,168.6,12.2z"/>
<path class="st0" d="M170.9,14c-0.3,0-0.6-0.1-0.9-0.4c-0.4-0.6-0.4-1.4,0-2c0.2-0.2,0.5-0.4,0.9-0.4c0.3,0,0.7,0.1,0.9,0.4
	c0.2,0.3,0.4,0.6,0.3,1c0,0.4-0.1,0.7-0.3,1C171.6,13.9,171.3,14,170.9,14z M170.9,11.6c-0.2,0-0.4,0.1-0.6,0.3
	c-0.2,0.2-0.2,0.5-0.2,0.7v0.1c0,0.3,0.1,0.5,0.2,0.8c0.1,0.2,0.3,0.3,0.6,0.3c0.2,0,0.4-0.1,0.6-0.3c0.2-0.2,0.2-0.5,0.2-0.8
	C171.8,11.9,171.5,11.6,170.9,11.6L170.9,11.6z"/>
<path class="st0" d="M173.4,11.5v0.2c0.2-0.3,0.5-0.4,0.8-0.4c0.2,0,0.4,0,0.5,0.1c0.1,0.1,0.3,0.2,0.3,0.3c0,0.1,0.1,0.3,0.1,0.5
	v1.2c0,0.1,0.1,0.2,0.1,0.2h0.2c0,0,0.1,0,0.1,0c0,0,0,0.1,0,0.1c0,0,0,0.1-0.1,0.1c0,0-0.1,0.1-0.1,0.1h-0.2h-0.3h-0.2h-0.3
	c-0.1,0-0.2-0.1-0.2-0.2s0.1-0.2,0.2-0.2h0.1h0.1c0.1,0,0.1-0.1,0.1-0.3v-1c0-0.1,0-0.3,0-0.4c0-0.1-0.1-0.2-0.2-0.3
	c-0.1-0.1-0.3-0.1-0.4-0.1c-0.2,0-0.5,0.1-0.6,0.3c-0.1,0.2-0.1,0.5-0.1,0.7v0.7c0,0.1,0,0.2,0,0.3c0,0.1,0.1,0.1,0.1,0.1h0.1h0.1
	c0.1,0,0.1,0.1,0.1,0.2s-0.1,0.2-0.2,0.2h-0.3h-0.2c-0.1,0-0.2,0-0.3,0h-0.3c-0.1,0-0.2-0.1-0.2-0.2c0-0.1,0-0.1,0.1-0.2
	c0,0,0,0,0,0h0.1h0.1c0.1,0,0.2-0.1,0.2-0.3v-1.3c0-0.1,0-0.2,0-0.2c0,0-0.1-0.1-0.1-0.1h-0.1h-0.1c-0.1,0-0.2-0.1-0.2-0.2
	s0.1-0.2,0.2-0.2l0,0h0.2c0,0,0.1,0,0.1,0h0.1c0.1-0.1,0.1-0.1,0.2,0S173.4,11.4,173.4,11.5L173.4,11.5z"/>
<path class="st0" d="M177,14c-0.3,0-0.7-0.1-0.9-0.4c-0.2-0.3-0.3-0.6-0.3-1c0-0.4,0.1-0.7,0.3-1c0.2-0.2,0.5-0.4,0.9-0.4
	c0.3,0,0.7,0.1,0.9,0.4c0.2,0.3,0.3,0.6,0.3,1c0,0.4-0.1,0.7-0.3,1C177.7,13.9,177.3,14,177,14z M177,11.6c-0.2,0-0.4,0.1-0.6,0.3
	c-0.2,0.2-0.2,0.5-0.2,0.7v0.1c0,0.3,0.1,0.5,0.2,0.8c0.1,0.2,0.3,0.3,0.6,0.3c0.2,0,0.4-0.1,0.6-0.3c0.2-0.2,0.2-0.5,0.2-0.8
	C177.8,11.9,177.6,11.6,177,11.6L177,11.6z M177.6,10.5c0,0.1-0.1,0.2-0.2,0.2l-0.7,0.3h-0.1c-0.1,0-0.1,0-0.1-0.1s0-0.1,0.1-0.1
	l0.6-0.4c0.1,0,0.1,0,0.2,0C177.5,10.3,177.5,10.3,177.6,10.5C177.6,10.4,177.6,10.4,177.6,10.5L177.6,10.5z"/>
<path class="st0" d="M179.4,11.5v0.2c0.1-0.1,0.2-0.2,0.4-0.3c0.1-0.1,0.3-0.1,0.4-0.1c0.3,0,0.6,0.1,0.7,0.4
	c0.1-0.1,0.2-0.2,0.4-0.3c0.1-0.1,0.3-0.1,0.5-0.1c0.2,0,0.4,0,0.5,0.1c0.2,0.1,0.3,0.2,0.4,0.4c0,0.2,0.1,0.4,0.1,0.5v0.9
	c0,0.1,0,0.2,0,0.3s0.1,0.2,0.1,0.2h0.1h0.1c0.1,0,0.2,0,0.2,0.2c0,0.1-0.1,0.2-0.2,0.2h-0.2c-0.1,0-0.2,0-0.2,0c-0.1,0-0.2,0-0.3,0
	H182c-0.1,0-0.2-0.1-0.2-0.2s0.1-0.2,0.2-0.2h0.2c0.1,0,0.1,0,0.1-0.1c0,0,0,0,0,0c0-0.1,0-0.3,0-0.4v-0.7c0-0.2,0-0.3-0.1-0.5
	c0-0.1-0.1-0.2-0.2-0.3c-0.1-0.1-0.2-0.1-0.3-0.1c-0.2,0-0.4,0.1-0.5,0.2c-0.1,0.2-0.1,0.5-0.1,0.7v0.4c0,0.2,0,0.4,0,0.6
	c0,0.1,0,0.1,0.1,0.1h0.2c0,0,0.1,0,0.1,0c0,0,0,0.1,0.1,0.1c0,0.1-0.1,0.2-0.2,0.2H181h-0.2h-0.2h-0.2c-0.1,0-0.2-0.1-0.2-0.2
	s0-0.2,0.1-0.2h0.1h0.1c0.1,0,0.1-0.1,0.1-0.3v-0.2v-0.7c0-0.2,0-0.4-0.1-0.6c-0.1-0.1-0.3-0.2-0.4-0.2c-0.2,0-0.4,0.1-0.5,0.2
	c-0.1,0.2-0.2,0.5-0.1,0.7v0.7c0,0.1,0,0.2,0,0.2c0,0.1,0,0.2,0.1,0.2h0.1h0.1c0.1,0,0.2,0.1,0.2,0.2s-0.1,0.2-0.2,0.2h-0.2
	c-0.1,0-0.2,0-0.3,0c-0.1,0-0.2,0-0.2,0h-0.3c-0.1,0-0.2-0.1-0.2-0.2s0.1-0.2,0.2-0.2h0.1h0.1l0,0c0.1,0,0.1-0.1,0.2-0.2v-1
	c0-0.2,0-0.4,0-0.5c0-0.1,0-0.1-0.1-0.1c0,0,0,0,0,0h-0.1h-0.1c-0.1,0-0.2-0.1-0.2-0.2s0.1-0.2,0.2-0.2h0.4h0.1l0,0
	C179.3,11.3,179.4,11.4,179.4,11.5z"/>
<path class="st0" d="M184.3,12.4v1c0,0.2,0.1,0.2,0.1,0.2h0.1h0.1c0.1,0,0.2,0.1,0.2,0.2c0,0,0,0.1-0.1,0.1c0,0-0.1,0.1-0.2,0.1
	c-0.1,0-0.2,0-0.2,0h-0.2c-0.1,0-0.2,0-0.3,0c-0.1,0-0.2,0-0.3,0c-0.1,0-0.2-0.1-0.2-0.2s0.1-0.2,0.2-0.2h0.2c0.1,0,0.1-0.1,0.1-0.3
	v-1.4c0-0.2-0.1-0.3-0.2-0.3h-0.1h-0.1c-0.1,0-0.2-0.1-0.2-0.2s0.1-0.2,0.2-0.2h0.1h0.2h0.2c0.1,0,0.2,0.1,0.2,0.2c0,0,0,0,0,0.1
	v0.1c0,0.1,0,0.2,0,0.3L184.3,12.4z M184,11c-0.1,0-0.2,0-0.2-0.1c-0.1-0.1-0.1-0.1-0.1-0.2c0-0.1,0-0.1,0.1-0.2
	c0.1-0.1,0.1-0.1,0.2-0.1c0.1,0,0.1,0,0.2,0.1c0.1,0,0.1,0.1,0.1,0.2c0,0.1,0,0.1-0.1,0.2C184.1,11,184.1,11,184,11z"/>
<path class="st0" d="M186.5,12.2c0-0.1,0.1-0.2,0.3-0.2c0-0.1-0.1-0.2-0.2-0.3c-0.1-0.1-0.2-0.1-0.4-0.1c-0.2,0-0.4,0.1-0.6,0.3
	c-0.3,0.5-0.3,1,0,1.5c0.1,0.2,0.3,0.3,0.6,0.3c0.1,0,0.3,0,0.4-0.1c0.1-0.1,0.2-0.2,0.2-0.3c0-0.1,0-0.1,0.1-0.2
	c0-0.1,0.1-0.1,0.2-0.1c0.1,0,0.1,0,0.1,0.1c0,0,0.1,0.1,0.1,0.1c0,0.1,0,0.2-0.1,0.3c0,0.1-0.1,0.2-0.2,0.3c-0.5,0.4-1.2,0.4-1.6,0
	c0,0,0,0,0,0c-0.2-0.3-0.4-0.6-0.3-1c0-0.4,0.1-0.7,0.3-1c0.2-0.3,0.5-0.4,0.9-0.4c0.2,0,0.5,0.1,0.7,0.2c0.2,0.1,0.3,0.3,0.3,0.6
	c0,0.1,0,0.2-0.1,0.3c-0.1,0.1-0.2,0.1-0.3,0.1c-0.1,0-0.2,0-0.2-0.1C186.6,12.3,186.5,12.3,186.5,12.2z"/>
<path class="st0" d="M107,16.4c0.3,0,0.6,0.1,0.8,0.4v-0.5c0-0.1,0-0.2,0-0.2c0-0.1-0.1-0.2-0.1-0.2c0,0-0.1,0-0.1,0h-0.1
	c-0.1,0-0.2,0-0.2-0.2s0.1-0.2,0.3-0.2h0.1h0.2h0.1h0.1c0.1,0,0.1,0.1,0.1,0.2v0.3c0,0,0,0.2,0,0.4s0,0.3,0,0.4v1.4
	c0,0.1,0,0.3,0,0.4c0,0.1,0.1,0.1,0.1,0.1h0.2c0.1,0,0.2,0.1,0.2,0.2s-0.1,0.2-0.2,0.2h-0.5c-0.1,0-0.1-0.1-0.1-0.2v-0.1
	c-0.2,0.2-0.5,0.4-0.8,0.4c-0.3,0-0.6-0.1-0.8-0.4c-0.2-0.3-0.3-0.6-0.3-1c0-0.4,0.1-0.7,0.3-1C106.4,16.6,106.7,16.4,107,16.4z
	 M107.7,18.3c0-0.1,0-0.3,0-0.4c0-0.2,0-0.3,0-0.5c0-0.2-0.1-0.3-0.2-0.4c-0.1-0.1-0.3-0.2-0.5-0.2c-0.2,0-0.4,0.1-0.6,0.3
	c-0.1,0.2-0.2,0.5-0.2,0.8c0,0.3,0.1,0.5,0.2,0.8c0.3,0.3,0.7,0.4,1.1,0.1C107.7,18.6,107.7,18.4,107.7,18.3z"/>
<path class="st0" d="M111.3,17.6c0,0.1,0,0.2,0,0.2c0,0-0.1,0-0.2,0h-1.6c0,0-0.1,0-0.1,0c0,0,0,0,0,0.1c0,0.2,0.1,0.5,0.2,0.7
	c0.1,0.2,0.4,0.3,0.6,0.3c0.1,0,0.3,0,0.4-0.1c0.1-0.1,0.2-0.2,0.2-0.3v-0.2c0-0.1,0.1-0.1,0.2-0.1c0.1,0,0.2,0.1,0.2,0.2
	c0,0.2-0.1,0.5-0.3,0.6c-0.2,0.2-0.5,0.3-0.8,0.3c-0.3,0-0.6-0.1-0.8-0.4c-0.2-0.3-0.3-0.6-0.3-1c0-0.4,0.1-0.7,0.3-1
	c0.2-0.3,0.5-0.4,0.9-0.4c0.3,0,0.6,0.1,0.8,0.3C111.2,17,111.3,17.3,111.3,17.6z M109.4,17.5c0,0,0,0.1,0.1,0.1h1.2
	c0.1,0,0.1,0,0.1-0.1c0-0.2-0.1-0.4-0.2-0.5c-0.1-0.1-0.3-0.2-0.5-0.2c-0.2,0-0.4,0.1-0.5,0.2C109.5,17.1,109.4,17.3,109.4,17.5z"/>
<path class="st0" d="M113.7,17v1.6c0,0.2,0.1,0.3,0.1,0.3c0,0,0.1,0,0.1,0h0.1c0.1,0,0.2,0.1,0.2,0.2s-0.1,0.2-0.2,0.2
	c-0.1,0-0.2,0-0.3,0h-0.3h-0.2c-0.1,0-0.2,0-0.2,0l0,0c-0.1,0-0.2-0.1-0.2-0.2s0.1-0.2,0.2-0.2h0.1h0.2c0.1,0,0.1,0,0.1-0.1
	c0-0.1,0-0.3,0-0.4v-2.1c0-0.1,0-0.1,0-0.2c0-0.1-0.1-0.1-0.2-0.1h-0.1H113c-0.1,0-0.2,0-0.2-0.2s0.1-0.2,0.2-0.2h0.1h0.1h0.1h0.2
	h0.2c0.1,0,0.1,0,0.1,0.2v0.1C113.8,16.1,113.7,16.5,113.7,17z"/>
<path class="st0" d="M116.7,19.2c-0.2,0-0.5-0.1-0.5-0.4c-0.2,0.3-0.5,0.4-0.8,0.4c-0.2,0-0.5-0.1-0.7-0.2c-0.3-0.3-0.3-0.7-0.1-1
	c0.1-0.1,0.1-0.1,0.2-0.2c0.1,0,0.2-0.1,0.2-0.1c0.1,0,0.3-0.1,0.4-0.1c0.2,0,0.4-0.1,0.6-0.1c0.1-0.1,0.1-0.2,0.1-0.3
	c0-0.1-0.1-0.3-0.2-0.3c-0.1-0.1-0.3-0.1-0.4-0.1c-0.2,0-0.3,0-0.4,0.1c0,0-0.1,0.1-0.1,0.1l0,0c0.1,0.1,0.1,0.2,0,0.3c0,0,0,0,0,0
	c-0.1,0-0.1,0.1-0.2,0.1c-0.1,0-0.2,0-0.2-0.1c-0.1-0.1-0.1-0.1-0.1-0.2c0-0.2,0.1-0.4,0.3-0.5c0.2-0.1,0.5-0.2,0.7-0.2
	c0.4-0.1,0.9,0.2,0.9,0.7c0,0.1,0,0.2,0,0.2v1c0,0.1,0,0.2,0,0.3c0,0.1,0.1,0.2,0.2,0.2c0.1,0,0.2-0.1,0.2-0.3v-0.2
	c0-0.1,0-0.2,0.2-0.2s0.2,0.1,0.2,0.2v0.3c0.1,0.2-0.1,0.5-0.3,0.6C116.8,19.2,116.8,19.2,116.7,19.2z M116.2,18.2v-0.4
	c-0.1,0.1-0.1,0.1-0.2,0.1c-0.1,0-0.3,0.1-0.4,0.1c-0.4,0-0.6,0.2-0.6,0.4c0,0.1,0,0.2,0.1,0.3c0.1,0.1,0.3,0.1,0.4,0.1
	c0.2,0,0.4-0.1,0.5-0.2C116.1,18.6,116.2,18.4,116.2,18.2L116.2,18.2z"/>
<path class="st0" d="M120.2,15.6c0.4,0,0.7,0.1,0.9,0.4v-0.1l0,0c0-0.1,0-0.1,0-0.1s0-0.2,0.2-0.2s0.2,0.1,0.2,0.2s0,0.1,0,0.2
	s0,0.3,0,0.3c0,0.1,0,0.2,0,0.3v0.2V17c0,0.2-0.1,0.2-0.2,0.2s-0.2-0.1-0.2-0.2v-0.2c0-0.2-0.1-0.4-0.2-0.6
	c-0.2-0.2-0.4-0.2-0.6-0.2c-0.3,0-0.6,0.1-0.8,0.4c-0.2,0.3-0.3,0.7-0.3,1.1c0,0.4,0.1,0.8,0.3,1.1c0.2,0.3,0.5,0.4,0.8,0.4
	c0.2,0,0.4,0,0.5-0.2c0.1-0.1,0.3-0.2,0.3-0.4c0-0.1,0.1-0.3,0.1-0.4c0-0.2,0.1-0.2,0.2-0.2s0.2,0.1,0.2,0.2c0,0.3-0.1,0.7-0.4,0.9
	c-0.3,0.2-0.6,0.4-1,0.3c-0.4,0-0.8-0.2-1.1-0.5c-0.3-0.4-0.4-0.8-0.4-1.3c0-0.5,0.1-1,0.4-1.4C119.4,15.8,119.8,15.6,120.2,15.6z"
	/>
<path class="st0" d="M122.8,17.6v1c0,0.2,0.1,0.2,0.1,0.2h0.1h0.1c0.1,0,0.2,0.1,0.2,0.2c0,0,0,0.1-0.1,0.1c-0.1,0-0.1,0-0.2,0
	c-0.1,0-0.2,0-0.2,0c-0.1,0-0.2,0-0.2,0c-0.1,0-0.2,0-0.3,0h-0.3c-0.1,0-0.2-0.1-0.2-0.2s0.1-0.2,0.2-0.2h0.1h0.1
	c0.1,0,0.1-0.1,0.2-0.3v-1.3c0-0.2-0.1-0.3-0.2-0.3h-0.1h-0.1c-0.1,0-0.2,0-0.2-0.2s0.1-0.2,0.2-0.2h0.1h0.2h0.2
	c0.1,0,0.2,0.1,0.2,0.2v0.1c0,0,0,0,0,0.1c0,0,0,0.1,0,0.3L122.8,17.6z M122.6,16.3c-0.1,0-0.1,0-0.2-0.1c-0.1-0.1-0.1-0.1-0.1-0.2
	c0-0.1,0-0.1,0.1-0.2c0.1-0.1,0.1-0.1,0.2-0.1c0.1,0,0.2,0,0.2,0.1c0.1,0.1,0.1,0.1,0.1,0.2C122.9,16.1,122.7,16.3,122.6,16.3
	C122.6,16.3,122.6,16.3,122.6,16.3z"/>
<path class="st0" d="M125.7,19v-0.2c-0.2,0.3-0.5,0.4-0.8,0.4c-0.3,0-0.6-0.1-0.8-0.4c-0.1-0.1-0.1-0.2-0.1-0.4v-0.9
	c0-0.5-0.1-0.7-0.2-0.7h-0.2c-0.1,0-0.2-0.1-0.2-0.2s0.1-0.2,0.2-0.2h0.2h0.2h0.2h0.1c0.1,0,0.2,0.1,0.2,0.2v1.2
	c0,0.2,0,0.4,0.1,0.7c0.1,0.2,0.3,0.4,0.6,0.3c0.1,0,0.3,0,0.4-0.1c0.1-0.1,0.2-0.2,0.2-0.3c0.1-0.2,0.1-0.5,0.1-0.8v-0.6
	c0-0.2-0.1-0.2-0.1-0.2h-0.2c-0.1,0-0.2-0.1-0.2-0.2s0.1-0.2,0.2-0.2h0.5c0.1,0,0.1,0,0.2,0.1c0,0,0,0,0,0c0,0,0,0.1,0,0.1
	c0,0.2,0,0.4,0,0.6v0.8c0,0.1,0,0.2,0,0.3c0,0.2,0.1,0.3,0.1,0.3h0.2c0.1,0,0.2,0,0.2,0.1c0,0,0,0,0,0c0,0.1-0.1,0.2-0.2,0.2h-0.5
	c-0.1,0-0.1,0-0.2,0C125.7,19.1,125.7,19,125.7,19z"/>
<path class="st0" d="M127.9,16.4c0.3,0,0.6,0.1,0.8,0.4v-0.5c0-0.1,0-0.2,0-0.2c0-0.1-0.1-0.2-0.1-0.2c0,0-0.1,0-0.1,0h-0.1
	c-0.1,0-0.2,0-0.2-0.2s0.1-0.2,0.3-0.2h0.1h0.2h0.1h0.1c0.1,0,0.1,0.1,0.1,0.2v0.1c0,0.1,0,0.2,0,0.3c0,0,0,0.2,0,0.4s0,0.3,0,0.4
	v1.4c0,0.1,0,0.3,0,0.4c0,0.1,0.1,0.1,0.1,0.1h0.2c0.1,0,0.2,0.1,0.2,0.2s-0.1,0.2-0.2,0.2h-0.5c-0.1,0-0.1-0.1-0.1-0.2v-0.1
	c-0.2,0.3-0.5,0.4-0.8,0.4c-0.3,0-0.6-0.1-0.8-0.4c-0.2-0.3-0.3-0.6-0.3-1c0-0.4,0.1-0.7,0.3-1C127.3,16.6,127.6,16.4,127.9,16.4z
	 M128.6,18.3c0-0.1,0-0.3,0-0.4c0-0.2,0-0.3,0-0.5c0-0.2-0.1-0.3-0.2-0.4c-0.1-0.1-0.3-0.2-0.5-0.2c-0.2,0-0.4,0.1-0.6,0.3
	c-0.1,0.2-0.2,0.5-0.2,0.8c0,0.3,0.1,0.5,0.2,0.8c0.1,0.2,0.4,0.3,0.6,0.3c0.2,0,0.3-0.1,0.5-0.2C128.6,18.6,128.6,18.4,128.6,18.3z
	"/>
<path class="st0" d="M133.7,16.4c0.3,0,0.6,0.1,0.8,0.4v-0.5c0-0.1,0-0.2,0-0.2c0-0.1-0.1-0.2-0.1-0.2c0,0-0.1,0-0.1,0h-0.1
	c-0.1,0-0.2,0-0.2-0.2s0.1-0.2,0.3-0.2h0.1h0.2h0.1h0.1c0.1,0,0.1,0.1,0.1,0.2v0.1c0,0,0,0.1,0,0.3c0,0,0,0.2,0,0.4s0,0.3,0,0.4v1.4
	c0,0.1,0,0.3,0,0.4c0,0.1,0.1,0.1,0.1,0.1h0.2c0.1,0,0.2,0.1,0.2,0.2s-0.1,0.2-0.2,0.2h-0.5c-0.1,0-0.1-0.1-0.1-0.2v-0.1
	c-0.2,0.2-0.5,0.4-0.8,0.4c-0.3,0-0.6-0.1-0.8-0.4c-0.2-0.3-0.3-0.6-0.3-1c0-0.4,0.1-0.7,0.3-1C133.1,16.6,133.4,16.4,133.7,16.4z
	 M134.4,18.3c0-0.1,0-0.3,0-0.4c0-0.2,0-0.3,0-0.5c0-0.2-0.1-0.3-0.2-0.4c-0.1-0.1-0.3-0.2-0.5-0.2c-0.2,0-0.4,0.1-0.6,0.3
	c-0.1,0.2-0.2,0.5-0.2,0.8c0,0.3,0.1,0.5,0.2,0.8c0.1,0.2,0.4,0.3,0.6,0.3c0.2,0,0.3,0,0.5-0.2C134.3,18.6,134.4,18.4,134.4,18.3
	L134.4,18.3z"/>
<path class="st0" d="M139.5,18.5l-0.2-0.5c0,0,0-0.1-0.1-0.1h-0.1h-0.9c-0.1,0-0.1,0-0.1,0c0,0.1-0.1,0.1-0.1,0.2l-0.1,0.4
	c0,0,0,0.1,0,0.1c0,0.1,0.1,0.2,0.2,0.2h0.3c0.1,0,0.2,0.1,0.2,0.2c0,0.1-0.1,0.2-0.2,0.2h-0.1h-0.2h-0.5h-0.2h-0.2
	c-0.1,0-0.2-0.1-0.2-0.2s0.1-0.2,0.2-0.2h0.1h0.1c0.1,0,0.2,0,0.2-0.1c0-0.1,0.1-0.2,0.1-0.2l1-2.6c0-0.1,0.2-0.2,0.3-0.2
	c0.1,0,0.3,0.1,0.3,0.2l0.9,2.6c0,0.1,0.1,0.2,0.2,0.3c0.1,0.1,0.1,0.1,0.2,0.1h0.2c0.1,0,0.2,0.1,0.2,0.2s-0.1,0.2-0.2,0.2h-0.1
	h-0.5h-0.6H139c-0.1,0-0.2-0.1-0.2-0.2s0.1-0.2,0.2-0.2h0.3c0.1,0,0.2,0,0.2-0.1C139.5,18.6,139.5,18.6,139.5,18.5z M139.1,17.5
	l-0.5-1.4l-0.5,1.4l0,0c0,0,0,0,0.1,0H139.1L139.1,17.5C139.1,17.5,139.1,17.5,139.1,17.5L139.1,17.5z"/>
<path class="st0" d="M142.8,19v-0.2c-0.2,0.2-0.5,0.4-0.8,0.4c-0.3,0-0.7-0.1-0.8-0.4c-0.1-0.1-0.1-0.2-0.1-0.4v-0.9
	c0-0.5-0.1-0.7-0.1-0.7h-0.2c-0.1,0-0.2-0.1-0.2-0.2s0.1-0.2,0.2-0.2h0.2h0.1h0.2h0.1c0.1,0,0.2,0.1,0.2,0.2v1.2
	c0,0.2,0,0.4,0.1,0.7c0.1,0.2,0.3,0.4,0.6,0.3c0.1,0,0.3,0,0.4-0.1c0.1-0.1,0.2-0.2,0.2-0.3c0.1-0.2,0.1-0.5,0.1-0.8v-0.6
	c0-0.2-0.1-0.2-0.1-0.2h-0.1c-0.1,0-0.2-0.1-0.2-0.2s0.1-0.2,0.2-0.2h0.5c0.1,0,0.1,0.1,0.2,0.1c0,0,0,0,0,0c0,0,0,0.1,0,0.1
	c0,0.2,0,0.4,0,0.6v1.1c0,0.2,0.1,0.3,0.1,0.3h0.2c0.1,0,0.2,0.1,0.2,0.2s-0.1,0.2-0.2,0.2h-0.5C142.8,19.1,142.8,19.1,142.8,19z"/>
<path class="st0" d="M145.3,18.4v-0.3c0-0.1,0.1-0.2,0.2-0.2c0.1,0,0.2,0.1,0.2,0.2c0,0.3,0,0.5-0.1,0.8c-0.1,0.2-0.4,0.3-0.6,0.3
	c-0.2,0-0.4-0.1-0.6-0.3c-0.1-0.2-0.1-0.4-0.1-0.7V17c0-0.1,0-0.1-0.1-0.1h-0.2c-0.1,0-0.1,0-0.1-0.1c0,0-0.1-0.1-0.1-0.1
	c0,0,0-0.1,0.1-0.1c0,0,0.1,0,0.1,0h0.2c0.1,0,0.1,0,0.1-0.1V16c0-0.1,0.1-0.2,0.2-0.2c0,0,0,0,0,0c0.1,0,0.2,0.1,0.2,0.2
	c0,0,0,0,0,0v0.6c0,0,0,0.1,0.1,0.1h0.6c0.1,0,0.2,0.1,0.2,0.2s-0.1,0.2-0.2,0.2h-0.6c-0.1,0-0.1,0-0.1,0.1v1.2
	c0,0.4,0.1,0.5,0.4,0.5S145.3,18.7,145.3,18.4z"/>
<path class="st0" d="M147.1,19.2c-0.3,0-0.6-0.1-0.9-0.4c-0.4-0.6-0.4-1.4,0-2c0.2-0.2,0.5-0.4,0.9-0.4c0.3,0,0.7,0.1,0.9,0.4
	c0.2,0.3,0.4,0.6,0.3,1c0,0.4-0.1,0.7-0.3,1C147.8,19.1,147.4,19.2,147.1,19.2z M147.1,16.8c-0.2,0-0.4,0.1-0.6,0.2
	c-0.2,0.2-0.2,0.5-0.2,0.7v0.1c0,0.3,0.1,0.5,0.2,0.8c0.1,0.2,0.3,0.3,0.6,0.3c0.2,0,0.4-0.1,0.6-0.3c0.2-0.2,0.2-0.5,0.2-0.8
	C147.9,17.1,147.6,16.8,147.1,16.8L147.1,16.8z M147.6,15.7c0,0.1-0.1,0.2-0.2,0.2l-0.7,0.3h-0.1c-0.1,0-0.1,0-0.1-0.1
	s0-0.1,0.1-0.1l0.6-0.4c0.1,0,0.1,0,0.2,0C147.6,15.5,147.7,15.6,147.6,15.7L147.6,15.7z"/>
<path class="st0" d="M149.5,16.7v0.1c0.2-0.3,0.5-0.4,0.8-0.4c0.2,0,0.4,0,0.5,0.1c0.1,0.1,0.3,0.2,0.3,0.4c0.1,0.1,0.1,0.3,0.1,0.4
	v1.2c0,0.1,0.1,0.2,0.1,0.2h0.1h0.1c0,0,0.1,0,0.1,0c0,0,0,0.1,0,0.1c0,0.1,0,0.1-0.1,0.1c0,0-0.1,0-0.1,0c-0.1,0-0.2,0-0.2,0H151
	h-0.2h-0.3c-0.1,0-0.2-0.1-0.2-0.2s0.1-0.2,0.2-0.2h0.1h0.1c0.1,0,0.1-0.1,0.1-0.3v-1c0-0.1,0-0.3,0-0.4c0-0.1-0.1-0.2-0.2-0.3
	c-0.1-0.1-0.3-0.1-0.4-0.1c-0.2,0-0.5,0.1-0.6,0.3c-0.1,0.2-0.2,0.4-0.1,0.7v0.7c0,0.1,0,0.2,0,0.3c0,0,0.1,0.1,0.1,0.1h0.1h0.1
	c0.1,0,0.2,0.1,0.2,0.2s-0.1,0.2-0.2,0.2h-0.3h-0.2c-0.1,0-0.2,0-0.3,0h-0.2c-0.1,0-0.2-0.1-0.2-0.2c0-0.1,0-0.2,0.1-0.2
	c0,0,0,0,0,0h0.1h0.2c0.1,0,0.1-0.1,0.2-0.3v-1.2c0-0.1,0-0.2,0-0.2c0,0-0.1-0.1-0.1-0.1h-0.1h-0.1c-0.1,0-0.2-0.1-0.2-0.2
	s0.1-0.2,0.2-0.2h0.1h0.2h0.1h0.1C149.4,16.5,149.5,16.6,149.5,16.7z"/>
<path class="st0" d="M153.2,19.2c-0.3,0-0.6-0.1-0.9-0.4c-0.2-0.3-0.3-0.6-0.3-1c0-0.4,0.1-0.7,0.3-1c0.2-0.2,0.5-0.4,0.9-0.4
	c0.3,0,0.7,0.1,0.9,0.4c0.2,0.3,0.3,0.6,0.3,1c0,0.4-0.1,0.7-0.3,1C153.8,19.1,153.5,19.2,153.2,19.2z M153.2,16.8
	c-0.2,0-0.4,0.1-0.6,0.2c-0.2,0.2-0.2,0.5-0.2,0.7v0.1c0,0.3,0.1,0.5,0.2,0.8c0.1,0.2,0.4,0.3,0.6,0.3c0.2,0,0.4-0.1,0.6-0.3
	c0.2-0.2,0.2-0.5,0.2-0.8C154,17.1,153.7,16.8,153.2,16.8L153.2,16.8z"/>
<path class="st0" d="M155.6,16.7v0.1c0.1-0.1,0.2-0.2,0.4-0.3c0.1-0.1,0.3-0.1,0.4-0.1c0.3,0,0.6,0.1,0.7,0.4
	c0.1-0.1,0.2-0.2,0.4-0.3c0.1-0.1,0.3-0.1,0.5-0.1c0.2,0,0.4,0,0.5,0.1c0.2,0.1,0.3,0.2,0.4,0.4c0.1,0.2,0.1,0.4,0.1,0.5v1.1
	c0,0.1,0.1,0.2,0.1,0.2h0.1h0.1c0.1,0,0.2,0.1,0.2,0.2s-0.1,0.2-0.2,0.2c-0.1,0-0.2,0-0.2,0h-0.5c-0.1,0-0.2,0-0.3,0
	c-0.1,0-0.2-0.1-0.2-0.2c0-0.1,0-0.1,0.1-0.2c0,0,0,0,0,0h0.1h0.1c0.1,0,0.1,0,0.1-0.1c0,0,0,0,0,0c0-0.1,0-0.3,0-0.4v-0.7
	c0-0.2,0-0.4-0.1-0.5c0-0.1-0.1-0.2-0.2-0.2c-0.1-0.1-0.2-0.1-0.3-0.1c-0.2,0-0.4,0.1-0.5,0.2c-0.1,0.2-0.1,0.5-0.1,0.7v0.4
	c0,0.3,0,0.5,0,0.6s0.1,0.1,0.1,0.1h0.1h0.1c0,0,0.1,0,0.1,0c0,0,0.1,0.1,0.1,0.1c0,0.1-0.1,0.2-0.2,0.2c-0.1,0-0.2,0-0.2,0H157
	h-0.2c-0.1,0-0.2,0-0.2,0c-0.1,0-0.2-0.1-0.2-0.2c0-0.1,0-0.1,0.1-0.2c0,0,0,0,0,0h0.1h0.1c0.1,0,0.1-0.1,0.1-0.3v-0.2v-0.7
	c0-0.2,0-0.4-0.1-0.6c-0.1-0.1-0.3-0.2-0.4-0.2c-0.2,0-0.4,0.1-0.5,0.2c-0.1,0.2-0.2,0.5-0.1,0.7v0.9c0,0.1,0.1,0.2,0.1,0.2h0.1h0.1
	c0.1,0,0.2,0.1,0.2,0.2s-0.1,0.2-0.2,0.2h-0.2c-0.1,0-0.2,0-0.3,0h-0.2h-0.3c-0.1,0-0.2-0.1-0.2-0.2c0-0.1,0.1-0.2,0.2-0.2h0.1h0.1
	l0,0c0,0,0.1-0.1,0.1-0.2v-1c0-0.2,0-0.4,0-0.5c0-0.1-0.1-0.1-0.1-0.1h-0.1h-0.1c-0.1,0-0.2,0-0.2-0.2s0.1-0.2,0.2-0.2h0.4h0.1l0,0
	C155.5,16.5,155.6,16.6,155.6,16.7z"/>
<path class="st0" d="M161.8,19.2c-0.2,0-0.5-0.1-0.5-0.4c-0.2,0.3-0.5,0.4-0.8,0.4c-0.2,0-0.5-0.1-0.7-0.2c-0.3-0.3-0.3-0.7-0.1-1
	c0.1-0.1,0.1-0.1,0.2-0.2c0.1,0,0.2-0.1,0.2-0.1l0.4-0.1c0.2,0,0.4-0.1,0.6-0.1c0.1-0.1,0.1-0.2,0.1-0.3c0-0.1-0.1-0.3-0.1-0.3
	c-0.1-0.1-0.3-0.1-0.4-0.1c-0.2,0-0.3,0-0.4,0.1c0,0-0.1,0.1-0.1,0.1l0,0c0.1,0,0.1,0.1,0.1,0.2c0,0.1,0,0.1-0.1,0.2
	c-0.1,0-0.1,0.1-0.2,0.1c-0.1,0-0.2,0-0.2-0.1c-0.1-0.1-0.1-0.1-0.1-0.2c0-0.2,0.1-0.4,0.3-0.5c0.2-0.1,0.4-0.2,0.7-0.2
	c0.6,0,0.9,0.3,0.9,0.9v1c0,0.1,0,0.2,0,0.3c0,0.1,0.1,0.2,0.2,0.2s0.2-0.1,0.2-0.3v-0.2c0-0.1,0.1-0.2,0.1-0.2s0.2,0.1,0.2,0.2v0.3
	c0.1,0.2-0.1,0.5-0.3,0.6C161.9,19.2,161.8,19.2,161.8,19.2z M161.2,18.2v-0.4c-0.1,0.1-0.2,0.1-0.2,0.1c-0.1,0-0.3,0.1-0.4,0.1
	c-0.4,0-0.6,0.2-0.6,0.4c0,0.1,0,0.2,0.1,0.3c0.1,0.1,0.2,0.1,0.4,0.1c0.2,0,0.4-0.1,0.6-0.2C161.1,18.6,161.2,18.4,161.2,18.2
	L161.2,18.2z"/>
<path class="st0" d="M164.9,16.4c0.3,0,0.6,0.1,0.8,0.4v-0.5c0-0.1,0-0.2,0-0.2c0-0.1-0.1-0.2-0.1-0.2c0,0-0.1,0-0.1,0h-0.1
	c-0.1,0-0.2,0-0.2-0.2s0.1-0.2,0.3-0.2h0.1h0.2h0.1h0.1c0.1,0,0.1,0.1,0.1,0.2v0.1c0,0,0,0.1,0,0.3c0,0,0,0.2,0,0.4s0,0.3,0,0.4v1.4
	c0,0.1,0,0.3,0,0.4c0,0.1,0.1,0.1,0.1,0.1h0.2c0.1,0,0.2,0.1,0.2,0.2s-0.1,0.2-0.2,0.2h-0.5c-0.1,0-0.1-0.1-0.1-0.2v-0.1
	c-0.2,0.2-0.5,0.4-0.8,0.4c-0.3,0-0.6-0.1-0.8-0.4c-0.2-0.3-0.3-0.6-0.3-1c0-0.4,0.1-0.7,0.3-1C164.3,16.6,164.6,16.4,164.9,16.4z
	 M165.6,18.3c0-0.1,0-0.3,0-0.4c0-0.2,0-0.3,0-0.5c0-0.2-0.1-0.3-0.2-0.4c-0.1-0.1-0.3-0.2-0.5-0.2c-0.2,0-0.4,0.1-0.6,0.3
	c-0.1,0.2-0.2,0.5-0.2,0.8c0,0.3,0.1,0.5,0.2,0.8c0.1,0.2,0.4,0.3,0.6,0.3c0.2,0,0.3,0,0.5-0.2C165.5,18.6,165.6,18.4,165.6,18.3z"
	/>
<path class="st0" d="M169.2,17.6c0,0.1,0,0.2,0,0.2c0,0-0.1,0-0.1,0h-1.6c0,0-0.1,0-0.1,0c0,0,0,0,0,0.1c0,0.2,0.1,0.5,0.2,0.7
	c0.1,0.2,0.4,0.3,0.6,0.3c0.1,0,0.3,0,0.4-0.1c0.1-0.1,0.2-0.2,0.2-0.3v-0.2c0-0.1,0.1-0.1,0.2-0.1c0.1,0,0.2,0.1,0.2,0.2
	c0,0.2-0.1,0.5-0.3,0.6c-0.2,0.2-0.5,0.3-0.8,0.3c-0.3,0-0.6-0.1-0.9-0.4c-0.2-0.3-0.3-0.6-0.3-1c0-0.4,0.1-0.7,0.3-1
	c0.2-0.3,0.5-0.4,0.9-0.4c0.3,0,0.6,0.1,0.8,0.3C169.1,17,169.2,17.3,169.2,17.6z M167.3,17.5c0,0,0,0.1,0.1,0.1h1.2
	c0.1,0,0.1,0,0.1-0.1c0-0.2-0.1-0.4-0.2-0.5c-0.1-0.1-0.3-0.2-0.5-0.2c-0.2,0-0.4,0.1-0.5,0.2C167.4,17.1,167.3,17.3,167.3,17.5z"/>
<path class="st0" d="M173.8,16.5c0,0.4-0.2,0.7-0.6,0.7c0.1,0,0.2,0.1,0.4,0.2c0.3,0.1,0.4,0.4,0.4,0.7c0,0.3-0.1,0.6-0.4,0.8
	c-0.3,0.2-0.6,0.3-1,0.3H172c-0.2,0-0.4,0-0.5,0h-0.3H171h0c-0.1,0-0.2-0.1-0.2-0.2c0-0.1,0-0.1,0.1-0.2c0,0,0,0,0,0h0.2
	c0.2,0,0.3-0.1,0.3-0.4v-2c0-0.2-0.1-0.4-0.3-0.4h-0.2c-0.1,0-0.1,0-0.2-0.1c0,0,0,0,0,0c0-0.1,0.1-0.2,0.2-0.2h0h0.2h0.3h0.6h0.5
	c0.3,0,0.6,0.1,0.8,0.2C173.6,16,173.8,16.2,173.8,16.5z M171.8,16.7c0,0.1,0,0.2,0.1,0.3c0,0,0.1,0.1,0.3,0.1h0.3
	c0.6,0,0.9-0.2,0.9-0.6S173,16,172.5,16c-0.2,0-0.4,0-0.6,0.1c-0.1,0-0.1,0.2-0.1,0.3L171.8,16.7z M171.8,17.7v0.6
	c0,0.2,0,0.4,0.1,0.4c0.2,0.1,0.4,0.1,0.6,0.1c0.6,0,1-0.2,1-0.7s-0.3-0.7-0.9-0.7h-0.4c-0.2,0-0.3,0-0.3,0.1
	C171.8,17.6,171.8,17.7,171.8,17.7L171.8,17.7z"/>
<path class="st0" d="M176.5,19v-0.2c-0.2,0.2-0.5,0.4-0.8,0.4c-0.3,0-0.7-0.1-0.9-0.4c-0.1-0.1-0.1-0.2-0.1-0.4v-0.9
	c0-0.5,0-0.7-0.1-0.7h-0.2c-0.1,0-0.2-0.1-0.2-0.2s0.1-0.2,0.2-0.2h0.1h0.2h0.2h0.1c0.1,0,0.2,0.1,0.2,0.2v1.2c0,0.2,0,0.4,0.1,0.7
	c0.1,0.2,0.3,0.4,0.6,0.3c0.1,0,0.3,0,0.4-0.1c0.1-0.1,0.2-0.2,0.2-0.3c0.1-0.2,0.1-0.5,0.1-0.8v-0.6c0-0.2-0.1-0.2-0.1-0.2h-0.1
	c-0.1,0-0.2-0.1-0.2-0.2s0.1-0.2,0.2-0.2h0.5c0.1,0,0.1,0.1,0.2,0.1c0,0,0,0,0,0c0,0,0,0.1,0,0.1c0,0.1,0,0.3,0,0.6v0.8
	c0,0.2,0,0.3,0,0.3s0.1,0.3,0.1,0.3h0.2c0.1,0,0.2,0.1,0.2,0.2s-0.1,0.2-0.2,0.2h-0.5C176.5,19.1,176.5,19.1,176.5,19z"/>
<path class="st0" d="M179.9,17.6c0,0.1,0,0.2,0,0.2c0,0-0.1,0-0.1,0h-1.7c0,0-0.1,0-0.1,0c0,0,0,0,0,0.1c0,0.2,0.1,0.5,0.2,0.7
	c0.1,0.2,0.4,0.3,0.6,0.3c0.1,0,0.3,0,0.4-0.1c0.1-0.1,0.2-0.2,0.2-0.3v-0.2c0-0.1,0.1-0.1,0.2-0.1c0.1,0,0.2,0.1,0.2,0.2
	c0,0.2-0.1,0.5-0.3,0.6c-0.2,0.2-0.5,0.3-0.8,0.3c-0.3,0-0.6-0.1-0.9-0.4c-0.2-0.3-0.3-0.6-0.3-1c0-0.4,0.1-0.7,0.3-1
	c0.2-0.3,0.6-0.4,0.9-0.4c0.3,0,0.6,0.1,0.8,0.3C179.8,16.9,179.9,17.3,179.9,17.6z M178,17.5c0,0,0,0.1,0.1,0.1h1.2
	c0.1,0,0.1,0,0.1-0.1c0-0.2-0.1-0.4-0.2-0.5c-0.1-0.1-0.3-0.2-0.5-0.2c-0.2,0-0.4,0.1-0.5,0.2C178.1,17.1,178,17.3,178,17.5z"/>
<path class="st0" d="M181.1,16.7v0.1c0.2-0.3,0.5-0.4,0.8-0.4c0.2,0,0.4,0,0.5,0.1c0.1,0.1,0.3,0.2,0.3,0.4c0.1,0.1,0.1,0.3,0.1,0.4
	v1c0,0.1,0,0.2,0,0.3c0,0.1,0.1,0.2,0.1,0.2h0.1h0.1c0,0,0.1,0,0.1,0c0,0,0,0.1,0.1,0.1c0,0.1,0,0.1-0.1,0.1c0,0-0.1,0-0.1,0
	c-0.1,0-0.2,0-0.2,0h-0.3h-0.2h-0.3c-0.1,0-0.2-0.1-0.2-0.2c0-0.1,0.1-0.2,0.2-0.2h0.1h0.1c0.1,0,0.1-0.1,0.1-0.3v-1
	c0-0.1,0-0.3,0-0.4c0-0.1-0.1-0.2-0.2-0.3c-0.1-0.1-0.2-0.1-0.4-0.1c-0.2,0-0.5,0.1-0.6,0.3c-0.1,0.2-0.2,0.4-0.1,0.7v0.7
	c0,0.1,0,0.2,0,0.3c0,0.1,0.1,0.1,0.1,0.1h0.1h0.1c0.1,0,0.2,0.1,0.2,0.2s-0.1,0.2-0.2,0.2h-0.3h-0.3c-0.1,0-0.2,0-0.3,0h-0.3
	c-0.1,0-0.2-0.1-0.2-0.2c0-0.1,0-0.2,0.1-0.2c0,0,0,0,0,0h0.1h0.1c0.1,0,0.2-0.1,0.2-0.3v-1.3c0-0.1,0-0.2-0.1-0.2
	c0,0-0.1-0.1-0.1-0.1h-0.1h-0.1c-0.1,0-0.2-0.1-0.2-0.2s0.1-0.2,0.2-0.2l0,0h0.2h0.1h0.1C181,16.5,181.1,16.6,181.1,16.7z"/>
<path class="st0" d="M184.8,19.2c-0.3,0-0.6-0.1-0.9-0.4c-0.4-0.6-0.4-1.4,0-2c0.2-0.2,0.5-0.4,0.9-0.4c0.3,0,0.7,0.1,0.9,0.4
	c0.2,0.3,0.3,0.6,0.3,1c0,0.4-0.1,0.7-0.3,1C185.4,19.1,185.1,19.2,184.8,19.2z M184.8,16.8c-0.2,0-0.4,0.1-0.6,0.2
	c-0.2,0.2-0.2,0.5-0.2,0.7v0.1c0,0.3,0.1,0.5,0.2,0.8c0.1,0.2,0.3,0.3,0.6,0.3c0.2,0,0.4-0.1,0.6-0.3c0.2-0.2,0.2-0.5,0.2-0.8
	C185.6,17.1,185.3,16.8,184.8,16.8L184.8,16.8z"/>
<path class="st0" d="M187.5,16.4c0.2,0,0.4,0.1,0.6,0.2l0,0c0-0.1,0.1-0.2,0.2-0.2s0.2,0.1,0.2,0.2v0.2c0,0.1,0,0.1,0,0.2
	c0,0.1,0,0.1,0,0.2c0,0.1,0,0.1,0,0.2c0,0.1-0.1,0.2-0.2,0.2s-0.2,0-0.2-0.2v-0.2c0-0.1-0.1-0.2-0.2-0.3c-0.1-0.1-0.3-0.1-0.4-0.1
	c-0.1,0-0.3,0-0.4,0.1c-0.1,0.1-0.2,0.2-0.2,0.3c0,0.2,0.1,0.3,0.4,0.4h0.3c0.6,0.1,0.9,0.3,0.9,0.7c0,0.2-0.1,0.5-0.3,0.6
	c-0.4,0.3-1,0.3-1.5,0V19c0,0.1-0.1,0.2-0.2,0.2c-0.1,0-0.2-0.1-0.2-0.2c0,0,0,0,0-0.1c0-0.1,0-0.2,0-0.3c0-0.1,0-0.1,0-0.1
	c0-0.1,0-0.2,0-0.2c0-0.1,0-0.1,0-0.2s0.1-0.2,0.2-0.2s0.1,0,0.1,0c0,0.1,0,0.2,0,0.3c0,0.2,0.1,0.3,0.2,0.4
	c0.2,0.1,0.4,0.1,0.6,0.1c0.1,0,0.3,0,0.4-0.1c0.1-0.1,0.2-0.2,0.2-0.3c0-0.2-0.2-0.4-0.6-0.4c-0.3,0-0.6-0.1-0.8-0.2
	c-0.2-0.1-0.3-0.3-0.3-0.5c0-0.2,0.1-0.4,0.3-0.6C186.9,16.5,187.2,16.4,187.5,16.4z"/>
<path class="st0" d="M192.7,18.5l-0.2-0.5c0,0,0-0.1-0.1-0.1c0,0-0.1,0-0.1,0h-0.9c0,0-0.1,0-0.1,0c0,0.1-0.1,0.1-0.1,0.2l-0.1,0.4
	c0,0,0,0.1,0,0.1c0,0.1,0.1,0.2,0.2,0.2h0.3c0.1,0,0.2,0.1,0.2,0.2c0,0.1-0.1,0.2-0.2,0.2h-0.1h-0.3h-0.5h-0.2h-0.2
	c-0.1,0-0.2-0.1-0.2-0.2s0.1-0.2,0.2-0.2h0.1h0.1c0.1,0,0.2,0,0.2-0.1c0-0.1,0.1-0.2,0.1-0.2l1-2.6c0-0.1,0.2-0.2,0.3-0.2
	c0.1,0,0.3,0.1,0.3,0.2l0.9,2.6c0,0.1,0.1,0.2,0.2,0.3c0.1,0.1,0.1,0.1,0.2,0.1h0.2c0.1,0,0.2,0.1,0.2,0.2s-0.1,0.2-0.2,0.2h-0.1
	h-0.5h-0.6h-0.2c-0.1,0-0.2-0.1-0.2-0.2s0.1-0.2,0.2-0.2h0.3c0.1,0,0.2,0,0.2-0.1S192.7,18.6,192.7,18.5z M192.3,17.5l-0.5-1.4
	l-0.5,1.4l0,0c0,0,0,0,0.1,0H192.3L192.3,17.5C192.3,17.5,192.3,17.5,192.3,17.5L192.3,17.5z"/>
<path class="st0" d="M194.9,17.6v1c0,0.2,0.1,0.2,0.1,0.2h0.1h0.1c0.1,0,0.2,0.1,0.2,0.2c0,0,0,0.1-0.1,0.1c-0.1,0-0.1,0-0.2,0
	c-0.1,0-0.2,0-0.2,0c-0.1,0-0.2,0-0.3,0c-0.1,0-0.2,0-0.3,0h-0.3c-0.1,0-0.2-0.1-0.2-0.2s0.1-0.2,0.2-0.2h0.1h0.1
	c0.1,0,0.1-0.1,0.1-0.3v-1.3c0-0.2-0.1-0.3-0.2-0.3h-0.1h-0.1c-0.1,0-0.2,0-0.2-0.2s0.1-0.2,0.2-0.2h0.1h0.2h0.3
	c0.1,0,0.1,0.1,0.1,0.2s0,0,0,0.1v0.1c0,0,0,0.1,0,0.3L194.9,17.6z M194.6,16.3c-0.1,0-0.1,0-0.2-0.1c-0.1-0.1-0.1-0.1-0.1-0.2
	c0-0.1,0-0.1,0.1-0.2c0.1-0.1,0.1-0.1,0.2-0.1c0.1,0,0.1,0,0.2,0.1c0.1,0.1,0.1,0.1,0.1,0.2c0,0.1,0,0.2-0.1,0.2
	C194.7,16.2,194.7,16.3,194.6,16.3z"/>
<path class="st0" d="M196.4,16.7v0.1c0.2-0.2,0.4-0.4,0.7-0.4c0.2,0,0.4,0.1,0.6,0.2c0.2,0.1,0.2,0.3,0.2,0.5c0,0.1,0,0.3-0.1,0.4
	c-0.1,0.1-0.2,0.1-0.3,0.1c-0.1,0-0.1,0-0.2-0.1c-0.1,0-0.1-0.1-0.1-0.2c0-0.1,0-0.1,0.1-0.2c0,0,0.1-0.1,0.1-0.1h0.1
	c0,0,0-0.1,0-0.1c0-0.1,0-0.2-0.1-0.2c-0.1-0.1-0.2-0.1-0.3-0.1c-0.2,0-0.5,0.1-0.5,0.4c-0.1,0.2-0.1,0.4-0.1,0.7v0.3
	c0,0.1,0,0.3,0,0.4c0,0.2,0.1,0.3,0.2,0.3h0.1h0.1c0.1,0,0.2,0,0.2,0.1c0,0,0,0.1,0,0.1c0,0.1-0.1,0.2-0.2,0.2l0,0
	c-0.1,0-0.2,0-0.2,0H196h-0.3c-0.1,0-0.2-0.1-0.2-0.2c0-0.1,0.1-0.2,0.2-0.2h0.2c0.1,0,0.1-0.1,0.1-0.2v-1.4c0-0.2,0-0.3-0.1-0.3
	h-0.2c-0.1,0-0.2,0-0.2-0.1c0,0,0,0,0,0c0-0.1,0.1-0.2,0.2-0.2h0.1h0.2h0.1h0.1C196.4,16.5,196.4,16.6,196.4,16.7z"/>
<path class="st0" d="M200.5,17.6c0,0.1,0,0.2,0,0.2c0,0-0.1,0-0.1,0h-1.6h-0.1c0,0,0,0,0,0.1c0,0.2,0.1,0.5,0.2,0.7
	c0.1,0.2,0.4,0.3,0.6,0.3c0.1,0,0.3,0,0.4-0.1c0.1-0.1,0.2-0.2,0.2-0.3v-0.2c0-0.1,0.1-0.1,0.2-0.1c0.1,0,0.2,0.1,0.2,0.2
	c0,0.2-0.1,0.5-0.3,0.6c-0.2,0.2-0.5,0.3-0.8,0.3c-0.3,0-0.6-0.1-0.9-0.4c-0.2-0.3-0.3-0.6-0.3-1c0-0.4,0.1-0.7,0.3-1
	c0.2-0.3,0.5-0.4,0.9-0.4c0.3,0,0.6,0.1,0.8,0.3C200.4,17,200.5,17.3,200.5,17.6z M198.6,17.5c0,0,0,0.1,0.1,0.1h1.3
	c0.1,0,0.1,0,0.1-0.1c0-0.2-0.1-0.4-0.2-0.5c-0.1-0.1-0.3-0.2-0.5-0.2c-0.2,0-0.4,0.1-0.5,0.2C198.7,17.1,198.6,17.3,198.6,17.5z"/>
<path class="st0" d="M201.9,16.4c0.2,0,0.4,0.1,0.6,0.2l0,0c0-0.1,0.1-0.2,0.2-0.2c0.1,0,0.2,0,0.2,0.1c0,0,0,0,0,0c0,0,0,0.1,0,0.2
	c0,0.1,0,0.1,0,0.2c0,0,0,0.1,0,0.2c0,0.1,0,0.1,0,0.2c0,0.1-0.1,0.2-0.2,0.2s-0.2,0-0.2-0.2v-0.2c0-0.1-0.1-0.2-0.2-0.3
	c-0.1-0.1-0.3-0.1-0.4-0.1c-0.1,0-0.3,0-0.4,0.1c-0.1,0.1-0.2,0.2-0.2,0.3c0,0.2,0.1,0.3,0.4,0.4h0.3c0.6,0.1,0.9,0.3,0.9,0.7
	c0,0.2-0.1,0.5-0.3,0.6c-0.2,0.2-0.5,0.2-0.7,0.2c-0.3,0-0.5-0.1-0.7-0.2V19c0,0.1-0.1,0.2-0.2,0.2s-0.2-0.1-0.2-0.2
	c0-0.1,0-0.2,0-0.3c0,0,0-0.1,0-0.1c0-0.1,0-0.2,0-0.2c0-0.1,0-0.1,0-0.2c0-0.1,0.1-0.2,0.2-0.2s0.1,0,0.1,0c0,0.1,0,0.2,0,0.3
	c0,0.2,0.1,0.3,0.2,0.4c0.2,0.1,0.4,0.1,0.6,0.1c0.1,0,0.3,0,0.4-0.1c0.1-0.1,0.2-0.2,0.2-0.3c0-0.2-0.2-0.4-0.6-0.4
	c-0.3,0-0.5-0.1-0.8-0.2c-0.2-0.1-0.3-0.3-0.3-0.5c0-0.2,0.1-0.4,0.3-0.6C201.4,16.5,201.7,16.4,201.9,16.4z"/>
<path class="st0" d="M131.2,13.6L131.2,13.6c-0.1,0-0.2-0.1-0.2-0.2c0-0.2,0-0.1,0-0.3v-1c0.1-0.4-0.3-0.8-0.7-0.9
	c-0.1,0-0.2,0-0.2,0c-0.2,0-0.5,0.1-0.7,0.2c-0.2,0.1-0.3,0.3-0.3,0.5c0,0.1,0,0.2,0.1,0.2c0.1,0.1,0.1,0.1,0.2,0.1
	c0.1,0,0.1,0,0.2-0.1c0,0,0.1-0.1,0.1-0.2c0-0.1,0-0.1-0.1-0.2l0,0c0,0,0-0.1,0.1-0.1c0.1-0.1,0.3-0.1,0.4-0.1c0.1,0,0.3,0,0.4,0.1
	c0.1,0.1,0.2,0.2,0.1,0.3c0,0.1,0,0.2-0.1,0.3c-0.2,0.1-0.4,0.1-0.6,0.1l-0.4,0.1l-0.2,0.1c-0.2,0.1-0.4,0.4-0.4,0.6
	c0,0.2,0.1,0.4,0.2,0.6c0.2,0.1,0.4,0.2,0.7,0.2c0.3,0,0.6-0.1,0.8-0.4c0.1,0.2,0.3,0.4,0.5,0.4l0,0c0.1,0,0.2-0.1,0.2-0.2
	C131.4,13.8,131.4,13.7,131.2,13.6L131.2,13.6z M130.6,12.9c0,0.2-0.1,0.4-0.2,0.5c-0.1,0.1-0.3,0.2-0.5,0.2c-0.1,0-0.3,0-0.4-0.1
	c-0.1-0.1-0.1-0.2-0.1-0.3c0-0.2,0.2-0.4,0.6-0.4c0.2,0,0.3,0,0.4-0.1c0.1,0,0.2-0.1,0.2-0.1L130.6,12.9z"/>
<path class="st0" d="M132.1,18.9L132.1,18.9c-0.1,0-0.2-0.1-0.2-0.2v-1.3c0-0.6-0.3-0.9-0.9-0.9c-0.2,0-0.5,0.1-0.7,0.2
	c-0.2,0.1-0.3,0.3-0.3,0.5c0,0.1,0,0.2,0.1,0.2c0.1,0.1,0.1,0.1,0.2,0.1c0.1,0,0.1,0,0.2-0.1c0,0,0.1-0.1,0.1-0.2
	c0-0.1,0-0.1-0.1-0.2l0,0c0,0,0-0.1,0.1-0.1c0.1-0.1,0.3-0.1,0.4-0.1c0.1,0,0.3,0,0.4,0.1c0.1,0.1,0.1,0.2,0.1,0.3
	c0,0.1,0,0.2-0.1,0.3c-0.2,0.1-0.4,0.1-0.6,0.1l-0.4,0.1l-0.2,0.1c-0.2,0.1-0.4,0.4-0.4,0.6c0,0.2,0.1,0.4,0.2,0.6
	c0.2,0.1,0.4,0.2,0.7,0.2c0.3,0,0.6-0.1,0.8-0.4c0.1,0.2,0.3,0.4,0.5,0.4l0,0c0.1,0,0.2-0.1,0.2-0.2C132.3,19,132.2,18.9,132.1,18.9
	L132.1,18.9z M131.5,18.2c0,0.2-0.1,0.4-0.2,0.5c-0.1,0.1-0.3,0.2-0.5,0.2c-0.1,0-0.3,0-0.4-0.1c-0.1-0.1-0.1-0.2-0.1-0.3
	c0-0.2,0.2-0.4,0.6-0.4c0.2,0,0.3,0,0.4-0.1c0.1,0,0.2-0.1,0.2-0.1L131.5,18.2z"/>
<path class="st0" d="M159.2,13.6L159.2,13.6c-0.1,0-0.2-0.1-0.2-0.2c0-0.1,0-0.2,0-0.3v-1c0.1-0.4-0.3-0.8-0.7-0.9
	c-0.1,0-0.2,0-0.2,0c-0.2,0-0.5,0.1-0.7,0.2c-0.2,0.1-0.3,0.3-0.3,0.5c0,0.1,0,0.2,0.1,0.2c0.1,0.1,0.1,0.1,0.2,0.1
	c0.1,0,0.1,0,0.2-0.1c0,0,0.1-0.1,0.1-0.2c0-0.1,0-0.1-0.1-0.2l0,0c0,0,0-0.1,0.1-0.1c0.1-0.1,0.3-0.1,0.4-0.1c0.1,0,0.3,0,0.4,0.1
	c0.1,0.1,0.2,0.2,0.1,0.3c0,0.1,0,0.2-0.1,0.3c-0.2,0.1-0.4,0.1-0.6,0.1l-0.4,0.1c-0.1,0-0.2,0.1-0.2,0.1c-0.4,0.2-0.5,0.7-0.3,1
	c0,0.1,0.1,0.1,0.1,0.2c0.2,0.1,0.4,0.2,0.7,0.2c0.3,0,0.6-0.1,0.8-0.4c0,0.2,0.3,0.4,0.5,0.4l0,0c0.1,0,0.2-0.1,0.2-0.2
	C159.4,13.8,159.3,13.7,159.2,13.6C159.2,13.7,159.2,13.7,159.2,13.6L159.2,13.6z M158.6,12.9c0,0.2-0.1,0.4-0.2,0.5
	c-0.1,0.1-0.3,0.2-0.5,0.2c-0.1,0-0.3,0-0.4-0.1c-0.1-0.1-0.1-0.2-0.1-0.3c0-0.2,0.2-0.4,0.6-0.4c0.2,0,0.3,0,0.4-0.1
	c0.1,0,0.2-0.1,0.2-0.1V12.9z"/>
<path class="st0" d="M191.6,11.2c0.2,0,0.4,0.1,0.6,0.2l0,0c0-0.1,0.1-0.2,0.2-0.2c0.1,0,0.2,0,0.2,0.1c0,0,0,0,0,0c0,0,0,0.1,0,0.2
	c0,0.1,0,0.1,0,0.2c0,0,0,0.1,0,0.2s0,0.1,0,0.2s-0.1,0.2-0.2,0.2c-0.1,0-0.1,0-0.2-0.1c0,0,0,0,0,0V12c0-0.1-0.1-0.2-0.2-0.3
	c-0.1-0.1-0.3-0.1-0.4-0.1c-0.1,0-0.3,0-0.4,0.1c-0.1,0.1-0.2,0.2-0.2,0.3c0,0.2,0.1,0.3,0.5,0.4h0.3c0.6,0.1,0.9,0.3,0.9,0.7
	c0,0.2-0.1,0.5-0.3,0.6c-0.2,0.2-0.5,0.2-0.7,0.2c-0.3,0-0.5-0.1-0.7-0.2v0.1c0,0.1,0,0.2-0.1,0.2c0,0,0,0,0,0
	c-0.1,0-0.2-0.1-0.2-0.2c0-0.1,0-0.2,0-0.3c0,0,0-0.1,0-0.1c0-0.1,0-0.2,0-0.2c0-0.1,0-0.1,0-0.2s0.1-0.2,0.2-0.2c0,0,0.1,0,0.1,0.1
	c0,0.1,0,0.2,0,0.3c0,0.2,0.1,0.3,0.2,0.4c0.2,0.1,0.4,0.1,0.6,0.1c0.2,0,0.3,0,0.4-0.1c0.1-0.1,0.2-0.2,0.2-0.3
	c0-0.2-0.2-0.4-0.6-0.4c-0.3,0-0.6-0.1-0.8-0.2c-0.2-0.1-0.3-0.3-0.3-0.5c0-0.2,0.1-0.4,0.3-0.6C191,11.3,191.3,11.2,191.6,11.2z"/>
<path class="st0" d="M189.9,13.6L189.9,13.6c-0.1,0-0.1-0.1-0.2-0.2v-1.3c0-0.6-0.3-0.9-0.9-0.9c-0.2,0-0.5,0.1-0.7,0.2
	c-0.2,0.1-0.3,0.3-0.3,0.5c0,0.1,0,0.2,0.1,0.2c0.1,0.1,0.1,0.1,0.2,0.1c0.1,0,0.1,0,0.2-0.1c0.1,0,0.1-0.1,0.1-0.2
	c0-0.1,0-0.1-0.1-0.2h-0.1c0,0,0-0.1,0.1-0.1c0.1-0.1,0.3-0.1,0.4-0.1c0.1,0,0.3,0,0.4,0.1c0.1,0.1,0.1,0.2,0.1,0.3
	c0,0.1,0,0.2-0.1,0.3c-0.2,0.1-0.4,0.1-0.6,0.1l-0.4,0.1c-0.1,0-0.2,0.1-0.2,0.1c-0.3,0.2-0.5,0.6-0.3,1c0,0.1,0.1,0.1,0.1,0.2
	c0.2,0.1,0.4,0.2,0.7,0.2c0.3,0,0.6-0.1,0.8-0.4c0.1,0.2,0.3,0.4,0.5,0.4l0,0c0.1,0,0.2-0.1,0.2-0.2C190,13.8,189.9,13.7,189.9,13.6
	L189.9,13.6z M189.3,12.9c0,0.2-0.1,0.4-0.2,0.5c-0.1,0.1-0.3,0.2-0.5,0.2c-0.1,0-0.3,0-0.4-0.1c-0.1-0.1-0.1-0.2-0.1-0.3
	c0-0.2,0.2-0.4,0.6-0.4c0.1,0,0.3,0,0.4-0.1c0.1,0,0.2-0.1,0.2-0.1L189.3,12.9z"/>
<path class="st0" d="M45.5,9.8c-2.7,0-4.9,2.2-4.9,4.9c0,2.7,2.2,4.9,4.9,4.9s4.9-2.2,4.9-4.9c0,0,0,0,0,0
	C50.4,11.9,48.2,9.7,45.5,9.8z M45.5,17.5c-1.6,0-2.9-1.3-2.9-2.9c0-1.6,1.3-2.9,2.9-2.9c1.6,0,2.9,1.3,2.9,2.8
	C48.4,16.2,47.1,17.5,45.5,17.5C45.5,17.5,45.5,17.5,45.5,17.5z"/>
<path class="st0" d="M94.2,9.8c-2.7,0-4.9,2.2-4.9,4.9c0,2.7,2.2,4.9,4.9,4.9c2.7,0,4.9-2.2,4.9-4.9c0,0,0,0,0,0
	C99.1,11.9,96.9,9.7,94.2,9.8z M94.2,17.5c-1.6,0-2.9-1.3-2.8-2.9c0-1.6,1.3-2.9,2.9-2.8c1.6,0,2.8,1.3,2.8,2.8
	C97.1,16.2,95.8,17.5,94.2,17.5C94.2,17.5,94.2,17.5,94.2,17.5z"/>
<path class="st0" d="M51.9,14.8c0.1-2.6,2.3-4.6,5-4.5c2.4,0.1,4.4,2.1,4.5,4.5v3.5c0,0.6-0.5,1.1-1.1,1.1l0,0c-0.6,0-1.1-0.5-1.1-1
	c0,0,0,0,0,0v-3.5c0.1-1.4-1-2.7-2.5-2.8c-1.4-0.1-2.7,1-2.8,2.5c0,0.1,0,0.2,0,0.3v3.5c0,0.6-0.5,1.1-1.1,1.1l0,0
	c-0.6,0-1.1-0.5-1.1-1c0,0,0,0,0,0V14.8z"/>
<path class="st0" d="M36.5,19.2c-2.5,0-4.6-2-4.6-4.6s2-4.6,4.6-4.6c0,0,0,0,0,0h2.1c0.6,0,1,0.4,1,1l0,0c0,0.6-0.4,1-1,1h-2.1
	c-1.4,0-2.5,1.1-2.5,2.5c0,1.4,1.1,2.5,2.5,2.5c0,0,0,0,0,0h2.1c0.6,0,1,0.4,1,1l0,0c0,0.6-0.4,1-1,1L36.5,19.2z"/>
<path class="st0" d="M80.9,17.2h-3.1c-1,0.1-2-0.5-2.4-1.5h5.5c0.6,0,1-0.4,1-1s-0.4-1-1-1h-5.5c0.4-1,1.3-1.6,2.3-1.6h3.1
	c0.6,0,1-0.4,1-1s-0.4-1-1-1h-3.1c-2.5,0-4.6,2.1-4.6,4.6c0,2.5,2,4.5,4.5,4.5c0,0,0,0,0,0h3.1c0.6,0,1-0.5,1-1S81.5,17.3,80.9,17.2
	L80.9,17.2z"/>
<path class="st0" d="M86.6,10c-0.6,0-1,0.4-1.1,1v7c0,1.4-1.1,2.6-2.6,2.6l0,0c-0.6,0-1.1,0.4-1.2,1c0,0.6,0.5,1.1,1.1,1.1
	c0,0,0,0,0,0H83c2.6,0,4.7-2.1,4.7-4.7v-7C87.7,10.4,87.2,10,86.6,10z"/>
<path class="st0" d="M65.8,13.7c-0.4,0-0.8-0.3-0.8-0.8c0,0,0,0,0,0c0-0.4,0.3-0.8,0.8-0.8c0,0,0,0,0,0h4.5c0.6,0,1-0.4,1-1l0,0
	c0-0.6-0.4-1-1-1c0,0,0,0-0.1,0h-4.5c-1.5,0-2.8,1.3-2.8,2.8s1.3,2.8,2.8,2.8c0,0,0,0,0,0H69c0.4,0,0.8,0.3,0.8,0.7c0,0,0,0,0,0
	c0,0.4-0.4,0.8-0.8,0.8h0h-4.6c-0.6,0-1,0.4-1,1l0,0c0,0.6,0.4,1,1,1c0,0,0,0,0.1,0H69c1.6,0,2.8-1.3,2.8-2.8c0-1.5-1.3-2.7-2.8-2.7
	c0,0,0,0,0,0H65.8z"/>
<path class="st0" d="M85.6,7.7c0-0.6,0.4-1,1-1s1,0.4,1,1s-0.4,1-1,1S85.6,8.2,85.6,7.7z"/>
</svg>
