<svg id="Capa_1" data-name="Capa 1" xmlns="http://www.w3.org/2000/svg" viewBox="0 0 992 166"><defs><style>.cls-1{fill:#fff;}</style></defs><title>Mesa de trabajo 1</title><path class="cls-1" d="M33.22,135.48V125.16c0-1.28-.43-1.9-1.31-1.9a3,3,0,0,0-.53,0c-.32,0-.55.06-.68.06-.55,0-.83-.28-.83-.86s.38-.91,1.13-.91a2.78,2.78,0,0,1,.39.05l1.27.15a12.85,12.85,0,0,0,1.53.08c.43,0,.94,0,1.55-.08,1.4-.14,2.46-.2,3.18-.2a12.46,12.46,0,0,1,2.84.28,4.3,4.3,0,0,1,2.66,1.59,4.74,4.74,0,0,1,.95,3,4.39,4.39,0,0,1-1.65,3.71,7.73,7.73,0,0,1-4.8,1.29H36a.71.71,0,0,0-.53.14,1.12,1.12,0,0,0-.13.65v.52a21.73,21.73,0,0,0,.2,4c.14.45.5.68,1.13.68a1.58,1.58,0,0,0,.53-.07c.38,0,.62,0,.7,0a.72.72,0,0,1,.8.82q0,.93-1.14.93l-.36-.05-1.28-.2c-.36,0-.89-.06-1.62-.06s-1.1,0-1.48.06l-1.49.23a.47.47,0,0,0-.15,0H31c-.78,0-1.16-.29-1.16-.9a.78.78,0,0,1,.23-.59.71.71,0,0,1,.56-.26,4,4,0,0,1,.7.08,2,2,0,0,0,.55,0C32.79,137.39,33.22,136.75,33.22,135.48Zm2.34-11.67a3.12,3.12,0,0,0-.19,1.41V129c0,.46.34.73,1,.81h1.49a13.42,13.42,0,0,0,3-.3,2.75,2.75,0,0,0,2.3-3q0-3.29-4.18-3.28C37,123.26,35.82,123.44,35.56,123.81Z"/><path class="cls-1" d="M50.68,126.74v.71a4.51,4.51,0,0,1,6.5-.86,3.35,3.35,0,0,1,1.11,2.61,2.87,2.87,0,0,1-.56,1.85,1.84,1.84,0,0,1-1.49.7,1.36,1.36,0,0,1-1-.36,1.11,1.11,0,0,1-.42-.87,1,1,0,0,1,.31-.73,1,1,0,0,1,.71-.33,1.82,1.82,0,0,1,.35.08,1.36,1.36,0,0,0,.14-.57,1.59,1.59,0,0,0-.64-1.26,2.69,2.69,0,0,0-1.64-.5A2.57,2.57,0,0,0,51.38,129a10.07,10.07,0,0,0-.41,3.35v1.7c0,1.15,0,1.79,0,1.93.09,1,.37,1.46.82,1.46a3,3,0,0,0,.7-.08,2.33,2.33,0,0,1,.49-.06c.56,0,.83.26.83.81s-.35.89-1.06.89h-.11a9.54,9.54,0,0,1-1.17-.1c-.51-.05-.91-.08-1.17-.08a13.89,13.89,0,0,0-1.61.06l-1.44.12c-.72,0-1-.3-1-.91s.32-.79,1-.79a2.13,2.13,0,0,1,.4,0l.38.07a2.82,2.82,0,0,0,.38.05c.42,0,.65-.38.7-1.17V135l-.1-5.85c0-1-.3-1.54-.76-1.54a2.73,2.73,0,0,0-.57.1,4.8,4.8,0,0,1-.57,0c-.56,0-.83-.26-.83-.8s.35-.88,1.09-.88a5.49,5.49,0,0,1,.78.06c.35,0,.61.06.77.06s.37,0,.67-.06A1.5,1.5,0,0,1,50,126C50.45,126,50.68,126.25,50.68,126.74Z"/><path class="cls-1" d="M65.36,139.32A5.51,5.51,0,0,1,61,137.47a7.45,7.45,0,0,1-1.61-5,7.33,7.33,0,0,1,1.63-5,6.17,6.17,0,0,1,8.81,0,7.11,7.11,0,0,1,1.63,5,7.37,7.37,0,0,1-1.67,5A5.62,5.62,0,0,1,65.36,139.32Zm.13-12a3.52,3.52,0,0,0-2.84,1.26,6.13,6.13,0,0,0-1.14,3.59v.35a6.2,6.2,0,0,0,1,3.78,3.3,3.3,0,0,0,2.85,1.38,3.52,3.52,0,0,0,3-1.38,6.08,6.08,0,0,0,1.08-3.81C69.43,129,68.11,127.27,65.49,127.27Z"/><path class="cls-1" d="M81.11,123.67a1,1,0,0,1,.25-.64,1.8,1.8,0,0,0-1.28-.41,2.19,2.19,0,0,0-1.73.7,2.88,2.88,0,0,0-.64,2v.47a.3.3,0,0,0,.33.33h2c.56,0,.85.3.85.91s-.29.94-.85.94h-1.9c-.29,0-.44.14-.44.46v7.2a9.9,9.9,0,0,0,0,1.11c.08.47.3.7.64.7a3.2,3.2,0,0,0,.65-.12,2.25,2.25,0,0,1,.5-.05c.6,0,.88.28.88.84s-.35.91-1.06.91a12,12,0,0,1-1.32-.1,11.79,11.79,0,0,0-1.34-.13,9.82,9.82,0,0,0-1.4.11c-.67.06-1.09.12-1.29.12-.74,0-1.11-.3-1.11-.91a.74.74,0,0,1,.28-.58.85.85,0,0,1,.63-.26,2.12,2.12,0,0,1,.58.08,2.29,2.29,0,0,0,.59.09c.32,0,.54-.21.63-.62a21,21,0,0,0,.15-3v-5.41a.4.4,0,0,0-.46-.46H74c-.61,0-.91-.31-.91-1a.81.81,0,0,1,.93-.9h1.47a.3.3,0,0,0,.34-.33v-.47A3.78,3.78,0,0,1,80,121.1a4.42,4.42,0,0,1,2.6.67,2,2,0,0,1,1,1.75,1.16,1.16,0,0,1-.35.91,1.26,1.26,0,0,1-.91.35,1.31,1.31,0,0,1-.85-.3A1.06,1.06,0,0,1,81.11,123.67Z"/><path class="cls-1" d="M93.42,131.3a2.85,2.85,0,0,1-.14,1.2c-.09.13-.33.23-.74.23H84.33c-.22,0-.38,0-.44.07a.38.38,0,0,0-.1.29,4.67,4.67,0,0,0,1.15,3.24,3.86,3.86,0,0,0,5,.68,2.85,2.85,0,0,0,1.21-1.56l.24-.76a.8.8,0,0,1,.84-.61c.64,0,1,.32,1,1a3.71,3.71,0,0,1-1.69,3,6.19,6.19,0,0,1-3.86,1.29,5.47,5.47,0,0,1-4.31-1.79,7.3,7.3,0,0,1-1.58-4.91,7.44,7.44,0,0,1,1.68-5.08,5.57,5.57,0,0,1,4.44-2,5.31,5.31,0,0,1,4,1.62A5.62,5.62,0,0,1,93.42,131.3Zm-9.36-.66c0,.26.2.37.58.37h6.17c.36,0,.54-.11.54-.37a3.19,3.19,0,0,0-1-2.35,3.36,3.36,0,0,0-2.43-1,4,4,0,0,0-2.63,1A3.08,3.08,0,0,0,84.06,130.64Z"/><path class="cls-1" d="M100.74,125.58a4.64,4.64,0,0,1,2.88.9v-.11c0-.63.27-.94.82-.94a.74.74,0,0,1,.85.82c0,.09,0,.35-.05.76a6.09,6.09,0,0,0-.09,1c0,.21,0,.51.06.91a6.07,6.07,0,0,1,.08.89c0,.66-.29,1-.84,1a.75.75,0,0,1-.83-.82v-.85a1.69,1.69,0,0,0-.9-1.34,3.68,3.68,0,0,0-2-.55,3.15,3.15,0,0,0-2,.62,1.78,1.78,0,0,0-.81,1.51c0,1.09.75,1.75,2.27,2l1.5.2c2.93.39,4.39,1.59,4.39,3.63a3.73,3.73,0,0,1-1.41,3,5.8,5.8,0,0,1-3.69,1.12,5.87,5.87,0,0,1-3.71-1.2v.5c0,.61-.29.91-.88.91s-.94-.36-.94-1c0,.12,0-.34.15-1.36a5.53,5.53,0,0,0,0-.71,7.09,7.09,0,0,0-.09-1.16,4.71,4.71,0,0,1-.1-.85c0-.59.27-.89.82-.89.36,0,.59.07.68.24a4.27,4.27,0,0,1,.17,1.37,2.15,2.15,0,0,0,1.17,1.81,5.47,5.47,0,0,0,2.87.69,3.27,3.27,0,0,0,2.1-.65,2,2,0,0,0,.82-1.63c0-1.15-.93-1.83-2.78-2a11.08,11.08,0,0,1-4-1,2.79,2.79,0,0,1-1.39-2.68,3.66,3.66,0,0,1,1.35-2.92A5.52,5.52,0,0,1,100.74,125.58Z"/><path class="cls-1" d="M112.16,131.42v3.36c0,.85,0,1.36,0,1.52.09.76.32,1.14.7,1.14a3.5,3.5,0,0,0,.63-.09.86.86,0,0,1,.4,0c.64,0,1,.27,1,.84a.73.73,0,0,1-.32.6,1.36,1.36,0,0,1-.82.26,9.39,9.39,0,0,1-1.24-.12,8.45,8.45,0,0,0-1.27-.12,9,9,0,0,0-1.48.12c-.67.06-1.13.12-1.36.12-.68,0-1-.29-1-.86s.29-.84.88-.84a4.24,4.24,0,0,1,.61.06,3.32,3.32,0,0,0,.62.06c.41,0,.66-.55.75-1.64v-6.59c-.09-1.1-.35-1.63-.78-1.63a2,2,0,0,0-.59.11,4.06,4.06,0,0,1-.55.07c-.64,0-.94-.29-.94-.82s.38-.88,1.14-.88c.32,0,.55,0,.68,0,.57.06.91.11,1.07.11a3.56,3.56,0,0,0,.64-.08,4.62,4.62,0,0,1,.62-.06c.5,0,.74.33.74,1,0,.08,0,.17,0,.32a2.24,2.24,0,0,0,0,.31c0,.13,0,.66,0,1.59C112.17,130,112.16,130.69,112.16,131.42Zm-1.34-6.75a1.37,1.37,0,0,1-1-.42,1.41,1.41,0,0,1-.42-1,1.45,1.45,0,0,1,2.46-1,1.31,1.31,0,0,1,.42,1,1.33,1.33,0,0,1-.42,1A1.37,1.37,0,0,1,110.82,124.67Z"/><path class="cls-1" d="M121.9,139.32a5.43,5.43,0,0,1-4.33-1.85,7.41,7.41,0,0,1-1.63-5,7.33,7.33,0,0,1,1.64-5,6.17,6.17,0,0,1,8.81,0,7.21,7.21,0,0,1,1.63,5,7.37,7.37,0,0,1-1.67,5A5.62,5.62,0,0,1,121.9,139.32Zm.13-12a3.51,3.51,0,0,0-2.84,1.26,6.13,6.13,0,0,0-1.14,3.59v.35a6.26,6.26,0,0,0,1,3.78,3.34,3.34,0,0,0,2.87,1.38,3.5,3.5,0,0,0,3-1.38,6.08,6.08,0,0,0,1.08-3.81C126,129,124.65,127.27,122,127.27Z"/><path class="cls-1" d="M134,126.82v.72a5,5,0,0,1,4.13-2,5.17,5.17,0,0,1,2.62.7,3.75,3.75,0,0,1,1.68,1.77,6.37,6.37,0,0,1,.35,2.29v4.89c0,.73,0,1.19,0,1.31.1.59.32.88.7.88a3.09,3.09,0,0,0,.61-.06,3.55,3.55,0,0,1,.52-.06.82.82,0,0,1,.58.23.73.73,0,0,1,.24.56.79.79,0,0,1-.31.65,1.19,1.19,0,0,1-.74.26,10.14,10.14,0,0,1-1.18-.1,10.93,10.93,0,0,0-1.56-.13,10.68,10.68,0,0,0-1.1.06l-1.36.17c-.68,0-1-.3-1-.91s.3-.79.9-.79a1.67,1.67,0,0,1,.47,0,3.44,3.44,0,0,0,.62.09c.43,0,.64-.46.68-1.4v-4.85a9.57,9.57,0,0,0-.12-1.87,2.54,2.54,0,0,0-1-1.52,3.29,3.29,0,0,0-1.93-.59,3.15,3.15,0,0,0-2.93,1.46,6.69,6.69,0,0,0-.63,3.42v3.43a4.8,4.8,0,0,0,.16,1.54.55.55,0,0,0,.56.42,3.61,3.61,0,0,0,.58-.09,1.93,1.93,0,0,1,.59-.09c.52,0,.79.27.79.85s-.35.85-1,.85c-.14,0-.58-.06-1.34-.17a8.17,8.17,0,0,0-1.26-.07,10,10,0,0,0-1.45.12c-.76.06-1.18.12-1.27.12-.73,0-1.1-.3-1.1-.88s.28-.82.85-.82a2.31,2.31,0,0,1,.49.08,4,4,0,0,0,.68.06c.52,0,.81-.49.81-1.49v-6.87a3.45,3.45,0,0,0-.21-1.19.63.63,0,0,0-.6-.33,1.77,1.77,0,0,0-.53.08,2.13,2.13,0,0,1-.54.07c-.63,0-.95-.27-.95-.83s.4-.85,1.16-.85h.26l1,.11a4.74,4.74,0,0,0,.72-.06c.45,0,.68-.06.71-.06C133.72,126,134,126.28,134,126.82Z"/><path class="cls-1" d="M164.49,128.12v8c0,.87.24,1.3.7,1.3a3.53,3.53,0,0,0,.65-.09,1.54,1.54,0,0,1,.41,0,.74.74,0,0,1,.85.85c0,.56-.35.85-1,.85a12.2,12.2,0,0,1-1.32-.1,11.85,11.85,0,0,0-1.39-.13,9.87,9.87,0,0,0-1.23.13,10.05,10.05,0,0,1-1.21.1h-.12c-.72,0-1.08-.3-1.08-.93s.3-.77.88-.77h.18l.24,0a6.48,6.48,0,0,0,.75.11.53.53,0,0,0,.59-.38,11.66,11.66,0,0,0,.14-2.1l0-1.81v-8.6a9.22,9.22,0,0,0-.08-1,.71.71,0,0,0-.71-.59,6.81,6.81,0,0,0-.69.1,3.12,3.12,0,0,1-.45.06.77.77,0,0,1-.88-.85c0-.58.35-.85,1-.85a2.53,2.53,0,0,1,.5,0l.61.09a6.55,6.55,0,0,0,.7,0,5.92,5.92,0,0,0,.76-.08,5.15,5.15,0,0,1,.77-.09c.4,0,.6.24.6.75a1.89,1.89,0,0,1,0,.37Q164.49,124.51,164.49,128.12Z"/><path class="cls-1" d="M181.11,125.58a4.25,4.25,0,0,1,3.82,2V125a7.89,7.89,0,0,0-.06-1.24c-.08-.55-.32-.83-.72-.83a2.36,2.36,0,0,0-.58.11,3.53,3.53,0,0,1-.57.09c-.64,0-1-.29-1-.85s.42-.85,1.29-.85c.14,0,.38,0,.74,0l.86.09a3.25,3.25,0,0,0,.66-.07c.29,0,.52,0,.67,0,.47,0,.72.33.72,1v.29c0,.06,0,.5,0,1.36,0,.1,0,.78-.07,2-.05.88-.07,1.52-.07,2v6.82A10.06,10.06,0,0,0,187,137a.59.59,0,0,0,.63.41,2.37,2.37,0,0,0,.53,0,4.86,4.86,0,0,1,.56,0c.65,0,1,.27,1,.84s-.4.86-1.17.86c-.17,0-.44,0-.78-.07a5.33,5.33,0,0,0-.79-.05c-.06,0-.26,0-.59,0a2.08,2.08,0,0,1-.55.09c-.45,0-.7-.32-.7-.93v-.56a4.58,4.58,0,0,1-4,1.81,5.21,5.21,0,0,1-4.21-1.9,8.63,8.63,0,0,1,0-10A5.21,5.21,0,0,1,181.11,125.58Zm3.71,9.09a20.86,20.86,0,0,0,.11-2.19,14.33,14.33,0,0,0-.13-2.34,3.35,3.35,0,0,0-1.12-2,3.75,3.75,0,0,0-2.4-.85,3.4,3.4,0,0,0-2.86,1.37,6.13,6.13,0,0,0-1,3.74,6.28,6.28,0,0,0,1.07,3.84,3.46,3.46,0,0,0,2.92,1.41,3.41,3.41,0,0,0,2.34-.82A3.25,3.25,0,0,0,184.82,134.67Z"/><path class="cls-1" d="M202.48,131.3a2.91,2.91,0,0,1-.13,1.2c-.09.13-.33.23-.75.23h-8.2a.81.81,0,0,0-.45.07.42.42,0,0,0-.09.29,4.6,4.6,0,0,0,1.17,3.24A3.81,3.81,0,0,0,199,137a2.89,2.89,0,0,0,1.23-1.56l.23-.76a.8.8,0,0,1,.85-.61c.64,0,1,.32,1,1a3.69,3.69,0,0,1-1.7,3,6.15,6.15,0,0,1-3.86,1.29,5.44,5.44,0,0,1-4.3-1.79,7.2,7.2,0,0,1-1.6-4.91,7.55,7.55,0,0,1,1.7-5.08,5.55,5.55,0,0,1,4.42-2,5.34,5.34,0,0,1,4,1.62A5.61,5.61,0,0,1,202.48,131.3Zm-9.33-.66c0,.26.18.37.56.37h6.17c.36,0,.55-.11.55-.37a3.16,3.16,0,0,0-1-2.35,3.41,3.41,0,0,0-2.43-1,4,4,0,0,0-2.64,1A3,3,0,0,0,193.15,130.64Z"/><path class="cls-1" d="M218.52,121.15a5.78,5.78,0,0,1,4.67,2.19v-.58a.62.62,0,0,1-.06-.18c0-.38,0-.57,0-.54,0-.59.26-.89.81-.89s.85.36.85,1.08c0,.13,0,.54-.06,1.24-.09.87-.13,1.45-.13,1.76a11.43,11.43,0,0,0,.08,1.43l.11,1v.25c0,.78-.32,1.16-.94,1.16s-1-.37-1-1.1V127a3.73,3.73,0,0,0-1.15-3,4.44,4.44,0,0,0-3.16-1.16,4.67,4.67,0,0,0-4,2,9,9,0,0,0-1.45,5.41,9.11,9.11,0,0,0,1.49,5.52,4.89,4.89,0,0,0,4.12,2,4.8,4.8,0,0,0,2.58-.7,3.91,3.91,0,0,0,1.61-1.84,5.5,5.5,0,0,0,.31-2c0-.8.32-1.2,1-1.2s1.07.4,1.07,1.19a5.79,5.79,0,0,1-1.9,4.49,7.61,7.61,0,0,1-10.47-.68,9.71,9.71,0,0,1-2.07-6.5,10.33,10.33,0,0,1,2.12-6.79A6.93,6.93,0,0,1,218.52,121.15Z"/><path class="cls-1" d="M231.39,131.42v3.36c0,.85,0,1.36,0,1.52.09.76.32,1.14.71,1.14a3.94,3.94,0,0,0,.64-.09.79.79,0,0,1,.38,0c.65,0,1,.27,1,.84a.76.76,0,0,1-.32.6,1.38,1.38,0,0,1-.82.26,9.94,9.94,0,0,1-1.26-.12,8.24,8.24,0,0,0-1.25-.12,9.31,9.31,0,0,0-1.5.12c-.67.06-1.11.12-1.34.12-.7,0-1-.29-1-.86s.28-.84.88-.84a4.51,4.51,0,0,1,.61.06,3.28,3.28,0,0,0,.6.06c.43,0,.69-.55.76-1.64v-6.59c-.07-1.1-.35-1.63-.77-1.63a2,2,0,0,0-.59.11,4.47,4.47,0,0,1-.57.07c-.62,0-.92-.29-.92-.82s.38-.88,1.14-.88c.31,0,.54,0,.68,0,.55.06.9.11,1.06.11a3.12,3.12,0,0,0,.63-.08,5.22,5.22,0,0,1,.63-.06c.51,0,.75.33.75,1a2.14,2.14,0,0,1,0,.32c0,.14,0,.23,0,.31s0,.66,0,1.59C231.39,130,231.39,130.69,231.39,131.42Zm-1.33-6.75a1.37,1.37,0,0,1-1-.42,1.34,1.34,0,0,1-.43-1,1.32,1.32,0,0,1,.43-1,1.4,1.4,0,0,1,1-.41,1.43,1.43,0,0,1,1.44,1.42,1.38,1.38,0,0,1-.43,1A1.33,1.33,0,0,1,230.06,124.67Z"/><path class="cls-1" d="M246.89,131.3a3.43,3.43,0,0,1-.12,1.2c-.09.13-.33.23-.76.23h-8.19a.85.85,0,0,0-.46.07.42.42,0,0,0-.1.29,4.64,4.64,0,0,0,1.17,3.24,3.84,3.84,0,0,0,5,.68,3,3,0,0,0,1.23-1.56l.23-.76a.8.8,0,0,1,.85-.61c.63,0,.95.32.95,1a3.69,3.69,0,0,1-1.7,3,6.12,6.12,0,0,1-3.87,1.29,5.47,5.47,0,0,1-4.29-1.79,7.25,7.25,0,0,1-1.59-4.91,7.45,7.45,0,0,1,1.7-5.08,5.51,5.51,0,0,1,4.42-2,5.35,5.35,0,0,1,4,1.62A5.6,5.6,0,0,1,246.89,131.3Zm-9.34-.66c0,.26.19.37.56.37h6.18c.35,0,.55-.11.55-.37a3.19,3.19,0,0,0-1-2.35,3.42,3.42,0,0,0-2.43-1,4,4,0,0,0-2.65,1A3.06,3.06,0,0,0,237.55,130.64Z"/><path class="cls-1" d="M252.74,126.82v.72a5,5,0,0,1,4.12-2,5.21,5.21,0,0,1,2.63.7,3.72,3.72,0,0,1,1.67,1.77,6.14,6.14,0,0,1,.36,2.29v4.89c0,.73,0,1.19,0,1.31.09.59.32.88.7.88a3.16,3.16,0,0,0,.61-.06,3.8,3.8,0,0,1,.53-.06.87.87,0,0,1,.58.23.73.73,0,0,1,.24.56.87.87,0,0,1-.3.65,1.25,1.25,0,0,1-.76.26,10.27,10.27,0,0,1-1.19-.1,10.65,10.65,0,0,0-1.53-.13,10.24,10.24,0,0,0-1.11.06l-1.37.17c-.68,0-1-.3-1-.91s.29-.79.88-.79a1.84,1.84,0,0,1,.49,0,3.38,3.38,0,0,0,.61.09c.42,0,.65-.46.68-1.4v-4.85a8.82,8.82,0,0,0-.12-1.87,2.46,2.46,0,0,0-1-1.52,3.3,3.3,0,0,0-1.92-.59,3.2,3.2,0,0,0-3,1.46,6.83,6.83,0,0,0-.61,3.42v3.43a5.31,5.31,0,0,0,.14,1.54.58.58,0,0,0,.58.42,3.14,3.14,0,0,0,.56-.09,2,2,0,0,1,.59-.09c.54,0,.79.27.79.85s-.33.85-1,.85c-.14,0-.6-.06-1.36-.17a8,8,0,0,0-1.26-.07,9.81,9.81,0,0,0-1.43.12c-.76.06-1.2.12-1.29.12-.73,0-1.08-.3-1.08-.88s.28-.82.84-.82a2.31,2.31,0,0,1,.49.08,4,4,0,0,0,.68.06c.53,0,.81-.49.82-1.49v-6.87a3.45,3.45,0,0,0-.21-1.19.65.65,0,0,0-.61-.33,1.82,1.82,0,0,0-.53.08,2.07,2.07,0,0,1-.53.07c-.64,0-.95-.27-.95-.83s.38-.85,1.16-.85h.26l1,.11a5.1,5.1,0,0,0,.72-.06c.45,0,.68-.06.7-.06C252.48,126,252.74,126.28,252.74,126.82Z"/><path class="cls-1" d="M272.69,130.4c0-.68.43-1.08,1.3-1.2a2.08,2.08,0,0,0-.87-1.4,3.23,3.23,0,0,0-1.92-.53,3.5,3.5,0,0,0-2.85,1.41,7.35,7.35,0,0,0-.06,7.57,3.29,3.29,0,0,0,2.82,1.38,3.1,3.1,0,0,0,2-.65,3.15,3.15,0,0,0,1.14-1.78c.18-.59.29-.94.32-1a.88.88,0,0,1,.82-.51,1,1,0,0,1,1,1,4,4,0,0,1-.41,1.54,5.07,5.07,0,0,1-1,1.48,5.18,5.18,0,0,1-3.94,1.63,5.34,5.34,0,0,1-4.24-1.84,7.16,7.16,0,0,1-1.61-4.88,7.56,7.56,0,0,1,1.66-5.1,5.56,5.56,0,0,1,4.42-1.92,5.3,5.3,0,0,1,3.42,1.11,3.57,3.57,0,0,1,1.37,2.85,2.32,2.32,0,0,1-.54,1.58,1.67,1.67,0,0,1-1.35.62,1.52,1.52,0,0,1-1.06-.38A1.25,1.25,0,0,1,272.69,130.4Z"/><path class="cls-1" d="M282.51,131.42v3.36c0,.85,0,1.36,0,1.52.1.76.32,1.14.7,1.14a3.94,3.94,0,0,0,.66-.09.73.73,0,0,1,.38,0c.65,0,1,.27,1,.84a.76.76,0,0,1-.32.6,1.34,1.34,0,0,1-.82.26,10,10,0,0,1-1.25-.12,8.13,8.13,0,0,0-1.26-.12,9.19,9.19,0,0,0-1.49.12c-.67.06-1.12.12-1.33.12-.7,0-1.05-.29-1.05-.86s.3-.84.88-.84a4.62,4.62,0,0,1,.62.06,3.37,3.37,0,0,0,.61.06c.42,0,.67-.55.76-1.64v-6.59c-.09-1.1-.35-1.63-.79-1.63a2,2,0,0,0-.58.11,4.59,4.59,0,0,1-.56.07c-.62,0-.94-.29-.94-.82s.38-.88,1.14-.88c.32,0,.56,0,.7,0,.54.06.89.11,1.05.11a3.13,3.13,0,0,0,.62-.08,5.17,5.17,0,0,1,.64-.06c.5,0,.74.33.74,1,0,.08,0,.17,0,.32a2.62,2.62,0,0,0,0,.31q0,.19,0,1.59C282.51,130,282.51,130.69,282.51,131.42Zm-1.35-6.75a1.43,1.43,0,0,1-1-2.44,1.39,1.39,0,0,1,1-.41,1.43,1.43,0,0,1,1,.41,1.38,1.38,0,0,1,.41,1,1.42,1.42,0,0,1-1.44,1.43Z"/><path class="cls-1" d="M306,125.58a4.55,4.55,0,0,1,2.87.9v-.11c0-.63.28-.94.82-.94s.85.28.85.82c0,.09,0,.35,0,.76a6.09,6.09,0,0,0-.09,1c0,.21,0,.51.06.91a7,7,0,0,1,.06.89c0,.66-.27,1-.83,1a.76.76,0,0,1-.84-.82v-.85a1.63,1.63,0,0,0-.89-1.34,3.67,3.67,0,0,0-2-.55,3.21,3.21,0,0,0-2,.62,1.82,1.82,0,0,0-.8,1.51c0,1.09.76,1.75,2.28,2l1.49.2c2.93.39,4.39,1.59,4.39,3.63a3.73,3.73,0,0,1-1.41,3,6.47,6.47,0,0,1-7.39-.08v.5a.79.79,0,0,1-.88.91c-.62,0-1-.36-1-1a11.81,11.81,0,0,0,.17-1.36,5.53,5.53,0,0,0,0-.71,6.11,6.11,0,0,0-.1-1.16,6.16,6.16,0,0,1-.11-.85c0-.59.28-.89.84-.89.35,0,.59.07.68.24a5,5,0,0,1,.17,1.37,2.12,2.12,0,0,0,1.15,1.81,5.57,5.57,0,0,0,2.89.69,3.23,3.23,0,0,0,2.08-.65,2,2,0,0,0,.82-1.63c0-1.15-.92-1.83-2.78-2a11.13,11.13,0,0,1-4-1,2.77,2.77,0,0,1-1.38-2.68,3.63,3.63,0,0,1,1.35-2.92A5.47,5.47,0,0,1,306,125.58Z"/><path class="cls-1" d="M322.79,125.13c0-1.26-.42-1.89-1.31-1.89a1.58,1.58,0,0,0-.54.05,3.85,3.85,0,0,1-.69.08.74.74,0,0,1-.57-.25.81.81,0,0,1-.23-.61c0-.59.36-.91,1.08-.91,0,0,.15,0,.38.05,2.56.15,3.76.24,3.58.24h.26l6.18-.18,1.35-.06c.26,0,.52-.05.73-.05.9,0,1.34.41,1.34,1.19,0,.15,0,.59-.07,1.32,0,.55-.06,1.06-.06,1.52a10.9,10.9,0,0,0,.06,1.26c0,.5.07.87.07,1.11,0,.65-.3,1-.93,1s-.92-.45-.92-1.36v-1.36c0-1.44-.31-2.28-.9-2.53a11.14,11.14,0,0,0-3.43-.31,13.62,13.62,0,0,0-2.16.09,1.42,1.42,0,0,0-1.1,1.57v2.57c0,.68.14,1.07.45,1.18a1.89,1.89,0,0,0,.62.06h1c1.07,0,1.6-.38,1.6-1.11a6.71,6.71,0,0,0-.06-.8,5.69,5.69,0,0,1-.06-.87c0-.7.3-1,.91-1s.91.38.91,1.11c0,.13-.06.67-.17,1.59a18.63,18.63,0,0,0-.13,2.08c0,.34,0,1,.1,1.83,0,.13.05.44.12.91a7.5,7.5,0,0,1,.08.9.81.81,0,0,1-.93.92c-.59,0-.89-.36-.89-1.08a6.09,6.09,0,0,1,.06-.83,8,8,0,0,0,.06-.82c0-.73-.49-1.11-1.46-1.11H326c-.49,0-.79.1-.9.26a2.26,2.26,0,0,0-.17,1.11v1.59c0,.29,0,.65,0,1.11s0,1,0,1.14c0,.68.15,1.11.41,1.28a3,3,0,0,0,1.34.19h3.49a3.45,3.45,0,0,0,2.1-.47,2.08,2.08,0,0,0,.56-1.68c0-.26,0-.64,0-1.14s-.05-.88-.05-1.14c0-.78.32-1.17.93-1.17s1,.41,1,1.2c0,.3,0,.77,0,1.4s0,1.1,0,1.42,0,.6,0,1.07,0,.82,0,1.06c0,.82-.39,1.22-1.18,1.22-.2,0-.51,0-.92-.05a9.62,9.62,0,0,0-1.14,0c.14,0-.54,0-2-.05s-2.71-.06-3.77-.06c-1.63,0-3.2.06-4.74.18a.82.82,0,0,0-.22,0h-.17q-1.08,0-1.08-.93a.72.72,0,0,1,.8-.82c.08,0,.32,0,.69,0a1.82,1.82,0,0,0,.54.07c.89,0,1.31-.64,1.31-1.91Z"/><path class="cls-1" d="M344.76,130.4c0-.68.43-1.08,1.28-1.2a2,2,0,0,0-.85-1.4,3.27,3.27,0,0,0-1.92-.53,3.52,3.52,0,0,0-2.87,1.41,7.35,7.35,0,0,0-.06,7.57,3.29,3.29,0,0,0,2.82,1.38,3.08,3.08,0,0,0,2-.65,3.21,3.21,0,0,0,1.15-1.78c.17-.59.28-.94.31-1a.91.91,0,0,1,.82-.51.94.94,0,0,1,.73.29.91.91,0,0,1,.29.71,4,4,0,0,1-.41,1.54,5.31,5.31,0,0,1-1,1.48,5.15,5.15,0,0,1-3.94,1.63,5.38,5.38,0,0,1-4.24-1.84,7.26,7.26,0,0,1-1.59-4.88,7.55,7.55,0,0,1,1.65-5.1,5.55,5.55,0,0,1,4.43-1.92,5.34,5.34,0,0,1,3.42,1.11,3.56,3.56,0,0,1,1.36,2.85,2.41,2.41,0,0,1-.53,1.58,1.7,1.7,0,0,1-1.35.62,1.47,1.47,0,0,1-1.06-.38A1.25,1.25,0,0,1,344.76,130.4Z"/><path class="cls-1" d="M356.31,139.32a5.45,5.45,0,0,1-4.32-1.85,7.41,7.41,0,0,1-1.62-5,7.28,7.28,0,0,1,1.64-5,5.54,5.54,0,0,1,4.39-1.87,5.6,5.6,0,0,1,4.42,1.83,7.21,7.21,0,0,1,1.63,5,7.37,7.37,0,0,1-1.67,5A5.63,5.63,0,0,1,356.31,139.32Zm.15-12a3.5,3.5,0,0,0-2.84,1.26,5.86,5.86,0,0,0-1.14,3.59v.35a6.13,6.13,0,0,0,1,3.78,3.33,3.33,0,0,0,2.85,1.38,3.48,3.48,0,0,0,2.95-1.38,6,6,0,0,0,1.08-3.81Q360.38,127.27,356.46,127.27Z"/><path class="cls-1" d="M368.39,126.82v.72a4.94,4.94,0,0,1,4.12-2,5.18,5.18,0,0,1,2.63.7,3.72,3.72,0,0,1,1.67,1.77,6.14,6.14,0,0,1,.36,2.29v4.89c0,.73,0,1.19,0,1.31.08.59.32.88.7.88a2.91,2.91,0,0,0,.59-.06,3.9,3.9,0,0,1,.54-.06.81.81,0,0,1,.57.23.7.7,0,0,1,.25.56.81.81,0,0,1-.31.65,1.17,1.17,0,0,1-.74.26,10.27,10.27,0,0,1-1.19-.1,10.92,10.92,0,0,0-1.55-.13,10.72,10.72,0,0,0-1.11.06l-1.35.17c-.68,0-1.05-.3-1.05-.91s.31-.79.9-.79a1.57,1.57,0,0,1,.47,0,3.57,3.57,0,0,0,.64.09c.42,0,.65-.46.68-1.4v-4.85a7.85,7.85,0,0,0-.14-1.87,2.47,2.47,0,0,0-1-1.52,3.34,3.34,0,0,0-1.93-.59,3.19,3.19,0,0,0-2.95,1.46,6.93,6.93,0,0,0-.62,3.42v3.43a5.12,5.12,0,0,0,.16,1.54.55.55,0,0,0,.57.42,3.29,3.29,0,0,0,.56-.09,2.11,2.11,0,0,1,.59-.09c.53,0,.79.27.79.85s-.33.85-1,.85c-.13,0-.59-.06-1.35-.17a8,8,0,0,0-1.26-.07,9.71,9.71,0,0,0-1.43.12c-.76.06-1.18.12-1.29.12-.71,0-1.08-.3-1.08-.88s.27-.82.84-.82a2.08,2.08,0,0,1,.48.08,4.32,4.32,0,0,0,.7.06c.52,0,.79-.49.81-1.49v-6.87a3.17,3.17,0,0,0-.22-1.19.64.64,0,0,0-.59-.33,2,2,0,0,0-.55.08,2,2,0,0,1-.53.07c-.62,0-.94-.27-.94-.83s.38-.85,1.15-.85h.26l1,.11a5.39,5.39,0,0,0,.73-.06c.44,0,.67-.06.68-.06C368.15,126,368.39,126.28,368.39,126.82Z"/><path class="cls-1" d="M386.77,139.32a5.48,5.48,0,0,1-4.33-1.85,7.45,7.45,0,0,1-1.61-5,7.33,7.33,0,0,1,1.63-5,6.17,6.17,0,0,1,8.81,0,7.11,7.11,0,0,1,1.63,5,7.37,7.37,0,0,1-1.67,5A5.6,5.6,0,0,1,386.77,139.32Zm.14-12a3.46,3.46,0,0,0-2.82,1.26,5.86,5.86,0,0,0-1.14,3.59v.35a6.2,6.2,0,0,0,1,3.78,3.32,3.32,0,0,0,2.84,1.38,3.53,3.53,0,0,0,3-1.38,6.08,6.08,0,0,0,1.06-3.81Q390.83,127.27,386.91,127.27Zm2.75-5.5c0,.43-.3.76-.91,1l-3.65,1.61a1.62,1.62,0,0,0-.36.08c-.34,0-.52-.22-.52-.63,0-.21.18-.44.52-.67l3.25-2a1.48,1.48,0,0,1,.79-.26A.78.78,0,0,1,389.66,121.77Z"/><path class="cls-1" d="M398.78,126.78v.76a5.5,5.5,0,0,1,1.75-1.53,4.32,4.32,0,0,1,2.05-.43,4,4,0,0,1,3.71,2,5.41,5.41,0,0,1,1.77-1.51,5.15,5.15,0,0,1,2.33-.45,5.6,5.6,0,0,1,2.63.61,3.82,3.82,0,0,1,1.77,2,8,8,0,0,1,.32,2.68v4.43c0,.7,0,1.14,0,1.28.1.62.31.94.67.94a3.2,3.2,0,0,0,.53-.09,2.09,2.09,0,0,1,.54-.09c.6,0,.89.24.89.77s-.35.93-1,.93a9.54,9.54,0,0,1-1.17-.1c-.52-.05-.91-.08-1.2-.08s-.71,0-1.26.08a11,11,0,0,1-1.28.1c-.73,0-1.09-.3-1.09-.93s.27-.77.83-.77l.52.06a.93.93,0,0,0,.41.06.52.52,0,0,0,.55-.44,14.64,14.64,0,0,0,.15-2.19v-3.26a8.21,8.21,0,0,0-.29-2.6,2.22,2.22,0,0,0-1-1.26,3.13,3.13,0,0,0-1.69-.46,2.63,2.63,0,0,0-2.54,1.26,7.6,7.6,0,0,0-.57,3.5v1.82a21.39,21.39,0,0,0,.12,3c.07.41.29.61.6.61a1.85,1.85,0,0,0,.46-.06,2.34,2.34,0,0,1,.44-.06.9.9,0,0,1,.61.24.78.78,0,0,1,.24.61c0,.56-.39.85-1.21.85a8.87,8.87,0,0,1-1.14-.1,8.09,8.09,0,0,0-1.16-.13,6.53,6.53,0,0,0-1.17.13,7,7,0,0,1-1.14.1c-.7,0-1.05-.3-1.05-.89s.26-.81.76-.81a.84.84,0,0,1,.44.08,2.82,2.82,0,0,0,.55.1c.41,0,.62-.44.64-1.32l.08-1.22v-3.73a5.92,5.92,0,0,0-.6-3.13,2.45,2.45,0,0,0-2.15-.87,3,3,0,0,0-2.6,1.23,6.09,6.09,0,0,0-.75,3.51v3.44c0,.68,0,1.09,0,1.2.07.59.27.89.58.89a3.39,3.39,0,0,0,.54-.15l.14,0h.18c.69,0,1,.27,1,.85s-.38.85-1.15.85a8.06,8.06,0,0,1-1.08-.09,14.86,14.86,0,0,0-1.49-.09,9.1,9.1,0,0,0-1.14.08c-.73.07-1.18.1-1.33.1-.69,0-1-.3-1-.89s.34-.81,1-.81h.16l.16,0,.66.12s0,0,.1,0c.47,0,.72-.42.76-1.27v-5.38a18,18,0,0,0-.12-2.74.59.59,0,0,0-.62-.53,6.2,6.2,0,0,0-.73.14,2.33,2.33,0,0,1-.41,0c-.64,0-1-.29-1-.82s.37-.88,1.07-.88a6.29,6.29,0,0,1,.75.06c.34,0,.61.05.87.05h.46l.62-.11h.08C398.57,126,398.78,126.3,398.78,126.78Z"/><path class="cls-1" d="M423,131.42v3.36c0,.85,0,1.36,0,1.52.08.76.32,1.14.7,1.14a3.81,3.81,0,0,0,.64-.09.81.81,0,0,1,.38,0c.65,0,1,.27,1,.84a.75.75,0,0,1-.31.6,1.39,1.39,0,0,1-.83.26,10.1,10.1,0,0,1-1.26-.12,7.72,7.72,0,0,0-1.24-.12,9.19,9.19,0,0,0-1.49.12c-.68.06-1.13.12-1.35.12-.69,0-1-.29-1-.86s.31-.84.88-.84a4.89,4.89,0,0,1,.63.06,3.09,3.09,0,0,0,.61.06c.41,0,.65-.55.74-1.64v-6.59c-.09-1.1-.35-1.63-.78-1.63a1.91,1.91,0,0,0-.57.11,4.59,4.59,0,0,1-.56.07c-.64,0-.95-.29-.95-.82s.38-.88,1.14-.88c.32,0,.57,0,.69,0,.56.06.91.11,1.06.11a3,3,0,0,0,.62-.08,5.17,5.17,0,0,1,.64-.06c.5,0,.75.33.75,1a2.14,2.14,0,0,1,0,.32c0,.14,0,.23,0,.31s0,.66,0,1.59C423,130,423,130.69,423,131.42Zm-1.35-6.75a1.38,1.38,0,0,1-1-.42,1.41,1.41,0,0,1-.42-1,1.39,1.39,0,0,1,.42-1,1.41,1.41,0,0,1,1-.41,1.36,1.36,0,0,1,1,.41,1.32,1.32,0,0,1,.43,1,1.45,1.45,0,0,1-1.45,1.43Z"/><path class="cls-1" d="M434.29,130.4c0-.68.43-1.08,1.28-1.2a2,2,0,0,0-.87-1.4,3.19,3.19,0,0,0-1.9-.53,3.49,3.49,0,0,0-2.87,1.41,7.35,7.35,0,0,0-.06,7.57,3.29,3.29,0,0,0,2.82,1.38,3.1,3.1,0,0,0,2-.65,3.21,3.21,0,0,0,1.15-1.78c.17-.59.28-.94.31-1a.89.89,0,0,1,.82-.51,1,1,0,0,1,.73.29,1,1,0,0,1,.27.71,3.9,3.9,0,0,1-.39,1.54,5.54,5.54,0,0,1-1,1.48,5.18,5.18,0,0,1-3.94,1.63,5.36,5.36,0,0,1-4.24-1.84,7.21,7.21,0,0,1-1.61-4.88,7.61,7.61,0,0,1,1.66-5.1,5.57,5.57,0,0,1,4.42-1.92,5.28,5.28,0,0,1,3.42,1.11,3.51,3.51,0,0,1,1.37,2.85,2.41,2.41,0,0,1-.52,1.58,1.71,1.71,0,0,1-1.35.62,1.53,1.53,0,0,1-1.08-.38A1.3,1.3,0,0,1,434.29,130.4Z"/><path class="cls-1" d="M480.29,125.6a4.2,4.2,0,0,1,3.81,2V125a9.27,9.27,0,0,0-.05-1.26q-.14-.81-.72-.81a3.1,3.1,0,0,0-.58.11,5,5,0,0,1-.58.09c-.64,0-1-.29-1-.84s.43-.88,1.29-.88c.14,0,.38,0,.75.06l.85.08a5.38,5.38,0,0,0,.67-.06,4.34,4.34,0,0,1,.67-.08c.48,0,.71.37.71,1v.27c0,.06,0,.52,0,1.39,0,.09,0,.75-.08,2,0,.87,0,1.5,0,2v6.82a9.56,9.56,0,0,0,.16,2.13.59.59,0,0,0,.62.41,1.92,1.92,0,0,0,.53,0l.58,0c.64,0,1,.29,1,.85s-.39.87-1.17.87a4.71,4.71,0,0,1-.77-.08,7.54,7.54,0,0,0-.79-.06l-.6.05a1.84,1.84,0,0,1-.53.09c-.47,0-.7-.32-.7-.93v-.56a4.65,4.65,0,0,1-3.95,1.82,5.23,5.23,0,0,1-4.22-1.91,7.43,7.43,0,0,1-1.58-5,7.54,7.54,0,0,1,1.56-5A5.25,5.25,0,0,1,480.29,125.6Zm3.7,9.09a16.63,16.63,0,0,0,.11-2.19,16,16,0,0,0-.12-2.34,3.26,3.26,0,0,0-1.13-2,3.65,3.65,0,0,0-2.4-.85,3.37,3.37,0,0,0-2.84,1.38,5.92,5.92,0,0,0-1,3.72,6.27,6.27,0,0,0,1.06,3.85,3.48,3.48,0,0,0,2.92,1.41,3.39,3.39,0,0,0,2.34-.81A3.23,3.23,0,0,0,484,134.69Z"/><path class="cls-1" d="M501.67,131.31a2.9,2.9,0,0,1-.14,1.19c-.09.15-.34.23-.75.23h-8.22a.66.66,0,0,0-.42.09.34.34,0,0,0-.11.3,4.69,4.69,0,0,0,1.16,3.22,3.72,3.72,0,0,0,2.9,1.31,3.82,3.82,0,0,0,2.07-.61,3,3,0,0,0,1.23-1.58l.22-.74a.83.83,0,0,1,.86-.63.86.86,0,0,1,1,1,3.71,3.71,0,0,1-1.72,3,6.15,6.15,0,0,1-3.86,1.31,5.45,5.45,0,0,1-4.3-1.82,7.17,7.17,0,0,1-1.59-4.88,7.58,7.58,0,0,1,1.7-5.11,5.6,5.6,0,0,1,4.43-1.94,5.34,5.34,0,0,1,4,1.61A5.71,5.71,0,0,1,501.67,131.31Zm-9.35-.64c0,.25.18.35.56.35h6.17c.37,0,.55-.1.55-.35a3.19,3.19,0,0,0-1-2.37,3.44,3.44,0,0,0-2.44-1,4,4,0,0,0-2.62,1A3.09,3.09,0,0,0,492.32,130.67Z"/><path class="cls-1" d="M514.05,128.14v8c0,.88.24,1.31.7,1.31a6.47,6.47,0,0,0,.65-.11c.2,0,.35-.06.43-.06a.77.77,0,0,1,.85.87c0,.57-.35.85-1.07.85a9.62,9.62,0,0,1-1.3-.12,12.26,12.26,0,0,0-1.38-.1,10.45,10.45,0,0,0-1.24.1,7.62,7.62,0,0,1-1.21.12h-.12q-1.08,0-1.08-.93c0-.52.29-.79.89-.79h.17l.25,0c.42.07.68.12.75.12a.54.54,0,0,0,.58-.41,11.13,11.13,0,0,0,.14-2.07l0-1.82v-8.6c0-.51-.06-.85-.09-1a.72.72,0,0,0-.73-.59l-.65.11a2.49,2.49,0,0,1-.47.06c-.59,0-.88-.29-.88-.84s.35-.88,1-.88c.18,0,.35,0,.49,0l.62.11a6.28,6.28,0,0,0,.7,0c.17,0,.42,0,.78-.07a3.42,3.42,0,0,1,.75-.11c.41,0,.6.26.6.76a1.28,1.28,0,0,1,0,.38C514.11,123.85,514.05,125.72,514.05,128.14Z"/><path class="cls-1" d="M529,139.24a2.37,2.37,0,0,1-2.6-1.82,4.65,4.65,0,0,1-4.11,1.93,5.17,5.17,0,0,1-3.35-1,3.44,3.44,0,0,1-1.24-2.77,3.36,3.36,0,0,1,1.82-3.13,5,5,0,0,1,1.2-.5c.33-.08,1-.18,2-.3a8.11,8.11,0,0,0,2.83-.64,1.67,1.67,0,0,0,.65-1.52,2,2,0,0,0-.73-1.66,3.19,3.19,0,0,0-2-.6,4,4,0,0,0-2.16.63c-.26.19-.38.35-.38.54s.06.16.23.27a1,1,0,0,1,.35.88,1.14,1.14,0,0,1-.36.85,1.58,1.58,0,0,1-2.07-.14,1.6,1.6,0,0,1-.46-1.14,3,3,0,0,1,1.45-2.47,5.66,5.66,0,0,1,3.45-1c3.13,0,4.68,1.49,4.68,4.5v5.19a10.86,10.86,0,0,0,.06,1.45c.1.61.39.91.86.91s.91-.55.91-1.63v-1.26a.7.7,0,0,1,.79-.8c.57,0,.84.39.84,1.23v1.59C531.62,138.41,530.75,139.24,529,139.24Zm-2.87-5.13v-1.82a3.43,3.43,0,0,1-1.2.72,11.1,11.1,0,0,1-2.25.35c-1.94.2-2.92.92-2.92,2.18a1.85,1.85,0,0,0,.72,1.55,3,3,0,0,0,1.91.56,3.82,3.82,0,0,0,2.71-.94A3.55,3.55,0,0,0,526.16,134.11Z"/><path class="cls-1" d="M546.63,121.16a5.7,5.7,0,0,1,4.65,2.21v-.6a1,1,0,0,1,0-.18,3.18,3.18,0,0,0-.06-.52c0-.6.27-.91.81-.91s.85.37.85,1.1c0,.13,0,.53-.05,1.23-.09.86-.14,1.46-.14,1.78s0,.92.08,1.41l.11,1v.25c0,.76-.32,1.14-.93,1.14s-1-.36-1-1.09v-.91a3.88,3.88,0,0,0-1.17-3,4.47,4.47,0,0,0-3.15-1.15,4.67,4.67,0,0,0-4,2,9,9,0,0,0-1.44,5.41,9,9,0,0,0,1.47,5.53,4.87,4.87,0,0,0,4.12,2,5,5,0,0,0,2.58-.68,3.7,3.7,0,0,0,1.6-1.86,5.12,5.12,0,0,0,.32-2c0-.79.33-1.19,1-1.19s1.06.4,1.06,1.19a5.8,5.8,0,0,1-1.91,4.5A7.65,7.65,0,0,1,541,137a9.75,9.75,0,0,1-2.09-6.53,10.29,10.29,0,0,1,2.13-6.76A6.89,6.89,0,0,1,546.63,121.16Z"/><path class="cls-1" d="M559.5,131.43v3.36c0,.85,0,1.37,0,1.52.09.78.32,1.16.72,1.16.06,0,.29-.05.64-.11a1.06,1.06,0,0,1,.38-.06c.65,0,1,.29,1,.85a.76.76,0,0,1-.32.61,1.31,1.31,0,0,1-.81.26,12,12,0,0,1-1.26-.12,10,10,0,0,0-1.26-.13,14.54,14.54,0,0,0-1.49.11,13.07,13.07,0,0,1-1.35.14c-.68,0-1-.29-1-.87s.3-.85.89-.85a3.06,3.06,0,0,1,.61.09,6.08,6.08,0,0,0,.61.05c.41,0,.67-.55.76-1.64v-6.6c-.09-1.08-.35-1.63-.79-1.63a2.28,2.28,0,0,0-.58.11,3.46,3.46,0,0,1-.56.08c-.62,0-.94-.28-.94-.82s.38-.88,1.14-.88a5.29,5.29,0,0,1,.69,0,10.41,10.41,0,0,0,1.07.1,2.93,2.93,0,0,0,.62-.07c.28,0,.49-.06.62-.06.51,0,.76.33.76,1a2.55,2.55,0,0,1,0,.31c0,.13,0,.24,0,.3s0,.69,0,1.6C559.5,130,559.5,130.69,559.5,131.43Zm-1.34-6.74a1.39,1.39,0,0,1-1-.43,1.34,1.34,0,0,1-.42-1,1.28,1.28,0,0,1,.42-1,1.43,1.43,0,0,1,1-.43,1.37,1.37,0,0,1,1,.43,1.3,1.3,0,0,1,.44,1,1.35,1.35,0,0,1-.44,1A1.33,1.33,0,0,1,558.16,124.69Z"/><path class="cls-1" d="M573.83,138.27v-.8a4.67,4.67,0,0,1-4,1.88c-2,0-3.44-.62-4.21-1.88a3.81,3.81,0,0,1-.58-1.93c0-.35,0-1.13,0-2.27v-2.14c0-2.35-.25-3.52-.77-3.52a4.15,4.15,0,0,0-.49,0,3.61,3.61,0,0,1-.51,0c-.61,0-.92-.27-.92-.83s.37-.81,1.1-.81a6.9,6.9,0,0,1,.77.06c.34,0,.6.06.76.06s.41,0,.81-.07l.42,0c.55,0,.81.32.81,1v2.21l-.08,1.91v1.67a9.61,9.61,0,0,0,.37,3.22c.39,1.1,1.34,1.63,2.82,1.63a3.81,3.81,0,0,0,2-.5,2.79,2.79,0,0,0,1.19-1.32,11.88,11.88,0,0,0,.41-3.83v-3.09c-.09-.82-.32-1.23-.67-1.23h-.77c-.61,0-.9-.26-.9-.76s.33-.88,1-.88c.15,0,.38,0,.7,0s.55,0,.72,0,.33,0,.62,0,.47,0,.61,0c.51,0,.77.27.77.82a3.09,3.09,0,0,1,0,.58,20.64,20.64,0,0,0-.14,2.87v4c0,1.05,0,1.64,0,1.76.08.92.32,1.37.73,1.37.11,0,.27,0,.5-.06s.41-.06.52-.06a.77.77,0,0,1,.88.85c0,.58-.37.87-1.08.87-.17,0-.38,0-.68-.05a6.07,6.07,0,0,0-.79-.09l-.55.05a2,2,0,0,1-.53.09A.66.66,0,0,1,573.83,138.27Z"/><path class="cls-1" d="M585,125.6a4.21,4.21,0,0,1,3.81,2V125a8.57,8.57,0,0,0-.06-1.26c-.07-.54-.31-.81-.71-.81a3,3,0,0,0-.58.11,5.4,5.4,0,0,1-.59.09c-.64,0-.94-.29-.94-.84s.42-.88,1.29-.88c.14,0,.38,0,.74.06l.85.08a5.38,5.38,0,0,0,.67-.06,4.24,4.24,0,0,1,.66-.08c.48,0,.73.37.73,1v.27c0,.06,0,.52,0,1.39,0,.09,0,.75-.08,2,0,.87-.06,1.5-.06,2v6.82a10,10,0,0,0,.17,2.13.57.57,0,0,0,.62.41,1.84,1.84,0,0,0,.52,0l.58,0c.65,0,1,.29,1,.85s-.38.87-1.15.87a5,5,0,0,1-.79-.08,7.59,7.59,0,0,0-.78-.06l-.59.05a2.08,2.08,0,0,1-.55.09c-.45,0-.7-.32-.7-.93v-.56a4.61,4.61,0,0,1-4,1.82,5.22,5.22,0,0,1-4.21-1.91,8.66,8.66,0,0,1,0-10A5.19,5.19,0,0,1,585,125.6Zm3.71,9.09a21.4,21.4,0,0,0,.1-2.19,13.16,13.16,0,0,0-.13-2.34,3.24,3.24,0,0,0-1.11-2,3.74,3.74,0,0,0-2.42-.85,3.39,3.39,0,0,0-2.84,1.38,6,6,0,0,0-1,3.72,6.14,6.14,0,0,0,1.08,3.85,3.45,3.45,0,0,0,2.91,1.41,3.37,3.37,0,0,0,2.34-.81A3.24,3.24,0,0,0,588.72,134.69Z"/><path class="cls-1" d="M613.93,125.6a4.21,4.21,0,0,1,3.81,2V125a8.57,8.57,0,0,0-.06-1.26c-.08-.54-.32-.81-.71-.81a3.24,3.24,0,0,0-.6.11,4.3,4.3,0,0,1-.57.09c-.63,0-.95-.29-.95-.84s.43-.88,1.28-.88c.15,0,.4,0,.76.06l.85.08a4.84,4.84,0,0,0,.65-.06,4.68,4.68,0,0,1,.69-.08c.47,0,.71.37.71,1v.27c0,.06,0,.52,0,1.39,0,.09,0,.75-.08,2,0,.87,0,1.5,0,2v6.82a9.18,9.18,0,0,0,.15,2.13.59.59,0,0,0,.64.41,1.84,1.84,0,0,0,.51,0l.58,0c.64,0,1,.29,1,.85s-.38.87-1.16.87a4.71,4.71,0,0,1-.77-.08c-.37,0-.63-.06-.79-.06l-.6.05a2,2,0,0,1-.54.09c-.46,0-.7-.32-.7-.93v-.56a4.62,4.62,0,0,1-3.95,1.82,5.21,5.21,0,0,1-4.21-1.91,7.48,7.48,0,0,1-1.58-5,7.59,7.59,0,0,1,1.56-5A5.25,5.25,0,0,1,613.93,125.6Zm3.7,9.09a16.63,16.63,0,0,0,.11-2.19,12,12,0,0,0-.14-2.34,3.2,3.2,0,0,0-1.12-2,3.59,3.59,0,0,0-2.39-.85,3.4,3.4,0,0,0-2.85,1.38,7.35,7.35,0,0,0,.06,7.57,3.73,3.73,0,0,0,5.24.6A3.23,3.23,0,0,0,617.63,134.69Z"/><path class="cls-1" d="M642.81,136l-.92-2.52a1.07,1.07,0,0,0-.32-.52,1.18,1.18,0,0,0-.67-.12h-4.59a1,1,0,0,0-.71.18,3.57,3.57,0,0,0-.51,1l-.74,2a1.29,1.29,0,0,0-.11.53c0,.55.34.82,1,.82a4.57,4.57,0,0,0,.73-.06c.33,0,.56-.05.71-.05.71,0,1.06.31,1.06.92s-.39.85-1.17.85A5.13,5.13,0,0,1,636,139l-1.29-.15a10.46,10.46,0,0,0-1.19,0,11.71,11.71,0,0,0-1.26,0l-1.08.11a9.38,9.38,0,0,1-1,.09c-.69,0-1-.28-1-.85s.32-.92,1-.92a.48.48,0,0,1,.31.11h.32a1.2,1.2,0,0,0,1.07-.55,5.9,5.9,0,0,0,.51-1.2l4.79-13a1.57,1.57,0,0,1,1.61-1.09,1.52,1.52,0,0,1,1.58,1.09l4.61,12.77a5,5,0,0,0,.8,1.59,1.31,1.31,0,0,0,1,.38,1.24,1.24,0,0,0,.31,0l.71-.08c.67,0,1,.29,1,.86s-.32.91-1,.91c-.18,0-.42,0-.74-.05a20.25,20.25,0,0,0-2.42-.2c-.64,0-1.67.06-3.08.2-.37,0-.64.05-.82.05-.7,0-1-.29-1-.88s.38-.89,1.13-.89c.15,0,.39,0,.68.05a4.13,4.13,0,0,0,.68.06c.58,0,.86-.23.86-.7A3.49,3.49,0,0,0,642.81,136ZM641,130.75l-2.31-7.11-2.37,7.11a1.37,1.37,0,0,0,0,.18c0,.15.13.22.38.22h4.11c.18,0,.3-.05.3-.19A1,1,0,0,0,641,130.75Z"/><path class="cls-1" d="M659.36,138.27v-.8a4.63,4.63,0,0,1-4,1.88c-2,0-3.43-.62-4.22-1.88a4,4,0,0,1-.56-1.93c0-.35,0-1.13,0-2.27v-2.14c0-2.35-.26-3.52-.76-3.52a3.87,3.87,0,0,0-.49,0,3.66,3.66,0,0,1-.52,0c-.6,0-.92-.27-.92-.83s.38-.81,1.12-.81a6.92,6.92,0,0,1,.76.06c.32,0,.58.06.75.06s.42,0,.82-.07l.42,0c.53,0,.81.32.81,1v2.21l-.08,1.91v1.67a10.31,10.31,0,0,0,.35,3.22c.4,1.1,1.34,1.63,2.83,1.63a3.87,3.87,0,0,0,2-.5,2.8,2.8,0,0,0,1.17-1.32,11.44,11.44,0,0,0,.43-3.83v-3.09q-.13-1.23-.69-1.23h-.76c-.6,0-.91-.26-.91-.76s.34-.88,1-.88c.15,0,.39,0,.71,0s.55,0,.7,0a5.82,5.82,0,0,0,.62,0l.61,0c.53,0,.77.27.77.82a2.42,2.42,0,0,1,0,.58,23.16,23.16,0,0,0-.12,2.87v4c0,1.05,0,1.64,0,1.76.09.92.34,1.37.73,1.37a5.18,5.18,0,0,0,.52-.06,4.88,4.88,0,0,1,.52-.06.76.76,0,0,1,.86.85c0,.58-.35.87-1.08.87-.15,0-.38,0-.67-.05a6.07,6.07,0,0,0-.79-.09l-.54.05a2.15,2.15,0,0,1-.55.09A.67.67,0,0,1,659.36,138.27Z"/><path class="cls-1" d="M671.93,135.34v-1.63c0-.71.33-1.06.94-1.06s.9.4.9,1.19a7.84,7.84,0,0,1-.72,3.92,3.52,3.52,0,0,1-3.2,1.48,3.27,3.27,0,0,1-2.92-1.3,6.3,6.3,0,0,1-.64-3.25V128.5c0-.36-.17-.55-.49-.55H665a.9.9,0,0,1-.68-.25A.87.87,0,0,1,664,127a.94.94,0,0,1,.27-.65.85.85,0,0,1,.61-.27h1c.3,0,.44-.17.44-.49V123c0-.65.33-1,1-1s.92.32.92,1v2.75c0,.26.16.4.46.4h2.81c.66,0,1,.3,1,.89s-.35.94-1,.94H668.6c-.26,0-.37.19-.37.55v6.34c0,1.81.6,2.7,1.8,2.7S671.88,136.81,671.93,135.34Z"/><path class="cls-1" d="M681,139.35a5.44,5.44,0,0,1-4.33-1.87,8.59,8.59,0,0,1,0-10,6.23,6.23,0,0,1,8.83,0,7.26,7.26,0,0,1,1.61,5,7.47,7.47,0,0,1-1.65,5.05A5.7,5.7,0,0,1,681,139.35Zm.15-12.06a3.5,3.5,0,0,0-2.86,1.27,5.9,5.9,0,0,0-1.12,3.57v.34a6.23,6.23,0,0,0,1,3.8,3.32,3.32,0,0,0,2.84,1.38,3.53,3.53,0,0,0,3-1.38,6.07,6.07,0,0,0,1.08-3.82C685.07,129,683.76,127.29,681.15,127.29Zm2.74-5.5c0,.42-.31.77-.92,1l-3.64,1.6a2.41,2.41,0,0,1-.37.09c-.33,0-.51-.21-.51-.62,0-.23.18-.44.51-.67l3.25-2a1.59,1.59,0,0,1,.79-.24A.78.78,0,0,1,683.89,121.79Z"/><path class="cls-1" d="M693.08,126.82v.72a5,5,0,0,1,4.12-1.94,5.3,5.3,0,0,1,2.63.71,3.74,3.74,0,0,1,1.67,1.75,6.18,6.18,0,0,1,.36,2.31v4.88c0,.74,0,1.18,0,1.32.09.58.32.87.7.87a5.32,5.32,0,0,0,.6-.05,2.66,2.66,0,0,1,.54-.09.84.84,0,0,1,.57.24.81.81,0,0,1,.25.57.91.91,0,0,1-.31.65,1.19,1.19,0,0,1-.76.26,7.64,7.64,0,0,1-1.18-.12,12.27,12.27,0,0,0-1.54-.1,8.67,8.67,0,0,0-1.12.06l-1.35.16c-.7,0-1-.31-1-.91s.31-.81.9-.81a3,3,0,0,1,.47.06,6,6,0,0,0,.64.11c.41,0,.64-.49.67-1.42v-4.84a9,9,0,0,0-.12-1.89,2.49,2.49,0,0,0-1-1.5,3.17,3.17,0,0,0-1.91-.61,3.23,3.23,0,0,0-3,1.47,7.3,7.3,0,0,0-.6,3.44v3.42a5,5,0,0,0,.15,1.55.58.58,0,0,0,.56.41,2.57,2.57,0,0,0,.58-.09,2.51,2.51,0,0,1,.58-.11c.53,0,.8.3.8.87s-.33.85-1,.85c-.14,0-.58-.05-1.34-.16a7.84,7.84,0,0,0-1.26-.09c-.35,0-.84,0-1.44.11l-1.28.14c-.73,0-1.08-.29-1.08-.88a.74.74,0,0,1,.84-.84c.09,0,.24,0,.48.09a3.27,3.27,0,0,0,.7.08c.52,0,.79-.5.79-1.51v-6.87a2.87,2.87,0,0,0-.2-1.18.61.61,0,0,0-.59-.34,2.49,2.49,0,0,0-.55.1c-.24,0-.41.06-.53.06-.64,0-.94-.28-.94-.84s.38-.85,1.16-.85a.94.94,0,0,1,.25,0l.95.1a5.25,5.25,0,0,0,.73-.06l.69-.06A.68.68,0,0,1,693.08,126.82Z"/><path class="cls-1" d="M711.45,139.35a5.43,5.43,0,0,1-4.32-1.87,8.53,8.53,0,0,1,0-10,6.2,6.2,0,0,1,8.81,0,7.22,7.22,0,0,1,1.63,5,7.38,7.38,0,0,1-1.67,5.05A5.67,5.67,0,0,1,711.45,139.35Zm.15-12.06a3.45,3.45,0,0,0-2.84,1.27,6,6,0,0,0-1.14,3.57v.34a6.37,6.37,0,0,0,1,3.8,3.36,3.36,0,0,0,2.86,1.38,3.55,3.55,0,0,0,3-1.38,6.13,6.13,0,0,0,1.06-3.82C715.52,129,714.22,127.29,711.6,127.29Z"/><path class="cls-1" d="M723.45,126.82v.72a6.09,6.09,0,0,1,1.77-1.51,4.3,4.3,0,0,1,2-.43,4.05,4.05,0,0,1,3.71,1.94,5.31,5.31,0,0,1,1.77-1.5,5.17,5.17,0,0,1,2.31-.44,5.49,5.49,0,0,1,2.63.62,3.71,3.71,0,0,1,1.78,1.95,7.74,7.74,0,0,1,.33,2.67v4.44c0,.7,0,1.14,0,1.29.1.61.31.93.66.93a2.62,2.62,0,0,0,.55-.09,2.49,2.49,0,0,1,.53-.11c.59,0,.89.27.89.79s-.35.93-1,.93a8.09,8.09,0,0,1-1.17-.11c-.53,0-.93-.08-1.2-.08s-.71,0-1.28.08a9.36,9.36,0,0,1-1.27.11q-1.08,0-1.08-.93a.71.71,0,0,1,.82-.79,3.35,3.35,0,0,1,.51.09,1.61,1.61,0,0,0,.42.05.53.53,0,0,0,.56-.44,15.82,15.82,0,0,0,.13-2.18v-3.28a8.94,8.94,0,0,0-.27-2.58,2.39,2.39,0,0,0-1-1.28,3.26,3.26,0,0,0-1.7-.47,2.66,2.66,0,0,0-2.54,1.28,7.65,7.65,0,0,0-.56,3.51v1.82a20.22,20.22,0,0,0,.12,3c.06.4.27.6.59.6a3.31,3.31,0,0,0,.46-.05,1.67,1.67,0,0,1,.45-.09.8.8,0,0,1,.59.24.82.82,0,0,1,.26.63c0,.57-.41.85-1.21.85a6.64,6.64,0,0,1-1.14-.12,9.26,9.26,0,0,0-1.16-.1,7.51,7.51,0,0,0-1.18.1,5.51,5.51,0,0,1-1.13.12c-.71,0-1.06-.31-1.06-.9s.26-.82.77-.82a1.22,1.22,0,0,1,.45.09,2.91,2.91,0,0,0,.53.11c.42,0,.62-.44.64-1.32l.09-1.22v-3.74a6,6,0,0,0-.61-3.13,2.45,2.45,0,0,0-2.14-.88,3.08,3.08,0,0,0-2.62,1.25,6.24,6.24,0,0,0-.74,3.51v3.43a9.18,9.18,0,0,0,0,1.22c.06.57.25.88.55.88a2.73,2.73,0,0,0,.55-.15.29.29,0,0,0,.16,0h.17c.67,0,1,.3,1,.87s-.38.85-1.15.85a8.06,8.06,0,0,1-1.08-.09c-.59-.05-1.09-.1-1.5-.1-.2,0-.58,0-1.13.07-.74.09-1.18.12-1.33.12-.69,0-1-.31-1-.9s.34-.82,1-.82h.16l.15,0,.65.12s.06,0,.12,0c.47,0,.72-.43.75-1.26v-5.4a16.51,16.51,0,0,0-.12-2.72.59.59,0,0,0-.61-.55,7.2,7.2,0,0,0-.73.13,2,2,0,0,1-.41.06c-.64,0-1-.28-1-.82s.35-.88,1-.88a5.12,5.12,0,0,1,.78.06c.33,0,.6,0,.85,0h.45l.63-.1h.07C723.26,126.06,723.45,126.31,723.45,126.82Z"/><path class="cls-1" d="M754.56,139.24a2.37,2.37,0,0,1-2.6-1.82,4.65,4.65,0,0,1-4.12,1.93,5.13,5.13,0,0,1-3.34-1,3.45,3.45,0,0,1-1.25-2.77,3.34,3.34,0,0,1,1.83-3.13,4.81,4.81,0,0,1,1.2-.5c.33-.08,1-.18,2-.3a8,8,0,0,0,2.82-.64,1.64,1.64,0,0,0,.64-1.52,2,2,0,0,0-.71-1.66,3.23,3.23,0,0,0-2-.6,3.92,3.92,0,0,0-2.16.63c-.26.19-.4.35-.4.54s.08.16.25.27a1,1,0,0,1,.35.88,1.09,1.09,0,0,1-.38.85,1.35,1.35,0,0,1-.93.32,1.4,1.4,0,0,1-1.11-.46,1.52,1.52,0,0,1-.46-1.14,3,3,0,0,1,1.42-2.47,5.75,5.75,0,0,1,3.46-1c3.13,0,4.7,1.49,4.7,4.5v5.19a12.88,12.88,0,0,0,0,1.45c.11.61.4.91.88.91s.9-.55.9-1.63v-1.26a.7.7,0,0,1,.79-.8c.55,0,.84.39.84,1.23v1.59C757.16,138.41,756.28,139.24,754.56,139.24Zm-2.89-5.13v-1.82a3.45,3.45,0,0,1-1.18.72,11.1,11.1,0,0,1-2.25.35c-2,.2-2.92.92-2.92,2.18a1.89,1.89,0,0,0,.7,1.55,3.12,3.12,0,0,0,1.93.56,3.77,3.77,0,0,0,2.7-.94A3.46,3.46,0,0,0,751.67,134.11Z"/><path class="cls-1" d="M770.21,125.6a4.19,4.19,0,0,1,3.81,2V125a6.32,6.32,0,0,0-.06-1.26c-.07-.54-.32-.81-.71-.81a3.1,3.1,0,0,0-.58.11,4.67,4.67,0,0,1-.58.09c-.63,0-1-.29-1-.84s.42-.88,1.29-.88c.13,0,.38,0,.74.06l.85.08a5.23,5.23,0,0,0,.67-.06,4.48,4.48,0,0,1,.67-.08c.49,0,.72.37.72,1v.27a13.36,13.36,0,0,0-.05,1.39c0,.09,0,.75-.08,2,0,.87,0,1.5,0,2v6.82a9.18,9.18,0,0,0,.15,2.13.58.58,0,0,0,.62.41,1.92,1.92,0,0,0,.53,0l.58,0c.66,0,1,.29,1,.85s-.37.87-1.16.87a4.82,4.82,0,0,1-.77-.08,7.54,7.54,0,0,0-.79-.06l-.59.05a1.9,1.9,0,0,1-.54.09c-.47,0-.69-.32-.69-.93v-.56a4.69,4.69,0,0,1-4,1.82,5.24,5.24,0,0,1-4.21-1.91,8.71,8.71,0,0,1,0-10A5.21,5.21,0,0,1,770.21,125.6Zm3.71,9.09a18.86,18.86,0,0,0,.1-2.19,12.24,12.24,0,0,0-.13-2.34,3.24,3.24,0,0,0-1.11-2,3.67,3.67,0,0,0-2.4-.85,3.35,3.35,0,0,0-2.84,1.38,6,6,0,0,0-1,3.72,6.27,6.27,0,0,0,1.07,3.85,3.45,3.45,0,0,0,2.91,1.41,3.37,3.37,0,0,0,2.34-.81A3.24,3.24,0,0,0,773.92,134.69Z"/><path class="cls-1" d="M791.59,131.31a2.9,2.9,0,0,1-.14,1.19c-.07.15-.33.23-.74.23H782.5a.7.7,0,0,0-.44.09.36.36,0,0,0-.1.3,4.61,4.61,0,0,0,1.17,3.22,3.68,3.68,0,0,0,2.88,1.31,3.75,3.75,0,0,0,2.07-.61,2.84,2.84,0,0,0,1.23-1.58l.23-.74a.83.83,0,0,1,.86-.63.86.86,0,0,1,1,1,3.71,3.71,0,0,1-1.72,3,6.13,6.13,0,0,1-3.86,1.31,5.48,5.48,0,0,1-4.3-1.82,7.17,7.17,0,0,1-1.59-4.88,7.63,7.63,0,0,1,1.7-5.11A5.61,5.61,0,0,1,786,125.6a5.31,5.31,0,0,1,4,1.61A5.67,5.67,0,0,1,791.59,131.31Zm-9.35-.64c0,.25.19.35.57.35H789c.36,0,.54-.1.54-.35a3.18,3.18,0,0,0-1-2.37,3.46,3.46,0,0,0-2.44-1,4,4,0,0,0-2.63,1A3.09,3.09,0,0,0,782.24,130.67Z"/><path class="cls-1" d="M814.58,125.77q0,2.66-3,3.72a8.42,8.42,0,0,1,1.77.74,3.93,3.93,0,0,1,2.09,3.62,4.56,4.56,0,0,1-1.83,3.8,7.84,7.84,0,0,1-4.89,1.38c-.73,0-1.67,0-2.81-.13s-2-.13-2.49-.13a9.09,9.09,0,0,0-1.31.09l-1.22.16h-.36c-.75,0-1.11-.32-1.11-.92a.72.72,0,0,1,.8-.83,4,4,0,0,1,.69.08,5,5,0,0,0,.55.06c.88,0,1.32-.64,1.32-1.91V125.16c0-1.29-.44-1.93-1.32-1.93a3.84,3.84,0,0,0-.55,0,3.22,3.22,0,0,1-.69.1c-.53,0-.8-.28-.8-.84s.39-.9,1.19-.9H801l1.26.17a9.48,9.48,0,0,0,1.47.09c.66,0,1.58-.06,2.79-.15.8-.08,1.67-.11,2.59-.11a6.62,6.62,0,0,1,4.06,1.1A3.6,3.6,0,0,1,814.58,125.77Zm-9.86,1.12a3.24,3.24,0,0,0,.24,1.67c.17.23.61.34,1.35.34h1.43c3,0,4.58-1,4.58-3,0-1.8-1.27-2.7-3.77-2.7a9.14,9.14,0,0,0-3.24.33c-.39.23-.59.81-.59,1.72Zm0,5.23V135c0,1.12.18,1.82.56,2.08a7.45,7.45,0,0,0,3.08.38c3.21,0,4.82-1.21,4.82-3.6,0-2.22-1.53-3.33-4.63-3.33h-2.13c-.94,0-1.46.2-1.6.63A3.33,3.33,0,0,0,804.72,132.12Z"/><path class="cls-1" d="M828.27,138.27v-.8a4.65,4.65,0,0,1-4,1.88c-2,0-3.44-.62-4.23-1.88a4.12,4.12,0,0,1-.57-1.93c0-.35,0-1.13,0-2.27v-2.14c0-2.35-.26-3.52-.74-3.52a3.86,3.86,0,0,0-.5,0,3.74,3.74,0,0,1-.52,0c-.62,0-.91-.27-.91-.83s.36-.81,1.11-.81a7.5,7.5,0,0,1,.76.06c.33,0,.59.06.76.06s.41,0,.79-.07l.44,0c.53,0,.8.32.8,1v2.21l-.09,1.91v1.67a9.89,9.89,0,0,0,.37,3.22c.39,1.1,1.33,1.63,2.84,1.63a3.76,3.76,0,0,0,1.94-.5,2.7,2.7,0,0,0,1.19-1.32,11.88,11.88,0,0,0,.41-3.83v-3.09c-.08-.82-.29-1.23-.66-1.23h-.77c-.61,0-.91-.26-.91-.76s.33-.88,1-.88c.15,0,.4,0,.71,0s.55,0,.72,0,.33,0,.61,0,.47,0,.62,0c.52,0,.77.27.77.82a2.87,2.87,0,0,1-.06.58,27.37,27.37,0,0,0-.13,2.87v4c0,1.05,0,1.64,0,1.76.09.92.33,1.37.73,1.37a4.35,4.35,0,0,0,.5-.06c.24,0,.41-.06.53-.06a.76.76,0,0,1,.87.85c0,.58-.35.87-1.08.87-.15,0-.38,0-.67-.05a6.07,6.07,0,0,0-.79-.09l-.55.05a2,2,0,0,1-.55.09C828.51,139,828.27,138.76,828.27,138.27Z"/><path class="cls-1" d="M845.36,131.31a3.28,3.28,0,0,1-.12,1.19c-.09.15-.35.23-.76.23h-8.2a.72.72,0,0,0-.44.09.34.34,0,0,0-.11.3,4.65,4.65,0,0,0,1.17,3.22,3.71,3.71,0,0,0,2.89,1.31,3.78,3.78,0,0,0,2.08-.61,3,3,0,0,0,1.23-1.58l.23-.74a.82.82,0,0,1,.85-.63c.64,0,.94.32.94,1a3.66,3.66,0,0,1-1.68,3,6.23,6.23,0,0,1-3.86,1.31,5.42,5.42,0,0,1-4.3-1.82,7.12,7.12,0,0,1-1.6-4.88,7.52,7.52,0,0,1,1.69-5.11,5.63,5.63,0,0,1,4.43-1.94,5.34,5.34,0,0,1,4,1.61A5.74,5.74,0,0,1,845.36,131.31Zm-9.34-.64c0,.25.2.35.56.35h6.19c.35,0,.54-.1.54-.35a3.24,3.24,0,0,0-1-2.37,3.4,3.4,0,0,0-2.42-1,3.93,3.93,0,0,0-2.63,1A3,3,0,0,0,836,130.67Z"/><path class="cls-1" d="M851.22,126.82v.72a5,5,0,0,1,4.11-1.94,5.22,5.22,0,0,1,2.63.71,3.64,3.64,0,0,1,1.67,1.75,6.41,6.41,0,0,1,.35,2.31v4.88c0,.74,0,1.18,0,1.32.09.58.32.87.7.87a5.86,5.86,0,0,0,.61-.05,2.64,2.64,0,0,1,.52-.09.8.8,0,0,1,.57.24.69.69,0,0,1,.26.57.8.8,0,0,1-.32.65,1.08,1.08,0,0,1-.74.26,7.65,7.65,0,0,1-1.17-.12,12.54,12.54,0,0,0-1.55-.1,8.29,8.29,0,0,0-1.11.06l-1.37.16c-.68,0-1-.31-1-.91s.3-.81.88-.81a3.25,3.25,0,0,1,.49.06c.33.06.54.11.63.11.41,0,.64-.49.69-1.42v-4.84a8.66,8.66,0,0,0-.14-1.89,2.4,2.4,0,0,0-1-1.5,3.16,3.16,0,0,0-1.92-.61,3.2,3.2,0,0,0-3,1.47,7,7,0,0,0-.61,3.44v3.42a5.34,5.34,0,0,0,.15,1.55.6.6,0,0,0,.58.41,2.44,2.44,0,0,0,.55-.09,2.79,2.79,0,0,1,.59-.11c.53,0,.81.3.81.87s-.34.85-1,.85c-.14,0-.59-.05-1.35-.16a8,8,0,0,0-1.26-.09c-.37,0-.84,0-1.45.11s-1.17.14-1.27.14c-.73,0-1.1-.29-1.1-.88a.75.75,0,0,1,.85-.84c.08,0,.25,0,.49.09a3.31,3.31,0,0,0,.68.08c.55,0,.81-.5.82-1.51v-6.87a2.92,2.92,0,0,0-.23-1.18.6.6,0,0,0-.59-.34,2.45,2.45,0,0,0-.53.1,5.28,5.28,0,0,1-.55.06c-.62,0-.94-.28-.94-.84s.4-.85,1.17-.85a1.1,1.1,0,0,1,.26,0l.94.1a4.88,4.88,0,0,0,.73-.06l.7-.06Q851.22,126,851.22,126.82Z"/><path class="cls-1" d="M869.59,139.35a5.42,5.42,0,0,1-4.32-1.87,8.49,8.49,0,0,1,0-10,5.54,5.54,0,0,1,4.39-1.85,5.62,5.62,0,0,1,4.42,1.82,7.17,7.17,0,0,1,1.63,5,7.38,7.38,0,0,1-1.68,5.05A5.65,5.65,0,0,1,869.59,139.35Zm.15-12.06a3.45,3.45,0,0,0-2.84,1.27,5.9,5.9,0,0,0-1.14,3.57v.34a6.44,6.44,0,0,0,1,3.8,3.38,3.38,0,0,0,2.86,1.38,3.53,3.53,0,0,0,3-1.38,6.07,6.07,0,0,0,1.07-3.82C873.66,129,872.35,127.29,869.74,127.29Z"/><path class="cls-1" d="M883.15,125.6a4.49,4.49,0,0,1,2.86.9v-.11c0-.62.29-.94.84-.94a.72.72,0,0,1,.83.82c0,.09,0,.35,0,.77a6,6,0,0,0-.09,1c0,.21,0,.52.06.91a5.67,5.67,0,0,1,.06.9c0,.65-.27,1-.82,1A.76.76,0,0,1,886,130v-.85a1.61,1.61,0,0,0-.88-1.32,3.71,3.71,0,0,0-2-.56,3.19,3.19,0,0,0-2,.62,1.8,1.8,0,0,0-.8,1.49c0,1.11.76,1.75,2.28,2l1.5.2c2.92.4,4.38,1.6,4.38,3.63a3.67,3.67,0,0,1-1.4,3,5.64,5.64,0,0,1-3.69,1.15,5.9,5.9,0,0,1-3.71-1.21v.48c0,.62-.29.93-.88.93s-.94-.37-.94-1.05c0,.12,0-.33.15-1.34a5.85,5.85,0,0,0,0-.73,6,6,0,0,0-.1-1.15,5.34,5.34,0,0,1-.09-.85c0-.59.27-.9.82-.9.36,0,.59.08.68.26a4.11,4.11,0,0,1,.17,1.37,2.08,2.08,0,0,0,1.15,1.79,5.4,5.4,0,0,0,2.89.7,3.31,3.31,0,0,0,2.08-.65,1.93,1.93,0,0,0,.82-1.61c0-1.17-.92-1.86-2.78-2a11.58,11.58,0,0,1-4-1,2.81,2.81,0,0,1-1.38-2.68,3.62,3.62,0,0,1,1.35-2.93A5.48,5.48,0,0,1,883.15,125.6Z"/><path class="cls-1" d="M909.29,136l-.93-2.52a.94.94,0,0,0-.31-.52,1.22,1.22,0,0,0-.69-.12h-4.59a1,1,0,0,0-.7.18,3.37,3.37,0,0,0-.5,1l-.74,2a1.29,1.29,0,0,0-.11.53c0,.55.33.82,1,.82a4.7,4.7,0,0,0,.75-.06c.3,0,.55-.05.7-.05.7,0,1.06.31,1.06.92s-.39.85-1.17.85a4.93,4.93,0,0,1-.56-.05l-1.28-.15a10.64,10.64,0,0,0-1.18,0,11.75,11.75,0,0,0-1.28,0l-1.08.11a9.33,9.33,0,0,1-1,.09c-.67,0-1-.28-1-.85s.33-.92,1-.92a.44.44,0,0,1,.31.11h.33a1.18,1.18,0,0,0,1.06-.55,5.69,5.69,0,0,0,.52-1.2l4.8-13a1.54,1.54,0,0,1,1.61-1.09,1.52,1.52,0,0,1,1.57,1.09l4.6,12.77a5.22,5.22,0,0,0,.81,1.59,1.32,1.32,0,0,0,1,.38,1.24,1.24,0,0,0,.31,0l.71-.08c.65,0,1,.29,1,.86s-.34.91-1,.91c-.18,0-.43,0-.73-.05a20.54,20.54,0,0,0-2.43-.2c-.64,0-1.67.06-3.1.2-.35,0-.62.05-.81.05-.7,0-1-.29-1-.88s.37-.89,1.13-.89c.15,0,.37,0,.68.05a4.13,4.13,0,0,0,.68.06c.57,0,.85-.23.85-.7A3.11,3.11,0,0,0,909.29,136Zm-1.85-5.26-2.31-7.11-2.37,7.11a.38.38,0,0,0,0,.18c0,.15.12.22.38.22h4.1c.2,0,.31-.05.31-.19A.62.62,0,0,0,907.44,130.75Z"/><path class="cls-1" d="M920.22,131.43v3.36c0,.85,0,1.37,0,1.52.09.78.32,1.16.7,1.16.09,0,.3-.05.65-.11a1.06,1.06,0,0,1,.38-.06c.66,0,1,.29,1,.85a.78.78,0,0,1-.33.61,1.3,1.3,0,0,1-.82.26,12.4,12.4,0,0,1-1.25-.12,10.11,10.11,0,0,0-1.25-.13,14.33,14.33,0,0,0-1.5.11,13,13,0,0,1-1.34.14q-1.05,0-1.05-.87c0-.56.31-.85.9-.85a3.06,3.06,0,0,1,.61.09c.27,0,.47.05.61.05.41,0,.67-.55.76-1.64v-6.6c-.09-1.08-.35-1.63-.79-1.63a2.44,2.44,0,0,0-.58.11,3.46,3.46,0,0,1-.56.08c-.63,0-1-.28-1-.82s.4-.88,1.14-.88a5.59,5.59,0,0,1,.7,0c.55.07.91.1,1,.1a3,3,0,0,0,.64-.07c.27,0,.49-.06.62-.06.5,0,.76.33.76,1a2.55,2.55,0,0,1,0,.31c0,.13,0,.24,0,.3s0,.69,0,1.6C920.22,130,920.22,130.69,920.22,131.43Zm-1.36-6.74a1.36,1.36,0,0,1-1-.43,1.34,1.34,0,0,1-.42-1,1.28,1.28,0,0,1,.42-1,1.4,1.4,0,0,1,1-.43,1.46,1.46,0,0,1,1,.43,1.35,1.35,0,0,1,.42,1,1.45,1.45,0,0,1-1.46,1.45Z"/><path class="cls-1" d="M927.9,126.77v.71a4.2,4.2,0,0,1,3.59-1.88,4.25,4.25,0,0,1,2.93,1,3.47,3.47,0,0,1,1.11,2.62,2.84,2.84,0,0,1-.56,1.85,1.83,1.83,0,0,1-1.49.71,1.46,1.46,0,0,1-1-.38,1.09,1.09,0,0,1-.41-.85,1,1,0,0,1,.32-.74,1,1,0,0,1,.72-.32l.33.08a1.43,1.43,0,0,0-.5-1.84,2.87,2.87,0,0,0-4.32,1.3,10.2,10.2,0,0,0-.41,3.33v1.72c0,1.12,0,1.78,0,1.93.08,1,.35,1.46.81,1.46a3.58,3.58,0,0,0,.7-.08,1.71,1.71,0,0,1,.5-.09.72.72,0,0,1,.82.82c0,.59-.35.9-1,.9h-.1a8,8,0,0,1-1.17-.11c-.52,0-.93-.08-1.17-.08-.7,0-1.24,0-1.63,0l-1.44.14c-.7,0-1-.31-1-.91s.33-.81,1-.81a1.3,1.3,0,0,1,.38,0l.39.07.36.05c.43,0,.67-.4.7-1.17V135l-.07-5.84c-.06-1-.31-1.51-.78-1.51a4,4,0,0,0-.56.07,4.93,4.93,0,0,1-.56,0c-.58,0-.85-.28-.85-.81s.36-.88,1.11-.88a7.5,7.5,0,0,1,.76.06c.35,0,.6.06.77.06s.37,0,.67-.06a1.77,1.77,0,0,1,.49-.06C927.68,126,927.9,126.28,927.9,126.77Z"/><path class="cls-1" d="M948.36,131.31a2.9,2.9,0,0,1-.14,1.19c-.09.15-.33.23-.74.23h-8.21a.7.7,0,0,0-.44.09.34.34,0,0,0-.11.3,4.69,4.69,0,0,0,1.16,3.22,3.85,3.85,0,0,0,5,.7,2.84,2.84,0,0,0,1.23-1.58l.24-.74a.8.8,0,0,1,.84-.63c.65,0,1,.32,1,1a3.66,3.66,0,0,1-1.68,3,6.19,6.19,0,0,1-3.86,1.31,5.42,5.42,0,0,1-4.3-1.82,7.12,7.12,0,0,1-1.6-4.88,7.57,7.57,0,0,1,1.69-5.11,5.64,5.64,0,0,1,4.44-1.94,5.3,5.3,0,0,1,4,1.61A5.67,5.67,0,0,1,948.36,131.31Zm-9.36-.64c0,.25.2.35.57.35h6.17c.37,0,.57-.1.57-.35a3.2,3.2,0,0,0-1-2.37,3.48,3.48,0,0,0-2.44-1,4,4,0,0,0-2.63,1A3.11,3.11,0,0,0,939,130.67Z"/><path class="cls-1" d="M955.67,125.6a4.5,4.5,0,0,1,2.87.9v-.11c0-.62.29-.94.83-.94s.84.26.84.82c0,.09,0,.35,0,.77a6,6,0,0,0-.09,1c0,.21,0,.52.06.91a5.67,5.67,0,0,1,.06.9c0,.65-.27,1-.82,1a.77.77,0,0,1-.85-.82v-.85a1.61,1.61,0,0,0-.88-1.32,3.67,3.67,0,0,0-2-.56,3.09,3.09,0,0,0-2,.62,1.76,1.76,0,0,0-.81,1.49c0,1.11.74,1.75,2.26,2l1.51.2c2.92.4,4.39,1.6,4.39,3.63a3.68,3.68,0,0,1-1.41,3,5.66,5.66,0,0,1-3.7,1.15,5.93,5.93,0,0,1-3.7-1.21v.48q0,.93-.87.93c-.64,0-1-.37-1-1.05,0,.12,0-.33.16-1.34a5.85,5.85,0,0,0,0-.73,5.28,5.28,0,0,0-.11-1.15,5.34,5.34,0,0,1-.09-.85c0-.59.28-.9.82-.9.37,0,.6.08.69.26a4.11,4.11,0,0,1,.17,1.37,2.06,2.06,0,0,0,1.17,1.79,5.28,5.28,0,0,0,2.87.7,3.36,3.36,0,0,0,2.09-.65,2,2,0,0,0,.82-1.61c0-1.17-.92-1.86-2.78-2a11.52,11.52,0,0,1-4-1,2.82,2.82,0,0,1-1.4-2.68,3.61,3.61,0,0,1,1.37-2.93A5.44,5.44,0,0,1,955.67,125.6Z"/><path class="cls-1" d="M157.57,137.66h0c-.47,0-.78-.3-.88-.89a11.87,11.87,0,0,1-.05-1.46v-5.23q0-4.49-4.68-4.48a5.78,5.78,0,0,0-3.48,1,3,3,0,0,0-1.43,2.47,1.62,1.62,0,0,0,.45,1.14,1.48,1.48,0,0,0,1.12.46,1.37,1.37,0,0,0,.94-.32,1.12,1.12,0,0,0,.38-.85,1,1,0,0,0-.36-.88c-.16-.09-.23-.18-.23-.26s.12-.36.38-.55a4,4,0,0,1,2.17-.62,3.23,3.23,0,0,1,2.05.59,2,2,0,0,1,.73,1.66A1.72,1.72,0,0,1,154,131a7.88,7.88,0,0,1-2.83.63c-1,.12-1.68.22-2,.3a6.32,6.32,0,0,0-1.2.5,3.41,3.41,0,0,0-1.84,3.16,3.49,3.49,0,0,0,1.25,2.77,5.24,5.24,0,0,0,3.34,1,4.65,4.65,0,0,0,4.14-1.93,2.37,2.37,0,0,0,2.59,1.8h0l.12,0a.79.79,0,0,0,.81-.77A.82.82,0,0,0,157.57,137.66Zm-3-3.52a3.44,3.44,0,0,1-1,2.58,3.78,3.78,0,0,1-2.72.94,3,3,0,0,1-1.92-.57,1.82,1.82,0,0,1-.71-1.54c0-1.24,1-2,2.93-2.17a9.44,9.44,0,0,0,2.25-.37,3.16,3.16,0,0,0,1.19-.71Z"/><path class="cls-1" d="M605.87,137.65h0c-.5,0-.79-.3-.88-.91a10.94,10.94,0,0,1-.06-1.46v-5.21c0-3-1.56-4.49-4.68-4.49a5.77,5.77,0,0,0-3.48,1,3.07,3.07,0,0,0-1.43,2.47,1.6,1.6,0,0,0,.46,1.16,1.53,1.53,0,0,0,1.11.47,1.3,1.3,0,0,0,.94-.35,1.12,1.12,0,0,0,.37-.85,1,1,0,0,0-.35-.87c-.16-.1-.23-.18-.23-.25a.68.68,0,0,1,.38-.55,4,4,0,0,1,2.17-.64,3.23,3.23,0,0,1,2,.59,2.06,2.06,0,0,1,.73,1.67,1.71,1.71,0,0,1-.65,1.52,7.71,7.71,0,0,1-2.83.66,17,17,0,0,0-2,.29,6.07,6.07,0,0,0-1.2.48,3.68,3.68,0,0,0-.58,5.93,5.13,5.13,0,0,0,3.33,1,4.68,4.68,0,0,0,4.15-1.92,2.37,2.37,0,0,0,2.6,1.81h.1a.8.8,0,0,0,.81-.79A.81.81,0,0,0,605.87,137.65Zm-3-3.54a3.55,3.55,0,0,1-1,2.6,3.87,3.87,0,0,1-2.73.94,3,3,0,0,1-1.92-.58,1.83,1.83,0,0,1-.71-1.53c0-1.26,1-2,2.92-2.18a10.26,10.26,0,0,0,2.26-.36,3.28,3.28,0,0,0,1.19-.73Z"/><path class="cls-1" d="M297.51,137.62h0c-.49,0-.78-.3-.88-.9a12.09,12.09,0,0,1-.05-1.47V130c0-3-1.56-4.49-4.7-4.49a5.76,5.76,0,0,0-3.46,1,3,3,0,0,0-1.43,2.48,1.58,1.58,0,0,0,.44,1.14,1.51,1.51,0,0,0,1.13.47,1.27,1.27,0,0,0,.94-.35,1.16,1.16,0,0,0,.38-.85,1,1,0,0,0-.37-.87c-.15-.09-.22-.18-.22-.26a.65.65,0,0,1,.38-.53,3.84,3.84,0,0,1,2.17-.65,3.26,3.26,0,0,1,2,.59,2,2,0,0,1,.74,1.67A1.74,1.74,0,0,1,294,131a8.61,8.61,0,0,1-2.83.64,16.63,16.63,0,0,0-2,.29,5.32,5.32,0,0,0-1.2.5,3.64,3.64,0,0,0-.59,5.91,5.14,5.14,0,0,0,3.34,1,4.63,4.63,0,0,0,4.13-1.92,2.36,2.36,0,0,0,2.6,1.81h.11a.78.78,0,0,0,.8-.79A.8.8,0,0,0,297.51,137.62Zm-3-3.53a3.53,3.53,0,0,1-1,2.6,3.87,3.87,0,0,1-2.72.93,3.09,3.09,0,0,1-1.92-.56,1.84,1.84,0,0,1-.71-1.55c0-1.26,1-2,2.91-2.18a9.82,9.82,0,0,0,2.25-.36,3.05,3.05,0,0,0,1.2-.71Z"/><path class="cls-1" d="M459.59,125.63a4.43,4.43,0,0,1,2.86.9v-.09c0-.66.29-1,.83-1a.75.75,0,0,1,.85.84c0,.1,0,.36,0,.77a6,6,0,0,0-.09,1,7.13,7.13,0,0,0,.06.91c0,.4.07.69.07.9,0,.65-.29,1-.85,1a.74.74,0,0,1-.83-.82v-.85a1.63,1.63,0,0,0-.88-1.32,3.73,3.73,0,0,0-2-.55,3.28,3.28,0,0,0-2,.59,1.88,1.88,0,0,0-.81,1.52q0,1.65,2.28,1.95l1.49.21q4.39.6,4.39,3.63a3.7,3.7,0,0,1-1.4,3,5.66,5.66,0,0,1-3.7,1.15,5.88,5.88,0,0,1-3.69-1.21v.48c0,.63-.31.93-.89.93s-.94-.35-.94-1.05c0,.12.05-.33.15-1.34a5.84,5.84,0,0,0,.05-.73,7,7,0,0,0-.09-1.15,4.16,4.16,0,0,1-.11-.85c0-.61.26-.9.81-.9.36,0,.6.08.68.26a3.67,3.67,0,0,1,.18,1.37A2.11,2.11,0,0,0,457.1,137a5.4,5.4,0,0,0,2.89.68,3.28,3.28,0,0,0,2.08-.62,2,2,0,0,0,.82-1.62c0-1.17-.93-1.86-2.78-2a11.12,11.12,0,0,1-4.05-1,2.78,2.78,0,0,1-1.38-2.66,3.62,3.62,0,0,1,1.35-2.93A5.42,5.42,0,0,1,459.59,125.63Z"/><path class="cls-1" d="M451.13,137.66h0c-.49,0-.77-.3-.87-.89a9.32,9.32,0,0,1-.06-1.46v-5.23c0-3-1.55-4.48-4.68-4.48a5.78,5.78,0,0,0-3.48,1,3,3,0,0,0-1.42,2.47,1.61,1.61,0,0,0,.44,1.14,1.49,1.49,0,0,0,1.12.46,1.39,1.39,0,0,0,.94-.32,1.12,1.12,0,0,0,.38-.85,1,1,0,0,0-.36-.88c-.15-.09-.23-.18-.23-.26s.12-.36.38-.55a4,4,0,0,1,2.17-.62,3.25,3.25,0,0,1,2.05.59,2,2,0,0,1,.73,1.66,1.7,1.7,0,0,1-.65,1.53,7.88,7.88,0,0,1-2.83.63c-1,.12-1.68.22-2,.3a6.65,6.65,0,0,0-1.21.5,3.67,3.67,0,0,0-.58,5.93,5.22,5.22,0,0,0,3.34,1,4.68,4.68,0,0,0,4.14-1.93,2.37,2.37,0,0,0,2.59,1.8h0l.13,0a.8.8,0,0,0,.8-.77A.83.83,0,0,0,451.13,137.66Zm-3-3.52a3.51,3.51,0,0,1-1,2.58,3.76,3.76,0,0,1-2.72.94,3,3,0,0,1-1.92-.57,1.82,1.82,0,0,1-.71-1.54c0-1.24,1-2,2.93-2.17a9.44,9.44,0,0,0,2.25-.37,3.16,3.16,0,0,0,1.19-.71Z"/><path class="cls-1" d="M333.18,44.47a27.83,27.83,0,0,0,0,55.65h10.26a8.32,8.32,0,0,0,0-16.63H333.21a11.2,11.2,0,1,1,0-22.4h10.2a8.31,8.31,0,0,0,0-16.61Z"/><path class="cls-1" d="M302.49,92.61a8.37,8.37,0,1,1-16.73,0V72.51A47.53,47.53,0,0,1,333.29,25H343.5a27.82,27.82,0,0,1,0,55.63H333.14a8.32,8.32,0,1,1,0-16.64h10.27a11.21,11.21,0,1,0-.09-22.41h-10a30.8,30.8,0,0,0-30.8,30.8Z"/><path class="cls-1" d="M455.68,43.41a22.77,22.77,0,1,0,22.77,22.76A22.75,22.75,0,0,0,455.68,43.41Zm0,36.07A13.31,13.31,0,1,1,469,66.17,13.3,13.3,0,0,1,455.68,79.48Z"/><path class="cls-1" d="M682.35,43.41a22.77,22.77,0,1,0,22.76,22.76A22.76,22.76,0,0,0,682.35,43.41Zm0,36.07a13.31,13.31,0,1,1,13.33-13.31A13.31,13.31,0,0,1,682.35,79.48Z"/><path class="cls-1" d="M485.54,66.86a22.07,22.07,0,0,1,44.13,0l.05,2.67V83.14a5,5,0,0,1-5,4.94h0a5,5,0,0,1-4.94-4.94V66.86a12.21,12.21,0,1,0-24.41,0l0,2.71V83.2a4.94,4.94,0,0,1-4.94,5h0a4.94,4.94,0,0,1-4.94-5V66.86Z"/><path class="cls-1" d="M413.56,87.63a21.29,21.29,0,0,1,0-42.58h9.58a4.74,4.74,0,0,1,4.77,4.74h0a4.76,4.76,0,0,1-4.77,4.76h-9.58a11.78,11.78,0,0,0,0,23.55h9.62A4.75,4.75,0,0,1,428,82.86h0a4.76,4.76,0,0,1-4.77,4.77Z"/><path class="cls-1" d="M620.39,78.18H605.77c-4.8,0-10-2.71-11-7h25.77a4.74,4.74,0,1,0,0-9.43H595c1.25-4,5.46-7.17,10.81-7.23h14.57a4.78,4.78,0,0,0,4.77-4.77,4.72,4.72,0,0,0-4.77-4.71H605.77a21.56,21.56,0,0,0-21.31,21.59,21.12,21.12,0,0,0,21.31,21.09h14.62a4.78,4.78,0,0,0,0-9.55Z"/><path class="cls-1" d="M647.13,44.35a4.93,4.93,0,0,0-4.94,4.92V81.79A12.2,12.2,0,0,1,630,94h-.24c-3,0-5.51,2.16-5.51,4.85a5.05,5.05,0,0,0,5.27,5l.24,0,.24,0v0a22.06,22.06,0,0,0,22-22.07l0-3.77V49.27A4.93,4.93,0,0,0,647.13,44.35Z"/><path class="cls-1" d="M550,61.83a3.69,3.69,0,0,1-3.74-3.7A3.74,3.74,0,0,1,550,54.38h21.05a4.6,4.6,0,0,0,4.8-4.68h0a4.72,4.72,0,0,0-5-4.65H550a13,13,0,1,0,0,26.09l15.12,0a3.51,3.51,0,0,1,3.75,3.44,3.74,3.74,0,0,1-3.75,3.74H543.73a4.64,4.64,0,0,0-4.82,4.7h0a4.72,4.72,0,0,0,4.94,4.69h21.3A13.11,13.11,0,0,0,578.23,74.6a12.83,12.83,0,0,0-13.08-12.77Z"/><path class="cls-1" d="M642.33,33.7a4.72,4.72,0,1,1,4.72,4.71A4.7,4.7,0,0,1,642.33,33.7Z"/></svg>