<?xml version="1.0" encoding="utf-8"?>
<!-- Generator: Adobe Illustrator 22.0.1, SVG Export Plug-In . SVG Version: 6.00 Build 0)  -->
<svg version="1.1" id="Capa_1" xmlns="http://www.w3.org/2000/svg" xmlns:xlink="http://www.w3.org/1999/xlink" x="0px" y="0px"
	 viewBox="0 0 220.5 24.7" style="enable-background:new 0 0 220.5 24.7;" xml:space="preserve">
<style type="text/css">
	.st0{fill:#FFFFFF;}
</style>
<g>
	<g>
		<g>
			<g>
				<path class="st0" d="M90.7,6.1h-4.6l-3.8,10.6h-5.5V6.1h-4.6V20h8.9H83h2.6l0.5-1.8h4.5l0.5,1.8h4.5L90.7,6.1z M86.9,15.2l1.4-5
					l1.5,5H86.9z"/>
			</g>
		</g>
		<g>
			<rect x="96.3" y="6.1" class="st0" width="4.6" height="13.9"/>
		</g>
		<g>
			<g>
				<path class="st0" d="M107.1,15.1V20h-4.6V6.1h6.6c4.6,0,6.1,1.3,6.1,4c0,1.6-0.7,2.9-2.3,3.4c1.5,0.5,2.3,0.9,2.3,3.7
					c0,1.8-0.1,2.4,0.5,2.4V20h-4.6c-0.1-0.3-0.2-1.2-0.2-2.4c0-1.8-0.3-2.4-2.4-2.4H107.1z M107.1,12.1h1.8c1.4,0,2.2-0.3,2.2-1.3
					c0-1-0.8-1.4-1.8-1.4h-2.1V12.1z"/>
			</g>
		</g>
		<g>
			<path class="st0" d="M39.5,10.1c-0.1-0.5-0.3-0.8-0.6-0.9c-0.3-0.2-0.7-0.2-1.2-0.2c-1,0-1.4,0.3-1.4,0.8c0,2.1,8,0.8,8,5.8
				c0,3.2-2.7,4.8-6.5,4.8c-3.7,0-6.1-2.1-6.2-4.6H36c0.1,0.5,0.4,0.9,0.8,1.1c0.4,0.2,0.8,0.3,1.3,0.3c1.1,0,1.9-0.4,1.9-1
				c0-2.1-8-0.7-8-6c0-3,2.5-4.4,6-4.4c3.9,0,5.6,2,5.9,4.4H39.5z"/>
		</g>
		<g>
			<path class="st0" d="M45.2,6.1h4.6v8.3c0,1.4,0.3,2.5,2.1,2.5c1.6,0,2.1-1,2.1-2.5V6.1h4.6v7.8c0,4.5-2.1,6.4-6.7,6.4
				c-4.3,0-6.7-1.6-6.7-6.4V6.1z"/>
		</g>
		<g>
			<polygon class="st0" points="60.4,20 60.4,6.1 64.9,6.1 64.9,16.7 71.2,16.7 71.2,20 			"/>
		</g>
		<path class="st0" d="M19.7,11.5c0.7,0,1.3-0.6,1.3-1.3c0-0.7-0.6-1.3-1.3-1.3c-0.7,0-1.3,0.6-1.3,1.3C18.4,11,19,11.5,19.7,11.5"
			/>
		<path class="st0" d="M16.7,11.9c-0.7,0-1.2,0.6-1.2,1.2c0,0.7,0.6,1.2,1.2,1.2c0.7,0,1.2-0.6,1.2-1.2
			C17.9,12.5,17.3,11.9,16.7,11.9"/>
		<g>
			<path class="st0" d="M19.7,14.8c-0.7,0-1.3,0.6-1.3,1.3c0,0.7,0.6,1.3,1.3,1.3c0.7,0,1.3-0.6,1.3-1.3
				C20.9,15.4,20.4,14.8,19.7,14.8"/>
		</g>
		<g>
			<g>
				<path class="st0" d="M15.4,6C8.6,6,3,9.3,3,13.3c0,4,5.6,7.3,12.4,7.3s12.4-3.3,12.4-7.3C27.9,9.1,22.3,6,15.4,6 M19.7,8.3
					c1.1,0,2,0.9,2,2c0,1.1-0.9,2-2,2c-1.1,0-2-0.9-2-2C17.7,9.2,18.6,8.3,19.7,8.3 M15.5,16.1l-3.7-2.2v4.3h-0.9v-4.3l-3.7,2.2
					l-0.4-0.7l3.7-2.2L6.8,11l0.4-0.7l3.7,2.2V8.1h0.9v4.3l3.7-2.2L16,11l-3.7,2.2l3.7,2.2L15.5,16.1z M14.7,13.2c0-1.1,0.9-2,2-2
					c1.1,0,2,0.9,2,2c0,1.1-0.9,2-2,2C15.6,15.2,14.7,14.3,14.7,13.2 M19.7,18c-1.1,0-2-0.9-2-2c0-1.1,0.9-2,2-2c1.1,0,2,0.9,2,2
					C21.6,17.2,20.7,18,19.7,18 M22.5,15c-1,0-1.9-0.8-1.9-1.9c0-1,0.8-1.9,1.9-1.9c1.1,0,1.9,0.8,1.9,1.9
					C24.3,14.2,23.5,15,22.5,15"/>
			</g>
		</g>
		<path class="st0" d="M22.5,11.9c-0.7,0-1.2,0.5-1.2,1.2c0,0.7,0.5,1.2,1.2,1.2c0.7,0,1.2-0.5,1.2-1.2
			C23.7,12.5,23.2,11.9,22.5,11.9"/>
		<g>
			<g>
				<path class="st0" d="M124.3,6.3l5.4,13.7h-0.9l-1.7-4.4h-6.5l-1.7,4.4h-0.9l5.5-13.7H124.3z M126.8,14.8l-2.9-7.7h0l-3,7.7
					H126.8z"/>
			</g>
		</g>
		<g>
			<g>
				<path class="st0" d="M130.7,6.3h5.7c2.4,0,4.3,0.9,4.3,3.5c0,1.8-1.1,3.2-2.9,3.5v0c2,0.2,2.5,1.5,2.7,2.9
					c0.1,1.4-0.1,2.9,0.5,3.7h-0.9c-0.5-0.9-0.2-2.5-0.4-3.8c-0.2-1.3-0.8-2.4-3.2-2.4h-4.9v6.2h-0.8V6.3z M136.4,13
					c2,0,3.5-0.9,3.5-3.1c0-2.1-1.6-2.9-3.5-2.9h-4.9v6H136.4z"/>
			</g>
		</g>
		<g>
			<path class="st0" d="M154.6,13.2v6.7h-0.7V17h0c-0.7,2-2.8,3.2-5.2,3.2c-4.1,0-6.4-3.2-6.4-7.1c0-3.9,2.3-7.2,6.5-7.2
				c2.8,0,5.2,1.7,5.7,4.6h-0.8c-0.6-2.4-2.4-3.8-4.9-3.8c-3.7,0-5.6,3.1-5.6,6.5c0,3.5,1.9,6.4,5.6,6.4c3.3,0,5.3-2.2,5.2-5.6h-5
				v-0.7H154.6z"/>
		</g>
		<g>
			<polygon class="st0" points="166.2,19.2 166.2,19.9 156.9,19.9 156.9,6.3 166.1,6.3 166.1,7 157.7,7 157.7,12.5 165.6,12.5 
				165.6,13.2 157.7,13.2 157.7,19.2 			"/>
		</g>
		<g>
			<polygon class="st0" points="167.6,6.3 168.7,6.3 177.3,18.8 177.3,18.8 177.3,6.3 178.2,6.3 178.2,19.9 177.2,19.9 168.5,7.3 
				168.5,7.3 168.5,19.9 167.6,19.9 			"/>
		</g>
		<g>
			<polygon class="st0" points="179.1,7 179.1,6.3 189.6,6.3 189.6,7 184.8,7 184.8,19.9 183.9,19.9 183.9,7 			"/>
		</g>
		<g>
			<rect x="190.5" y="6.3" class="st0" width="0.8" height="13.7"/>
		</g>
		<g>
			<polygon class="st0" points="193.8,6.3 194.8,6.3 203.4,18.8 203.5,18.8 203.5,6.3 204.3,6.3 204.3,19.9 203.3,19.9 194.7,7.3 
				194.6,7.3 194.6,19.9 193.8,19.9 			"/>
		</g>
		<g>
			<g>
				<path class="st0" d="M211.7,6.3l5.4,13.7h-0.9l-1.7-4.4h-6.5l-1.7,4.4h-0.9l5.5-13.7H211.7z M214.2,14.8l-2.9-7.7h0l-3,7.7
					H214.2z"/>
			</g>
		</g>
	</g>
</g>
</svg>
