<svg id="Capa_1" data-name="Capa 1" xmlns="http://www.w3.org/2000/svg" viewBox="0 0 428 304"><title>Mesa de trabajo 1 copia 2</title><path d="M396.69,37.27A156.21,156.21,0,0,1,353.53,49.1a74.46,74.46,0,0,0,33-41.4A149.66,149.66,0,0,1,339,25.83,74.9,74.9,0,0,0,209.41,77.05a76.66,76.66,0,0,0,1.74,17.08A212,212,0,0,1,56.75,15.78a74.94,74.94,0,0,0,23,100.12,74,74,0,0,1-33.85-9.23v.82a75.26,75.26,0,0,0,60,73.61,75.06,75.06,0,0,1-19.64,2.46,65.84,65.84,0,0,1-14.18-1.28,75.59,75.59,0,0,0,70,52.18,150.46,150.46,0,0,1-92.87,32,139.1,139.1,0,0,1-17.93-1A210.85,210.85,0,0,0,146.22,299c137.84,0,213.2-114.18,213.2-213.15,0-3.32-.11-6.51-.27-9.69A149.34,149.34,0,0,0,396.69,37.27Z"/></svg>