<svg id="Capa_1" data-name="Capa 1" xmlns="http://www.w3.org/2000/svg" viewBox="0 0 428 294"><title>Mesa de trabajo 1</title><path d="M409.81,28.23C398.2,7.58,385.6,3.78,360,2.34,334.32.6,269.88-.13,214.05-.13S93.65.6,68.05,2.31C42.45,3.78,29.83,7.55,18.11,28.23,6.15,48.85,0,84.38,0,146.92v.21c0,62.28,6.15,98.07,18.11,118.48C29.83,286.26,42.42,290,68,291.74c25.63,1.5,90.1,2.39,146,2.39s120.27-.89,145.93-2.36c25.65-1.74,38.25-5.48,49.86-26.13C421.9,245.23,428,209.43,428,147.16V147C428,84.38,421.9,48.85,409.81,28.23Zm-249.31,199V66.75L294.25,147Z"/></svg>