<svg xmlns="http://www.w3.org/2000/svg" viewBox="0 0 63 11.9"><defs><style>.cls-1{fill:#fff;}</style></defs><title>Asset 1</title><g id="Layer_2" data-name="Layer 2"><g id="Capa_1" data-name="Capa 1"><path class="cls-1" d="M7.3,3a4.2,4.2,0,0,0,0,8.4H8.9a1.3,1.3,0,0,0,0-2.6H7.4A1.75,1.75,0,0,1,5.7,7.1,1.75,1.75,0,0,1,7.4,5.4H9a1.32,1.32,0,0,0,1.3-1.3A1.32,1.32,0,0,0,9,2.8H7.3Z"/><path class="cls-1" d="M2.6,10.4a1.32,1.32,0,0,1-1.3,1.3A1.32,1.32,0,0,1,0,10.4V7.3A7.28,7.28,0,0,1,7.3,0H8.9a4.23,4.23,0,0,1,4.2,4.2A4.23,4.23,0,0,1,8.9,8.4H7.3a1.3,1.3,0,1,1,0-2.6H8.9a1.75,1.75,0,0,0,1.7-1.7A1.75,1.75,0,0,0,8.9,2.4H7.4A4.69,4.69,0,0,0,2.7,7.1Z"/><path class="cls-1" d="M26.4,3.1a3.3,3.3,0,1,0,3.3,3.3A3.27,3.27,0,0,0,26.4,3.1Zm0,5.3a2,2,0,1,1,2-2A2,2,0,0,1,26.4,8.4Z"/><path class="cls-1" d="M59.7,3.1A3.3,3.3,0,1,0,63,6.4,3.33,3.33,0,0,0,59.7,3.1Zm0,5.3a2,2,0,1,1,2-2A2,2,0,0,1,59.7,8.4Z"/><path class="cls-1" d="M30.8,6.5A3.22,3.22,0,0,1,34,3.3a3.16,3.16,0,0,1,3.2,3.2V8.9a.68.68,0,0,1-.7.7h0a.68.68,0,0,1-.7-.7V6.5a1.8,1.8,0,0,0-3.6,0V8.9a.68.68,0,0,1-.7.7h0a.68.68,0,0,1-.7-.7V6.5Z"/><path class="cls-1" d="M20.2,9.6a3.1,3.1,0,1,1,0-6.2h1.4a.68.68,0,0,1,.7.7h0a.68.68,0,0,1-.7.7H20.2a1.7,1.7,0,1,0,0,3.4h1.4a.68.68,0,0,1,.7.7h0a.68.68,0,0,1-.7.7Z"/><path class="cls-1" d="M50.6,8.2H48.5c-.7,0-1.5-.4-1.6-1h3.8a.77.77,0,0,0,.8-.7.77.77,0,0,0-.8-.7H46.9a1.66,1.66,0,0,1,1.6-1.1h2.1a.7.7,0,1,0,0-1.4H48.5a3.15,3.15,0,0,0,0,6.3h2.1a.7.7,0,1,0,0-1.4Z"/><path class="cls-1" d="M54.5,3.2a.68.68,0,0,0-.7.7V8.7A1.79,1.79,0,0,1,52,10.5h0a.77.77,0,0,0-.8.7.71.71,0,0,0,.8.7h0a3.16,3.16,0,0,0,3.2-3.2V4A.77.77,0,0,0,54.5,3.2Z"/><path class="cls-1" d="M40.3,5.8a.47.47,0,0,1-.5-.5.56.56,0,0,1,.5-.6h3.1a.68.68,0,0,0,.7-.7h0a.68.68,0,0,0-.7-.7H40.3a1.9,1.9,0,0,0-1.9,1.9,2,2,0,0,0,1.9,1.9h2.2a.56.56,0,0,1,.6.5c0,.3-.2.5-.6.5H39.4a.68.68,0,0,0-.7.7h0a.68.68,0,0,0,.7.7h3.1a1.9,1.9,0,0,0,0-3.8H40.3Z"/><path class="cls-1" d="M53.8,1.7a.7.7,0,0,1,1.4,0,.7.7,0,0,1-1.4,0Z"/></g></g></svg>