<svg id="Capa_1" data-name="Capa 1" xmlns="http://www.w3.org/2000/svg" viewBox="0 0 500 500"><title>Title-small</title><path d="M118.4,306.24a3.67,3.67,0,0,1-1.12-2.72V215.36H87.68A3.69,3.69,0,0,1,85,214.24a3.86,3.86,0,0,1-1.12-2.88v-12a4.09,4.09,0,0,1,1-2.88,3.66,3.66,0,0,1,2.8-1.12h81.76a3.94,3.94,0,0,1,2.88,1.12,3.9,3.9,0,0,1,1.12,2.88v12a3.84,3.84,0,0,1-4,4H140v88.16a3.85,3.85,0,0,1-1,2.72,3.62,3.62,0,0,1-2.8,1.12h-15A3.69,3.69,0,0,1,118.4,306.24Z"/><path d="M187.2,209.44a3.67,3.67,0,0,1-1.12-2.72V195a3.9,3.9,0,0,1,1.12-2.88,3.73,3.73,0,0,1,2.72-1.12h14.72a3.84,3.84,0,0,1,4,4v11.68a3.57,3.57,0,0,1-1.2,2.72,4,4,0,0,1-2.8,1.12H189.92A3.69,3.69,0,0,1,187.2,209.44Zm.64,96.8a3.67,3.67,0,0,1-1.12-2.72V228a3.64,3.64,0,0,1,1.12-2.8,3.85,3.85,0,0,1,2.72-1h13.6A3.82,3.82,0,0,1,208,228v75.52a3.82,3.82,0,0,1-3.84,3.84h-13.6A3.67,3.67,0,0,1,187.84,306.24Z"/><path d="M245,299.76q-7.36-7.59-7.36-22.32V241.28H225a3.82,3.82,0,0,1-3.84-3.84V228a3.82,3.82,0,0,1,3.84-3.84H237.6V197.6a3.64,3.64,0,0,1,1.12-2.8,3.85,3.85,0,0,1,2.72-1h13.28a3.58,3.58,0,0,1,3.84,3.84v26.56h20A3.82,3.82,0,0,1,282.4,228v9.44a3.82,3.82,0,0,1-3.84,3.84h-20v34.4q0,6.88,2.4,10.4t7.84,3.52H280a3.58,3.58,0,0,1,3.84,3.84v10.08a3.85,3.85,0,0,1-1,2.72,3.64,3.64,0,0,1-2.8,1.12H266.88Q252.32,307.36,245,299.76Z"/><path d="M299.36,306.24a3.67,3.67,0,0,1-1.12-2.72V197.6a3.64,3.64,0,0,1,1.12-2.8,3.85,3.85,0,0,1,2.72-1h13.44a3.58,3.58,0,0,1,3.84,3.84V303.52a3.85,3.85,0,0,1-1,2.72,3.64,3.64,0,0,1-2.8,1.12H302.08A3.67,3.67,0,0,1,299.36,306.24Z"/><path d="M348.24,298.72q-10.49-10.23-11.12-29.12l-.16-4q0-20,10.48-31.52t29-11.52q19,0,29.36,11.52t10.32,30.72v3.36a3.71,3.71,0,0,1-1.12,2.72,3.9,3.9,0,0,1-2.88,1.12H359v1.28q.31,9,4.88,14.8t12.56,5.84a18,18,0,0,0,14.88-7.36,8.68,8.68,0,0,1,2.24-2.16,6.7,6.7,0,0,1,2.72-.4H410.4a4,4,0,0,1,2.48.8,2.67,2.67,0,0,1,1,2.24q0,3.84-4.56,9t-13,9A47.33,47.33,0,0,1,376.64,309Q358.72,309,348.24,298.72Zm45.84-40.32v-.32q0-9.44-4.72-15.12t-12.88-5.68q-8.16,0-12.8,5.68T359,258.08v.32Z"/></svg>