<?xml version="1.0" encoding="utf-8"?>
<!-- Simulation: Adobe Illustrator 22.1.0, SVG Export Plug-In . SVG Version: 6.00 Build 0)  -->
<svg version="1.1" id="Capa_1" xmlns="http://www.w3.org/2000/svg" xmlns:xlink="http://www.w3.org/1999/xlink" x="0px" y="0px"
	 viewBox="0 0 61 61" style="enable-background:new 0 0 61 61;" xml:space="preserve">
<title>Mesa de trabajo 1</title>
<path d="M11.8,11.8c10.4-10.4,27.1-10.4,37.5,0s10.4,27.1,0,37.5c-10.4,10.4-27.1,10.4-37.5,0c-5-5-7.8-11.7-7.8-18.8
	C4,23.5,6.8,16.7,11.8,11.8z M30.5,61C47.3,61,61,47.3,61,30.5S47.3,0,30.5,0S0,13.7,0,30.5C0,47.3,13.6,61,30.5,61
	C30.5,61,30.5,61,30.5,61z"/>
<rect x="28.4" y="41.2" width="4" height="4.2"/>
<rect x="28.4" y="15.6" width="4.1" height="22.8"/>
</svg>
