<?xml version="1.0" encoding="utf-8"?>
<!-- Simulation: Adobe Illustrator 22.1.0, SVG Export Plug-In . SVG Version: 6.00 Build 0)  -->
<svg version="1.1" id="Capa_1" xmlns="http://www.w3.org/2000/svg" xmlns:xlink="http://www.w3.org/1999/xlink" x="0px" y="0px"
	 viewBox="0 0 61 61.1" style="enable-background:new 0 0 61 61.1;" xml:space="preserve">
<title>Mesa de trabajo 1</title>
<path d="M11.8,11.9c10.4-10.4,27.1-10.4,37.5,0s10.4,27.1,0,37.5c-10.4,10.4-27.1,10.4-37.5,0c-5-5-7.8-11.7-7.8-18.8
	C4,23.6,6.8,16.9,11.8,11.9z M30.5,61.1C47.3,61.1,61,47.5,61,30.6S47.3,0.1,30.5,0.1S0,13.8,0,30.6C0,47.5,13.6,61.1,30.5,61.1
	C30.5,61.1,30.5,61.1,30.5,61.1z"/>
<rect x="28.4" y="15.7" transform="matrix(0.7071 -0.7071 0.7071 0.7071 -12.727 30.5309)" width="4.1" height="29.9"/>
<rect x="15.5" y="28.6" transform="matrix(0.7071 -0.7071 0.7071 0.7071 -12.727 30.5309)" width="29.9" height="4.1"/>
</svg>
