<?xml version="1.0" encoding="utf-8"?>
<!-- Simulation: Adobe Illustrator 22.1.0, SVG Export Plug-In . SVG Version: 6.00 Build 0)  -->
<svg version="1.1" id="Modo_de_aislamiento" xmlns="http://www.w3.org/2000/svg" xmlns:xlink="http://www.w3.org/1999/xlink"
	 x="0px" y="0px" viewBox="0 0 30.2 22.2" style="enable-background:new 0 0 30.2 22.2;" xml:space="preserve">
<title>Mesa de trabajo 1</title>
<path d="M20.1,10.8l-8.2,4.4V6.3l3.7,2L20.1,10.8z M29.9,4.8c-0.1-1.1-0.5-2.2-1.2-3.1c-0.8-0.8-1.9-1.3-3-1.3C21.4,0,15.1,0,15.1,0
	l0,0c0,0-6.3,0-10.6,0.3c-1.1,0-2.2,0.5-3,1.3c-0.6,0.9-1.1,2-1.2,3.1C0.1,6.5,0,8.2,0,9.9v2.4c0,1.7,0.1,3.4,0.3,5.1
	c0.1,1.1,0.5,2.2,1.2,3.1c0.9,0.8,2.1,1.3,3.3,1.3c2.4,0.2,10.3,0.3,10.3,0.3s6.3,0,10.6-0.3c1.1,0,2.2-0.5,3-1.3
	c0.6-0.9,1.1-2,1.2-3.1c0.2-1.7,0.3-3.4,0.3-5.1V9.9C30.1,8.2,30,6.5,29.9,4.8L29.9,4.8z"/>
</svg>
