<?xml version="1.0" encoding="utf-8"?>
<!-- Simulation: Adobe Illustrator 21.1.0, SVG Export Plug-In . SVG Version: 6.00 Build 0)  -->
<svg version="1.1" id="Layer_1" xmlns="http://www.w3.org/2000/svg" xmlns:xlink="http://www.w3.org/1999/xlink" x="0px" y="0px"
	 viewBox="0 0 83 85" style="enable-background:new 0 0 83 85;" xml:space="preserve">
<style type="text/css">
	.st0{fill:#FFFFFF;}
	.st1{fill:none;stroke:#FFFFFF;stroke-width:3;stroke-miterlimit:10;}
</style>
<title>Artboard 1</title>
<path class="st0" d="M44.1,57.3l17-16c1-1.1,1.4-3.2,0.2-4.4s-3.2-1.2-4.4,0L45,48.2V14.8c0-1.7-1.3-3-3-3s-3,1.3-3,3v33.4L27.1,37
	c-1.3-1.1-3.1-1.1-4.4,0c-1,1.3-0.9,3.2,0.2,4.4l17,16c0.6,0.5,1.3,0.8,2.1,0.8l0,0C42.8,58.1,43.5,57.8,44.1,57.3z"/>
<line class="st1" x1="4.2" y1="78.7" x2="79.8" y2="78.7"/>
</svg>
