<?xml version="1.0" encoding="utf-8"?>
<!-- Simulation: Adobe Illustrator 21.1.0, SVG Export Plug-In . SVG Version: 6.00 Build 0)  -->
<svg version="1.1" id="Layer_1" xmlns="http://www.w3.org/2000/svg" xmlns:xlink="http://www.w3.org/1999/xlink" x="0px" y="0px"
	 viewBox="0 0 100 100" style="enable-background:new 0 0 100 100;" xml:space="preserve">
<style type="text/css">
	.st0{fill:none;stroke:#4b3427;stroke-width:2;stroke-miterlimit:10;}
	.st1{fill:#4b3427;}
</style>
<title>Artboard 1</title>
<circle class="st0" cx="50" cy="50" r="44.7"/>
<path class="st1" d="M71.3,47.9l-16-17c-1.1-1-3.2-1.4-4.4-0.2c-1.2,1.2-1.2,3.2,0,4.4L62.2,47H28.9c-1.7,0-3,1.3-3,3s1.3,3,3,3
	h33.4L51,64.9c-1.1,1.3-1.1,3.1,0,4.4c1.3,1,3.2,0.9,4.4-0.2l16-17c0.5-0.6,0.8-1.3,0.8-2.1l0,0C72.1,49.2,71.8,48.5,71.3,47.9z"/>
</svg>
