<?xml version="1.0" encoding="utf-8"?>
<!-- Simulation: Adobe Illustrator 21.1.0, SVG Export Plug-In . SVG Version: 6.00 Build 0)  -->
<svg version="1.1" id="Capa_1" xmlns="http://www.w3.org/2000/svg" xmlns:xlink="http://www.w3.org/1999/xlink" x="0px" y="0px"
	 viewBox="0 0 138.5 133.4" style="enable-background:new 0 0 138.5 133.4;" xml:space="preserve">
<style type="text/css">
	.st0{fill:#E6F1F8;}
	.st1{fill:#002D56;}
	.st2{fill:#0080C4;}
</style>
<title>Mesa de trabajo 1</title>
<path class="st0" d="M7.6,0H131c4.2,0,7.6,3.4,7.6,7.6v118.3c0,4.2-3.4,7.6-7.6,7.6H7.6c-4.2,0-7.6-3.4-7.6-7.6V7.6
	C0,3.4,3.4,0,7.6,0z"/>
<path class="st1" d="M41.5,68.9c-3.8,0-6.8,3-6.8,6.8c0,3.8,3,6.8,6.8,6.8c3.8,0,6.8-3,6.8-6.8c0,0,0,0,0,0
	C48.3,71.9,45.2,68.9,41.5,68.9C41.5,68.9,41.5,68.9,41.5,68.9z M41.5,79.7c-2.2,0-4-1.8-4-4s1.8-4,4-4s4,1.8,4,4
	S43.7,79.7,41.5,79.7z"/>
<path class="st1" d="M109.2,68.9c-3.8,0-6.8,3-6.8,6.8c0,3.8,3,6.8,6.8,6.8c3.8,0,6.8-3,6.8-6.8c0,0,0,0,0,0
	C116,71.9,113,68.9,109.2,68.9z M109.2,79.7c-2.2,0-4-1.8-4-4s1.8-4,4-4s4,1.8,4,4S111.4,79.7,109.2,79.7z"/>
<path class="st1" d="M50.4,75.9c0.1-3.6,3.2-6.5,6.9-6.3c3.4,0.1,6.2,2.9,6.3,6.3v4.9c0,0.8-0.7,1.5-1.5,1.5c0,0,0,0,0,0l0,0
	c-0.8,0-1.5-0.7-1.5-1.5l0,0v-4.9c0-2-1.6-3.6-3.7-3.6s-3.7,1.6-3.7,3.6v4.9c0,0.8-0.7,1.5-1.5,1.5l0,0l0,0c-0.8,0-1.5-0.6-1.5-1.5
	c0,0,0,0,0,0L50.4,75.9L50.4,75.9z"/>
<path class="st1" d="M28.9,82.1c-3.5-0.1-6.3-3.1-6.1-6.6c0.1-3.3,2.8-6,6.1-6.1h2.9c0.8,0,1.4,0.6,1.4,1.4c0,0,0,0,0,0l0,0
	c0,0.8-0.6,1.4-1.4,1.4c0,0,0,0,0,0h-2.9c-1.9,0.2-3.3,1.9-3.1,3.9c0.2,1.6,1.5,2.9,3.1,3.1h2.9c0.8,0,1.4,0.6,1.4,1.4c0,0,0,0,0,0
	l0,0c0,0.8-0.6,1.4-1.4,1.4c0,0,0,0,0,0L28.9,82.1z"/>
<path class="st1" d="M90.7,79.3h-4.4c-1.4,0-3-0.8-3.3-2.1h7.7c0.8,0.1,1.5-0.5,1.5-1.3c0.1-0.8-0.5-1.5-1.3-1.5c-0.1,0-0.2,0-0.2,0
	h-7.7c0.5-1.3,1.8-2.2,3.2-2.2h4.3c0.8,0.1,1.5-0.5,1.5-1.3c0.1-0.8-0.5-1.5-1.3-1.5c-0.1,0-0.2,0-0.2,0h-4.3
	c-3.5,0.1-6.3,2.9-6.3,6.5c0,3.5,2.8,6.3,6.3,6.3c0,0,0,0,0.1,0h4.4c0.8,0,1.4-0.6,1.4-1.4S91.5,79.3,90.7,79.3L90.7,79.3z"/>
<path class="st1" d="M98.7,69.2c-0.8,0-1.5,0.7-1.5,1.5c0,0,0,0,0,0v9.7c0,2-1.6,3.6-3.6,3.6h-0.1c-0.9-0.1-1.6,0.6-1.7,1.5
	c0,0.8,0.7,1.5,1.6,1.5c0,0,0,0,0,0h0.1c3.6,0,6.6-3,6.6-6.6l0,0v-9.7C100.2,69.8,99.5,69.2,98.7,69.2z"/>
<path class="st1" d="M69.7,74.4c-0.6,0-1.1-0.5-1.1-1.1c0,0,0,0,0,0c0-0.6,0.5-1.1,1.1-1.1c0,0,0,0,0,0H76c0.8,0,1.4-0.6,1.4-1.3
	c0,0,0-0.1,0-0.1l0,0c0-0.8-0.6-1.4-1.4-1.4c0,0,0,0-0.1,0h-6.2c-2.2,0-3.9,1.7-3.9,3.9c0,2.2,1.7,3.9,3.9,3.9h4.5
	c0.6,0,1.1,0.4,1.1,1c0,0,0,0,0,0c0,0.6-0.5,1.1-1.1,1.1h-6.4c-0.8,0-1.4,0.6-1.4,1.3c0,0,0,0.1,0,0.1l0,0c0,0.8,0.6,1.4,1.4,1.4
	c0,0,0,0,0.1,0h6.4c2.2,0,3.9-1.8,3.9-3.9c0-2.1-1.7-3.8-3.8-3.8c0,0,0,0-0.1,0L69.7,74.4z"/>
<path class="st1" d="M97.3,66c0-0.8,0.6-1.4,1.4-1.4s1.4,0.6,1.4,1.4c0,0.8-0.6,1.4-1.4,1.4S97.3,66.8,97.3,66z"/>
<path class="st2" d="M48.9,31.2c-7.6,0-13.8,6.2-13.8,13.8s6.2,13.8,13.8,13.8H54c2.3-0.2,3.9-2.2,3.7-4.5c-0.2-2-1.7-3.5-3.7-3.7
	h-5.1c-3.1-0.1-5.5-2.7-5.3-5.8c0.1-2.9,2.4-5.2,5.3-5.3H54c2.3,0.1,4.2-1.6,4.3-3.9s-1.6-4.2-3.9-4.3c-0.1,0-0.3,0-0.4,0L48.9,31.2
	z"/>
<path class="st2" d="M33.6,55.1c0,2.3-1.9,4.2-4.2,4.2c-2.3,0-4.2-1.9-4.2-4.2c0,0,0,0,0,0v-10c0-13.1,10.6-23.6,23.6-23.6
	c0,0,0,0,0.1,0h5c7.6,0,13.8,6.2,13.8,13.8S61.6,49.1,54,49.1h-5.1c-2.3,0-4.1-1.9-4.1-4.1c0-2.3,1.9-4.1,4.1-4.1H54
	c3.1,0.1,5.7-2.3,5.8-5.3c0.1-3.1-2.3-5.7-5.3-5.8c-0.2,0-0.3,0-0.5,0h-5c-8.5,0-15.3,6.8-15.4,15.3c0,0,0,0,0,0.1V55.1z"/>
<path class="st1" d="M25.3,95.3v-2.9c0-0.3-0.1-0.5-0.4-0.5h-0.2h-0.2c-0.1,0-0.2-0.1-0.2-0.2c0,0,0,0,0-0.1c0-0.2,0.1-0.2,0.3-0.2
	h0.1h0.3c0.1,0,0.3,0,0.4,0H26c0.4,0,0.7,0,0.9,0c0.3,0,0.5,0,0.8,0.1c0.3,0.1,0.5,0.2,0.7,0.4c0.2,0.2,0.3,0.5,0.3,0.8
	c0,0.4-0.2,0.8-0.5,1c-0.4,0.3-0.9,0.4-1.3,0.4h-0.8c0,0-0.1,0-0.2,0c0,0.1,0,0.1,0,0.2v0.2c0,0.4,0,0.7,0,1.1
	c0,0.1,0.1,0.2,0.3,0.2h0.2h0.2c0.1,0,0.2,0.1,0.2,0.2c0,0,0,0,0,0c0,0.2-0.1,0.3-0.3,0.3h-0.1l-0.4-0.1h-0.4h-0.4l-0.4,0.1h-0.1
	c-0.2,0-0.3-0.1-0.3-0.3c0-0.1,0-0.1,0.1-0.2c0,0,0.1-0.1,0.2-0.1h0.2H25C25.2,95.9,25.3,95.7,25.3,95.3z M26,92.1
	c0,0.1,0,0.3,0,0.4v1c0,0.1,0.1,0.2,0.3,0.2h0.4c0.3,0,0.6,0,0.8-0.1c0.4-0.1,0.7-0.4,0.6-0.8c0-0.6-0.4-0.9-1.2-0.9
	C26.4,92,26.1,92,26,92.1z"/>
<path class="st1" d="M30.2,92.9v0.2c0.4-0.6,1.1-0.7,1.7-0.3c0,0,0.1,0.1,0.1,0.1c0.2,0.2,0.3,0.4,0.3,0.7c0,0.2,0,0.4-0.2,0.5
	c-0.1,0.1-0.3,0.2-0.4,0.2c-0.1,0-0.2,0-0.3-0.1c-0.1-0.1-0.1-0.1-0.1-0.2c0-0.1,0-0.1,0.1-0.2c0.1-0.1,0.1-0.1,0.2-0.1
	c0,0,0.1,0,0.1,0c0-0.1,0-0.1,0-0.2c0-0.1-0.1-0.3-0.2-0.3c-0.1-0.1-0.3-0.2-0.4-0.2c-0.3,0-0.6,0.2-0.7,0.5
	c-0.1,0.3-0.1,0.6-0.1,0.9v0.5c0,0.3,0,0.5,0,0.5c0,0.3,0.1,0.4,0.2,0.4c0.1,0,0.1,0,0.2,0h0.1c0.2,0,0.2,0.1,0.2,0.2
	s-0.1,0.2-0.3,0.2l0,0c-0.1,0-0.2,0-0.3,0c-0.1,0-0.2,0-0.3,0c-0.1,0-0.3,0-0.4,0h-0.4c-0.2,0-0.3-0.1-0.3-0.2s0.1-0.2,0.3-0.2h0.1
	h0.1h0.1c0.1,0,0.2-0.1,0.2-0.3v-2c0-0.3-0.1-0.4-0.2-0.4c-0.1,0-0.1,0-0.2,0h-0.2c-0.1,0-0.2-0.1-0.2-0.2c0,0,0,0,0-0.1
	c0-0.2,0.1-0.2,0.3-0.2h0.2c0.1,0,0.1,0,0.2,0c0.1,0,0.1,0,0.2,0H30C30.1,92.7,30.2,92.8,30.2,92.9z"/>
<path class="st1" d="M34.2,96.4c-0.5,0-0.9-0.2-1.2-0.5c-0.6-0.8-0.6-1.9,0-2.8c0.3-0.3,0.8-0.5,1.2-0.5c0.5,0,0.9,0.2,1.2,0.5
	c0.3,0.4,0.5,0.9,0.4,1.4c0,0.5-0.1,1-0.5,1.4C35.1,96.2,34.7,96.4,34.2,96.4z M34.2,93.1c-0.3,0-0.6,0.1-0.8,0.3
	c-0.2,0.3-0.3,0.6-0.3,1v0.1c0,0.4,0.1,0.7,0.3,1c0.2,0.3,0.5,0.4,0.8,0.4c0.3,0,0.6-0.1,0.8-0.4c0.2-0.3,0.3-0.6,0.3-1
	C35.3,93.6,35,93.1,34.2,93.1L34.2,93.1z"/>
<path class="st1" d="M38.6,92.1c0-0.1,0-0.1,0.1-0.2c-0.1-0.1-0.2-0.1-0.4-0.1c-0.2,0-0.4,0.1-0.5,0.2c-0.1,0.2-0.2,0.3-0.2,0.5v0.1
	c0,0,0,0.1,0.1,0.1c0,0,0,0,0,0h0.6c0.1,0,0.2,0.1,0.2,0.2c0,0,0,0,0,0.1c0,0.2-0.1,0.3-0.2,0.3h-0.5c-0.1,0-0.1,0-0.1,0.1v2.3
	c0,0.1,0.1,0.2,0.2,0.2H38h0.1c0.1,0,0.2,0.1,0.2,0.2c0,0,0,0,0,0.1c0,0.2-0.1,0.2-0.3,0.2c-0.1,0-0.2,0-0.4,0h-0.4
	c-0.1,0-0.3,0-0.4,0h-0.4c-0.2,0-0.3-0.1-0.3-0.2c0-0.1,0-0.1,0.1-0.2c0,0,0.1-0.1,0.2-0.1h0.2c0.1,0,0.1,0,0.2,0
	c0.1,0,0.2-0.1,0.2-0.2c0-0.3,0-0.6,0-0.8v-1.5c0-0.1,0-0.1-0.1-0.1c0,0,0,0,0,0h-0.4c-0.2,0-0.2-0.1-0.2-0.3c0-0.2,0.1-0.2,0.3-0.2
	H37c0,0,0.1,0,0.1-0.1c0,0,0,0,0,0v-0.1c0-0.3,0.1-0.6,0.3-0.9c0.2-0.2,0.5-0.3,0.8-0.3c0.3,0,0.5,0.1,0.8,0.2
	c0.2,0.1,0.3,0.3,0.3,0.5c0,0.1,0,0.2-0.1,0.2c-0.1,0.1-0.3,0.1-0.5,0C38.6,92.3,38.6,92.2,38.6,92.1z"/>
<path class="st1" d="M42,94.2c0,0.1,0,0.2,0,0.3c0,0-0.1,0.1-0.2,0.1h-2.3c-0.1,0-0.1,0-0.1,0c0,0,0,0.1,0,0.1
	c0,0.3,0.1,0.7,0.3,0.9c0.4,0.4,0.9,0.5,1.4,0.2c0.2-0.1,0.3-0.3,0.3-0.4l0.1-0.2c0-0.1,0.1-0.2,0.2-0.2c0.1,0,0.2,0.1,0.3,0.2
	c0,0,0,0,0,0.1c0,0.3-0.2,0.6-0.5,0.8c-0.3,0.2-0.7,0.4-1.1,0.4c-0.4,0-0.9-0.2-1.2-0.5c-0.3-0.4-0.5-0.9-0.4-1.3
	c0-0.5,0.1-1,0.5-1.4c0.3-0.4,0.8-0.6,1.2-0.5c0.4,0,0.8,0.2,1.1,0.4C41.9,93.3,42,93.7,42,94.2z M39.4,94c0,0.1,0,0.1,0.2,0.1h1.7
	c0.1,0,0.2,0,0.2-0.1c0-0.2-0.1-0.5-0.3-0.7c-0.2-0.2-0.4-0.3-0.7-0.3c-0.3,0-0.5,0.1-0.7,0.3C39.5,93.5,39.4,93.7,39.4,94L39.4,94z
	"/>
<path class="st1" d="M44,92.6c0.3,0,0.6,0.1,0.8,0.2l0,0c0-0.2,0.1-0.3,0.2-0.3c0.1,0,0.2,0.1,0.2,0.2c0,0,0,0,0,0.1
	c0,0,0,0.1,0,0.2c0,0.1,0,0.2,0,0.3c0,0.1,0,0.1,0,0.2s0,0.2,0,0.2s-0.1,0.3-0.2,0.3c-0.1,0-0.2-0.1-0.2-0.2c0,0,0,0,0,0v-0.2
	c0-0.2-0.1-0.3-0.2-0.4c-0.2-0.1-0.4-0.2-0.6-0.2c-0.2,0-0.4,0-0.6,0.2c-0.1,0.1-0.2,0.3-0.2,0.4c0,0.3,0.2,0.5,0.6,0.5l0.4,0.1
	c0.8,0.1,1.2,0.4,1.2,1c0,0.3-0.1,0.6-0.4,0.8c-0.6,0.4-1.4,0.4-2,0v0.1c0,0.2-0.1,0.3-0.2,0.3s-0.3-0.1-0.3-0.3c0,0,0-0.1,0-0.4
	c0-0.1,0-0.1,0-0.2c0-0.1,0-0.2,0-0.3c0-0.1,0-0.2,0-0.2s0.1-0.2,0.2-0.2s0.2,0,0.2,0.1c0,0.1,0,0.3,0,0.4c0,0.2,0.1,0.4,0.3,0.5
	c0.2,0.1,0.5,0.2,0.8,0.2c0.2,0,0.4,0,0.6-0.2c0.1-0.1,0.2-0.3,0.2-0.4c0-0.3-0.3-0.5-0.8-0.6c-0.4,0-0.8-0.1-1.1-0.3
	c-0.3-0.1-0.4-0.4-0.4-0.7c0-0.3,0.1-0.6,0.4-0.8C43.3,92.7,43.6,92.6,44,92.6z"/>
<path class="st1" d="M47.2,94.2v1.4c0,0.2,0.1,0.3,0.2,0.3c0.1,0,0.1,0,0.2,0h0.1c0.2,0,0.3,0.1,0.3,0.2c0,0.1,0,0.1-0.1,0.2
	c-0.1,0-0.1,0.1-0.2,0.1h-0.3h-0.3h-0.4h-0.4c-0.2,0-0.3-0.1-0.3-0.2c0-0.2,0.1-0.2,0.2-0.2h0.2h0.2c0.1,0,0.2-0.2,0.2-0.5v-1.9
	c0-0.3-0.1-0.4-0.2-0.4h-0.2c-0.1,0-0.1,0-0.2,0c-0.2,0-0.2-0.1-0.2-0.2s0.1-0.2,0.3-0.2h0.2h0.3h0.2c0.1,0,0.1,0,0.2,0
	c0.1,0,0.2,0.1,0.2,0.3V93c0,0,0,0.1,0,0.1c0,0,0,0.2,0,0.4L47.2,94.2z M46.8,92.3c-0.1,0-0.2,0-0.3-0.1c-0.1-0.1-0.1-0.2-0.1-0.3
	c0-0.1,0-0.2,0.1-0.3c0.1-0.1,0.2-0.1,0.3-0.1c0.1,0,0.2,0,0.3,0.1c0.1,0.1,0.1,0.2,0.1,0.3c0,0.1,0,0.2-0.1,0.3
	C47,92.3,46.9,92.3,46.8,92.3z"/>
<path class="st1" d="M49.8,96.4c-0.5,0-0.9-0.2-1.2-0.5c-0.6-0.8-0.6-1.9,0-2.8c0.3-0.3,0.7-0.5,1.2-0.5c0.5,0,0.9,0.2,1.2,0.5
	c0.3,0.4,0.5,0.9,0.4,1.4c0,0.5-0.1,1-0.5,1.4C50.8,96.2,50.3,96.4,49.8,96.4z M49.8,93.1c-0.3,0-0.6,0.1-0.8,0.3
	c-0.2,0.3-0.3,0.6-0.3,1v0.1c0,0.4,0.1,0.7,0.3,1c0.2,0.3,0.5,0.4,0.8,0.4c0.3,0,0.6-0.1,0.8-0.4c0.2-0.3,0.3-0.6,0.3-1
	C51,93.6,50.6,93.1,49.8,93.1L49.8,93.1z"/>
<path class="st1" d="M53.2,92.9v0.2c0.3-0.3,0.7-0.5,1.1-0.5c0.3,0,0.5,0.1,0.7,0.2c0.2,0.1,0.4,0.3,0.5,0.5
	c0.1,0.2,0.1,0.4,0.1,0.6v1.4c0,0.1,0,0.2,0,0.4c0,0.2,0.1,0.2,0.2,0.2H56h0.1c0.1,0,0.2,0.1,0.2,0.2c0,0,0,0,0,0
	c0,0.1,0,0.1-0.1,0.2c-0.1,0-0.1,0.1-0.2,0.1c-0.1,0-0.2,0-0.3,0h-0.4H55h-0.4c-0.2,0-0.3-0.1-0.3-0.2s0.1-0.2,0.2-0.2h0.1
	c0.1,0,0.1,0,0.2,0c0.1,0,0.2-0.1,0.2-0.4v-1.3c0-0.2,0-0.3,0-0.5c0-0.2-0.1-0.3-0.3-0.4c-0.2-0.1-0.3-0.2-0.5-0.2
	c-0.3,0-0.6,0.1-0.8,0.4c-0.1,0.3-0.2,0.7-0.2,1v1c0,0.1,0,0.3,0,0.4c0,0.1,0.1,0.1,0.2,0.1h0.2h0.2c0.2,0,0.2,0.1,0.2,0.2
	s-0.1,0.2-0.3,0.2c-0.1,0-0.3,0-0.4,0H53h-0.4h-0.4c-0.2,0-0.3-0.1-0.3-0.2S52,96,52.2,96h0.1c0.1,0,0.1,0,0.2,0
	c0.2,0,0.2-0.1,0.2-0.4v-2c0-0.1,0-0.2-0.1-0.3c0-0.1-0.1-0.1-0.2-0.1h-0.1h-0.2c-0.2,0-0.3-0.1-0.3-0.2c0-0.2,0.1-0.2,0.3-0.2h0.1
	h0.3c0.1,0,0.1,0,0.2,0H53C53.1,92.7,53.2,92.8,53.2,92.9C53.2,92.9,53.2,92.9,53.2,92.9z"/>
<path class="st1" d="M61.6,93.3v2.2c0,0.2,0.1,0.4,0.2,0.4c0.1,0,0.1,0,0.2,0h0.1c0.2,0,0.2,0.1,0.2,0.2s-0.1,0.2-0.3,0.2
	c-0.1,0-0.2,0-0.4,0h-0.4H61c-0.1,0-0.2,0-0.3,0l0,0c-0.2,0-0.3-0.1-0.3-0.2s0.1-0.2,0.2-0.2h0.1h0.2c0.1,0,0.1,0,0.2-0.1
	c0-0.2,0-0.4,0-0.6v-2.9c0-0.2,0-0.2,0-0.3s-0.1-0.2-0.2-0.2h-0.2h-0.1c-0.1,0-0.2-0.1-0.2-0.2c0,0,0,0,0-0.1c0-0.2,0.1-0.2,0.3-0.2
	h0.1h0.2c0.1,0,0.1,0,0.2,0h0.2h0.2c0.1,0,0.2,0.1,0.2,0.2c0,0,0,0.1,0,0.1C61.6,92.1,61.6,92.6,61.6,93.3z"/>
<path class="st1" d="M66.2,92.6c0.4,0,0.8,0.2,1,0.6v-0.7c0-0.1,0-0.2,0-0.3c0-0.1-0.1-0.2-0.2-0.2h-0.2h-0.2
	c-0.2,0-0.3-0.1-0.3-0.2c0-0.2,0.1-0.2,0.4-0.2H67h0.2h0.2h0.2c0.1,0,0.2,0.1,0.2,0.3v0.1c0,0.1,0,0.3,0,0.4c0,0,0,0.2,0,0.6
	c0,0.3,0,0.4,0,0.5v1.9c0,0.2,0,0.4,0,0.6c0,0.1,0.1,0.1,0.2,0.1h0.3c0.2,0,0.3,0.1,0.3,0.2c0,0.2-0.1,0.2-0.3,0.2H68
	c-0.1,0-0.1,0-0.2,0h-0.2c0,0-0.1,0-0.2,0c-0.1,0-0.2-0.1-0.2-0.2v-0.2c-0.3,0.3-0.7,0.5-1.1,0.5c-0.4,0-0.9-0.2-1.2-0.5
	c-0.6-0.8-0.6-1.9,0-2.8C65.3,92.7,65.7,92.6,66.2,92.6z M67.2,95.1c0-0.2,0-0.4,0-0.6c0-0.2,0-0.4,0-0.7c0-0.2-0.1-0.4-0.3-0.6
	c-0.2-0.2-0.4-0.2-0.7-0.2c-0.3,0-0.6,0.1-0.8,0.4c-0.2,0.3-0.3,0.6-0.3,1c0,0.4,0.1,0.8,0.3,1.1c0.3,0.4,1,0.5,1.4,0.2
	c0,0,0,0,0.1,0C67.1,95.5,67.2,95.3,67.2,95.1L67.2,95.1z"/>
<path class="st1" d="M72.1,94.2c0,0.1,0,0.2,0,0.3c0,0-0.1,0.1-0.2,0.1h-2.3c-0.1,0-0.1,0-0.1,0c0,0,0,0.1,0,0.1
	c0,0.3,0.1,0.7,0.3,0.9c0.2,0.2,0.5,0.4,0.8,0.4c0.2,0,0.4-0.1,0.6-0.2c0.2-0.1,0.3-0.3,0.3-0.4l0.1-0.2c0-0.1,0.1-0.2,0.2-0.2
	c0.1,0,0.2,0.1,0.3,0.2c0,0,0,0,0,0.1c0,0.3-0.2,0.6-0.5,0.8c-0.3,0.2-0.7,0.4-1.1,0.4c-0.5,0-0.9-0.2-1.2-0.5
	c-0.3-0.4-0.5-0.9-0.4-1.3c0-0.5,0.1-1,0.5-1.4c0.3-0.4,0.8-0.6,1.2-0.5c0.4,0,0.8,0.2,1.1,0.4C72,93.3,72.1,93.8,72.1,94.2z
	 M69.5,94c0,0.1,0,0.1,0.2,0.1h1.7c0.1,0,0.2,0,0.2-0.1c0-0.3-0.1-0.5-0.3-0.7c-0.2-0.2-0.4-0.3-0.7-0.3c-0.3,0-0.5,0.1-0.7,0.3
	C69.6,93.5,69.5,93.7,69.5,94z"/>
<path class="st1" d="M76.5,91.4c0.5,0,1,0.2,1.3,0.6v-0.2l0,0c0,0,0-0.1,0-0.1c0-0.2,0.1-0.2,0.2-0.2s0.2,0.1,0.2,0.3s0,0.2,0,0.3
	s0,0.4,0,0.5s0,0.3,0,0.4v0.3v0.1c0,0.2-0.1,0.3-0.3,0.3s-0.3-0.1-0.3-0.3V93c0-0.3-0.1-0.6-0.3-0.8c-0.2-0.2-0.6-0.3-0.9-0.3
	c-0.4,0-0.8,0.2-1.1,0.5c-0.5,0.9-0.5,2.1,0,3c0.3,0.4,0.7,0.6,1.1,0.5c0.2,0,0.5-0.1,0.7-0.2c0.2-0.1,0.4-0.3,0.4-0.5
	c0.1-0.2,0.1-0.4,0.1-0.6c0-0.2,0.1-0.3,0.3-0.3s0.3,0.1,0.3,0.3c0,0.5-0.2,0.9-0.5,1.2c-0.9,0.7-2.1,0.6-2.9-0.2
	c-0.4-0.5-0.6-1.2-0.6-1.8c0-0.7,0.2-1.3,0.6-1.9C75.3,91.6,75.9,91.4,76.5,91.4z"/>
<path class="st1" d="M80.1,94.2v1.4c0,0.2,0.1,0.3,0.2,0.3c0.1,0,0.1,0,0.2,0h0.1c0.2,0,0.3,0.1,0.3,0.2c0,0.1,0,0.1-0.1,0.2
	c-0.1,0-0.1,0.1-0.2,0.1h-0.3h-0.3h-0.4H79c-0.2,0-0.3-0.1-0.3-0.2c0-0.2,0.1-0.2,0.2-0.2h0.2h0.2c0.1,0,0.2-0.2,0.2-0.5v-1.9
	c0-0.3-0.1-0.4-0.2-0.4h-0.2c-0.1,0-0.1,0-0.2,0c-0.2,0-0.2-0.1-0.2-0.2s0.1-0.2,0.3-0.2h0.2h0.3h0.2c0.1,0,0.1,0,0.2,0
	c0.1,0,0.2,0.1,0.2,0.3c0,0.3,0,0,0,0.1s0,0.1,0,0.1s0,0.2,0,0.4L80.1,94.2z M79.7,92.3c-0.1,0-0.2,0-0.3-0.1
	c-0.1-0.1-0.1-0.2-0.1-0.3c0-0.1,0-0.2,0.1-0.3c0.2-0.1,0.4-0.1,0.6,0c0.1,0.1,0.1,0.2,0.1,0.3c0,0.1,0,0.2-0.1,0.3
	C79.9,92.3,79.8,92.3,79.7,92.3z"/>
<path class="st1" d="M84.3,94.2c0,0.1,0,0.2,0,0.3c0,0-0.1,0.1-0.2,0.1h-2.3c-0.1,0-0.1,0-0.1,0c0,0,0,0.1,0,0.1
	c0,0.3,0.1,0.7,0.3,0.9c0.2,0.2,0.5,0.4,0.8,0.4c0.2,0,0.4-0.1,0.6-0.2c0.2-0.1,0.3-0.2,0.3-0.4l0.1-0.2c0-0.1,0.1-0.2,0.2-0.2
	c0.1,0,0.2,0.1,0.3,0.2c0,0,0,0,0,0.1c0,0.3-0.2,0.6-0.5,0.8c-0.3,0.2-0.7,0.4-1.1,0.4c-0.5,0-0.9-0.2-1.2-0.5
	c-0.3-0.4-0.5-0.9-0.4-1.3c0-0.5,0.1-1,0.5-1.4c0.3-0.4,0.8-0.6,1.2-0.5c0.4,0,0.8,0.2,1.1,0.4C84.3,93.3,84.4,93.8,84.3,94.2z
	 M81.8,94c0,0.1,0,0.1,0.2,0.1h1.7c0.1,0,0.2,0,0.2-0.1c0-0.2-0.1-0.5-0.3-0.7c-0.2-0.2-0.4-0.3-0.7-0.3c-0.3,0-0.5,0.1-0.7,0.3
	C81.9,93.5,81.8,93.7,81.8,94z"/>
<path class="st1" d="M86,92.9v0.2c0.3-0.4,0.7-0.6,1.1-0.5c0.3,0,0.5,0.1,0.7,0.2c0.2,0.1,0.4,0.3,0.5,0.5c0.1,0.2,0.1,0.4,0.1,0.6
	v1.7c0,0.2,0.1,0.2,0.2,0.2h0.2h0.2c0.1,0,0.1,0,0.2,0.1c0,0,0.1,0.1,0.1,0.1c0,0.1,0,0.1-0.1,0.2c-0.1,0-0.1,0.1-0.2,0.1
	c-0.1,0-0.2,0-0.3,0c-0.1,0-0.3,0-0.4,0h-0.3h-0.4c-0.2,0-0.3-0.1-0.3-0.2s0.1-0.2,0.2-0.2h0.1c0.1,0,0.1,0,0.2,0
	c0.1,0,0.2-0.1,0.2-0.4v-1.3c0-0.2,0-0.3,0-0.5c0-0.2-0.1-0.3-0.3-0.4c-0.4-0.3-1-0.2-1.3,0.2c-0.1,0.3-0.2,0.7-0.2,1v1
	c0,0.1,0,0.3,0,0.4c0,0.1,0.1,0.1,0.2,0.1h0.2h0.2c0.2,0,0.2,0.1,0.2,0.2s-0.1,0.2-0.3,0.2c-0.1,0-0.2,0-0.4,0h-0.3h-0.4h-0.4
	c-0.2,0-0.3-0.1-0.3-0.2s0.1-0.2,0.2-0.2h0.1c0.1,0,0.1,0,0.2,0c0.1,0,0.2-0.1,0.2-0.4v-1.9c0-0.1,0-0.2-0.1-0.3
	c0-0.1-0.1-0.1-0.2-0.1h-0.2H85c-0.2,0-0.3-0.1-0.3-0.2c0-0.2,0.1-0.2,0.3-0.2h0.1h0.3c0.1,0,0.1,0,0.2,0h0.2
	C85.9,92.7,86,92.8,86,92.9C86,92.9,86,92.9,86,92.9z"/>
<path class="st1" d="M91.5,93.9c0-0.2,0.1-0.3,0.3-0.3c0-0.2-0.1-0.3-0.2-0.4c-0.2-0.1-0.3-0.1-0.5-0.1c-0.3,0-0.6,0.1-0.8,0.4
	c-0.2,0.3-0.3,0.6-0.3,1c0,0.4,0.1,0.7,0.3,1c0.2,0.3,0.5,0.4,0.8,0.4c0.2,0,0.4-0.1,0.6-0.2c0.2-0.1,0.3-0.3,0.3-0.5
	c0-0.2,0.1-0.2,0.1-0.3c0-0.1,0.1-0.1,0.2-0.1c0.1,0,0.1,0,0.2,0.1c0.1,0.1,0.1,0.1,0.1,0.2c0,0.1,0,0.3-0.1,0.4
	c-0.1,0.2-0.1,0.3-0.3,0.4c-0.3,0.3-0.7,0.5-1.1,0.4c-0.4,0-0.9-0.2-1.2-0.5c-0.3-0.4-0.5-0.9-0.4-1.3c0-0.5,0.1-1,0.5-1.4
	c0.3-0.3,0.8-0.5,1.2-0.5c0.3,0,0.7,0.1,0.9,0.3c0.2,0.2,0.4,0.5,0.4,0.8c0,0.2-0.1,0.3-0.1,0.4c-0.1,0.1-0.2,0.2-0.4,0.2
	c-0.1,0-0.2,0-0.3-0.1C91.5,94.1,91.5,94,91.5,93.9z"/>
<path class="st1" d="M94.2,94.2v1.4c0,0.2,0.1,0.3,0.2,0.3c0.1,0,0.1,0,0.2,0h0.1c0.2,0,0.3,0.1,0.3,0.2c0,0.1,0,0.1-0.1,0.2
	c-0.1,0-0.1,0.1-0.2,0.1h-0.4h-0.3h-0.4h-0.4c-0.2,0-0.3-0.1-0.3-0.2c0-0.2,0.1-0.2,0.2-0.2h0.2h0.2c0.1,0,0.2-0.2,0.2-0.5v-1.9
	c0-0.3-0.1-0.4-0.2-0.4h-0.2c-0.1,0-0.1,0-0.2,0c-0.2,0-0.2-0.1-0.2-0.2s0.1-0.2,0.3-0.2h0.2h0.3h0.2c0.1,0,0.1,0,0.2,0
	c0.1,0,0.2,0.1,0.2,0.3c0,0.3,0,0,0,0.1v0.1c0,0,0,0.2,0,0.4L94.2,94.2z M93.8,92.3c-0.1,0-0.2,0-0.3-0.1c-0.1-0.1-0.1-0.2-0.1-0.3
	c0-0.1,0-0.2,0.1-0.3c0.2-0.1,0.4-0.1,0.6,0c0.1,0.1,0.1,0.2,0.1,0.3c0,0.1,0,0.2-0.1,0.3C94,92.3,93.9,92.3,93.8,92.3z"/>
<path class="st1" d="M100.6,92.6c0.3,0,0.6,0.1,0.8,0.2l0,0c0-0.2,0.1-0.3,0.2-0.3c0.1,0,0.2,0.1,0.2,0.2c0,0,0,0,0,0.1
	c0,0,0,0.1,0,0.2c0,0.1,0,0.2,0,0.3c0,0.1,0,0.1,0,0.2s0,0.2,0,0.2s-0.1,0.3-0.2,0.3c-0.1,0-0.2-0.1-0.2-0.2c0,0,0,0,0,0v-0.2
	c0-0.2-0.1-0.3-0.2-0.4c-0.2-0.1-0.4-0.2-0.6-0.2c-0.2,0-0.4,0-0.6,0.2c-0.1,0.1-0.2,0.3-0.2,0.4c0,0.3,0.2,0.5,0.6,0.5l0.4,0.1
	c0.8,0.1,1.2,0.4,1.2,1c0,0.3-0.1,0.6-0.4,0.8c-0.6,0.4-1.4,0.4-2,0v0.1c0,0.2-0.1,0.3-0.2,0.3s-0.3-0.1-0.3-0.3c0-0.1,0-0.2,0-0.4
	c0-0.1,0-0.1,0-0.2c0-0.1,0-0.2,0-0.3c0-0.1,0-0.2,0-0.2c0-0.2,0.1-0.2,0.2-0.2s0.2,0,0.2,0.1c0,0.1,0.1,0.3,0.1,0.4
	c0,0.2,0.1,0.4,0.3,0.5c0.2,0.1,0.5,0.2,0.8,0.2c0.2,0,0.4,0,0.6-0.2c0.1-0.1,0.2-0.3,0.2-0.4c0-0.3-0.3-0.5-0.8-0.6
	c-0.4,0-0.8-0.1-1.1-0.3c-0.3-0.1-0.4-0.4-0.4-0.7c0-0.3,0.1-0.6,0.4-0.8C99.9,92.7,100.3,92.6,100.6,92.6z"/>
<path class="st1" d="M25.4,100.2c0-0.3-0.1-0.5-0.4-0.5h-0.1h-0.2c-0.1,0-0.1,0-0.2-0.1c0,0-0.1-0.1-0.1-0.2c0-0.2,0.1-0.2,0.3-0.2
	h0.1c0.7,0,1,0.1,1,0.1h0.1l1.7-0.1h0.6c0.2,0,0.4,0.1,0.4,0.3c0,0,0,0.2,0,0.4c0,0.2,0,0.3,0,0.4c0,0.1,0,0.2,0,0.3
	c0,0.1,0,0.2,0,0.3s-0.1,0.3-0.3,0.3s-0.2-0.1-0.2-0.4v-0.3c0-0.4-0.1-0.6-0.2-0.7c-0.3-0.1-0.6-0.1-1-0.1c-0.2,0-0.4,0-0.6,0
	c-0.2,0-0.3,0.2-0.3,0.4v0.7c0,0.2,0,0.3,0.1,0.3h0.5c0.3,0,0.4-0.1,0.4-0.3c0-0.2,0-0.1,0-0.2c0-0.1,0-0.2,0-0.2
	c0-0.1,0.1-0.3,0.2-0.3s0.2,0.1,0.2,0.3c0,0,0,0.2,0,0.4c0,0.2,0,0.4,0,0.6c0,0.1,0,0.3,0,0.5c0,0.1,0,0.2,0,0.2c0,0.1,0,0.2,0,0.3
	c0,0.1-0.1,0.2-0.2,0.2c0,0,0,0-0.1,0c-0.2,0-0.2-0.1-0.2-0.3c0-0.2,0-0.1,0-0.2c0-0.1,0-0.2,0-0.2c0-0.2-0.1-0.3-0.4-0.3h-0.3
	c-0.1,0-0.2,0-0.2,0.1c0,0.1-0.1,0.2,0,0.3v0.5c0,0.1,0,0.2,0,0.3s0,0.3,0,0.3c0,0.1,0,0.3,0.1,0.3c0.1,0.1,0.2,0.1,0.4,0.1h1
	c0.2,0,0.4,0,0.6-0.1c0.1-0.1,0.2-0.3,0.2-0.5c0-0.1,0-0.2,0-0.3s0-0.2,0-0.3c0-0.1,0.1-0.3,0.3-0.3s0.3,0.1,0.3,0.3s0,0.2,0,0.4
	v0.7c0,0.1,0,0.2,0,0.3c0,0.2-0.1,0.3-0.3,0.3c0,0,0,0-0.1,0h-0.2h-0.3h-0.6h-1c-0.5,0-0.9,0-1.3,0h-0.1c-0.2,0-0.3-0.1-0.3-0.3
	c0-0.1,0.1-0.2,0.2-0.2c0,0,0,0,0,0h0.2h0.1c0.2,0,0.4-0.2,0.4-0.5L25.4,100.2z"/>
<path class="st1" d="M31.4,101.7c0-0.2,0.1-0.3,0.4-0.3c0-0.2-0.1-0.3-0.2-0.4c-0.2-0.1-0.3-0.2-0.5-0.1c-0.3,0-0.6,0.1-0.8,0.4
	c-0.4,0.6-0.4,1.4,0,2.1c0.2,0.2,0.5,0.4,0.8,0.4c0.2,0,0.4-0.1,0.6-0.2c0.2-0.1,0.3-0.3,0.3-0.5c0-0.1,0.1-0.2,0.1-0.3
	c0-0.1,0.1-0.1,0.2-0.1c0.1,0,0.1,0,0.2,0.1c0,0.1,0.1,0.1,0.1,0.2c0,0.1,0,0.3-0.1,0.4c-0.1,0.1-0.2,0.3-0.3,0.4
	c-0.3,0.3-0.7,0.5-1.1,0.4c-0.4,0-0.9-0.2-1.2-0.5c-0.3-0.4-0.5-0.9-0.4-1.3c0-0.5,0.1-1,0.4-1.4c0.3-0.4,0.8-0.5,1.2-0.5
	c0.4,0,0.7,0.1,1,0.3c0.2,0.2,0.4,0.5,0.4,0.8c0,0.2,0,0.3-0.1,0.4c-0.1,0.1-0.2,0.2-0.4,0.2c-0.1,0-0.2,0-0.3-0.1
	C31.5,101.9,31.4,101.8,31.4,101.7z"/>
<path class="st1" d="M34.6,104.1c-0.5,0-0.9-0.2-1.2-0.5c-0.3-0.4-0.5-0.9-0.4-1.4c0-0.5,0.1-1,0.4-1.4c0.3-0.3,0.8-0.5,1.2-0.5
	c0.5,0,0.9,0.2,1.2,0.5c0.3,0.4,0.5,0.9,0.4,1.4c0,0.5-0.1,1-0.5,1.4C35.5,104,35.1,104.2,34.6,104.1z M34.6,100.8
	c-0.3,0-0.6,0.1-0.8,0.4c-0.2,0.3-0.3,0.6-0.3,1v0.1c0,0.4,0.1,0.7,0.3,1c0.2,0.2,0.5,0.4,0.8,0.4c0.3,0,0.6-0.1,0.8-0.4
	c0.2-0.3,0.3-0.6,0.3-1C35.7,101.3,35.4,100.8,34.6,100.8L34.6,100.8z"/>
<path class="st1" d="M38,100.7v0.2c0.3-0.4,0.7-0.6,1.1-0.5c0.3,0,0.5,0.1,0.7,0.2c0.2,0.1,0.4,0.3,0.5,0.5c0.1,0.2,0.1,0.4,0.1,0.6
	v1.4c0,0.2,0,0.3,0,0.4c0,0,0.1,0.2,0.2,0.2c0.1,0,0.1,0,0.2,0h0.1c0.1,0,0.1,0,0.2,0.1c0,0,0.1,0.1,0.1,0.2c0,0.1,0,0.1-0.1,0.2
	c-0.1,0.1-0.1,0.1-0.2,0.1c-0.1,0-0.2,0-0.3,0h-0.4h-0.3h-0.4c-0.2,0-0.3-0.1-0.3-0.2s0.1-0.2,0.2-0.2h0.1h0.2
	c0.1,0,0.2-0.1,0.2-0.4v-1.3c0-0.2,0-0.3,0-0.5c0-0.2-0.1-0.3-0.3-0.4c-0.2-0.1-0.3-0.2-0.5-0.2c-0.3,0-0.6,0.1-0.8,0.4
	c-0.1,0.3-0.2,0.6-0.2,0.9v1c0,0.1,0,0.3,0,0.4c0,0.1,0.1,0.1,0.2,0.1h0.2c0.1,0,0.1,0,0.2,0c0.2,0,0.2,0.1,0.2,0.2
	c0,0.2-0.1,0.2-0.3,0.2h-0.4h-0.3c-0.1,0-0.3,0-0.4,0H37c-0.2,0-0.3-0.1-0.3-0.2c0-0.2,0.1-0.2,0.2-0.2c0,0,0.1,0,0.1,0h0.2
	c0.1,0,0.2-0.1,0.2-0.4v-1.9c0-0.1,0-0.2-0.1-0.3c0-0.1-0.1-0.1-0.2-0.1h-0.2H37c-0.2,0-0.3-0.1-0.3-0.2c0-0.1,0.1-0.2,0.3-0.2h0.1
	h0.3h0.2h0.2C37.9,100.5,38,100.5,38,100.7C38,100.7,38,100.7,38,100.7z"/>
<path class="st1" d="M43,104.1c-0.5,0-0.9-0.2-1.2-0.5c-0.3-0.4-0.5-0.9-0.4-1.4c0-0.5,0.1-1,0.4-1.4c0.3-0.3,0.8-0.5,1.2-0.5
	c0.5,0,0.9,0.2,1.2,0.5c0.6,0.8,0.6,1.9,0,2.8C43.9,104,43.5,104.2,43,104.1z M43,100.8c-0.3,0-0.6,0.1-0.8,0.4
	c-0.2,0.3-0.3,0.6-0.3,1v0.1c0,0.4,0.1,0.7,0.3,1c0.2,0.2,0.5,0.4,0.8,0.4c0.3,0,0.6-0.1,0.8-0.4c0.2-0.3,0.3-0.6,0.3-1
	C44.2,101.3,43.8,100.8,43,100.8L43,100.8z M43.8,99.3c0,0.1-0.1,0.2-0.2,0.3l-1,0.4h-0.1c-0.1,0-0.1-0.1-0.1-0.2s0.1-0.1,0.1-0.2
	l0.9-0.6c0.1,0,0.1-0.1,0.2-0.1c0.1-0.1,0.2,0,0.3,0.1C43.8,99.2,43.8,99.2,43.8,99.3L43.8,99.3z"/>
<path class="st1" d="M46.3,100.7v0.2c0.1-0.2,0.3-0.3,0.5-0.4c0.2-0.1,0.4-0.1,0.6-0.1c0.4,0,0.8,0.2,1,0.5c0.1-0.2,0.3-0.3,0.5-0.4
	c0.2-0.1,0.4-0.1,0.6-0.1c0.3,0,0.5,0.1,0.7,0.2c0.2,0.1,0.4,0.3,0.5,0.5c0.1,0.2,0.1,0.5,0.1,0.7v1.2c0,0.1,0,0.2,0,0.4
	c0,0.2,0.1,0.3,0.2,0.3h0.2c0,0,0.1,0,0.2,0c0.2,0,0.2,0.1,0.2,0.2c0,0.2-0.1,0.3-0.3,0.3h-0.3c-0.1,0-0.2,0-0.3,0
	c-0.1,0-0.2,0-0.3,0h-0.3c-0.2,0-0.3-0.1-0.3-0.3c0-0.2,0.1-0.2,0.2-0.2H50c0,0,0.1,0,0.1,0c0.1,0,0.1,0,0.2-0.1c0-0.2,0-0.4,0-0.6
	V102c0-0.2,0-0.5-0.1-0.7c0-0.2-0.1-0.3-0.3-0.4c-0.1-0.1-0.3-0.1-0.5-0.1c-0.3,0-0.6,0.1-0.7,0.3c-0.1,0.3-0.2,0.7-0.2,1v0.5
	c0,0.3,0,0.6,0,0.8c0,0.1,0.1,0.2,0.2,0.2c0,0,0.1,0,0.1,0H49c0.1,0,0.1,0,0.2,0.1c0,0.1,0.1,0.1,0.1,0.2c0,0.1-0.1,0.2-0.3,0.2
	c-0.1,0-0.2,0-0.3,0h-0.3H48c-0.1,0-0.2,0-0.3,0c-0.2,0-0.3-0.1-0.3-0.2s0.1-0.2,0.2-0.2c0,0,0.1,0,0.1,0h0.2c0.1,0,0.2-0.1,0.2-0.4
	V103v-1c0-0.3,0-0.6-0.2-0.9c-0.1-0.2-0.4-0.3-0.6-0.2c-0.3,0-0.6,0.1-0.7,0.3c-0.2,0.3-0.2,0.7-0.2,1v1c0,0.1,0,0.2,0,0.3
	c0,0.2,0.1,0.2,0.2,0.2h0.1h0.1c0.2,0,0.3,0.1,0.3,0.2c0,0.2-0.1,0.2-0.3,0.2h-0.3c-0.1,0-0.3,0-0.4,0h-0.3h-0.4
	c-0.2,0-0.3-0.1-0.3-0.2s0.1-0.2,0.3-0.2h0.1h0.2l0,0c0.1,0,0.2-0.1,0.2-0.4v-1.5c0-0.2,0-0.5,0-0.8c0-0.1-0.1-0.2-0.2-0.2h-0.2
	h-0.1c-0.2,0-0.3-0.1-0.3-0.2s0.1-0.2,0.3-0.2h0.2H46h0.2l0,0C46.3,100.5,46.3,100.6,46.3,100.7z"/>
<path class="st1" d="M53,102v0.9c0,0.1,0,0.3,0,0.4c0,0.2,0.1,0.3,0.2,0.3h0.2h0.1c0.2,0,0.3,0.1,0.3,0.2c0,0.1,0,0.1-0.1,0.2
	c-0.1,0-0.1,0.1-0.2,0.1c-0.1,0-0.2,0-0.3,0c-0.1,0-0.2,0-0.3,0c-0.1,0-0.3,0-0.4,0H52c-0.2,0-0.3-0.1-0.3-0.2
	c0-0.1,0.1-0.2,0.2-0.2c0,0,0,0,0.1,0h0.2c0.1,0,0.1,0,0.2,0c0.1,0,0.2-0.1,0.2-0.4v-1.8c0-0.3-0.1-0.4-0.2-0.4h-0.2h-0.2
	c-0.2,0-0.3-0.1-0.3-0.2s0.1-0.2,0.3-0.2h0.2h0.3h0.2h0.2c0.1,0,0.2,0.1,0.2,0.3c0,0,0,0.1,0,0.1v0.1c0,0,0,0.2,0,0.4L53,102z
	 M52.6,100.1c-0.1,0-0.2,0-0.3-0.1c-0.1-0.1-0.1-0.2-0.1-0.3c0-0.1,0-0.2,0.1-0.3c0.1-0.2,0.4-0.2,0.6,0c0,0,0,0,0,0
	c0.1,0.1,0.1,0.2,0.1,0.3c0,0.1,0,0.2-0.1,0.3C52.8,100.1,52.7,100.1,52.6,100.1L52.6,100.1z"/>
<path class="st1" d="M56.1,101.7c0-0.2,0.1-0.3,0.3-0.3c0-0.2-0.1-0.3-0.2-0.4c-0.2-0.1-0.3-0.2-0.5-0.1c-0.3,0-0.6,0.1-0.8,0.4
	c-0.2,0.3-0.3,0.6-0.3,1c0,0.4,0.1,0.7,0.3,1c0.2,0.2,0.5,0.4,0.8,0.4c0.2,0,0.4-0.1,0.6-0.2c0.2-0.1,0.3-0.3,0.3-0.5l0.1-0.3
	c0-0.1,0.1-0.1,0.2-0.1c0.1,0,0.3,0.1,0.3,0.3c0,0,0,0,0,0c0,0.2,0,0.3-0.1,0.4c-0.1,0.2-0.2,0.3-0.3,0.4c-0.3,0.3-0.7,0.5-1.1,0.4
	c-0.4,0-0.9-0.2-1.2-0.5c-0.3-0.4-0.5-0.9-0.4-1.3c0-0.5,0.1-1,0.5-1.4c0.3-0.4,0.8-0.5,1.2-0.5c0.3,0,0.7,0.1,0.9,0.3
	c0.2,0.2,0.4,0.5,0.4,0.8c0,0.2,0,0.3-0.1,0.4c-0.1,0.1-0.2,0.2-0.4,0.2c-0.1,0-0.2,0-0.3-0.1C56.2,101.8,56.2,101.7,56.1,101.7z"/>
<path class="st1" d="M63.1,100.4c0.3,0,0.6,0.1,0.8,0.2l0,0c0-0.2,0.1-0.3,0.2-0.3c0.1,0,0.2,0.1,0.2,0.2c0,0,0,0,0,0.1
	c0,0,0,0.1,0,0.2c0,0.1,0,0.2,0,0.3c0,0,0,0.1,0,0.2c0,0.1,0,0.2,0,0.2c0,0.2-0.1,0.3-0.2,0.3c-0.1,0-0.2-0.1-0.2-0.2c0,0,0,0,0-0.1
	v-0.2c0-0.2-0.1-0.3-0.2-0.4c-0.2-0.1-0.4-0.2-0.6-0.1c-0.2,0-0.4,0.1-0.6,0.2c-0.1,0.1-0.2,0.3-0.2,0.4c0,0.3,0.2,0.5,0.6,0.5h0.4
	c0.8,0.1,1.2,0.4,1.2,1c0,0.3-0.1,0.6-0.4,0.8c-0.3,0.2-0.6,0.3-1,0.3c-0.4,0-0.7-0.1-1-0.3v0.1c0,0.2-0.1,0.3-0.2,0.3
	s-0.3-0.1-0.3-0.3c0,0,0-0.1,0-0.4c0-0.1,0-0.1,0-0.2c0-0.1,0-0.2,0-0.3c0-0.1,0-0.2,0-0.2c0-0.1,0.1-0.2,0.2-0.2s0.2,0,0.2,0.1
	c0,0.1,0,0.3,0,0.4c0,0.2,0.1,0.4,0.3,0.5c0.2,0.1,0.5,0.2,0.8,0.2c0.2,0,0.4-0.1,0.6-0.2c0.1-0.1,0.2-0.3,0.2-0.4
	c0-0.3-0.2-0.5-0.8-0.6c-0.4,0-0.8-0.1-1.1-0.3c-0.3-0.1-0.4-0.4-0.4-0.7c0-0.3,0.1-0.6,0.4-0.8C62.4,100.4,62.7,100.3,63.1,100.4z"
	/>
<path class="st1" d="M68.6,100.4c0.4,0,0.8,0.2,1.1,0.6v-0.7c0-0.1,0-0.2,0-0.4c0-0.1-0.1-0.2-0.2-0.2h-0.2h-0.2
	c-0.2,0-0.3-0.1-0.3-0.2c0-0.2,0.1-0.2,0.4-0.2h0.2h0.2h0.2H70c0.1,0,0.2,0.1,0.2,0.3v0.2c0,0,0,0.1,0,0.4c0,0,0,0.2,0,0.6
	s0,0.4,0,0.5v1.9c0,0.2,0,0.4,0,0.6c0,0.1,0.1,0.1,0.2,0.1h0.3c0.2,0,0.3,0.1,0.3,0.2c0,0.1-0.1,0.2-0.3,0.2h-0.2
	c-0.1,0-0.1,0-0.2,0H70h-0.2c-0.1,0-0.2-0.1-0.2-0.3v-0.2c-0.3,0.3-0.7,0.5-1.1,0.5c-0.5,0-0.9-0.2-1.2-0.5c-0.6-0.8-0.6-1.9,0-2.8
	C67.7,100.6,68.1,100.4,68.6,100.4z M69.6,102.9c0-0.1,0-0.4,0-0.6c0-0.2,0-0.4,0-0.7c0-0.2-0.1-0.4-0.3-0.6
	c-0.2-0.2-0.4-0.2-0.7-0.2c-0.3,0-0.6,0.1-0.8,0.4c-0.4,0.6-0.4,1.4,0,2.1c0.3,0.4,1,0.5,1.4,0.2c0,0,0,0,0.1,0
	C69.5,103.3,69.6,103.1,69.6,102.9L69.6,102.9z"/>
<path class="st1" d="M74.5,101.9c0,0.1,0,0.2,0,0.3c0,0-0.1,0.1-0.2,0.1H72c0,0-0.1,0-0.1,0c0,0,0,0.1,0,0.1c0,0.3,0.1,0.6,0.3,0.9
	c0.2,0.2,0.5,0.4,0.8,0.4c0.2,0,0.4-0.1,0.6-0.2c0.2-0.1,0.3-0.3,0.3-0.4l0.1-0.2c0-0.1,0.1-0.2,0.2-0.2c0.1,0,0.3,0.1,0.3,0.2
	c0,0,0,0,0,0.1c0,0.3-0.2,0.7-0.5,0.8c-0.3,0.2-0.7,0.4-1.1,0.4c-0.4,0-0.9-0.2-1.2-0.5c-0.3-0.4-0.5-0.9-0.4-1.4
	c0-0.5,0.1-1,0.5-1.4c0.3-0.4,0.8-0.6,1.2-0.5c0.4,0,0.8,0.2,1.1,0.4C74.4,101.1,74.5,101.5,74.5,101.9z M71.9,101.8
	c0,0.1,0.1,0.1,0.2,0.1h1.7c0.1,0,0.2,0,0.2-0.1c0-0.2-0.1-0.5-0.3-0.7c-0.2-0.2-0.4-0.3-0.7-0.3c-0.3,0-0.5,0.1-0.7,0.3
	C72,101.3,71.9,101.5,71.9,101.8z"/>
<path class="st1" d="M77.9,101.1v2.2c0,0.2,0.1,0.4,0.2,0.4h0.2h0.1c0.2,0,0.2,0.1,0.2,0.2c0,0.2-0.1,0.2-0.3,0.2
	c-0.1,0-0.2,0-0.4,0h-0.4h-0.3c-0.1,0-0.2,0-0.3,0l0,0c-0.2,0-0.3-0.1-0.3-0.3c0-0.2,0.1-0.2,0.2-0.2H77h0.2c0.1,0,0.1,0,0.2-0.1
	c0-0.2,0-0.4,0-0.6v-2.9c0-0.1,0-0.2,0-0.3c0-0.1-0.1-0.2-0.2-0.2H77h-0.1c-0.1,0-0.2-0.1-0.2-0.2c0,0,0,0,0-0.1
	c0-0.2,0.1-0.2,0.3-0.2H77h0.2h0.2c0.1,0,0.1,0,0.2,0c0.1,0,0.1,0,0.2,0c0.1,0,0.2,0.1,0.2,0.2c0,0,0,0.1,0,0.1
	C77.9,99.9,77.9,100.4,77.9,101.1z"/>
<path class="st1" d="M82,104.1c-0.3,0-0.6-0.2-0.7-0.5c-0.3,0.4-0.7,0.6-1.1,0.5c-0.3,0-0.6-0.1-0.9-0.3c-0.2-0.2-0.4-0.5-0.3-0.8
	c0-0.4,0.2-0.7,0.5-0.9c0.1-0.1,0.2-0.1,0.3-0.1l0.6-0.1c0.3,0,0.5-0.1,0.8-0.2c0.1-0.1,0.2-0.3,0.2-0.4c0-0.2-0.1-0.3-0.2-0.5
	c-0.2-0.1-0.4-0.2-0.6-0.2c-0.2,0-0.4,0.1-0.6,0.2c-0.1,0-0.1,0.1-0.1,0.2c0,0,0,0,0.1,0.1c0.1,0.1,0.1,0.2,0.1,0.2
	c0,0.1,0,0.2-0.1,0.2c-0.1,0.1-0.2,0.1-0.3,0.1c-0.1,0-0.2,0-0.3-0.1c-0.1-0.1-0.1-0.2-0.1-0.3c0-0.3,0.2-0.5,0.4-0.7
	c0.3-0.2,0.6-0.3,1-0.3c0.9,0,1.3,0.4,1.3,1.2v1.4c0,0.1,0,0.3,0,0.4c0,0.2,0.1,0.2,0.2,0.2s0.2-0.1,0.2-0.4v-0.3
	c0-0.2,0.1-0.2,0.2-0.2s0.2,0.1,0.2,0.3v0.4C82.8,103.9,82.5,104.1,82,104.1z M81.2,102.7v-0.5c-0.1,0.1-0.2,0.2-0.3,0.2
	c-0.2,0.1-0.4,0.1-0.6,0.1c-0.5,0-0.8,0.2-0.8,0.6c0,0.2,0.1,0.3,0.2,0.4c0.2,0.1,0.3,0.2,0.5,0.2c0.3,0,0.5-0.1,0.7-0.3
	C81.1,103.2,81.2,103,81.2,102.7L81.2,102.7z"/>
<path class="st1" d="M86.9,99.1c0.5,0,1,0.2,1.3,0.6v-0.1v-0.1c0-0.1,0-0.1,0-0.1c0-0.2,0.1-0.2,0.2-0.2s0.2,0.1,0.2,0.3
	c0,0,0,0.2,0,0.3c0,0.2,0,0.4,0,0.5c0,0.1,0,0.3,0,0.4v0.3v0.1c0,0.2-0.1,0.3-0.2,0.3s-0.3-0.1-0.3-0.3v-0.3c0-0.3-0.1-0.6-0.3-0.8
	c-0.2-0.2-0.5-0.3-0.9-0.3c-0.4,0-0.9,0.2-1.1,0.6c-0.3,0.4-0.4,1-0.4,1.5c0,0.5,0.1,1.1,0.4,1.5c0.3,0.4,0.7,0.6,1.1,0.5
	c0.2,0,0.5-0.1,0.7-0.2c0.2-0.1,0.4-0.3,0.4-0.5c0.1-0.2,0.1-0.4,0.1-0.6c0-0.2,0.1-0.3,0.3-0.3s0.3,0.1,0.3,0.3
	c0,0.5-0.2,0.9-0.5,1.2c-0.4,0.3-0.9,0.5-1.4,0.5c-0.6,0-1.2-0.2-1.5-0.7c-0.4-0.5-0.6-1.2-0.6-1.8c0-0.7,0.2-1.3,0.6-1.9
	C85.7,99.4,86.3,99.1,86.9,99.1z"/>
<path class="st1" d="M90.4,102v0.9c0,0.1,0,0.3,0,0.4c0,0.2,0.1,0.3,0.2,0.3h0.2h0.1c0.2,0,0.3,0.1,0.3,0.2c0,0.1,0,0.1-0.1,0.2
	c-0.1,0-0.1,0.1-0.2,0.1c-0.1,0-0.2,0-0.3,0c-0.1,0-0.2,0-0.3,0c-0.1,0-0.3,0-0.4,0c-0.1,0-0.2,0-0.4,0c-0.2,0-0.3-0.1-0.3-0.2
	c0-0.1,0.1-0.2,0.2-0.2c0,0,0,0,0.1,0h0.2c0.1,0,0.1,0,0.2,0c0.1,0,0.2-0.1,0.2-0.4v-1.8c0-0.3-0.1-0.4-0.2-0.4h-0.2h-0.2
	c-0.2,0-0.3-0.1-0.3-0.2s0.1-0.2,0.3-0.2h0.2h0.3h0.2h0.2c0.1,0,0.2,0.1,0.2,0.3c0,0,0,0,0,0.1v0.1c0,0,0,0.2,0,0.4L90.4,102z
	 M90.1,100.1c-0.1,0-0.2,0-0.3-0.1c-0.1-0.1-0.1-0.2-0.1-0.3c0-0.1,0-0.2,0.1-0.3c0.1-0.2,0.4-0.2,0.6,0c0,0,0,0,0,0
	c0.1,0.1,0.1,0.2,0.1,0.3c0,0.1,0,0.2-0.1,0.3C90.3,100.1,90.2,100.1,90.1,100.1z"/>
<path class="st1" d="M94.4,103.9v-0.3c-0.3,0.3-0.7,0.5-1.1,0.5c-0.5,0-0.9-0.2-1.2-0.5c-0.1-0.2-0.2-0.3-0.2-0.5c0-0.1,0-0.3,0-0.6
	v-0.6c0-0.7-0.1-1-0.2-1h-0.3c-0.2,0-0.3-0.1-0.3-0.2c0-0.2,0.1-0.2,0.3-0.2h0.2h0.2h0.2h0.1c0.1,0,0.2,0.1,0.2,0.3v0.6v0.5v0.5
	c0,0.3,0,0.6,0.1,0.9c0.1,0.3,0.4,0.5,0.8,0.4c0.2,0,0.4,0,0.5-0.1c0.1-0.1,0.3-0.2,0.3-0.4c0.1-0.3,0.1-0.7,0.1-1v-0.9
	c0-0.2-0.1-0.3-0.2-0.3H94c-0.2,0-0.2-0.1-0.2-0.2s0.1-0.2,0.3-0.2h0.2h0.4h0.2c0.1,0,0.2,0.1,0.2,0.2c0,0.1,0,0.1,0,0.2
	c0,0.3,0,0.5,0,0.8v1.1c0,0.2,0,0.3,0,0.5c0,0.2,0.1,0.4,0.2,0.4h0.1h0.1c0.1,0,0.2,0.1,0.2,0.2c0,0,0,0,0,0.1
	c0,0.1-0.1,0.2-0.3,0.2h-0.2H95h-0.1h-0.1C94.5,104.1,94.4,104,94.4,103.9z"/>
<path class="st1" d="M97.5,100.4c0.4,0,0.8,0.2,1.1,0.6v-0.7c0-0.1,0-0.2,0-0.4c0-0.1-0.1-0.2-0.2-0.2h-0.2H98
	c-0.2,0-0.3-0.1-0.3-0.2c0-0.2,0.1-0.2,0.4-0.2h0.2h0.2h0.2h0.2c0.1,0,0.2,0.1,0.2,0.3v0.2c0,0,0,0.1,0,0.4c0,0,0,0.2,0,0.6
	s0,0.4,0,0.5v1.9c0,0.2,0,0.4,0,0.6c0,0.1,0.1,0.1,0.2,0.1h0.3c0.2,0,0.3,0.1,0.3,0.2c0,0.1-0.1,0.2-0.3,0.2h-0.2
	c-0.1,0-0.1,0-0.2,0h-0.2h-0.1c-0.1,0-0.2-0.1-0.2-0.3v-0.2c-0.3,0.3-0.7,0.5-1.1,0.5c-0.4,0-0.9-0.2-1.2-0.5
	c-0.6-0.8-0.6-1.9,0-2.8C96.6,100.6,97,100.4,97.5,100.4z M98.5,102.9c0-0.2,0-0.4,0-0.6c0-0.2,0-0.4,0-0.7c0-0.2-0.1-0.4-0.3-0.6
	c-0.2-0.2-0.4-0.2-0.7-0.2c-0.3,0-0.6,0.1-0.8,0.4c-0.2,0.3-0.3,0.6-0.3,1c0,0.4,0.1,0.7,0.3,1.1c0.2,0.3,0.5,0.4,0.8,0.4
	c0.2,0,0.5-0.1,0.6-0.2C98.4,103.3,98.5,103.1,98.5,102.9L98.5,102.9z"/>
<path class="st1" d="M105.4,100.4c0.4,0,0.8,0.2,1.1,0.6v-0.7c0-0.1,0-0.2,0-0.4c0-0.1-0.1-0.2-0.2-0.2h-0.2h-0.2
	c-0.2,0-0.3-0.1-0.3-0.2c0-0.2,0.1-0.2,0.4-0.2h0.2h0.2h0.2h0.2c0.1,0,0.2,0.1,0.2,0.3v0.2c0,0,0,0.1,0,0.4c0,0,0,0.2,0,0.6
	s0,0.4,0,0.5v1.9c0,0.2,0,0.4,0.1,0.6c0,0.1,0.1,0.1,0.2,0.1h0.3c0.2,0,0.3,0.1,0.3,0.2c0,0.1-0.1,0.2-0.3,0.2h-0.2
	c-0.1,0-0.1,0-0.2,0h-0.2h-0.1c-0.1,0-0.2-0.1-0.2-0.3v-0.2c-0.3,0.3-0.7,0.5-1.1,0.5c-0.5,0-0.9-0.2-1.2-0.5
	c-0.3-0.4-0.4-0.9-0.4-1.4c0-0.5,0.1-1,0.4-1.4C104.6,100.6,105,100.4,105.4,100.4z M106.4,102.9c0-0.2,0-0.4,0-0.6
	c0-0.2,0-0.4,0-0.7c0-0.2-0.1-0.4-0.3-0.6c-0.2-0.2-0.4-0.2-0.6-0.2c-0.3,0-0.6,0.1-0.8,0.4c-0.2,0.3-0.3,0.6-0.3,1
	c0,0.4,0.1,0.7,0.3,1.1c0.3,0.4,1,0.5,1.4,0.2c0,0,0,0,0.1,0C106.3,103.3,106.4,103.1,106.4,102.9L106.4,102.9z"/>
<path class="st1" d="M28,111l-0.3-0.7c0-0.1,0-0.1-0.1-0.1c-0.1,0-0.1,0-0.2,0h-1.3c-0.1,0-0.1,0-0.2,0c-0.1,0.1-0.1,0.2-0.1,0.3
	l-0.2,0.6c0,0,0,0.1,0,0.1c0,0.2,0.1,0.2,0.3,0.2h0.2h0.2c0.2,0,0.3,0.1,0.3,0.3c0,0.2-0.1,0.2-0.3,0.2h-0.2h-0.3h-0.7h-0.3h-0.3
	c-0.2,0-0.3-0.1-0.3-0.2s0.1-0.3,0.3-0.3c0,0,0.1,0,0.1,0h0.1c0.1,0,0.2-0.1,0.3-0.2c0.1-0.1,0.1-0.2,0.2-0.3l1.3-3.6
	c0.1-0.2,0.2-0.3,0.5-0.3c0.2,0,0.4,0.1,0.4,0.3l1.3,3.5c0,0.2,0.1,0.3,0.2,0.4c0.1,0.1,0.2,0.1,0.3,0.1h0.1h0.2
	c0.2,0,0.3,0.1,0.3,0.2c0,0.1-0.1,0.2-0.3,0.2h-0.2c-0.3,0-0.5,0-0.7,0h-0.9h-0.2c-0.2,0-0.3-0.1-0.3-0.2c0-0.2,0.1-0.2,0.3-0.2h0.2
	h0.2c0.2,0,0.2-0.1,0.2-0.2C28.1,111.1,28,111,28,111z M27.5,109.6l-0.6-2l-0.7,2l0,0c0,0,0,0.1,0.1,0.1L27.5,109.6L27.5,109.6
	C27.5,109.6,27.5,109.6,27.5,109.6z"/>
<path class="st1" d="M32.6,111.6v-0.2c-0.3,0.4-0.7,0.6-1.1,0.5c-0.5,0.1-0.9-0.2-1.2-0.5c-0.1-0.2-0.2-0.3-0.2-0.5v-1.2
	c0-0.7-0.1-1-0.2-1h-0.1h-0.1c-0.1,0-0.2-0.1-0.2-0.2c0,0,0,0,0-0.1c0-0.1,0.1-0.2,0.3-0.2h0.2h0.2h0.2h0.1c0.2,0,0.2,0.1,0.2,0.3
	v0.6v0.5v0.5c0,0.3,0,0.6,0.1,0.9c0.1,0.3,0.4,0.5,0.8,0.4c0.2,0,0.4,0,0.5-0.1c0.1-0.1,0.3-0.2,0.3-0.4c0.1-0.3,0.1-0.7,0.1-1V109
	c0-0.2-0.1-0.3-0.2-0.3h-0.2c-0.2,0-0.2-0.1-0.2-0.2s0.1-0.2,0.3-0.2h0.2h0.4h0.2c0.1,0,0.2,0.1,0.2,0.2c0,0,0,0.1,0,0.1
	c0,0.3,0,0.5,0,0.8v1.1c0,0.2,0,0.3,0,0.5c0,0.2,0.1,0.4,0.2,0.4h0.3c0.2,0,0.2,0.1,0.2,0.2c0,0.1-0.1,0.2-0.3,0.2h-0.2h-0.2h-0.2
	h-0.2C32.7,111.8,32.6,111.8,32.6,111.6z"/>
<path class="st1" d="M36.1,110.8v-0.4c0-0.2,0.1-0.3,0.2-0.3s0.2,0.1,0.2,0.3c0,0.4,0,0.7-0.2,1.1c-0.2,0.3-0.5,0.4-0.9,0.4
	c-0.3,0-0.6-0.1-0.8-0.4c-0.1-0.3-0.2-0.6-0.2-0.9v-1.7c0-0.1,0-0.2-0.1-0.2h-0.2c-0.1,0-0.1,0-0.2-0.1c0,0-0.1-0.1-0.1-0.2
	c0-0.1,0-0.1,0.1-0.2c0-0.1,0.1-0.1,0.2-0.1h0.3c0.1,0,0.1,0,0.1-0.1v-0.7c0-0.1,0.1-0.3,0.2-0.3c0,0,0,0,0.1,0
	c0.1,0,0.2,0.1,0.3,0.2c0,0,0,0,0,0.1v0.8c0,0.1,0,0.1,0.1,0.1h0.8c0.2,0,0.3,0.1,0.3,0.2s-0.1,0.3-0.3,0.3h-0.8
	c-0.1,0-0.1,0.1-0.1,0.1v1.8c0,0.5,0.2,0.8,0.5,0.8S36,111.2,36.1,110.8z"/>
<path class="st1" d="M38.6,111.9c-0.5,0-0.9-0.2-1.2-0.5c-0.3-0.4-0.5-0.9-0.4-1.4c0-0.5,0.1-1,0.4-1.4c0.7-0.7,1.8-0.7,2.4,0
	c0.3,0.4,0.5,0.9,0.4,1.4c0,0.5-0.1,1-0.5,1.4C39.5,111.7,39,111.9,38.6,111.9z M38.6,108.6c-0.3,0-0.6,0.1-0.8,0.3
	c-0.2,0.3-0.3,0.6-0.3,1v0.1c0,0.4,0.1,0.7,0.3,1c0.2,0.3,0.5,0.4,0.8,0.4c0.3,0,0.6-0.1,0.8-0.4c0.2-0.3,0.3-0.6,0.3-1
	C39.7,109.1,39.3,108.6,38.6,108.6L38.6,108.6z M39.3,107.1c0,0.1-0.1,0.2-0.2,0.3l-1,0.4H38c-0.1,0-0.1,0-0.1-0.2s0-0.1,0.1-0.2
	l0.9-0.6c0.1,0,0.1-0.1,0.2-0.1c0.1,0,0.2,0,0.3,0.1C39.4,107,39.4,107,39.3,107.1L39.3,107.1z"/>
<path class="st1" d="M41.9,108.4v0.2c0.3-0.3,0.7-0.5,1.1-0.5c0.3,0,0.5,0.1,0.7,0.2c0.2,0.1,0.4,0.3,0.5,0.5
	c0.1,0.2,0.1,0.4,0.1,0.6v1.3c0,0.1,0,0.2,0,0.4c0,0.2,0.1,0.2,0.2,0.2h0.2h0.2c0.1,0,0.2,0.1,0.2,0.2c0,0,0,0,0,0
	c0,0.1,0,0.1-0.1,0.2c-0.1,0-0.1,0.1-0.2,0.1h-0.3H44h-0.3h-0.4c-0.2,0-0.3-0.1-0.3-0.2s0.1-0.2,0.2-0.2h0.1h0.2
	c0.1,0,0.2-0.1,0.2-0.4v-1.3c0-0.2,0-0.3,0-0.5c0-0.2-0.1-0.3-0.3-0.4c-0.2-0.1-0.3-0.2-0.5-0.2c-0.3,0-0.6,0.1-0.8,0.4
	c-0.1,0.3-0.2,0.6-0.2,0.9v0.9c0,0.1,0,0.3,0,0.4c0,0.1,0.1,0.1,0.2,0.1h0.2c0.1,0,0.1,0,0.2,0c0.2,0,0.2,0.1,0.2,0.2
	s-0.1,0.2-0.3,0.2H42c-0.1,0-0.2,0-0.4,0h-0.4h-0.4c-0.2,0-0.3-0.1-0.3-0.2c0-0.2,0.1-0.2,0.2-0.2H41c0.1,0,0.1,0,0.2,0
	c0.1,0,0.2-0.1,0.2-0.4v-1.9c0-0.1,0-0.2-0.1-0.3c0-0.1-0.1-0.1-0.2-0.1c-0.1,0-0.1,0-0.2,0h-0.1c-0.2,0-0.3-0.1-0.3-0.2
	c0-0.2,0.1-0.2,0.3-0.2h0h0.3h0.2h0.2C41.8,108.2,41.9,108.3,41.9,108.4z"/>
<path class="st1" d="M47,111.9c-0.5,0-0.9-0.2-1.2-0.5c-0.3-0.4-0.5-0.9-0.4-1.4c0-0.5,0.1-1,0.4-1.4c0.3-0.3,0.8-0.5,1.2-0.5
	c0.5,0,0.9,0.2,1.2,0.5c0.3,0.4,0.5,0.9,0.4,1.4c0,0.5-0.1,1-0.5,1.4C47.9,111.7,47.5,111.9,47,111.9z M47,108.6
	c-0.3,0-0.6,0.1-0.8,0.3c-0.2,0.3-0.3,0.6-0.3,1v0.1c0,0.4,0.1,0.7,0.3,1c0.2,0.3,0.5,0.4,0.8,0.4c0.3,0,0.6-0.1,0.8-0.4
	c0.2-0.3,0.3-0.6,0.3-1C48.1,109.1,47.7,108.6,47,108.6z"/>
<path class="st1" d="M50.3,108.4v0.2c0.1-0.2,0.3-0.3,0.5-0.4c0.2-0.1,0.4-0.1,0.6-0.1c0.4,0,0.8,0.2,1,0.5c0.1-0.2,0.3-0.3,0.5-0.4
	c0.2-0.1,0.4-0.1,0.6-0.1c0.3,0,0.5,0.1,0.7,0.2c0.2,0.1,0.4,0.3,0.5,0.5c0.1,0.2,0.1,0.5,0.1,0.7v1.2c0,0.1,0,0.2,0,0.4
	c0,0.2,0.1,0.2,0.2,0.2h0.2c0,0,0.1,0,0.1,0c0.2,0,0.2,0.1,0.2,0.2s-0.1,0.2-0.3,0.2h-0.3h-0.3h-0.3h-0.3c-0.2,0-0.3-0.1-0.3-0.2
	s0.1-0.2,0.2-0.2H54h0.1c0.1,0,0.1,0,0.2-0.1c0-0.2,0-0.4,0-0.6v-0.9c0-0.2,0-0.5-0.1-0.7c0-0.1-0.1-0.3-0.3-0.3
	c-0.1-0.1-0.3-0.1-0.5-0.1c-0.3,0-0.5,0.1-0.7,0.3c-0.1,0.3-0.2,0.7-0.2,1v0.5c0,0.3,0,0.6,0,0.8c0,0.1,0.1,0.2,0.2,0.2h0.1H53
	c0.1,0,0.1,0,0.2,0.1c0,0,0.1,0.1,0.1,0.2c0,0.2-0.1,0.2-0.3,0.2h-0.3h-0.3h-0.3h-0.3c-0.2,0-0.3-0.1-0.3-0.2c0-0.1,0.1-0.2,0.2-0.2
	c0,0,0,0,0.1,0h0.1h0.2c0.1,0,0.2-0.1,0.2-0.4v-0.3v-1c0-0.3,0-0.6-0.2-0.9c-0.1-0.2-0.4-0.3-0.6-0.2c-0.3,0-0.6,0.1-0.7,0.3
	c-0.2,0.3-0.2,0.7-0.2,1v0.9c0,0.1,0,0.2,0,0.3c0,0.2,0.1,0.2,0.2,0.2c0,0,0.1,0,0.2,0h0.1c0.2,0,0.3,0.1,0.3,0.2s-0.1,0.2-0.3,0.2
	h-0.3h-0.4h-0.3h-0.4c-0.2,0-0.3-0.1-0.3-0.2c0-0.2,0.1-0.2,0.3-0.2h0.1h0.2l0,0c0.1,0,0.2-0.1,0.2-0.4v-1.5c0-0.2,0-0.5,0-0.8
	c0-0.1-0.1-0.2-0.1-0.2c0,0,0,0,0,0h-0.2h-0.1c-0.2,0-0.3-0.1-0.3-0.2s0.1-0.2,0.3-0.2h0.2h0.2h0.1H50l0,0
	C50.2,108.2,50.3,108.3,50.3,108.4z"/>
<path class="st1" d="M58.9,111.9c-0.3,0-0.6-0.2-0.7-0.5c-0.3,0.4-0.7,0.6-1.1,0.5c-0.3,0-0.7-0.1-0.9-0.3c-0.2-0.2-0.4-0.5-0.3-0.8
	c0-0.4,0.2-0.7,0.5-0.9c0.1-0.1,0.2-0.1,0.3-0.1c0.2,0,0.4-0.1,0.6-0.1c0.3,0,0.5-0.1,0.8-0.2c0.1-0.1,0.2-0.3,0.2-0.4
	c0-0.2-0.1-0.3-0.2-0.4c-0.2-0.1-0.4-0.2-0.6-0.2c-0.2,0-0.4,0.1-0.6,0.2c-0.1,0-0.1,0.1-0.1,0.1s0,0,0.1,0.1
	c0.1,0.1,0.1,0.1,0.1,0.2c0,0.1,0,0.2-0.1,0.2c-0.1,0.1-0.2,0.1-0.3,0.1c-0.2,0-0.4-0.2-0.4-0.4c0,0,0,0,0,0c0-0.3,0.2-0.5,0.4-0.7
	c0.3-0.2,0.6-0.3,1-0.3c0.8,0,1.3,0.4,1.3,1.2v1.4c0,0.1,0,0.3,0,0.4c0,0.2,0.1,0.2,0.2,0.2s0.2-0.2,0.2-0.5v-0.3
	c0-0.2,0.1-0.2,0.2-0.2s0.2,0.1,0.2,0.3v0.4C59.6,111.6,59.3,111.9,58.9,111.9z M58.1,110.5V110c-0.1,0.1-0.2,0.2-0.3,0.2
	c-0.2,0-0.4,0.1-0.6,0.1c-0.5,0.1-0.8,0.2-0.8,0.6c0,0.2,0.1,0.3,0.2,0.4c0.2,0.1,0.3,0.2,0.5,0.2c0.3,0,0.5-0.1,0.8-0.3
	C58,111,58.1,110.7,58.1,110.5z"/>
<path class="st1" d="M63.2,108.1c0.4,0,0.8,0.2,1.1,0.6v-0.7c0-0.1,0-0.2,0-0.4c0-0.1-0.1-0.2-0.2-0.2h-0.2h-0.2
	c-0.2,0-0.3-0.1-0.3-0.2c0-0.2,0.1-0.2,0.4-0.2H64h0.4h0.2c0.1,0,0.2,0.1,0.2,0.3v0.1c0,0.1,0,0.3,0,0.4c0,0,0,0.2,0,0.6
	c0,0.3,0,0.4,0,0.5v1.9c0,0.2,0,0.4,0,0.6c0,0.1,0.1,0.1,0.2,0.1h0.3c0.2,0,0.3,0.1,0.3,0.2c0,0.2-0.1,0.2-0.3,0.2H65
	c-0.1,0-0.1,0-0.2,0h-0.2h-0.2c-0.1,0-0.2-0.1-0.2-0.3v-0.1c-0.3,0.3-0.7,0.5-1.1,0.5c-0.4,0-0.9-0.2-1.2-0.5
	c-0.3-0.4-0.5-0.9-0.4-1.4c0-0.5,0.1-1,0.4-1.4C62.3,108.3,62.7,108.1,63.2,108.1z M64.2,110.6c0-0.2,0-0.4,0-0.6c0-0.2,0-0.4,0-0.6
	c0-0.2-0.1-0.4-0.3-0.6c-0.2-0.2-0.4-0.2-0.7-0.2c-0.3,0-0.6,0.1-0.8,0.4c-0.2,0.3-0.3,0.6-0.3,1c0,0.4,0.1,0.8,0.3,1.1
	c0.3,0.4,1,0.5,1.4,0.2c0,0,0,0,0.1,0C64.1,111,64.2,110.8,64.2,110.6L64.2,110.6z"/>
<path class="st1" d="M69.1,109.7c0,0.1,0,0.2,0,0.3c-0.1,0-0.1,0.1-0.2,0.1h-2.3c-0.1,0-0.1,0-0.1,0c0,0,0,0.1,0,0.1
	c0,0.3,0.1,0.6,0.3,0.9c0.2,0.2,0.5,0.4,0.8,0.4c0.2,0,0.4-0.1,0.6-0.2c0.2-0.1,0.3-0.3,0.3-0.4l0.1-0.2c0-0.1,0.1-0.2,0.2-0.2
	c0.1,0,0.2,0.1,0.3,0.2c0,0,0,0,0,0.1c0,0.3-0.2,0.7-0.5,0.8c-0.3,0.2-0.7,0.4-1.1,0.4c-0.5,0-0.9-0.2-1.2-0.5
	c-0.3-0.4-0.5-0.9-0.4-1.3c0-0.5,0.1-1,0.5-1.4c0.3-0.3,0.8-0.5,1.2-0.5c0.4,0,0.8,0.1,1.1,0.4C69,108.9,69.1,109.3,69.1,109.7z
	 M66.5,109.5c0,0.1,0,0.1,0.2,0.1h1.7c0.1,0,0.2,0,0.2-0.1c0-0.3-0.1-0.5-0.3-0.7c-0.2-0.2-0.4-0.3-0.7-0.3c-0.3,0-0.5,0.1-0.7,0.3
	C66.6,109,66.5,109.3,66.5,109.5z"/>
<path class="st1" d="M75.4,108.2c0,0.5-0.4,0.9-0.8,1c0.2,0,0.3,0.1,0.5,0.2c0.4,0.2,0.6,0.6,0.6,1c0,0.4-0.2,0.8-0.5,1
	c-0.4,0.3-0.9,0.4-1.3,0.4c-0.2,0-0.5,0-0.8,0h-0.7c-0.1,0-0.2,0-0.4,0h-0.3h-0.1c-0.2,0-0.3-0.1-0.3-0.3c0-0.1,0.1-0.2,0.2-0.2
	c0,0,0,0,0,0h0.2h0.2c0.2,0,0.4-0.2,0.4-0.5V108c0-0.4-0.1-0.5-0.4-0.5h-0.2h-0.2c-0.1,0-0.2-0.1-0.2-0.2c0,0,0,0,0-0.1
	c0-0.2,0.1-0.2,0.3-0.2h0.1H72c0.1,0,0.3,0,0.4,0c0.2,0,0.4,0,0.8,0s0.5,0,0.7,0c0.4,0,0.8,0.1,1.1,0.3
	C75.3,107.5,75.5,107.8,75.4,108.2z M72.7,108.5c0,0.2,0,0.3,0.1,0.5c0,0.1,0.2,0.1,0.4,0.1h0.4c0.8,0,1.3-0.3,1.3-0.8
	c0-0.5-0.3-0.7-1-0.7c-0.3,0-0.6,0-0.9,0.1c-0.1,0.1-0.2,0.2-0.2,0.5L72.7,108.5z M72.7,109.9v0.8c0,0.2,0,0.4,0.2,0.6
	c0.3,0.1,0.6,0.1,0.8,0.1c0.9,0,1.3-0.3,1.3-1s-0.4-0.9-1.3-0.9h-0.6c-0.3,0-0.4,0.1-0.4,0.2C72.7,109.7,72.7,109.8,72.7,109.9z"/>
<path class="st1" d="M79.2,111.6v-0.2c-0.5,0.6-1.5,0.7-2.1,0.2c-0.1-0.1-0.1-0.1-0.2-0.2c-0.1-0.2-0.1-0.3-0.2-0.5
	c0-0.1,0-0.3,0-0.6v-0.6c0-0.7-0.1-1-0.2-1h-0.1h-0.2c-0.1,0-0.2-0.1-0.2-0.2c0,0,0,0,0-0.1c0-0.1,0.1-0.2,0.3-0.2h0.2h0.2H77h0.1
	c0.2,0,0.2,0.1,0.2,0.3v0.6v0.5v0.5c0,0.3,0,0.6,0.1,0.9c0.1,0.3,0.5,0.5,0.8,0.4c0.2,0,0.4,0,0.5-0.1c0.1-0.1,0.3-0.2,0.3-0.4
	c0.1-0.3,0.1-0.7,0.1-1V109c0-0.2-0.1-0.3-0.2-0.3h-0.2c-0.2,0-0.2-0.1-0.2-0.2s0.1-0.2,0.3-0.2H79h0.4h0.2c0.1,0,0.2,0.1,0.2,0.2
	c0,0,0,0.1,0,0.1c0,0.2,0,0.4,0,0.8v1.6c0,0.2,0.1,0.4,0.2,0.4h0.3c0.2,0,0.2,0.1,0.2,0.2c0,0.1-0.1,0.2-0.3,0.2H80h-0.2h-0.1h-0.2
	C79.3,111.8,79.2,111.8,79.2,111.6z"/>
<path class="st1" d="M83.9,109.7c0,0.1,0,0.2,0,0.3c0,0-0.1,0.1-0.2,0.1h-2.3c0,0-0.1,0-0.1,0c0,0,0,0.1,0,0.1
	c0,0.3,0.1,0.6,0.3,0.9c0.2,0.2,0.5,0.4,0.8,0.4c0.2,0,0.4-0.1,0.6-0.2c0.2-0.1,0.3-0.3,0.3-0.4l0.1-0.2c0-0.1,0.1-0.2,0.2-0.2
	c0.1,0,0.2,0.1,0.3,0.2c0,0,0,0,0,0.1c0,0.3-0.2,0.6-0.5,0.8c-0.3,0.2-0.7,0.4-1.1,0.4c-0.5,0-0.9-0.2-1.2-0.5
	c-0.3-0.4-0.5-0.9-0.4-1.3c0-0.5,0.1-1,0.5-1.4c0.3-0.3,0.8-0.5,1.2-0.5c0.4,0,0.8,0.1,1.1,0.4C83.8,108.9,84,109.3,83.9,109.7z
	 M81.4,109.5c0,0.1,0,0.1,0.2,0.1h1.7c0.1,0,0.1,0,0.1-0.1c0-0.2-0.1-0.5-0.3-0.7c-0.2-0.2-0.4-0.3-0.7-0.3c-0.3,0-0.5,0.1-0.7,0.3
	C81.5,109,81.4,109.3,81.4,109.5z"/>
<path class="st1" d="M85.6,108.4v0.2c0.3-0.3,0.7-0.5,1.1-0.5c0.3,0,0.5,0.1,0.7,0.2c0.2,0.1,0.4,0.3,0.5,0.5
	c0.1,0.2,0.1,0.4,0.1,0.6v1.3c0,0.1,0,0.2,0,0.4c0,0.2,0.1,0.2,0.2,0.2h0.2h0.1c0.1,0,0.2,0.1,0.2,0.2c0,0,0,0,0,0
	c0,0.1,0,0.1-0.1,0.2c-0.1,0-0.1,0.1-0.2,0.1h-0.3h-0.4h-0.3H87c-0.2,0-0.3-0.1-0.3-0.2s0.1-0.2,0.2-0.2h0.1h0.2
	c0.1,0,0.2-0.1,0.2-0.4v-1.3c0-0.2,0-0.3,0-0.5c0-0.2-0.1-0.3-0.3-0.4c-0.2-0.1-0.3-0.2-0.5-0.2c-0.3,0-0.6,0.1-0.8,0.4
	c-0.1,0.3-0.2,0.6-0.2,0.9v0.9c0,0.1,0,0.3,0,0.4c0,0.1,0.1,0.1,0.2,0.1H86c0.1,0,0.1,0,0.2,0c0.2,0,0.2,0.1,0.2,0.2
	s-0.1,0.2-0.3,0.2h-0.4c-0.1,0-0.2,0-0.3,0h-0.4h-0.3c-0.2,0-0.3-0.1-0.3-0.2c0-0.2,0.1-0.2,0.2-0.2h0.1c0.1,0,0.1,0,0.2,0
	c0.1,0,0.2-0.1,0.2-0.4v-1.9c0-0.1,0-0.2-0.1-0.3c0-0.1-0.1-0.1-0.2-0.1c0,0-0.1,0-0.2,0h-0.2c-0.2,0-0.3-0.1-0.3-0.2
	c0-0.2,0.1-0.2,0.3-0.2h0.1h0.3h0.2h0.2C85.5,108.2,85.6,108.3,85.6,108.4z"/>
<path class="st1" d="M90.6,111.9c-0.5,0-0.9-0.2-1.2-0.5c-0.3-0.4-0.5-0.9-0.4-1.4c0-0.5,0.1-1,0.4-1.4c0.7-0.7,1.8-0.7,2.4,0
	c0.3,0.4,0.5,0.9,0.4,1.4c0,0.5-0.1,1-0.5,1.4C91.5,111.7,91.1,111.9,90.6,111.9z M90.6,108.6c-0.3,0-0.6,0.1-0.8,0.3
	c-0.2,0.3-0.3,0.6-0.3,1v0.1c0,0.4,0.1,0.7,0.3,1c0.2,0.3,0.5,0.4,0.8,0.4c0.3,0,0.6-0.1,0.8-0.4c0.2-0.3,0.3-0.6,0.3-1
	C91.8,109.1,91.4,108.6,90.6,108.6L90.6,108.6z"/>
<path class="st1" d="M94.4,108.1c0.3,0,0.6,0.1,0.8,0.2l0,0c0-0.2,0.1-0.3,0.2-0.3c0.1,0,0.2,0.1,0.2,0.2c0,0,0,0,0,0
	c0,0,0,0.1,0,0.2c0,0.1,0,0.2,0,0.3c0,0.1,0,0.1,0,0.2c0,0.1,0,0.2,0,0.2c0,0.2-0.1,0.3-0.2,0.3s-0.2-0.1-0.2-0.2v-0.2
	c0-0.2-0.1-0.3-0.2-0.4c-0.2-0.1-0.4-0.2-0.6-0.2c-0.2,0-0.4,0-0.6,0.2c-0.1,0.1-0.2,0.3-0.2,0.4c0,0.3,0.2,0.5,0.6,0.6h0.4
	c0.8,0.1,1.2,0.4,1.2,1c0,0.3-0.1,0.6-0.4,0.8c-0.3,0.2-0.6,0.3-1,0.3c-0.4,0-0.7-0.1-1-0.3v0.1c0,0.1-0.1,0.2-0.2,0.3
	c0,0,0,0-0.1,0c-0.2,0-0.3-0.1-0.3-0.3c0,0,0-0.1,0-0.4c0-0.1,0-0.1,0-0.2c0-0.1,0-0.2,0-0.3c0-0.1,0-0.2,0-0.2s0.1-0.2,0.2-0.2
	s0.2,0,0.2,0.1c0,0.1,0.1,0.3,0.1,0.4c0,0.2,0.1,0.4,0.3,0.5c0.2,0.1,0.5,0.2,0.8,0.2c0.2,0,0.4-0.1,0.6-0.2
	c0.1-0.1,0.2-0.3,0.2-0.4c0-0.3-0.3-0.5-0.8-0.6c-0.4,0-0.8-0.1-1.1-0.3c-0.3-0.1-0.4-0.4-0.4-0.7c0-0.3,0.1-0.6,0.4-0.8
	C93.7,108.2,94,108.1,94.4,108.1z"/>
<path class="st1" d="M101.6,111l-0.3-0.7c0-0.1,0-0.1-0.1-0.1c-0.1,0-0.1,0-0.2,0h-1.3c-0.1,0-0.2,0-0.2,0c-0.1,0.1-0.1,0.2-0.1,0.3
	l-0.2,0.6c0,0,0,0.1,0,0.1c0,0.2,0.1,0.2,0.3,0.2h0.2h0.2c0.2,0,0.3,0.1,0.3,0.3c0,0.2-0.1,0.2-0.3,0.2h-0.2h-0.4h-0.7h-0.3h-0.3
	c-0.2,0-0.3-0.1-0.3-0.2c0-0.1,0.1-0.2,0.2-0.3c0,0,0,0,0.1,0c0,0,0.1,0,0.1,0h0.1c0.1,0,0.2-0.1,0.3-0.2c0.1-0.1,0.1-0.2,0.1-0.3
	l1.3-3.6c0.1-0.2,0.3-0.3,0.4-0.3c0.2,0,0.4,0.1,0.4,0.3l1.3,3.5c0,0.2,0.1,0.3,0.2,0.4c0.1,0.1,0.2,0.1,0.3,0.1h0.1h0.2
	c0.2,0,0.3,0.1,0.3,0.2c0,0.1-0.1,0.2-0.3,0.2h-0.2c-0.3,0-0.5,0-0.7,0s-0.5,0-0.9,0H101c-0.2,0-0.3-0.1-0.3-0.2
	c0-0.2,0.1-0.2,0.3-0.2h0.2h0.2c0.1,0,0.2-0.1,0.2-0.2L101.6,111z M101.1,109.5l-0.6-2l-0.6,2l0,0c0,0,0,0.1,0.1,0.1L101.1,109.5
	C101.1,109.6,101.1,109.6,101.1,109.5C101.1,109.6,101.1,109.6,101.1,109.5L101.1,109.5z"/>
<path class="st1" d="M104.6,109.7v0.9c0,0.1,0,0.3,0,0.4c0,0.2,0.1,0.3,0.2,0.3h0.2h0.1c0.2,0,0.3,0.1,0.3,0.2c0,0.1,0,0.1-0.1,0.2
	c-0.1,0-0.1,0.1-0.2,0.1h-0.4h-0.3h-0.4h-0.4c-0.2,0-0.3-0.1-0.3-0.2c0-0.2,0.1-0.2,0.2-0.2h0.2h0.2c0.1,0,0.2-0.1,0.2-0.4v-1.8
	c0-0.3-0.1-0.4-0.2-0.4c-0.1,0-0.1,0-0.2,0h-0.1c-0.2,0-0.3-0.1-0.3-0.2s0.1-0.2,0.3-0.2h0.2h0.3h0.2h0.2c0.1,0,0.2,0.1,0.2,0.3
	c0,0,0,0.1,0,0.1v0.1c0,0.1,0,0.3,0,0.4C104.6,109.3,104.6,109.5,104.6,109.7z M104.2,107.9c-0.2,0-0.4-0.2-0.4-0.4
	c0-0.1,0-0.2,0.1-0.3c0.1-0.2,0.4-0.2,0.6,0c0,0,0,0,0,0c0.1,0.1,0.1,0.2,0.1,0.3C104.6,107.7,104.4,107.9,104.2,107.9z"/>
<path class="st1" d="M106.7,108.4v0.2c0.2-0.3,0.6-0.5,1-0.5c0.3,0,0.6,0.1,0.8,0.3c0.2,0.2,0.3,0.4,0.3,0.7c0,0.2,0,0.4-0.2,0.5
	c-0.1,0.1-0.3,0.2-0.4,0.2c-0.1,0-0.2,0-0.3-0.1c-0.1-0.1-0.1-0.2-0.1-0.2c0-0.1,0-0.1,0.1-0.2c0-0.1,0.1-0.1,0.2-0.1h0.1
	c0-0.1,0-0.1,0-0.2c0-0.1-0.1-0.3-0.2-0.3c-0.1-0.1-0.3-0.2-0.5-0.1c-0.3,0-0.6,0.2-0.7,0.5c-0.1,0.3-0.1,0.6-0.1,0.9v0.5
	c0,0.3,0,0.5,0,0.5c0,0.3,0.1,0.4,0.2,0.4c0.1,0,0.1,0,0.2,0h0.1c0.1,0,0.2,0.1,0.2,0.2c0,0.1-0.1,0.2-0.3,0.2l0,0h-0.3h-0.3h-0.4
	h-0.4c-0.2,0-0.3-0.1-0.3-0.2s0.1-0.2,0.3-0.2h0.1h0.1h0.1c0.1,0,0.2-0.1,0.2-0.3v-0.4V109c0-0.3-0.1-0.4-0.2-0.4h-0.1h-0.2
	c-0.1,0-0.2-0.1-0.2-0.2c0,0,0,0,0-0.1c0-0.2,0.1-0.2,0.3-0.2h0.2h0.2h0.2h0.1c0.1,0,0.2,0,0.2,0.1
	C106.8,108.3,106.8,108.4,106.7,108.4z"/>
<path class="st1" d="M112.4,109.7c0,0.1,0,0.2,0,0.3c-0.1,0-0.1,0.1-0.2,0.1h-2.3c-0.1,0-0.1,0-0.1,0c0,0,0,0.1,0,0.1
	c0,0.3,0.1,0.6,0.3,0.9c0.2,0.2,0.5,0.4,0.8,0.4c0.2,0,0.4-0.1,0.6-0.2c0.2-0.1,0.3-0.3,0.3-0.4l0.1-0.2c0-0.1,0.1-0.2,0.2-0.2
	c0.1,0,0.3,0.1,0.3,0.2c0,0,0,0,0,0.1c0,0.3-0.2,0.7-0.5,0.8c-0.3,0.2-0.7,0.4-1.1,0.4c-0.5,0-0.9-0.2-1.2-0.5
	c-0.3-0.4-0.5-0.9-0.4-1.3c0-0.5,0.1-1,0.5-1.4c0.3-0.3,0.8-0.5,1.2-0.5c0.4,0,0.8,0.1,1.1,0.4C112.3,108.9,112.4,109.3,112.4,109.7
	z M109.8,109.5c0,0.1,0.1,0.1,0.2,0.1h1.7c0.1,0,0.1,0,0.1-0.1c0-0.3-0.1-0.5-0.3-0.7c-0.2-0.2-0.4-0.3-0.7-0.3
	c-0.3,0-0.5,0.1-0.7,0.3C109.9,109,109.8,109.3,109.8,109.5z"/>
<path class="st1" d="M114.4,108.1c0.3,0,0.6,0.1,0.8,0.2l0,0c0-0.2,0.1-0.3,0.2-0.3c0.1,0,0.2,0.1,0.2,0.2c0,0,0,0,0,0.1
	c0,0,0,0.1,0,0.2c0,0.1,0,0.2,0,0.3c0,0.1,0,0.1,0,0.2s0,0.2,0,0.2s-0.1,0.3-0.2,0.3c-0.1,0-0.2-0.1-0.2-0.2c0,0,0,0,0,0v-0.2
	c0-0.2-0.1-0.3-0.2-0.4c-0.2-0.1-0.4-0.2-0.6-0.2c-0.2,0-0.4,0-0.6,0.2c-0.1,0.1-0.2,0.3-0.2,0.4c0,0.3,0.2,0.5,0.6,0.6h0.4
	c0.8,0.1,1.2,0.4,1.2,1c0,0.3-0.1,0.6-0.4,0.8c-0.6,0.4-1.4,0.4-2,0v0.1c0,0.2-0.1,0.3-0.2,0.3s-0.3-0.1-0.3-0.3
	c0-0.1,0-0.2,0.1-0.4c0-0.1,0-0.1,0-0.2c0-0.1,0-0.2,0-0.3c0-0.1,0-0.2,0-0.2c0-0.2,0.1-0.2,0.2-0.2s0.2,0,0.2,0.1
	c0,0.1,0,0.3,0,0.4c0,0.2,0.1,0.4,0.3,0.5c0.2,0.1,0.5,0.2,0.8,0.2c0.2,0,0.4-0.1,0.6-0.2c0.1-0.1,0.2-0.3,0.2-0.4
	c0-0.3-0.3-0.5-0.8-0.6c-0.4,0-0.8-0.1-1.1-0.3c-0.3-0.1-0.4-0.4-0.4-0.7c0-0.3,0.1-0.6,0.4-0.8
	C113.7,108.2,114.1,108.1,114.4,108.1z"/>
<path class="st1" d="M98.3,95.9L98.3,95.9c-0.1,0-0.2-0.1-0.2-0.2c0-0.1,0-0.3,0-0.4v-1.4c0.1-0.6-0.4-1.2-1-1.3c-0.1,0-0.2,0-0.3,0
	c-0.4,0-0.7,0.1-1,0.3c-0.2,0.1-0.4,0.4-0.4,0.7c0,0.1,0,0.2,0.1,0.3c0.1,0.1,0.2,0.1,0.3,0.1c0.1,0,0.2,0,0.3-0.1
	c0.1-0.1,0.1-0.1,0.1-0.2c0-0.1,0-0.2-0.1-0.2c0,0-0.1,0-0.1-0.1c0-0.1,0-0.1,0.1-0.2c0.2-0.1,0.4-0.2,0.6-0.2c0.2,0,0.4,0,0.6,0.2
	c0.1,0.1,0.2,0.3,0.2,0.5c0,0.2-0.1,0.3-0.2,0.4c-0.2,0.1-0.5,0.2-0.8,0.2c-0.3,0-0.5,0.1-0.6,0.1c-0.1,0-0.2,0.1-0.3,0.1
	c-0.3,0.2-0.5,0.5-0.5,0.9c0,0.3,0.1,0.6,0.3,0.8c0.3,0.2,0.6,0.3,0.9,0.3c0.4,0,0.9-0.2,1.1-0.5c0.1,0.3,0.4,0.5,0.7,0.5l0,0
	c0.1,0,0.2-0.1,0.2-0.2c0,0,0,0,0,0C98.5,96,98.4,95.9,98.3,95.9z M97.5,94.9c0,0.3-0.1,0.5-0.3,0.7c-0.2,0.2-0.5,0.3-0.8,0.2
	c-0.2,0-0.4,0-0.5-0.1c-0.1-0.1-0.2-0.3-0.2-0.4c0-0.4,0.3-0.6,0.8-0.6c0.2,0,0.4,0,0.6-0.1c0.1,0,0.2-0.1,0.3-0.2V94.9z"/>
<path class="st1" d="M60.8,103.7L60.8,103.7c-0.1,0-0.2-0.1-0.2-0.2c0-0.1,0-0.3,0-0.4v-1.4c0-0.8-0.4-1.2-1.3-1.2
	c-0.4,0-0.7,0.1-1,0.3c-0.2,0.1-0.4,0.4-0.4,0.7c0,0.1,0.1,0.2,0.2,0.3c0.1,0.1,0.2,0.1,0.3,0.1c0.1,0,0.2,0,0.2-0.1
	c0.1-0.1,0.1-0.1,0.1-0.2c0-0.1,0-0.2-0.1-0.2c0,0-0.1,0-0.1-0.1c0-0.1,0-0.1,0.1-0.2c0.2-0.1,0.4-0.2,0.6-0.2c0.2,0,0.4,0,0.6,0.2
	c0.1,0.1,0.2,0.3,0.2,0.5c0,0.2-0.1,0.3-0.2,0.4c-0.2,0.1-0.5,0.2-0.8,0.2l-0.6,0.1c-0.1,0-0.2,0.1-0.3,0.1
	c-0.3,0.2-0.5,0.5-0.5,0.9c0,0.3,0.1,0.6,0.3,0.8c0.3,0.2,0.6,0.3,0.9,0.3c0.4,0,0.8-0.2,1.1-0.5c0.1,0.3,0.4,0.5,0.7,0.5l0,0
	c0.1,0,0.2-0.1,0.2-0.2c0,0,0,0,0,0C60.9,103.8,60.9,103.7,60.8,103.7z M60,102.7c0,0.3-0.1,0.5-0.3,0.7c-0.2,0.2-0.5,0.3-0.8,0.3
	c-0.2,0-0.4,0-0.5-0.2c-0.1-0.1-0.2-0.3-0.2-0.4c0-0.4,0.3-0.6,0.8-0.6c0.2,0,0.4,0,0.6-0.1c0.1,0,0.2-0.1,0.3-0.2L60,102.7z"/>
<path class="st1" d="M59.7,95.9L59.7,95.9c-0.1,0-0.2-0.1-0.2-0.2c0-0.1,0-0.3,0-0.4v-1.4c0-0.8-0.4-1.2-1.3-1.2
	c-0.4,0-0.7,0.1-1,0.3c-0.2,0.1-0.4,0.4-0.4,0.7c0,0.2,0.2,0.4,0.4,0.4c0,0,0,0,0,0c0.1,0,0.2,0,0.2-0.1c0.1-0.1,0.1-0.1,0.1-0.2
	c0-0.1,0-0.2-0.1-0.2c0,0-0.1,0-0.1-0.1c0-0.1,0-0.1,0.1-0.2c0.2-0.1,0.4-0.2,0.6-0.2c0.2,0,0.4,0.1,0.6,0.2
	c0.1,0.1,0.2,0.3,0.2,0.5c0,0.2-0.1,0.3-0.2,0.4c-0.3,0.1-0.5,0.2-0.8,0.2l-0.6,0.1c-0.1,0-0.2,0.1-0.3,0.2
	c-0.3,0.2-0.5,0.5-0.5,0.9c0,0.3,0.1,0.6,0.3,0.8c0.3,0.2,0.6,0.3,0.9,0.3c0.4,0,0.9-0.2,1.1-0.5c0.1,0.3,0.4,0.5,0.7,0.5l0,0
	c0.1,0,0.2-0.1,0.2-0.2c0,0,0,0,0,0C59.9,96.1,59.8,96,59.7,95.9z M58.9,94.9c0,0.3-0.1,0.5-0.3,0.7c-0.2,0.2-0.5,0.3-0.8,0.3
	c-0.2,0-0.4,0-0.5-0.2c-0.1-0.1-0.2-0.3-0.2-0.4c0-0.4,0.3-0.6,0.8-0.6c0.2,0,0.4,0,0.6-0.1c0.1,0,0.2-0.1,0.3-0.2L58.9,94.9z"/>
<path class="st1" d="M103.2,103.7L103.2,103.7c-0.1,0-0.2-0.1-0.2-0.2c0-0.1,0-0.3,0-0.4v-1.4c0-0.8-0.4-1.2-1.3-1.2
	c-0.4,0-0.7,0.1-1,0.3c-0.2,0.1-0.4,0.4-0.4,0.7c0,0.1,0,0.2,0.1,0.3c0.1,0.1,0.2,0.1,0.3,0.1c0.1,0,0.2,0,0.3-0.1
	c0.1-0.1,0.1-0.2,0.1-0.2c0-0.1,0-0.2-0.1-0.2c0,0,0,0-0.1-0.1c0-0.1,0-0.1,0.1-0.2c0.2-0.1,0.4-0.2,0.6-0.2c0.2,0,0.4,0.1,0.6,0.2
	c0.1,0.1,0.2,0.3,0.2,0.5c0,0.2,0,0.3-0.2,0.4c-0.2,0.1-0.5,0.2-0.8,0.2l-0.6,0.1c-0.1,0-0.2,0.1-0.3,0.1c-0.3,0.2-0.5,0.5-0.5,0.9
	c0,0.3,0.1,0.6,0.3,0.8c0.3,0.2,0.6,0.3,0.9,0.3c0.4,0,0.9-0.2,1.1-0.5c0.1,0.3,0.4,0.5,0.7,0.5l0,0c0.1,0,0.2-0.1,0.2-0.2
	c0,0,0,0,0,0C103.4,103.8,103.3,103.7,103.2,103.7z M102.4,102.7c0,0.3-0.1,0.5-0.3,0.7c-0.2,0.2-0.5,0.3-0.8,0.3
	c-0.2,0-0.4,0-0.5-0.2c-0.1-0.1-0.2-0.3-0.2-0.4c0-0.4,0.3-0.6,0.8-0.6c0.2,0,0.4,0,0.6-0.1c0.1,0,0.2-0.1,0.3-0.2V102.7z"/>
</svg>
