<?xml version="1.0" encoding="utf-8"?>
<!-- Simulation: Adobe Illustrator 21.1.0, SVG Export Plug-In . SVG Version: 6.00 Build 0)  -->
<svg version="1.1" id="Capa_1" xmlns="http://www.w3.org/2000/svg" xmlns:xlink="http://www.w3.org/1999/xlink" x="0px" y="0px"
	 viewBox="0 0 201.3 31.2" style="enable-background:new 0 0 201.3 31.2;" xml:space="preserve">
<style type="text/css">
	.st0{fill:#FFFFFF;}
</style>
<title>Mesa de trabajo 1</title>
<g>
	<g>
		<g>
			<path class="st0" d="M4,26.1V24c0-0.3-0.1-0.4-0.3-0.4H3.6c-0.1,0-0.1,0-0.1,0c-0.1,0-0.2-0.1-0.2-0.2s0.1-0.2,0.2-0.2h0.1h0.3
				c0.1,0,0.2,0,0.3,0s0.2,0,0.3,0c0.3,0,0.5,0,0.7,0s0.4,0,0.6,0.1c0.2,0,0.4,0.2,0.6,0.3c0.1,0.2,0.2,0.4,0.2,0.6
				c0,0.3-0.1,0.6-0.3,0.8c-0.2,0.2-0.6,0.3-1,0.3H4.8c-0.1,0-0.2,0-0.2,0l0,0c-0.1,0-0.1,0-0.1,0v0.1v0.1c0,0.5,0,0.7,0,0.8
				c0,0.1,0.1,0.1,0.2,0.1h0.1c0.1,0,0.1,0,0.1,0c0.1,0,0.2,0.1,0.2,0.2S5,26.8,4.9,26.8H4.8H4.5c-0.1,0-0.2,0-0.3,0s-0.2,0-0.3,0
				H3.6l0,0l0,0c-0.2,0-0.2-0.1-0.2-0.2s0-0.1,0-0.1l0.1-0.1h0.1h0.1C3.9,26.5,4,26.4,4,26.1z M4.5,23.7c0,0,0,0.1,0,0.3v0.8
				c0,0.1,0.1,0.2,0.2,0.2c0,0,0.1,0,0.3,0c0.3,0,0.5,0,0.6-0.1c0.3-0.1,0.5-0.3,0.5-0.6c0-0.5-0.3-0.7-0.9-0.7
				C4.8,23.5,4.5,23.6,4.5,23.7z"/>
			<path class="st0" d="M7.6,24.3L7.6,24.3C7.8,24.1,8,24,8.3,24s0.5,0.1,0.6,0.2c0.2,0.1,0.2,0.3,0.2,0.5s0,0.3-0.1,0.4
				s-0.2,0.1-0.3,0.1s-0.2,0-0.2-0.1C8.4,25,8.4,25,8.4,24.9s0-0.1,0.1-0.2l0.1-0.1c0,0,0,0,0.1,0v-0.1c0-0.1,0-0.2-0.1-0.3
				c-0.1-0.1-0.2-0.1-0.3-0.1c-0.3,0-0.5,0.1-0.6,0.4c-0.1,0.2-0.1,0.4-0.1,0.7v0.4c0,0.2,0,0.4,0,0.4c0,0.2,0.1,0.3,0.2,0.3h0.1H8
				c0.1,0,0.2,0.1,0.2,0.2S8.1,26.7,8,26.7l0,0c-0.1,0-0.1,0-0.2,0c-0.1,0-0.2,0-0.2,0c-0.1,0-0.3,0-0.3,0H7c-0.1,0-0.2-0.1-0.2-0.2
				s0.1-0.2,0.2-0.2h0.1h0.1h0.1c0.1,0,0.1-0.1,0.1-0.2V26v-1.2c0-0.2-0.1-0.3-0.2-0.3H7.1H7c-0.1,0-0.2-0.1-0.2-0.2
				s0.1-0.2,0.2-0.2c0,0,0.1,0,0.2,0c0.1,0,0.1,0,0.2,0h0.1h0.1C7.6,24.1,7.6,24.2,7.6,24.3z"/>
			<path class="st0" d="M10.7,26.9c-0.4,0-0.7-0.1-0.9-0.4s-0.3-0.6-0.3-1s0.1-0.8,0.3-1c0.2-0.3,0.5-0.4,0.9-0.4s0.7,0.1,0.9,0.4
				c0.2,0.3,0.3,0.6,0.3,1s-0.1,0.8-0.3,1.1C11.4,26.8,11.1,26.9,10.7,26.9z M10.7,24.4c-0.3,0-0.4,0.1-0.6,0.3
				c-0.1,0.2-0.2,0.4-0.2,0.7v0.1c0,0.3,0.1,0.6,0.2,0.8c0.1,0.2,0.3,0.3,0.6,0.3s0.5-0.1,0.6-0.3c0.2-0.2,0.2-0.5,0.2-0.8
				C11.5,24.7,11.3,24.4,10.7,24.4z"/>
			<path class="st0" d="M14,23.6c0,0,0-0.1,0.1-0.1c-0.1-0.1-0.2-0.1-0.3-0.1c-0.2,0-0.3,0.1-0.4,0.1c-0.1,0.2-0.1,0.3-0.1,0.5v0.1
				c0,0,0,0.1,0.1,0.1h0.4c0.1,0,0.2,0.1,0.2,0.2s-0.1,0.2-0.2,0.2h-0.4c-0.1,0-0.1,0-0.1,0.1v1.5c0,0.1,0,0.2,0,0.2
				c0,0.1,0.1,0.1,0.1,0.1h0.1h0.1c0.1,0,0.2,0.1,0.2,0.2s-0.1,0.2-0.2,0.2s-0.2,0-0.3,0c-0.1,0-0.2,0-0.3,0c-0.1,0-0.2,0-0.3,0
				c-0.1,0-0.2,0-0.3,0c-0.2,0-0.2-0.1-0.2-0.2c0,0,0-0.1,0.1-0.1l0.1-0.1h0.1h0.1c0.1,0,0.1,0,0.1-0.1s0-0.3,0-0.6v-1.1
				c0-0.1,0-0.1-0.1-0.1h-0.3c-0.1,0-0.2-0.1-0.2-0.2s0.1-0.2,0.2-0.2h0.3c0,0,0.1,0,0.1-0.1V24c0-0.3,0.1-0.5,0.2-0.6
				s0.4-0.2,0.6-0.2s0.4,0,0.5,0.1s0.2,0.2,0.2,0.4c0,0.1,0,0.1-0.1,0.2C14,23.9,14,24,13.9,24s-0.1,0-0.2-0.1
				C14,23.7,14,23.7,14,23.6z"/>
			<path class="st0" d="M16.5,25.2c0,0.1,0,0.2,0,0.3c0,0-0.1,0-0.2,0h-1.7h-0.1c0,0,0,0,0,0.1c0,0.3,0.1,0.5,0.2,0.7
				c0.2,0.2,0.4,0.3,0.6,0.3s0.3,0,0.4-0.1s0.2-0.2,0.3-0.3l0.1-0.2c0-0.1,0.1-0.1,0.2-0.1s0.2,0.1,0.2,0.2c0,0.2-0.1,0.4-0.4,0.6
				c-0.2,0.2-0.5,0.3-0.8,0.3c-0.4,0-0.7-0.1-0.9-0.4c-0.2-0.3-0.3-0.6-0.3-1s0.1-0.8,0.4-1.1c0.2-0.3,0.5-0.4,0.9-0.4
				c0.3,0,0.6,0.1,0.8,0.3C16.4,24.6,16.5,24.9,16.5,25.2z M14.6,25.1c0,0.1,0,0.1,0.1,0.1H16c0.1,0,0.1,0,0.1-0.1
				c0-0.2-0.1-0.4-0.2-0.5s-0.3-0.2-0.5-0.2s-0.4,0.1-0.5,0.2C14.7,24.7,14.6,24.9,14.6,25.1z"/>
			<path class="st0" d="M18.1,24c0.2,0,0.4,0.1,0.6,0.2l0,0c0-0.1,0.1-0.2,0.2-0.2s0.2,0.1,0.2,0.2c0,0,0,0.1,0,0.2s0,0.1,0,0.2
				c0,0,0,0.1,0,0.2s0,0.1,0,0.2s-0.1,0.2-0.2,0.2s-0.2-0.1-0.2-0.2v-0.2c0-0.1-0.1-0.2-0.2-0.3c-0.1-0.1-0.3-0.1-0.4-0.1
				c-0.2,0-0.3,0-0.4,0.1s-0.2,0.2-0.2,0.3c0,0.2,0.2,0.4,0.5,0.4h0.3c0.6,0.1,0.9,0.3,0.9,0.8c0,0.3-0.1,0.5-0.3,0.6
				c-0.2,0.2-0.5,0.2-0.8,0.2s-0.6-0.1-0.8-0.3v0.1c0,0.1-0.1,0.2-0.2,0.2s-0.2-0.1-0.2-0.2c0,0,0-0.1,0-0.3v-0.1c0-0.1,0-0.2,0-0.2
				c0-0.1,0-0.1,0-0.2s0.1-0.2,0.2-0.2s0.1,0,0.1,0.1c0,0,0,0.1,0,0.3c0,0.2,0.1,0.3,0.2,0.4c0.2,0.1,0.4,0.1,0.6,0.1s0.3,0,0.4-0.1
				s0.2-0.2,0.2-0.3c0-0.2-0.2-0.4-0.6-0.4s-0.6-0.1-0.8-0.2c-0.2-0.1-0.3-0.3-0.3-0.6c0-0.2,0.1-0.4,0.3-0.6
				C17.5,24.1,17.8,24,18.1,24z"/>
			<path class="st0" d="M20.4,25.2v0.7c0,0.2,0,0.3,0,0.3c0,0.2,0.1,0.2,0.1,0.2h0.1c0,0,0,0,0.1,0s0.2,0.1,0.2,0.2
				c0,0,0,0.1-0.1,0.1c0,0-0.1,0.1-0.2,0.1s-0.1,0-0.3,0c-0.1,0-0.2,0-0.3,0c-0.1,0-0.2,0-0.3,0c-0.1,0-0.2,0-0.3,0
				c-0.1,0-0.2-0.1-0.2-0.2s0.1-0.2,0.2-0.2h0.1c0.1,0,0.1,0,0.1,0c0.1,0,0.1-0.1,0.2-0.3c0,0,0-0.2,0-0.5v-0.4c0-0.3,0-0.4,0-0.5
				c0-0.2-0.1-0.3-0.2-0.3h-0.1c-0.1,0-0.1,0-0.1,0c-0.1,0-0.2-0.1-0.2-0.2s0.1-0.2,0.2-0.2s0.1,0,0.1,0c0.1,0,0.2,0,0.2,0h0.1
				c0.1,0,0.1,0,0.1,0c0.1,0,0.2,0.1,0.2,0.2c0,0,0,0,0,0.1c0,0,0,0,0,0.1c0,0,0,0.1,0,0.3C20.4,24.9,20.4,25.1,20.4,25.2z
				 M20.2,23.8c-0.1,0-0.2,0-0.2-0.1c-0.1-0.1-0.1-0.1-0.1-0.2s0-0.2,0.1-0.2c0.1-0.1,0.1-0.1,0.2-0.1s0.2,0,0.2,0.1
				c0.1,0.1,0.1,0.1,0.1,0.2s0,0.2-0.1,0.2C20.3,23.8,20.2,23.8,20.2,23.8z"/>
			<path class="st0" d="M22.5,26.9c-0.4,0-0.7-0.1-0.9-0.4c-0.2-0.3-0.3-0.6-0.3-1s0.1-0.8,0.3-1c0.2-0.3,0.5-0.4,0.9-0.4
				s0.7,0.1,0.9,0.4c0.2,0.3,0.3,0.6,0.3,1s-0.1,0.8-0.3,1.1C23.2,26.8,22.9,26.9,22.5,26.9z M22.5,24.4c-0.3,0-0.4,0.1-0.6,0.3
				c-0.1,0.2-0.2,0.4-0.2,0.7v0.1c0,0.3,0.1,0.6,0.2,0.8c0.1,0.2,0.3,0.3,0.6,0.3c0.3,0,0.5-0.1,0.6-0.3c0.1-0.2,0.2-0.5,0.2-0.8
				C23.3,24.7,23.1,24.4,22.5,24.4z"/>
			<path class="st0" d="M25,24.3v0.2c0.2-0.3,0.5-0.4,0.9-0.4c0.2,0,0.4,0,0.5,0.1c0.2,0.1,0.3,0.2,0.4,0.4c0,0.1,0.1,0.3,0.1,0.5v1
				c0,0.2,0,0.2,0,0.3c0,0.1,0.1,0.2,0.1,0.2h0.1c0.1,0,0.1,0,0.1,0h0.1v0.1c0,0.1,0,0.1-0.1,0.1c0,0-0.1,0.1-0.2,0.1s-0.1,0-0.2,0
				s-0.2,0-0.3,0c-0.1,0-0.2,0-0.2,0c-0.2,0-0.3,0-0.3,0c-0.1,0-0.2-0.1-0.2-0.2s0.1-0.2,0.2-0.2h0.1c0.1,0,0.1,0,0.1,0
				c0.1,0,0.1-0.1,0.1-0.3v-0.3v-0.3v-0.4c0-0.2,0-0.3,0-0.4s-0.1-0.2-0.2-0.3c-0.1-0.1-0.3-0.1-0.4-0.1c-0.3,0-0.5,0.1-0.6,0.3
				C25,24.8,25,25.1,25,25.4v0.7c0,0.2,0,0.3,0,0.3c0,0.1,0.1,0.1,0.1,0.1h0.1h0.1c0.1,0,0.2,0.1,0.2,0.2s-0.1,0.2-0.2,0.2
				c0,0-0.1,0-0.3,0c-0.1,0-0.2,0-0.3,0c-0.1,0-0.2,0-0.3,0c-0.2,0-0.2,0-0.3,0c-0.2,0-0.2-0.1-0.2-0.2s0.1-0.2,0.2-0.2h0.1h0.1
				c0.1,0,0.2-0.1,0.2-0.3v-0.6V25v-0.2c0-0.1,0-0.2,0-0.2l-0.1-0.1h-0.1c-0.1,0-0.1,0-0.1,0c-0.1,0-0.2-0.1-0.2-0.2
				s0.1-0.2,0.2-0.2c0,0,0,0,0.1,0h0.2c0.1,0,0.1,0,0.1,0c0.1,0,0.1,0,0.1,0C24.9,24.1,25,24.2,25,24.3z"/>
			<path class="st0" d="M31.3,24.6v1.7c0,0.2,0.1,0.3,0.1,0.3h0.1h0.1c0.1,0,0.2,0.1,0.2,0.2S31.7,27,31.6,27c-0.1,0-0.1,0-0.3,0
				c-0.1,0-0.2,0-0.3,0s-0.1,0-0.3,0c-0.1,0-0.2,0-0.3,0l0,0c-0.1,0-0.2-0.1-0.2-0.2s0.1-0.2,0.2-0.2l0,0c0,0,0,0,0.1,0s0.1,0,0.2,0
				c0.1,0,0.1,0,0.1-0.1s0-0.2,0-0.4v-0.4v-0.8v-1c0-0.1,0-0.2,0-0.2c0-0.1-0.1-0.1-0.1-0.1h-0.1h-0.1c-0.1,0-0.2-0.1-0.2-0.2
				s0.1-0.2,0.2-0.2h0.1h0.1c0.1,0,0.1,0,0.1,0s0.1,0,0.2,0c0.1,0,0.1,0,0.2,0c0.1,0,0.1,0.1,0.1,0.2v0.1
				C31.4,23.7,31.3,24,31.3,24.6z"/>
			<path class="st0" d="M34.8,24c0.4,0,0.6,0.1,0.8,0.4v-0.5c0-0.1,0-0.2,0-0.3c0-0.1-0.1-0.2-0.1-0.2h-0.1c-0.1,0-0.1,0-0.1,0
				c-0.1,0-0.2-0.1-0.2-0.2s0.1-0.2,0.3-0.2c0,0,0.1,0,0.2,0c0.1,0,0.2,0,0.2,0h0.1c0.1,0,0.1,0,0.1,0c0.1,0,0.1,0.1,0.1,0.2v0.1
				c0,0,0,0.1,0,0.3c0,0,0,0.2,0,0.4c0,0.2,0,0.3,0,0.4v0.5V26c0,0.2,0,0.4,0,0.4c0,0.1,0.1,0.1,0.1,0.1h0.1c0.1,0,0.1,0,0.1,0
				c0.1,0,0.2,0.1,0.2,0.2s-0.1,0.2-0.2,0.2c0,0-0.1,0-0.2,0c-0.1,0-0.1,0-0.2,0h-0.1h-0.1c-0.1,0-0.1-0.1-0.1-0.2l0,0v-0.1
				c-0.2,0.3-0.5,0.4-0.8,0.4c-0.4,0-0.7-0.1-0.9-0.4s-0.3-0.6-0.3-1s0.1-0.8,0.3-1C34.2,24.2,34.4,24,34.8,24z M35.6,25.9
				c0-0.1,0-0.3,0-0.5s0-0.4,0-0.5c0-0.2-0.1-0.3-0.2-0.4c-0.1-0.1-0.3-0.2-0.5-0.2c-0.3,0-0.4,0.1-0.6,0.3s-0.2,0.4-0.2,0.8
				c0,0.3,0.1,0.6,0.2,0.8c0.1,0.2,0.4,0.3,0.6,0.3c0.2,0,0.4-0.1,0.5-0.2C35.5,26.3,35.6,26.1,35.6,25.9z"/>
			<path class="st0" d="M39.3,25.2c0,0.1,0,0.2,0,0.3c0,0-0.1,0-0.2,0h-1.7h-0.1c0,0,0,0,0,0.1c0,0.3,0.1,0.5,0.2,0.7
				c0.2,0.2,0.4,0.3,0.6,0.3c0.2,0,0.3,0,0.4-0.1c0.1-0.1,0.2-0.2,0.3-0.3V26c0-0.1,0.1-0.1,0.2-0.1c0.1,0,0.2,0.1,0.2,0.2
				c0,0.2-0.1,0.4-0.4,0.6C38.6,26.9,38.3,27,38,27c-0.4,0-0.7-0.1-0.9-0.4s-0.3-0.6-0.3-1s0.1-0.8,0.4-1.1c0.2-0.3,0.5-0.4,0.9-0.4
				c0.3,0,0.6,0.1,0.8,0.3C39.2,24.6,39.3,24.9,39.3,25.2z M37.3,25.1C37.3,25.2,37.3,25.2,37.3,25.1l1.4,0.1c0.1,0,0.1,0,0.1-0.1
				c0-0.2-0.1-0.4-0.2-0.5c-0.1-0.1-0.3-0.2-0.5-0.2s-0.4,0.1-0.5,0.2C37.4,24.7,37.3,24.9,37.3,25.1z"/>
			<path class="st0" d="M42.6,23.1c0.4,0,0.7,0.2,1,0.5v-0.1c0,0,0,0,0-0.1l0,0c0-0.1,0-0.1,0-0.1c0-0.1,0.1-0.2,0.2-0.2
				c0.1,0,0.2,0.1,0.2,0.2c0,0,0,0.1,0,0.3c0,0.2,0,0.3,0,0.4s0,0.2,0,0.3v0.2v0.1c0,0.2-0.1,0.2-0.2,0.2c-0.1,0-0.2-0.1-0.2-0.2
				v-0.2c0-0.3-0.1-0.5-0.2-0.6c-0.2-0.2-0.4-0.2-0.7-0.2c-0.4,0-0.6,0.1-0.8,0.4s-0.3,0.6-0.3,1.1s0.1,0.9,0.3,1.1
				c0.2,0.3,0.5,0.4,0.9,0.4c0.2,0,0.4,0,0.5-0.1c0.2-0.1,0.3-0.2,0.3-0.4c0-0.1,0.1-0.2,0.1-0.4c0-0.2,0.1-0.3,0.2-0.3
				c0.1,0,0.2,0.1,0.2,0.2c0,0.4-0.1,0.7-0.4,0.9c-0.3,0.2-0.6,0.4-1,0.4c-0.5,0-0.9-0.2-1.2-0.5s-0.4-0.8-0.4-1.4s0.1-1.1,0.4-1.4
				C41.7,23.3,42.1,23.1,42.6,23.1z"/>
			<path class="st0" d="M45.3,25.2v0.7c0,0.2,0,0.3,0,0.3c0,0.2,0.1,0.2,0.1,0.2h0.1c0,0,0,0,0.1,0s0.2,0.1,0.2,0.2
				c0,0,0,0.1-0.1,0.1c0,0-0.1,0.1-0.2,0.1c-0.1,0-0.1,0-0.3,0c-0.1,0-0.2,0-0.3,0s-0.2,0-0.3,0s-0.2,0-0.3,0s-0.2-0.1-0.2-0.2
				s0.1-0.2,0.2-0.2h0.1c0.1,0,0.1,0,0.1,0c0.1,0,0.1-0.1,0.2-0.3c0,0,0-0.2,0-0.5v-0.4c0-0.3,0-0.4,0-0.5c0-0.2-0.1-0.3-0.2-0.3
				h-0.1c-0.1,0-0.1,0-0.1,0c-0.1,0-0.2-0.1-0.2-0.2s0.1-0.2,0.2-0.2c0.1,0,0.1,0,0.1,0c0.1,0,0.2,0,0.2,0h0.1c0.1,0,0.1,0,0.1,0
				c0.1,0,0.2,0.1,0.2,0.2c0,0,0,0,0,0.1c0,0,0,0,0,0.1c0,0,0,0.1,0,0.3C45.3,24.9,45.3,25.1,45.3,25.2z M45,23.8
				c-0.1,0-0.2,0-0.2-0.1c-0.1-0.1-0.1-0.1-0.1-0.2s0-0.2,0.1-0.2c0.1-0.1,0.1-0.1,0.2-0.1c0.1,0,0.2,0,0.2,0.1
				c0.1,0.1,0.1,0.1,0.1,0.2s0,0.2-0.1,0.2C45.2,23.8,45.1,23.8,45,23.8z"/>
			<path class="st0" d="M48.5,25.2c0,0.1,0,0.2,0,0.3c0,0-0.1,0-0.2,0h-1.7h-0.1c0,0,0,0,0,0.1c0,0.3,0.1,0.5,0.2,0.7
				c0.2,0.2,0.4,0.3,0.6,0.3c0.2,0,0.3,0,0.4-0.1c0.1-0.1,0.2-0.2,0.3-0.3V26c0-0.1,0.1-0.1,0.2-0.1c0.1,0,0.2,0.1,0.2,0.2
				c0,0.2-0.1,0.4-0.4,0.6c-0.2,0.2-0.5,0.3-0.8,0.3c-0.4,0-0.7-0.1-0.9-0.4S46,26,46,25.6s0.1-0.8,0.4-1.1c0.2-0.3,0.5-0.4,0.9-0.4
				c0.3,0,0.6,0.1,0.8,0.3C48.4,24.6,48.5,24.9,48.5,25.2z M46.6,25.1C46.6,25.2,46.6,25.2,46.6,25.1l1.4,0.1c0.1,0,0.1,0,0.1-0.1
				c0-0.2-0.1-0.4-0.2-0.5c-0.1-0.1-0.3-0.2-0.5-0.2s-0.4,0.1-0.6,0.2C46.7,24.7,46.6,24.9,46.6,25.1z"/>
			<path class="st0" d="M49.7,24.3v0.2c0.2-0.3,0.5-0.4,0.9-0.4c0.2,0,0.4,0,0.5,0.1c0.2,0.1,0.3,0.2,0.3,0.4
				c0.1,0.1,0.1,0.3,0.1,0.5v1c0,0.2,0,0.2,0,0.3c0,0.1,0.1,0.2,0.1,0.2h0.1c0.1,0,0.1,0,0.1,0h0.1l0.1,0.1c0,0.1,0,0.1-0.1,0.1
				c0,0-0.1,0.1-0.2,0.1c-0.1,0-0.1,0-0.2,0c-0.1,0-0.2,0-0.3,0s-0.2,0-0.2,0c-0.2,0-0.3,0-0.3,0c-0.1,0-0.2-0.1-0.2-0.2
				s0.1-0.2,0.2-0.2h0.1c0.1,0,0.1,0,0.1,0c0.1,0,0.1-0.1,0.1-0.3v-0.3v-0.3v-0.4c0-0.2,0-0.3,0-0.4s-0.1-0.2-0.2-0.3
				c-0.1-0.1-0.3-0.1-0.4-0.1c-0.3,0-0.5,0.1-0.6,0.3c-0.1,0.1-0.1,0.4-0.1,0.7v0.7c0,0.2,0,0.3,0,0.3c0,0.1,0.1,0.1,0.1,0.1h0.1H50
				c0.1,0,0.2,0.1,0.2,0.2s-0.1,0.2-0.2,0.2c0,0-0.1,0-0.3,0c-0.1,0-0.2,0-0.3,0s-0.2,0-0.3,0c-0.2,0-0.3,0-0.3,0
				c-0.1,0-0.2-0.1-0.2-0.2s0.1-0.2,0.2-0.2h0.1H49c0.1,0,0.2-0.1,0.2-0.3v-0.6V25v-0.2c0-0.1,0-0.2,0-0.2l-0.1-0.1H49
				c-0.1,0-0.1,0-0.1,0c-0.1,0-0.2-0.1-0.2-0.2s0.1-0.2,0.2-0.2c0,0,0,0,0.1,0h0.2c0.1,0,0.1,0,0.1,0c0.1,0,0.1,0,0.1,0
				C49.7,24.1,49.7,24.2,49.7,24.3z"/>
			<path class="st0" d="M53.9,25c0-0.1,0.1-0.2,0.3-0.3c0-0.1-0.1-0.2-0.2-0.3c-0.1-0.1-0.2-0.1-0.4-0.1s-0.4,0.1-0.6,0.3
				c-0.2,0.2-0.2,0.5-0.2,0.8s0.1,0.6,0.2,0.8c0.1,0.2,0.3,0.3,0.6,0.3c0.2,0,0.3,0,0.4-0.1c0.1-0.1,0.2-0.2,0.2-0.4
				c0-0.1,0.1-0.2,0.1-0.2c0-0.1,0.1-0.1,0.2-0.1c0.1,0,0.1,0,0.2,0.1l0.1,0.1c0,0.1,0,0.2-0.1,0.3c-0.1,0.1-0.1,0.2-0.2,0.3
				c-0.2,0.2-0.5,0.3-0.8,0.3c-0.4,0-0.7-0.1-0.9-0.4s-0.3-0.6-0.3-1s0.1-0.8,0.3-1.1c0.2-0.3,0.5-0.4,0.9-0.4
				c0.3,0,0.5,0.1,0.7,0.2c0.2,0.2,0.3,0.4,0.3,0.6c0,0.1,0,0.2-0.1,0.3c-0.1,0.1-0.2,0.1-0.3,0.1s-0.2,0-0.2-0.1
				C53.9,25.2,53.9,25.1,53.9,25z"/>
			<path class="st0" d="M55.9,25.2v0.7c0,0.2,0,0.3,0,0.3c0,0.2,0.1,0.2,0.1,0.2h0.1c0,0,0,0,0.1,0s0.2,0.1,0.2,0.2
				c0,0,0,0.1-0.1,0.1c0,0-0.1,0.1-0.2,0.1c-0.1,0-0.1,0-0.3,0c-0.1,0-0.2,0-0.3,0s-0.2,0-0.3,0s-0.2,0-0.3,0s-0.2-0.1-0.2-0.2
				s0.1-0.2,0.2-0.2H55h0.1c0.1,0,0.1-0.1,0.2-0.3c0,0,0-0.2,0-0.5v-0.4c0-0.3,0-0.4,0-0.5c0-0.2-0.1-0.3-0.2-0.3H55
				c-0.1,0-0.1,0-0.1,0c-0.1,0-0.2-0.1-0.2-0.2s0.1-0.2,0.2-0.2c0.1,0,0.1,0,0.1,0c0.1,0,0.2,0,0.2,0h0.1c0.1,0,0.1,0,0.1,0
				c0.1,0,0.2,0.1,0.2,0.2c0,0,0,0,0,0.1c0,0,0,0,0,0.1c0,0,0,0.1,0,0.3C55.9,24.9,55.9,25.1,55.9,25.2z M55.7,23.8
				c-0.1,0-0.2,0-0.2-0.1c-0.1-0.1-0.1-0.1-0.1-0.2s0-0.2,0.1-0.2c0.1-0.1,0.1-0.1,0.2-0.1c0.1,0,0.2,0,0.2,0.1
				c0.1,0.1,0.1,0.1,0.1,0.2s0,0.2-0.1,0.2C55.8,23.8,55.7,23.8,55.7,23.8z"/>
			<path class="st0" d="M60.8,24c0.2,0,0.4,0.1,0.6,0.2l0,0c0-0.1,0.1-0.2,0.2-0.2s0.2,0.1,0.2,0.2c0,0,0,0.1,0,0.2s0,0.1,0,0.2
				c0,0,0,0.1,0,0.2s0,0.1,0,0.2s-0.1,0.2-0.2,0.2s-0.2-0.1-0.2-0.2v-0.2c0-0.1-0.1-0.2-0.2-0.3c-0.1-0.1-0.3-0.1-0.4-0.1
				c-0.2,0-0.3,0-0.4,0.1s-0.2,0.2-0.2,0.3c0,0.2,0.2,0.4,0.5,0.4H61c0.6,0.1,0.9,0.3,0.9,0.8c0,0.3-0.1,0.5-0.3,0.6
				c-0.2,0.2-0.5,0.2-0.8,0.2s-0.6-0.1-0.8-0.3v0.1c0,0.1-0.1,0.2-0.2,0.2s-0.2-0.1-0.2-0.2c0,0,0-0.1,0-0.3v-0.1c0-0.1,0-0.2,0-0.2
				c0-0.1,0-0.1,0-0.2s0.1-0.2,0.2-0.2s0.1,0,0.1,0.1c0,0,0,0.1,0,0.3c0,0.2,0.1,0.3,0.2,0.4c0.2,0.1,0.4,0.1,0.6,0.1s0.3,0,0.4-0.1
				s0.2-0.2,0.2-0.3c0-0.2-0.2-0.4-0.6-0.4s-0.6-0.1-0.8-0.2c-0.2-0.1-0.3-0.3-0.3-0.6c0-0.2,0.1-0.4,0.3-0.6
				C60.3,24.1,60.5,24,60.8,24z"/>
			<path class="st0" d="M64.3,23.9c0-0.3-0.1-0.4-0.3-0.4c-0.1,0-0.1,0-0.1,0c-0.1,0-0.1,0-0.1,0s-0.1,0-0.1-0.1v-0.1
				c0-0.1,0.1-0.2,0.2-0.2c0,0,0,0,0.1,0c0.5,0,0.8,0.1,0.7,0.1h0.1h1.3c0,0,0.1,0,0.3,0c0.1,0,0.1,0,0.2,0c0.2,0,0.3,0.1,0.3,0.2
				c0,0,0,0.1,0,0.3c0,0.1,0,0.2,0,0.3c0,0.1,0,0.2,0,0.3c0,0.1,0,0.2,0,0.2c0,0.1-0.1,0.2-0.2,0.2s-0.2-0.1-0.2-0.3v-0.3
				c0-0.3-0.1-0.5-0.2-0.5s-0.3-0.1-0.7-0.1c-0.3,0-0.4,0-0.4,0c-0.2,0-0.2,0.1-0.2,0.3V24v0.1c0,0.1,0,0.1,0,0.1v0.1
				c0,0.1,0,0.2,0.1,0.2h0.1h0.2c0.2,0,0.3-0.1,0.3-0.2c0,0,0-0.1,0-0.2s0-0.1,0-0.2s0.1-0.2,0.2-0.2s0.2,0.1,0.2,0.2
				c0,0,0,0.1,0,0.3c0,0.2,0,0.3,0,0.4s0,0.2,0,0.4c0,0,0,0.1,0,0.2s0,0.1,0,0.2s-0.1,0.2-0.2,0.2s-0.2-0.1-0.2-0.2c0,0,0-0.1,0-0.2
				s0-0.1,0-0.2c0-0.2-0.1-0.2-0.3-0.2h-0.2c-0.1,0-0.2,0-0.2,0.1c0,0,0,0.1,0,0.2v0.3c0,0.1,0,0.1,0,0.2s0,0.2,0,0.2
				c0,0.1,0,0.2,0.1,0.3c0,0,0.1,0,0.3,0h0.7c0.2,0,0.4,0,0.4-0.1c0.1-0.1,0.1-0.2,0.1-0.4c0-0.1,0-0.1,0-0.2s0-0.2,0-0.2
				c0-0.2,0.1-0.2,0.2-0.2s0.2,0.1,0.2,0.3c0,0.1,0,0.2,0,0.3c0,0.1,0,0.2,0,0.3c0,0.1,0,0.1,0,0.2s0,0.2,0,0.2
				c0,0.2-0.1,0.3-0.2,0.3c0,0-0.1,0-0.2,0c0,0-0.1,0-0.2,0c0,0-0.1,0-0.4,0s-0.6,0-0.8,0c-0.3,0-0.7,0-1,0l0,0l0,0
				c-0.1,0-0.2-0.1-0.2-0.2s0.1-0.2,0.2-0.2h0.1h0.1c0.2,0,0.3-0.1,0.3-0.4v-1.9H64.3z"/>
			<path class="st0" d="M68.9,25c0-0.1,0.1-0.2,0.3-0.3c0-0.1-0.1-0.2-0.2-0.3c-0.1-0.1-0.2-0.1-0.4-0.1c-0.2,0-0.4,0.1-0.6,0.3
				c-0.2,0.2-0.2,0.5-0.2,0.8s0.1,0.6,0.2,0.8c0.1,0.2,0.3,0.3,0.6,0.3c0.2,0,0.3,0,0.4-0.1s0.2-0.2,0.2-0.4c0-0.1,0.1-0.2,0.1-0.2
				c0-0.1,0.1-0.1,0.2-0.1s0.1,0,0.1,0.1l0.1,0.1c0,0.1,0,0.2-0.1,0.3c-0.1,0.1-0.1,0.2-0.2,0.3c-0.2,0.2-0.5,0.3-0.8,0.3
				c-0.4,0-0.7-0.1-0.9-0.4c-0.2-0.3-0.3-0.6-0.3-1s0.1-0.8,0.3-1.1c0.2-0.3,0.5-0.4,0.9-0.4c0.3,0,0.5,0.1,0.7,0.2
				c0.2,0.2,0.3,0.4,0.3,0.6c0,0.1,0,0.2-0.1,0.3c-0.1,0.1-0.2,0.1-0.3,0.1C69.1,25.1,69,25.1,68.9,25C68.9,25.2,68.9,25.1,68.9,25z
				"/>
			<path class="st0" d="M71.3,26.9c-0.4,0-0.7-0.1-0.9-0.4c-0.2-0.3-0.3-0.6-0.3-1s0.1-0.8,0.3-1c0.2-0.3,0.5-0.4,0.9-0.4
				s0.7,0.1,0.9,0.4c0.2,0.3,0.3,0.6,0.3,1s-0.1,0.8-0.3,1.1C72,26.8,71.7,26.9,71.3,26.9z M71.3,24.4c-0.3,0-0.4,0.1-0.6,0.3
				c-0.1,0.2-0.2,0.4-0.2,0.7v0.1c0,0.3,0.1,0.6,0.2,0.8c0.1,0.2,0.3,0.3,0.6,0.3c0.3,0,0.5-0.1,0.6-0.3c0.1-0.2,0.2-0.5,0.2-0.8
				C72.2,24.7,71.9,24.4,71.3,24.4z"/>
			<path class="st0" d="M73.8,24.3v0.2c0.2-0.3,0.5-0.4,0.9-0.4c0.2,0,0.4,0,0.5,0.1c0.2,0.1,0.3,0.2,0.3,0.4
				c0.1,0.1,0.1,0.3,0.1,0.5v1c0,0.2,0,0.2,0,0.3c0,0.1,0.1,0.2,0.1,0.2h0.1c0.1,0,0.1,0,0.1,0H76l0.1,0.1c0,0.1,0,0.1-0.1,0.1
				c0,0-0.1,0.1-0.2,0.1s-0.1,0-0.2,0s-0.2,0-0.3,0c-0.1,0-0.2,0-0.2,0c-0.2,0-0.3,0-0.3,0c-0.1,0-0.2-0.1-0.2-0.2s0.1-0.2,0.2-0.2
				h0.1c0.1,0,0.1,0,0.1,0c0.1,0,0.1-0.1,0.1-0.3v-0.3v-0.3v-0.4c0-0.2,0-0.3,0-0.4s-0.1-0.2-0.2-0.3c-0.1-0.1-0.3-0.1-0.4-0.1
				c-0.3,0-0.5,0.1-0.6,0.3c-0.1,0.1-0.1,0.4-0.1,0.7v0.7c0,0.2,0,0.3,0,0.3c0,0.1,0.1,0.1,0.1,0.1H74c0.1,0,0.1,0,0.1,0
				c0.1,0,0.2,0.1,0.2,0.2s-0.1,0.2-0.2,0.2c0,0-0.1,0-0.3,0c-0.1,0-0.2,0-0.3,0c-0.1,0-0.2,0-0.3,0c-0.2,0-0.2,0-0.3,0
				c-0.1,0-0.2-0.1-0.2-0.2s0.1-0.2,0.2-0.2H73c0.1,0,0.1,0,0.1,0c0.1,0,0.2-0.1,0.2-0.3v-0.6V25v-0.2c0-0.1,0-0.2,0-0.2l-0.1-0.1
				h-0.1H73c-0.1,0-0.2-0.1-0.2-0.2s0.1-0.2,0.2-0.2c0,0,0,0,0.1,0h0.2c0.1,0,0.1,0,0.2,0s0.1,0,0.1,0
				C73.8,24.1,73.8,24.2,73.8,24.3z"/>
			<path class="st0" d="M77.7,26.9c-0.4,0-0.7-0.1-0.9-0.4c-0.2-0.3-0.3-0.6-0.3-1s0.1-0.8,0.3-1c0.2-0.3,0.5-0.4,0.9-0.4
				s0.7,0.1,0.9,0.4c0.2,0.3,0.3,0.6,0.3,1s-0.1,0.8-0.3,1.1C78.4,26.8,78,26.9,77.7,26.9z M77.7,24.4c-0.2,0-0.4,0.1-0.6,0.3
				c-0.1,0.2-0.2,0.4-0.2,0.7v0.1c0,0.3,0.1,0.6,0.2,0.8c0.1,0.2,0.3,0.3,0.6,0.3c0.3,0,0.5-0.1,0.6-0.3c0.2-0.2,0.2-0.5,0.2-0.8
				C78.5,24.7,78.2,24.4,77.7,24.4z M78.3,23.2c0,0.1-0.1,0.2-0.2,0.2l-0.8,0.4c-0.1,0-0.1,0-0.1,0c-0.1,0-0.1,0-0.1-0.1
				c0,0,0-0.1,0.1-0.1l0.7-0.4c0.1,0,0.1-0.1,0.2-0.1C78.2,23,78.3,23.1,78.3,23.2z"/>
			<path class="st0" d="M80.2,24.3v0.2c0.1-0.2,0.2-0.3,0.4-0.3c0.1-0.1,0.3-0.1,0.4-0.1c0.3,0,0.6,0.1,0.8,0.4
				c0.1-0.2,0.2-0.3,0.4-0.3c0.1-0.1,0.3-0.1,0.5-0.1s0.4,0,0.5,0.1c0.2,0.1,0.3,0.2,0.4,0.4c0,0.1,0.1,0.3,0.1,0.6v0.5V26
				c0,0.1,0,0.2,0,0.3c0,0.1,0.1,0.2,0.1,0.2h0.1c0.1,0,0.1,0,0.1,0c0.1,0,0.2,0.1,0.2,0.2s-0.1,0.2-0.2,0.2s-0.1,0-0.2,0
				s-0.2,0-0.3,0c-0.1,0-0.1,0-0.3,0c-0.1,0-0.2,0-0.3,0c-0.2,0-0.2-0.1-0.2-0.2s0.1-0.2,0.2-0.2H83h0.1c0.1,0,0.1,0,0.1-0.1
				s0-0.2,0-0.5v-0.3v-0.4c0-0.2,0-0.4-0.1-0.5c0-0.1-0.1-0.2-0.2-0.3c-0.1-0.1-0.2-0.1-0.4-0.1c-0.3,0-0.4,0.1-0.5,0.3
				c-0.1,0.1-0.1,0.4-0.1,0.7v0.4c0,0.3,0,0.5,0,0.6s0.1,0.1,0.1,0.1h0.1h0.1c0.1,0,0.1,0,0.1,0.1l0.1,0.1c0,0.1-0.1,0.2-0.3,0.2
				c-0.1,0-0.1,0-0.2,0s-0.2,0-0.2,0c-0.1,0-0.2,0-0.2,0c-0.1,0-0.2,0-0.2,0c-0.1,0-0.2-0.1-0.2-0.2s0.1-0.2,0.2-0.2h0.1h0.1
				c0.1,0,0.1-0.1,0.1-0.3v-0.3c0-0.1,0-0.2,0-0.2c0-0.1,0-0.1,0-0.1v-0.4c0-0.3,0-0.5-0.1-0.7c-0.1-0.1-0.2-0.2-0.4-0.2
				c-0.2,0-0.4,0.1-0.5,0.3c-0.1,0.1-0.2,0.4-0.2,0.7v0.7c0,0.1,0,0.2,0,0.3c0,0.1,0.1,0.2,0.1,0.2h0.1l0,0l0,0
				c0.1,0,0.2,0.1,0.2,0.2s-0.1,0.2-0.2,0.2s-0.1,0-0.2,0s-0.2,0-0.3,0c0,0-0.1,0-0.2,0c-0.2,0-0.2,0-0.3,0c-0.1,0-0.2-0.1-0.2-0.2
				s0.1-0.2,0.2-0.2l0,0l0,0h0.1l0,0c0.1,0,0.1-0.1,0.2-0.3v-0.3V25c0-0.3,0-0.5,0-0.6s-0.1-0.1-0.1-0.1s-0.1,0-0.2,0h-0.1
				c-0.1,0-0.2-0.1-0.2-0.2s0.1-0.2,0.2-0.2c0,0,0.1,0,0.2,0s0.1,0,0.2,0c0,0,0,0,0.1,0l0,0h0.1l0,0C80.1,24.1,80.2,24.2,80.2,24.3z
				"/>
			<path class="st0" d="M85.2,25.2v0.7c0,0.2,0,0.3,0,0.3c0,0.2,0.1,0.2,0.1,0.2h0.1c0,0,0,0,0.1,0s0.2,0.1,0.2,0.2
				c0,0,0,0.1-0.1,0.1c0,0-0.1,0.1-0.2,0.1s-0.1,0-0.3,0c-0.1,0-0.2,0-0.3,0c-0.1,0-0.2,0-0.3,0c-0.1,0-0.2,0-0.3,0
				c-0.1,0-0.2-0.1-0.2-0.2s0.1-0.2,0.2-0.2h0.1c0.1,0,0.1,0,0.1,0c0.1,0,0.1-0.1,0.2-0.3c0,0,0-0.2,0-0.5v-0.4c0-0.3,0-0.4,0-0.5
				c0-0.2-0.1-0.3-0.2-0.3h-0.1c-0.1,0-0.1,0-0.1,0c-0.1,0-0.2-0.1-0.2-0.2s0.1-0.2,0.2-0.2s0.1,0,0.1,0c0.1,0,0.2,0,0.2,0h0.1
				c0.1,0,0.1,0,0.1,0c0.1,0,0.2,0.1,0.2,0.2c0,0,0,0,0,0.1c0,0,0,0,0,0.1c0,0,0,0.1,0,0.3C85.2,24.9,85.2,25.1,85.2,25.2z
				 M84.9,23.8c-0.1,0-0.2,0-0.2-0.1c-0.1-0.1-0.1-0.1-0.1-0.2s0-0.2,0.1-0.2c0.1-0.1,0.1-0.1,0.2-0.1s0.2,0,0.2,0.1
				c0.1,0.1,0.1,0.1,0.1,0.2s0,0.2-0.1,0.2C85.1,23.8,85,23.8,84.9,23.8z"/>
			<path class="st0" d="M87.6,25c0-0.1,0.1-0.2,0.3-0.3c0-0.1-0.1-0.2-0.2-0.3c-0.1-0.1-0.2-0.1-0.4-0.1c-0.2,0-0.4,0.1-0.6,0.3
				c-0.2,0.2-0.2,0.5-0.2,0.8s0.1,0.6,0.2,0.8c0.1,0.2,0.3,0.3,0.6,0.3c0.2,0,0.3,0,0.4-0.1s0.2-0.2,0.2-0.4c0-0.1,0.1-0.2,0.1-0.2
				c0-0.1,0.1-0.1,0.2-0.1s0.1,0,0.2,0.1l0.1,0.1c0,0.1,0,0.2-0.1,0.3c-0.1,0.1-0.1,0.2-0.2,0.3c-0.2,0.2-0.5,0.3-0.8,0.3
				c-0.4,0-0.7-0.1-0.9-0.4c-0.2-0.3-0.3-0.6-0.3-1s0.1-0.8,0.3-1.1c0.2-0.3,0.5-0.4,0.9-0.4c0.3,0,0.5,0.1,0.7,0.2
				c0.2,0.2,0.3,0.4,0.3,0.6c0,0.1,0,0.2-0.1,0.3c-0.1,0.1-0.2,0.1-0.3,0.1c-0.1,0-0.2,0-0.2-0.1C87.6,25.2,87.6,25.1,87.6,25z"/>
			<path class="st0" d="M97.1,24c0.4,0,0.6,0.1,0.8,0.4v-0.5c0-0.1,0-0.2,0-0.3c0-0.1-0.1-0.2-0.2-0.2h-0.1c-0.1,0-0.1,0-0.1,0
				c-0.1,0-0.2-0.1-0.2-0.2s0.1-0.2,0.3-0.2c0,0,0.1,0,0.2,0s0.2,0,0.2,0h0.1c0.1,0,0.1,0,0.1,0c0.1,0,0.1,0.1,0.1,0.2v0.1
				c0,0,0,0.1,0,0.3c0,0,0,0.2,0,0.4c0,0.2,0,0.3,0,0.4v0.5V26c0,0.2,0,0.4,0,0.4c0,0.1,0.1,0.1,0.1,0.1h0.1c0.1,0,0.1,0,0.1,0
				c0.1,0,0.2,0.1,0.2,0.2s-0.1,0.2-0.2,0.2c0,0-0.1,0-0.2,0s-0.1,0-0.2,0h-0.1H98c-0.1,0-0.1-0.1-0.1-0.2l0,0v-0.1
				c-0.2,0.3-0.5,0.4-0.8,0.4c-0.4,0-0.7-0.1-0.9-0.4c-0.2-0.3-0.3-0.6-0.3-1s0.1-0.8,0.3-1C96.5,24.2,96.8,24,97.1,24z M97.9,25.9
				c0-0.1,0-0.3,0-0.5s0-0.4,0-0.5c0-0.2-0.1-0.3-0.2-0.4s-0.3-0.2-0.5-0.2c-0.3,0-0.4,0.1-0.6,0.3c-0.1,0.2-0.2,0.4-0.2,0.8
				c0,0.3,0.1,0.6,0.2,0.8c0.2,0.2,0.4,0.3,0.6,0.3s0.4-0.1,0.5-0.2C97.8,26.3,97.9,26.1,97.9,25.9z"/>
			<path class="st0" d="M101.6,25.2c0,0.1,0,0.2,0,0.2s-0.1,0-0.2,0h-1.7h-0.1c0,0,0,0,0,0.1c0,0.3,0.1,0.5,0.2,0.7
				c0.2,0.2,0.4,0.3,0.6,0.3s0.3,0,0.4-0.1s0.2-0.2,0.3-0.3v-0.2c0-0.1,0.1-0.1,0.2-0.1s0.2,0.1,0.2,0.2c0,0.2-0.1,0.4-0.4,0.6
				c-0.2,0.2-0.5,0.3-0.8,0.3c-0.4,0-0.7-0.1-0.9-0.4c-0.2-0.3-0.3-0.6-0.3-1s0.1-0.8,0.4-1.1c0.2-0.3,0.5-0.4,0.9-0.4
				c0.3,0,0.6,0.1,0.8,0.3C101.5,24.6,101.6,24.9,101.6,25.2z M99.7,25.1C99.7,25.2,99.7,25.2,99.7,25.1l1.4,0.1
				c0.1,0,0.1,0,0.1-0.1c0-0.2-0.1-0.4-0.2-0.5s-0.3-0.2-0.5-0.2s-0.4,0.1-0.5,0.2C99.7,24.7,99.7,24.9,99.7,25.1z"/>
			<path class="st0" d="M104.2,24.6v1.7c0,0.2,0.1,0.3,0.1,0.3h0.1h0.1c0.1,0,0.2,0.1,0.2,0.2s-0.1,0.2-0.2,0.2s-0.1,0-0.3,0
				c-0.1,0-0.2,0-0.3,0c-0.1,0-0.1,0-0.3,0c-0.1,0-0.2,0-0.3,0l0,0c-0.1,0-0.2-0.1-0.2-0.2s0.1-0.2,0.2-0.2l0,0c0,0,0,0,0.1,0
				s0.1,0,0.2,0s0.1,0,0.1-0.1s0-0.2,0-0.4v-0.4v-0.8v-1c0-0.1,0-0.2,0-0.2c0-0.1-0.1-0.1-0.1-0.1h-0.1h-0.1c-0.1,0-0.2-0.1-0.2-0.2
				s0.1-0.2,0.2-0.2h0.1h0.1c0.1,0,0.1,0,0.1,0s0.1,0,0.2,0s0.1,0,0.2,0s0.1,0.1,0.1,0.2v0.1C104.2,23.7,104.2,24.1,104.2,24.6z"/>
			<path class="st0" d="M107.3,26.9c-0.3,0-0.5-0.1-0.5-0.4c-0.2,0.3-0.5,0.4-0.9,0.4c-0.3,0-0.5-0.1-0.7-0.2s-0.3-0.3-0.3-0.6
				c0-0.3,0.1-0.5,0.4-0.7c0.1-0.1,0.2-0.1,0.3-0.1c0.1,0,0.2,0,0.4-0.1c0.3,0,0.5-0.1,0.6-0.1c0.1-0.1,0.1-0.2,0.1-0.3
				c0-0.1-0.1-0.3-0.2-0.3c-0.1-0.1-0.2-0.1-0.4-0.1c-0.2,0-0.3,0-0.4,0.1c-0.1,0-0.1,0.1-0.1,0.1s0,0,0,0.1c0.1,0,0.1,0.1,0.1,0.2
				s0,0.1-0.1,0.2c-0.1,0-0.1,0.1-0.2,0.1s-0.2,0-0.2-0.1c-0.1-0.1-0.1-0.1-0.1-0.2c0-0.2,0.1-0.4,0.3-0.5c0.2-0.1,0.4-0.2,0.7-0.2
				c0.6,0,1,0.3,1,0.9V26c0,0.2,0,0.3,0,0.3c0,0.1,0.1,0.2,0.2,0.2s0.2-0.1,0.2-0.3v-0.3c0-0.1,0.1-0.2,0.2-0.2s0.2,0.1,0.2,0.3l0,0
				v0.3C107.8,26.7,107.7,26.9,107.3,26.9z M106.7,25.8v-0.4c-0.1,0.1-0.2,0.1-0.3,0.2s-0.2,0.1-0.5,0.1c-0.4,0-0.6,0.2-0.6,0.5
				c0,0.1,0,0.2,0.1,0.3c0.1,0.1,0.2,0.1,0.4,0.1c0.2,0,0.4-0.1,0.6-0.2C106.6,26.2,106.7,26,106.7,25.8z"/>
			<path class="st0" d="M111,23.1c0.4,0,0.7,0.2,1,0.5v-0.1c0,0,0,0,0-0.1l0,0c0-0.1,0-0.1,0-0.1c0-0.1,0.1-0.2,0.2-0.2
				s0.2,0.1,0.2,0.2c0,0,0,0.1,0,0.3c0,0.2,0,0.3,0,0.4s0,0.2,0,0.3v0.2v0.1c0,0.2-0.1,0.2-0.2,0.2s-0.2-0.1-0.2-0.2v-0.2
				c0-0.3-0.1-0.5-0.2-0.6c-0.2-0.2-0.4-0.2-0.7-0.2c-0.4,0-0.6,0.1-0.8,0.4c-0.2,0.3-0.3,0.6-0.3,1.1s0.1,0.9,0.3,1.2
				c0.2,0.3,0.5,0.4,0.9,0.4c0.2,0,0.4,0,0.5-0.1c0.2-0.1,0.3-0.2,0.3-0.4c0-0.1,0.1-0.2,0.1-0.4c0-0.2,0.1-0.2,0.2-0.2
				s0.2,0.1,0.2,0.2c0,0.4-0.1,0.7-0.4,0.9c-0.3,0.2-0.6,0.4-1,0.4c-0.5,0-0.9-0.2-1.2-0.5c-0.3-0.3-0.4-0.8-0.4-1.4
				s0.1-1.1,0.4-1.4C110.1,23.3,110.5,23.1,111,23.1z"/>
			<path class="st0" d="M113.6,25.2v0.7c0,0.2,0,0.3,0,0.3c0,0.2,0.1,0.2,0.1,0.2h0.1c0,0,0,0,0.1,0s0.2,0.1,0.2,0.2s0,0.1-0.1,0.1
				c0,0-0.1,0.1-0.2,0.1s-0.1,0-0.3,0c-0.1,0-0.2,0-0.3,0c-0.1,0-0.2,0-0.3,0c-0.1,0-0.2,0-0.3,0c-0.1,0-0.2-0.1-0.2-0.2
				s0.1-0.2,0.2-0.2h0.1c0.1,0,0.1,0,0.1,0c0.1,0,0.1-0.1,0.2-0.3c0,0,0-0.2,0-0.5v-0.4c0-0.3,0-0.4,0-0.5c0-0.2-0.1-0.3-0.2-0.3
				h-0.1c-0.1,0-0.1,0-0.1,0c-0.1,0-0.2-0.1-0.2-0.2s0.1-0.2,0.2-0.2s0.1,0,0.1,0c0.1,0,0.2,0,0.2,0h0.1c0.1,0,0.1,0,0.1,0
				c0.1,0,0.2,0.1,0.2,0.2c0,0,0,0,0,0.1v0.1c0,0,0,0.1,0,0.3C113.6,24.9,113.6,25.1,113.6,25.2z M113.4,23.8c-0.1,0-0.2,0-0.2-0.1
				c-0.1-0.1-0.1-0.1-0.1-0.2s0-0.1,0.1-0.2s0.1-0.1,0.2-0.1s0.2,0,0.2,0.1c0.1,0.1,0.1,0.1,0.1,0.2s0,0.2-0.1,0.2
				C113.5,23.8,113.5,23.8,113.4,23.8z"/>
			<path class="st0" d="M116.6,26.7v-0.2c-0.2,0.3-0.5,0.4-0.8,0.4c-0.4,0-0.7-0.1-0.9-0.4c-0.1-0.1-0.1-0.2-0.1-0.4
				c0-0.1,0-0.2,0-0.5v-0.4c0-0.5-0.1-0.7-0.2-0.7h-0.1h-0.1c-0.1,0-0.2-0.1-0.2-0.2s0.1-0.2,0.2-0.2c0,0,0.1,0,0.2,0s0.1,0,0.2,0
				c0,0,0.1,0,0.2,0s0.1,0,0.1,0c0.1,0,0.2,0.1,0.2,0.2v0.1v0.3v0.4v0.3c0,0.3,0,0.5,0.1,0.7s0.3,0.3,0.6,0.3c0.2,0,0.3,0,0.4-0.1
				s0.2-0.2,0.2-0.3c0.1-0.1,0.1-0.4,0.1-0.8v-0.3c0-0.2,0-0.3,0-0.3c0-0.2-0.1-0.3-0.1-0.3h-0.1h-0.2c-0.1,0-0.2-0.1-0.2-0.2
				s0.1-0.2,0.2-0.2h0.1c0.1,0,0.1,0,0.1,0h0.1c0.1,0,0.1,0,0.1,0c0.1,0,0.2,0.1,0.2,0.2s0,0.1,0,0.1c0,0.1,0,0.3,0,0.6v0.8
				c0,0.2,0,0.3,0,0.4c0,0.2,0.1,0.3,0.2,0.3h0.1h0.1c0.1,0,0.2,0.1,0.2,0.2s-0.1,0.2-0.2,0.2h-0.1c-0.1,0-0.1,0-0.2,0
				c0,0,0,0-0.1,0h-0.1C116.7,26.8,116.6,26.8,116.6,26.7z"/>
			<path class="st0" d="M119,24c0.4,0,0.6,0.1,0.8,0.4v-0.5c0-0.1,0-0.2,0-0.3c0-0.1-0.1-0.2-0.1-0.2h-0.1c-0.1,0-0.1,0-0.1,0
				c-0.1,0-0.2-0.1-0.2-0.2s0.1-0.2,0.3-0.2c0,0,0.1,0,0.2,0s0.2,0,0.2,0h0.1c0.1,0,0.1,0,0.1,0c0.1,0,0.2,0.1,0.2,0.2v0.1
				c0,0,0,0.1,0,0.3c0,0,0,0.2,0,0.4c0,0.2,0,0.3,0,0.4v0.5V26c0,0.2,0,0.4,0,0.4c0,0.1,0.1,0.1,0.1,0.1h0.1c0.1,0,0.1,0,0.1,0
				c0.1,0,0.2,0.1,0.2,0.2s-0.1,0.2-0.2,0.2c0,0-0.1,0-0.2,0s-0.1,0-0.2,0h-0.1h-0.1c-0.1,0-0.1-0.1-0.1-0.2l0,0v-0.1
				c-0.2,0.3-0.5,0.4-0.8,0.4c-0.4,0-0.7-0.1-0.9-0.4c-0.2-0.3-0.3-0.6-0.3-1s0.1-0.8,0.3-1C118.3,24.2,118.6,24,119,24z
				 M119.7,25.9c0-0.1,0-0.3,0-0.5s0-0.4,0-0.5c0-0.2-0.1-0.3-0.2-0.4s-0.3-0.2-0.5-0.2c-0.3,0-0.5,0.1-0.6,0.3
				c-0.1,0.2-0.2,0.4-0.2,0.8c0,0.3,0.1,0.6,0.2,0.8c0.1,0.2,0.4,0.3,0.6,0.3s0.4-0.1,0.5-0.2C119.6,26.3,119.7,26.1,119.7,25.9z"/>
			<path class="st0" d="M125,24c0.4,0,0.6,0.1,0.8,0.4v-0.5c0-0.1,0-0.2,0-0.3c0-0.1-0.1-0.2-0.1-0.2h-0.1c-0.1,0-0.1,0-0.1,0
				c-0.1,0-0.2-0.1-0.2-0.2s0.1-0.2,0.3-0.2c0,0,0.1,0,0.2,0c0.1,0,0.2,0,0.2,0h0.1h0.1c0.1,0,0.1,0.1,0.1,0.2v0.1c0,0,0,0.1,0,0.3
				c0,0,0,0.2,0,0.4c0,0.2,0,0.3,0,0.4v0.5V26c0,0.2,0,0.4,0,0.4c0,0.1,0.1,0.1,0.1,0.1h0.1c0.1,0,0.1,0,0.1,0
				c0.1,0,0.2,0.1,0.2,0.2s-0.1,0.2-0.2,0.2c0,0-0.1,0-0.2,0c-0.1,0-0.1,0-0.2,0h-0.1H126c-0.1,0-0.1-0.1-0.1-0.2l0,0v-0.1
				c-0.2,0.3-0.5,0.4-0.8,0.4c-0.4,0-0.7-0.1-0.9-0.4s-0.3-0.6-0.3-1s0.1-0.8,0.3-1C124.3,24.2,124.6,24,125,24z M125.8,25.9
				c0-0.1,0-0.3,0-0.5s0-0.4,0-0.5c0-0.2-0.1-0.3-0.2-0.4c-0.1-0.1-0.3-0.2-0.5-0.2c-0.3,0-0.4,0.1-0.6,0.3
				c-0.1,0.2-0.2,0.4-0.2,0.8c0,0.3,0.1,0.6,0.2,0.8c0.1,0.2,0.3,0.3,0.6,0.3c0.2,0,0.4-0.1,0.5-0.2
				C125.7,26.3,125.7,26.1,125.8,25.9z"/>
			<path class="st0" d="M131,26.2l-0.2-0.5c0-0.1,0-0.1-0.1-0.1h-0.1h-1c-0.1,0-0.1,0-0.1,0s-0.1,0.1-0.1,0.2l-0.2,0.4v0.1
				c0,0.1,0.1,0.2,0.2,0.2c0,0,0.1,0,0.2,0c0.1,0,0.1,0,0.1,0c0.1,0,0.2,0.1,0.2,0.2s-0.1,0.2-0.2,0.2h-0.1h-0.3c0,0-0.1,0-0.2,0
				c-0.1,0-0.2,0-0.3,0h-0.2c-0.1,0-0.2,0-0.2,0c-0.1,0-0.2-0.1-0.2-0.2s0.1-0.2,0.2-0.2h0.1h0.1c0.1,0,0.2,0,0.2-0.1
				c0,0,0.1-0.1,0.1-0.3l1-2.7c0.1-0.2,0.2-0.2,0.3-0.2c0.2,0,0.3,0.1,0.3,0.2l1,2.7c0.1,0.2,0.1,0.3,0.2,0.3
				c0.1,0.1,0.1,0.1,0.2,0.1c0,0,0,0,0.1,0h0.1c0.1,0,0.2,0.1,0.2,0.2s-0.1,0.2-0.2,0.2c0,0-0.1,0-0.2,0c-0.2,0-0.4,0-0.5,0
				s-0.3,0-0.6,0c-0.1,0-0.1,0-0.2,0c-0.1,0-0.2-0.1-0.2-0.2s0.1-0.2,0.2-0.2h0.1c0.1,0,0.1,0,0.1,0c0.1,0,0.2,0,0.2-0.1
				C131.1,26.3,131,26.3,131,26.2z M130.6,25.1l-0.5-1.5l-0.5,1.5l0,0c0,0,0,0,0.1,0H130.6C130.6,25.2,130.6,25.2,130.6,25.1
				L130.6,25.1z"/>
			<path class="st0" d="M134.5,26.7v-0.2c-0.2,0.3-0.5,0.4-0.8,0.4c-0.4,0-0.7-0.1-0.9-0.4c-0.1-0.1-0.1-0.2-0.1-0.4
				c0-0.1,0-0.2,0-0.5v-0.4c0-0.5-0.1-0.7-0.2-0.7h-0.1h-0.1c-0.1,0-0.2-0.1-0.2-0.2s0.1-0.2,0.2-0.2c0,0,0.1,0,0.2,0
				c0.1,0,0.1,0,0.2,0c0,0,0.1,0,0.2,0c0.1,0,0.1,0,0.1,0c0.1,0,0.2,0.1,0.2,0.2v0.1v0.3v0.4v0.3c0,0.3,0,0.5,0.1,0.7
				s0.3,0.3,0.6,0.3c0.2,0,0.3,0,0.4-0.1c0.1-0.1,0.2-0.2,0.2-0.3c0.1-0.1,0.1-0.4,0.1-0.8v-0.3c0-0.2,0-0.3,0-0.3
				c0-0.2-0.1-0.3-0.1-0.3h-0.1h-0.1c-0.1,0-0.2-0.1-0.2-0.2s0.1-0.2,0.2-0.2h0.1c0.1,0,0.1,0,0.1,0h0.1c0.1,0,0.1,0,0.1,0
				c0.1,0,0.2,0.1,0.2,0.2s0,0.1,0,0.1c0,0.1,0,0.3,0,0.6v0.8c0,0.2,0,0.3,0,0.4c0,0.2,0.1,0.3,0.2,0.3h0.1h0.1
				c0.1,0,0.2,0.1,0.2,0.2s-0.1,0.2-0.2,0.2h-0.1c-0.1,0-0.1,0-0.2,0h-0.1h-0.1C134.5,26.8,134.5,26.8,134.5,26.7z"/>
			<path class="st0" d="M137.1,26.1v-0.3c0-0.1,0.1-0.2,0.2-0.2c0.1,0,0.2,0.1,0.2,0.2c0,0.4-0.1,0.7-0.1,0.8
				c-0.1,0.2-0.4,0.3-0.7,0.3s-0.5-0.1-0.6-0.3c-0.1-0.1-0.1-0.4-0.1-0.7v-1.3c0-0.1,0-0.1-0.1-0.1h-0.2c-0.1,0-0.1,0-0.1-0.1
				l-0.1-0.1c0,0,0-0.1,0.1-0.1l0.1-0.1h0.2c0.1,0,0.1,0,0.1-0.1v-0.6c0-0.1,0.1-0.2,0.2-0.2c0.1,0,0.2,0.1,0.2,0.2V24
				c0,0.1,0,0.1,0.1,0.1h0.6c0.1,0,0.2,0.1,0.2,0.2s-0.1,0.2-0.2,0.2h-0.6c-0.1,0-0.1,0-0.1,0.1V26c0,0.4,0.1,0.6,0.4,0.6
				C136.9,26.5,137.1,26.4,137.1,26.1z"/>
			<path class="st0" d="M139,26.9c-0.4,0-0.7-0.1-0.9-0.4s-0.3-0.6-0.3-1s0.1-0.8,0.3-1c0.2-0.3,0.5-0.4,0.9-0.4s0.7,0.1,0.9,0.4
				s0.3,0.6,0.3,1s-0.1,0.8-0.3,1.1C139.7,26.8,139.4,26.9,139,26.9z M139,24.4c-0.3,0-0.4,0.1-0.6,0.3c-0.1,0.2-0.2,0.4-0.2,0.7
				v0.1c0,0.3,0.1,0.6,0.2,0.8c0.1,0.2,0.3,0.3,0.6,0.3s0.5-0.1,0.6-0.3c0.1-0.2,0.2-0.5,0.2-0.8C139.8,24.7,139.5,24.4,139,24.4z
				 M139.6,23.2c0,0.1-0.1,0.2-0.2,0.2l-0.8,0.3c-0.1,0-0.1,0-0.1,0c-0.1,0-0.1,0-0.1-0.1c0,0,0-0.1,0.1-0.1l0.7-0.4
				c0.1,0,0.1-0.1,0.2-0.1C139.5,23.1,139.6,23.1,139.6,23.2z"/>
			<path class="st0" d="M141.5,24.3v0.2c0.2-0.3,0.5-0.4,0.9-0.4c0.2,0,0.4,0.1,0.5,0.1c0.2,0.1,0.3,0.2,0.3,0.4
				c0.1,0.1,0.1,0.3,0.1,0.5v1c0,0.2,0,0.2,0,0.3c0,0.1,0.1,0.2,0.1,0.2h0.1c0.1,0,0.1,0,0.1,0s0.1,0,0.1,0.1l0.1,0.1
				c0,0.1,0,0.1-0.1,0.1c0,0-0.1,0.1-0.2,0.1c-0.1,0-0.1,0-0.2,0c-0.1,0-0.2,0-0.3,0s-0.2,0-0.2,0c-0.2,0-0.3,0-0.3,0
				c-0.1,0-0.2-0.1-0.2-0.2s0.1-0.2,0.2-0.2h0.1c0.1,0,0.1,0,0.1,0c0.1,0,0.1-0.1,0.1-0.3V26v-0.3v-0.4c0-0.2,0-0.3,0-0.4
				s-0.1-0.2-0.2-0.3c-0.1-0.1-0.3-0.1-0.4-0.1c-0.3,0-0.5,0.1-0.6,0.3c-0.1,0.1-0.1,0.4-0.1,0.7v0.7c0,0.2,0,0.3,0,0.3
				c0,0.1,0.1,0.1,0.1,0.1h0.1h0.1c0.1,0,0.2,0.1,0.2,0.2s-0.1,0.2-0.2,0.2c0,0-0.1,0-0.3,0c-0.1,0-0.2,0-0.3,0s-0.2,0-0.3,0
				c-0.2,0-0.2,0-0.3,0c-0.2,0-0.2-0.1-0.2-0.2s0.1-0.2,0.2-0.2h0.1c0.1,0,0.1,0,0.1,0c0.1,0,0.2-0.1,0.2-0.3v-0.6v-0.6v-0.2
				c0-0.1,0-0.2,0-0.2l-0.1-0.1h-0.1h-0.1c-0.1,0-0.2-0.1-0.2-0.2s0.1-0.2,0.2-0.2c0,0,0,0,0.1,0h0.2c0.1,0,0.1,0,0.2,0
				c0.1,0,0.1,0,0.1,0C141.4,24.1,141.5,24.2,141.5,24.3z"/>
			<path class="st0" d="M145.3,26.9c-0.4,0-0.7-0.1-0.9-0.4s-0.3-0.6-0.3-1s0.1-0.8,0.3-1c0.2-0.3,0.5-0.4,0.9-0.4s0.7,0.1,0.9,0.4
				s0.3,0.6,0.3,1s-0.1,0.8-0.3,1.1C146,26.8,145.7,26.9,145.3,26.9z M145.3,24.4c-0.3,0-0.4,0.1-0.6,0.3c-0.1,0.2-0.2,0.4-0.2,0.7
				v0.1c0,0.3,0.1,0.6,0.2,0.8c0.1,0.2,0.3,0.3,0.6,0.3s0.5-0.1,0.6-0.3c0.1-0.2,0.2-0.5,0.2-0.8C146.2,24.7,145.9,24.4,145.3,24.4z
				"/>
			<path class="st0" d="M147.8,24.3v0.2c0.1-0.2,0.3-0.3,0.4-0.3c0.1-0.1,0.3-0.1,0.4-0.1c0.4,0,0.6,0.1,0.8,0.4
				c0.1-0.1,0.2-0.3,0.4-0.3c0.1-0.1,0.3-0.1,0.5-0.1s0.4,0,0.5,0.1c0.2,0.1,0.3,0.2,0.4,0.4c0,0.1,0.1,0.3,0.1,0.6v0.5V26
				c0,0.1,0,0.2,0,0.3c0,0.1,0.1,0.2,0.1,0.2h0.1h0.1c0.1,0,0.2,0.1,0.2,0.2s-0.1,0.2-0.2,0.2c-0.1,0-0.1,0-0.2,0
				c-0.1,0-0.2,0-0.3,0s-0.1,0-0.3,0c-0.1,0-0.2,0-0.3,0s-0.2-0.1-0.2-0.2s0.1-0.2,0.2-0.2h0.1h0.1c0.1,0,0.1,0,0.1-0.1s0-0.2,0-0.5
				v-0.3v-0.4c0-0.2,0-0.4-0.1-0.5c0-0.1-0.1-0.2-0.2-0.3c-0.1-0.1-0.2-0.1-0.4-0.1c-0.3,0-0.4,0.1-0.5,0.3
				c-0.1,0.1-0.1,0.4-0.1,0.7v0.4c0,0.3,0,0.5,0,0.6s0.1,0.1,0.1,0.1h0.1h0.1c0.1,0,0.1,0,0.1,0.1l0.1,0.1c0,0.1-0.1,0.2-0.3,0.2
				c-0.1,0-0.1,0-0.2,0c-0.1,0-0.2,0-0.2,0c-0.1,0-0.2,0-0.2,0c-0.1,0-0.2,0-0.2,0c-0.1,0-0.2-0.1-0.2-0.2s0.1-0.2,0.2-0.2h0.1
				c0.1,0,0.1,0,0.1,0c0.1,0,0.1-0.1,0.1-0.3v-0.3c0-0.1,0-0.2,0-0.2c0-0.1,0-0.1,0-0.1v-0.4c0-0.3,0-0.5-0.1-0.7
				c-0.1-0.1-0.2-0.2-0.4-0.2s-0.4,0.1-0.5,0.3c-0.1,0.1-0.2,0.4-0.2,0.7v0.7c0,0.1,0,0.2,0,0.3c0,0.1,0.1,0.2,0.1,0.2h0.1l0,0l0,0
				c0.1,0,0.2,0.1,0.2,0.2s-0.1,0.2-0.2,0.2c-0.1,0-0.1,0-0.2,0c-0.1,0-0.2,0-0.3,0c0,0-0.1,0-0.2,0c-0.2,0-0.2,0-0.3,0
				s-0.2-0.1-0.2-0.2s0.1-0.2,0.2-0.2l0,0l0,0h0.1l0,0c0.1,0,0.1-0.1,0.2-0.3v-0.3V25c0-0.3,0-0.5,0-0.6s-0.1-0.1-0.1-0.1
				s-0.1,0-0.2,0h-0.1c-0.1,0-0.2-0.1-0.2-0.2s0.1-0.2,0.2-0.2c0,0,0.1,0,0.2,0c0.1,0,0.1,0,0.2,0c0,0,0,0,0.1,0l0,0h0.1l0,0
				C147.8,24.1,147.8,24.2,147.8,24.3z"/>
			<path class="st0" d="M154.3,26.9c-0.3,0-0.5-0.1-0.5-0.4c-0.2,0.3-0.5,0.4-0.9,0.4c-0.3,0-0.5-0.1-0.7-0.2s-0.3-0.3-0.3-0.6
				c0-0.3,0.1-0.5,0.4-0.7c0.1-0.1,0.2-0.1,0.3-0.1s0.2,0,0.4-0.1c0.3,0,0.5-0.1,0.6-0.1c0.1-0.1,0.1-0.2,0.1-0.3
				c0-0.1-0.1-0.3-0.2-0.3c-0.1-0.1-0.2-0.1-0.4-0.1s-0.3,0-0.4,0.1c-0.1,0-0.1,0.1-0.1,0.1s0,0,0.1,0.1c0.1,0,0.1,0.1,0.1,0.2
				s0,0.1-0.1,0.2c-0.1,0-0.1,0.1-0.2,0.1c-0.1,0-0.2,0-0.2-0.1c-0.1-0.1-0.1-0.1-0.1-0.2c0-0.2,0.1-0.4,0.3-0.5s0.4-0.2,0.7-0.2
				c0.7,0,1,0.3,1,0.9V26c0,0.2,0,0.3,0,0.3c0,0.1,0.1,0.2,0.2,0.2c0.1,0,0.2-0.1,0.2-0.3v-0.3c0-0.1,0.1-0.2,0.2-0.2
				c0.1,0,0.2,0.1,0.2,0.3l0,0v0.3C154.8,26.7,154.6,26.9,154.3,26.9z M153.7,25.8v-0.4c-0.1,0.1-0.2,0.1-0.3,0.2
				c-0.1,0-0.2,0.1-0.5,0.1c-0.4,0-0.6,0.2-0.6,0.5c0,0.1,0,0.2,0.1,0.3c0.1,0.1,0.2,0.1,0.4,0.1s0.4-0.1,0.6-0.2
				C153.6,26.2,153.7,26,153.7,25.8z"/>
			<path class="st0" d="M157.5,24c0.4,0,0.6,0.1,0.8,0.4v-0.5c0-0.1,0-0.2,0-0.3c0-0.1-0.1-0.2-0.2-0.2H158c-0.1,0-0.1,0-0.1,0
				c-0.1,0-0.2-0.1-0.2-0.2s0.1-0.2,0.3-0.2c0,0,0.1,0,0.2,0c0.1,0,0.2,0,0.2,0h0.1h0.1c0.1,0,0.1,0.1,0.1,0.2v0.1c0,0,0,0.1,0,0.3
				c0,0,0,0.2,0,0.4c0,0.2,0,0.3,0,0.4v0.5V26c0,0.2,0,0.4,0,0.4c0,0.1,0.1,0.1,0.1,0.1h0.1c0.1,0,0.1,0,0.1,0
				c0.1,0,0.2,0.1,0.2,0.2s-0.1,0.2-0.2,0.2c0,0-0.1,0-0.2,0c-0.1,0-0.1,0-0.2,0h-0.1h-0.1c-0.1,0-0.1-0.1-0.1-0.2l0,0v-0.1
				c-0.2,0.3-0.5,0.4-0.8,0.4c-0.4,0-0.7-0.1-0.9-0.4s-0.3-0.6-0.3-1s0.1-0.8,0.3-1C156.9,24.2,157.2,24,157.5,24z M158.3,25.9
				c0-0.1,0-0.3,0-0.5s0-0.4,0-0.5c0-0.2-0.1-0.3-0.2-0.4c-0.1-0.1-0.3-0.2-0.5-0.2c-0.3,0-0.4,0.1-0.6,0.3
				c-0.1,0.2-0.2,0.4-0.2,0.8c0,0.3,0.1,0.6,0.2,0.8c0.1,0.2,0.4,0.3,0.6,0.3c0.2,0,0.4-0.1,0.5-0.2
				C158.2,26.3,158.3,26.1,158.3,25.9z"/>
			<path class="st0" d="M162,25.2c0,0.1,0,0.2,0,0.2s-0.1,0-0.2,0h-1.7H160c0,0,0,0,0,0.1c0,0.3,0.1,0.5,0.2,0.7
				c0.2,0.2,0.4,0.3,0.6,0.3c0.2,0,0.3,0,0.4-0.1c0.1-0.1,0.2-0.2,0.3-0.3l0.1-0.2c0-0.1,0.1-0.1,0.2-0.1c0.1,0,0.2,0.1,0.2,0.2
				c0,0.2-0.1,0.4-0.4,0.6c-0.2,0.2-0.5,0.3-0.8,0.3c-0.4,0-0.7-0.1-0.9-0.4s-0.3-0.6-0.3-1s0.1-0.8,0.4-1.1
				c0.2-0.3,0.5-0.4,0.9-0.4c0.3,0,0.6,0.1,0.8,0.3C161.9,24.6,162,24.9,162,25.2z M160.1,25.1c0,0.1,0,0.1,0.1,0.1h1.3
				c0.1,0,0.1,0,0.1-0.1c0-0.2-0.1-0.4-0.2-0.5c-0.1-0.1-0.3-0.2-0.5-0.2s-0.4,0.1-0.5,0.2C160.1,24.7,160.1,24.9,160.1,25.1z"/>
			<path class="st0" d="M166.8,24.1c0,0.4-0.2,0.6-0.6,0.8c0.1,0,0.3,0.1,0.4,0.2c0.3,0.2,0.4,0.4,0.4,0.8c0,0.3-0.1,0.6-0.4,0.8
				c-0.3,0.2-0.6,0.3-1,0.3c-0.2,0-0.3,0-0.6,0c-0.2,0-0.4,0-0.5,0s-0.2,0-0.3,0h-0.3l0,0l0,0c-0.2,0-0.2-0.1-0.2-0.2
				s0.1-0.2,0.2-0.2h0.1h0.1c0.2,0,0.3-0.1,0.3-0.4V24c0-0.3-0.1-0.4-0.3-0.4H164c-0.1,0-0.1,0-0.1,0c-0.1,0-0.2-0.1-0.2-0.2
				s0.1-0.2,0.2-0.2h0.1h0.3c0.1,0,0.2,0,0.3,0s0.3,0,0.6,0c0.2,0,0.3,0,0.5,0c0.4,0,0.6,0.1,0.8,0.2
				C166.7,23.6,166.8,23.8,166.8,24.1z M164.7,24.3c0,0.2,0,0.3,0.1,0.3c0,0,0.1,0.1,0.3,0.1h0.3c0.6,0,0.9-0.2,0.9-0.6
				s-0.3-0.6-0.8-0.6c-0.4,0-0.6,0-0.7,0.1c-0.1,0-0.1,0.2-0.1,0.4V24.3z M164.7,25.4V26c0,0.2,0,0.4,0.1,0.4
				c0.1,0.1,0.3,0.1,0.6,0.1c0.7,0,1-0.3,1-0.8s-0.3-0.7-1-0.7H165c-0.2,0-0.3,0-0.3,0.1C164.7,25.2,164.7,25.3,164.7,25.4z"/>
			<path class="st0" d="M169.6,26.7v-0.2c-0.2,0.3-0.5,0.4-0.8,0.4c-0.4,0-0.7-0.1-0.9-0.4c-0.1-0.1-0.1-0.2-0.1-0.4
				c0-0.1,0-0.2,0-0.5v-0.4c0-0.5-0.1-0.7-0.2-0.7h-0.1h-0.1c-0.1,0-0.2-0.1-0.2-0.2s0.1-0.2,0.2-0.2c0,0,0.1,0,0.2,0
				c0.1,0,0.1,0,0.2,0c0,0,0.1,0,0.2,0c0.1,0,0.1,0,0.1,0c0.1,0,0.2,0.1,0.2,0.2v0.1v0.3v0.4v0.3c0,0.3,0,0.5,0.1,0.7
				s0.3,0.3,0.6,0.3c0.2,0,0.3,0,0.4-0.1c0.1-0.1,0.2-0.2,0.2-0.3c0.1-0.1,0.1-0.4,0.1-0.8v-0.3c0-0.2,0-0.3,0-0.3
				c0-0.2-0.1-0.3-0.1-0.3h-0.1h-0.2c-0.1,0-0.2-0.1-0.2-0.2s0.1-0.2,0.2-0.2h0.1c0.1,0,0.1,0,0.1,0h0.1c0.1,0,0.1,0,0.1,0
				c0.1,0,0.2,0.1,0.2,0.2s0,0.1,0,0.1c0,0.1,0,0.3,0,0.6v0.8c0,0.2,0,0.3,0,0.4c0,0.2,0.1,0.3,0.1,0.3h0.1h0.1
				c0.1,0,0.2,0.1,0.2,0.2s-0.1,0.2-0.2,0.2h-0.1c-0.1,0-0.1,0-0.2,0h-0.1h-0.1C169.7,26.8,169.6,26.8,169.6,26.7z"/>
			<path class="st0" d="M173.2,25.2c0,0.1,0,0.2,0,0.2s-0.1,0-0.2,0h-1.7h-0.1c0,0,0,0,0,0.1c0,0.3,0.1,0.5,0.2,0.7
				c0.2,0.2,0.4,0.3,0.6,0.3c0.2,0,0.3,0,0.4-0.1c0.1-0.1,0.2-0.2,0.3-0.3v-0.2c0-0.1,0.1-0.1,0.2-0.1c0.1,0,0.2,0.1,0.2,0.2
				c0,0.2-0.1,0.4-0.4,0.6c-0.2,0.2-0.5,0.3-0.8,0.3c-0.4,0-0.7-0.1-0.9-0.4s-0.3-0.6-0.3-1s0.1-0.8,0.4-1.1
				c0.2-0.3,0.5-0.4,0.9-0.4c0.3,0,0.6,0.1,0.8,0.3C173.1,24.6,173.2,24.9,173.2,25.2z M171.3,25.1c0,0.1,0,0.1,0.1,0.1h1.3
				c0.1,0,0.1,0,0.1-0.1c0-0.2-0.1-0.4-0.2-0.5c-0.1-0.1-0.3-0.2-0.5-0.2s-0.4,0.1-0.5,0.2C171.3,24.7,171.3,24.9,171.3,25.1z"/>
			<path class="st0" d="M174.4,24.3v0.2c0.2-0.3,0.5-0.4,0.9-0.4c0.2,0,0.4,0.1,0.5,0.1c0.2,0.1,0.3,0.2,0.3,0.4
				c0.1,0.1,0.1,0.3,0.1,0.5v1c0,0.2,0,0.2,0,0.3c0,0.1,0.1,0.2,0.1,0.2h0.1c0.1,0,0.1,0,0.1,0s0.1,0,0.1,0.1l0.1,0.1
				c0,0.1,0,0.1-0.1,0.1c0,0-0.1,0.1-0.2,0.1c0,0-0.1,0-0.2,0c-0.1,0-0.2,0-0.3,0s-0.2,0-0.2,0c-0.2,0-0.3,0-0.3,0
				c-0.1,0-0.2-0.1-0.2-0.2s0.1-0.2,0.2-0.2h0.1c0.1,0,0.1,0,0.1,0c0.1,0,0.1-0.1,0.1-0.3V26v-0.3v-0.4c0-0.2,0-0.3,0-0.4
				s-0.1-0.2-0.2-0.3c-0.1-0.1-0.3-0.1-0.4-0.1c-0.3,0-0.5,0.1-0.6,0.3c-0.1,0.1-0.1,0.4-0.1,0.7v0.7c0,0.2,0,0.3,0,0.3
				c0,0.1,0.1,0.1,0.1,0.1h0.1c0.1,0,0.1,0,0.1,0c0.1,0,0.2,0.1,0.2,0.2s-0.1,0.2-0.2,0.2c0,0-0.1,0-0.3,0c-0.1,0-0.2,0-0.3,0
				s-0.2,0-0.3,0c-0.2,0-0.2,0-0.3,0s-0.2-0.1-0.2-0.2s0.1-0.2,0.2-0.2h0.1c0.1,0,0.1,0,0.1,0c0.1,0,0.2-0.1,0.2-0.3v-0.6v-0.6v-0.2
				c0-0.1,0-0.2,0-0.2l-0.1-0.1h-0.1c-0.1,0-0.1,0-0.1,0c-0.1,0-0.2-0.1-0.2-0.2s0.1-0.2,0.2-0.2c0,0,0,0,0.1,0h0.2
				c0.1,0,0.1,0,0.2,0c0.1,0,0.1,0,0.1,0C174.4,24.1,174.4,24.2,174.4,24.3z"/>
			<path class="st0" d="M178.3,26.9c-0.4,0-0.7-0.1-0.9-0.4s-0.3-0.6-0.3-1s0.1-0.8,0.3-1c0.2-0.3,0.5-0.4,0.9-0.4s0.7,0.1,0.9,0.4
				s0.3,0.6,0.3,1s-0.1,0.8-0.4,1.1C179,26.8,178.6,26.9,178.3,26.9z M178.3,24.4c-0.3,0-0.4,0.1-0.6,0.3c-0.1,0.2-0.2,0.4-0.2,0.7
				v0.1c0,0.3,0.1,0.6,0.2,0.8c0.1,0.2,0.3,0.3,0.6,0.3s0.5-0.1,0.6-0.3c0.1-0.2,0.2-0.5,0.2-0.8C179.1,24.7,178.8,24.4,178.3,24.4z
				"/>
			<path class="st0" d="M181.1,24c0.2,0,0.4,0.1,0.6,0.2l0,0c0-0.1,0.1-0.2,0.2-0.2c0.1,0,0.2,0.1,0.2,0.2c0,0,0,0.1,0,0.2
				s0,0.1,0,0.2c0,0,0,0.1,0,0.2s0,0.1,0,0.2s-0.1,0.2-0.2,0.2c-0.1,0-0.2-0.1-0.2-0.2v-0.2c0-0.1-0.1-0.2-0.2-0.3
				c-0.1-0.1-0.3-0.1-0.4-0.1c-0.2,0-0.3,0-0.4,0.1c-0.1,0.1-0.2,0.2-0.2,0.3c0,0.2,0.2,0.4,0.5,0.4h0.3c0.6,0.1,0.9,0.3,0.9,0.8
				c0,0.3-0.1,0.5-0.3,0.6c-0.2,0.2-0.5,0.2-0.8,0.2s-0.6-0.1-0.8-0.3v0.1c0,0.1-0.1,0.2-0.2,0.2c-0.1,0-0.2-0.1-0.2-0.2
				c0,0,0-0.1,0-0.3c0-0.1,0-0.1,0-0.2s0-0.2,0-0.2c0-0.1,0-0.1,0-0.2s0.1-0.2,0.2-0.2c0.1,0,0.1,0,0.1,0.1c0,0,0,0.1,0,0.3
				c0,0.2,0.1,0.3,0.2,0.4c0.2,0.1,0.4,0.1,0.6,0.1c0.2,0,0.3,0,0.4-0.1s0.2-0.2,0.2-0.3c0-0.2-0.2-0.4-0.6-0.4
				c-0.4,0-0.6-0.1-0.8-0.2s-0.3-0.3-0.3-0.6c0-0.3,0.1-0.5,0.3-0.6C180.5,24.1,180.8,24,181.1,24z"/>
			<path class="st0" d="M186.5,26.2l-0.2-0.5c0-0.1,0-0.1-0.1-0.1h-0.1h-1c-0.1,0-0.1,0-0.1,0s-0.1,0.1-0.1,0.2l-0.2,0.4v0.1
				c0,0.1,0.1,0.2,0.2,0.2c0,0,0.1,0,0.2,0c0.1,0,0.1,0,0.1,0c0.1,0,0.2,0.1,0.2,0.2s-0.1,0.2-0.2,0.2h-0.1h-0.3c-0.1,0-0.1,0-0.2,0
				c-0.1,0-0.2,0-0.3,0h-0.2c-0.1,0-0.2,0-0.2,0c-0.1,0-0.2-0.1-0.2-0.2s0.1-0.2,0.2-0.2c0,0,0,0,0.1,0h0.1c0.1,0,0.2,0,0.2-0.1
				c0,0,0.1-0.1,0.1-0.3l1-2.7c0.1-0.2,0.2-0.2,0.3-0.2c0.2,0,0.3,0.1,0.3,0.2l1,2.7c0.1,0.2,0.1,0.3,0.2,0.3
				c0.1,0.1,0.1,0.1,0.2,0.1h0.1h0.1c0.1,0,0.2,0.1,0.2,0.2s-0.1,0.2-0.2,0.2c0,0-0.1,0-0.2,0c-0.2,0-0.4,0-0.5,0s-0.3,0-0.6,0
				c-0.1,0-0.1,0-0.2,0c-0.1,0-0.2-0.1-0.2-0.2s0.1-0.2,0.2-0.2h0.1c0.1,0,0.1,0,0.1,0c0.1,0,0.2,0,0.2-0.1
				C186.6,26.3,186.6,26.3,186.5,26.2z M186.1,25.1l-0.5-1.5l-0.5,1.5l0,0c0,0,0,0,0.1,0H186.1C186.1,25.2,186.2,25.2,186.1,25.1
				C186.2,25.1,186.1,25.1,186.1,25.1z"/>
			<path class="st0" d="M188.8,25.2v0.7c0,0.2,0,0.3,0,0.3c0,0.2,0.1,0.2,0.1,0.2h0.1c0,0,0,0,0.1,0s0.2,0.1,0.2,0.2s0,0.1-0.1,0.1
				c0,0-0.1,0.1-0.2,0.1c-0.1,0-0.1,0-0.3,0c-0.1,0-0.2,0-0.3,0s-0.2,0-0.3,0s-0.2,0-0.3,0s-0.2-0.1-0.2-0.2s0.1-0.2,0.2-0.2h0.1
				c0.1,0,0.1,0,0.1,0c0.1,0,0.1-0.1,0.2-0.3c0,0,0-0.2,0-0.5v-0.4c0-0.3,0-0.4,0-0.5c0-0.2-0.1-0.3-0.2-0.3h-0.1
				c-0.1,0-0.1,0-0.1,0c-0.1,0-0.2-0.1-0.2-0.2s0.1-0.2,0.2-0.2c0.1,0,0.1,0,0.1,0c0.1,0,0.2,0,0.2,0h0.1c0.1,0,0.1,0,0.1,0
				c0.1,0,0.2,0.1,0.2,0.2c0,0,0,0,0,0.1v0.1c0,0,0,0.1,0,0.3C188.8,24.9,188.8,25.1,188.8,25.2z M188.5,23.8c-0.1,0-0.2,0-0.2-0.1
				c-0.1-0.1-0.1-0.1-0.1-0.2s0-0.1,0.1-0.2s0.1-0.1,0.2-0.1s0.2,0,0.2,0.1c0.1,0.1,0.1,0.1,0.1,0.2s0,0.2-0.1,0.2
				C188.7,23.8,188.6,23.8,188.5,23.8z"/>
			<path class="st0" d="M190.4,24.3L190.4,24.3c0.2-0.2,0.4-0.3,0.7-0.3s0.5,0.1,0.6,0.2c0.2,0.1,0.2,0.3,0.2,0.5s0,0.3-0.1,0.4
				s-0.2,0.1-0.3,0.1s-0.2,0-0.2-0.1c-0.1,0-0.1-0.1-0.1-0.2s0-0.1,0.1-0.2c0,0,0.1-0.1,0.2-0.1c0,0,0,0,0.1,0v-0.1
				c0-0.1,0-0.2-0.1-0.3c-0.1-0.1-0.2-0.1-0.3-0.1c-0.3,0-0.5,0.1-0.6,0.4c-0.1,0.2-0.1,0.4-0.1,0.7v0.4c0,0.2,0,0.4,0,0.4
				c0,0.2,0.1,0.3,0.2,0.3h0.1h0.1c0.1,0,0.2,0.1,0.2,0.2s-0.1,0.2-0.2,0.2l0,0c-0.1,0-0.1,0-0.2,0c-0.1,0-0.2,0-0.2,0
				c-0.1,0-0.3,0-0.3,0h-0.3c-0.1,0-0.2-0.1-0.2-0.2s0.1-0.2,0.2-0.2h0.1h0.1h0.1c0.1,0,0.1-0.1,0.1-0.2V26v-1.2
				c0-0.2-0.1-0.3-0.2-0.3H190c-0.1,0-0.1,0-0.1,0c-0.1,0-0.2-0.1-0.2-0.2s0.1-0.2,0.2-0.2c0,0,0.1,0,0.2,0c0.1,0,0.1,0,0.2,0h0.1
				h0.1C190.4,24.1,190.4,24.2,190.4,24.3z"/>
			<path class="st0" d="M194.7,25.2c0,0.1,0,0.2,0,0.2s-0.1,0-0.2,0h-1.7h-0.1c0,0,0,0,0,0.1c0,0.3,0.1,0.5,0.2,0.7
				c0.2,0.2,0.4,0.3,0.6,0.3c0.2,0,0.3,0,0.4-0.1c0.1-0.1,0.2-0.2,0.3-0.3l0.1-0.2c0-0.1,0.1-0.1,0.2-0.1c0.1,0,0.2,0.1,0.2,0.2
				c0,0.2-0.1,0.4-0.4,0.6c-0.2,0.2-0.5,0.3-0.8,0.3c-0.4,0-0.7-0.1-0.9-0.4s-0.3-0.6-0.3-1s0.1-0.8,0.4-1.1
				c0.2-0.3,0.5-0.4,0.9-0.4c0.3,0,0.6,0.1,0.8,0.3C194.6,24.6,194.7,24.9,194.7,25.2z M192.7,25.1c0,0.1,0,0.1,0.1,0.1h1.3
				c0.1,0,0.1,0,0.1-0.1c0-0.2-0.1-0.4-0.2-0.5c-0.1-0.1-0.3-0.2-0.5-0.2s-0.4,0.1-0.6,0.2C192.8,24.7,192.7,24.9,192.7,25.1z"/>
			<path class="st0" d="M196.2,24c0.2,0,0.4,0.1,0.6,0.2l0,0c0-0.1,0.1-0.2,0.2-0.2c0.1,0,0.2,0.1,0.2,0.2c0,0,0,0.1,0,0.2
				s0,0.1,0,0.2c0,0,0,0.1,0,0.2s0,0.1,0,0.2s-0.1,0.2-0.2,0.2c-0.1,0-0.2-0.1-0.2-0.2v-0.2c0-0.1-0.1-0.2-0.2-0.3
				c-0.1-0.1-0.3-0.1-0.4-0.1c-0.2,0-0.3,0-0.4,0.1c-0.1,0.1-0.2,0.2-0.2,0.3c0,0.2,0.2,0.4,0.5,0.4h0.3c0.6,0.1,0.9,0.3,0.9,0.8
				c0,0.3-0.1,0.5-0.3,0.6c-0.2,0.2-0.5,0.2-0.8,0.2s-0.6-0.1-0.8-0.3v0.1c0,0.1-0.1,0.2-0.2,0.2c-0.1,0-0.2-0.1-0.2-0.2
				c0,0,0-0.1,0-0.3c0-0.1,0-0.1,0-0.2s0-0.2,0-0.2c0-0.1,0-0.1,0-0.2s0.1-0.2,0.2-0.2c0.1,0,0.1,0,0.1,0.1c0,0,0,0.1,0,0.3
				c0,0.2,0.1,0.3,0.2,0.4c0.2,0.1,0.4,0.1,0.6,0.1c0.2,0,0.3,0,0.4-0.1s0.2-0.2,0.2-0.3c0-0.2-0.2-0.4-0.6-0.4
				c-0.4,0-0.6-0.1-0.8-0.2s-0.3-0.3-0.3-0.6c0-0.3,0.1-0.5,0.3-0.6C195.6,24.1,195.9,24,196.2,24z"/>
		</g>
		<g>
			<path class="st0" d="M29.9,26.5L29.9,26.5L29.9,26.5c-0.1,0-0.2-0.1-0.2-0.2c0,0,0-0.1,0-0.3v-1c0-0.6-0.3-0.9-1-0.9
				c-0.3,0-0.5,0.1-0.7,0.2s-0.3,0.3-0.3,0.5c0,0.1,0,0.2,0.1,0.2c0.1,0.1,0.1,0.1,0.2,0.1c0.1,0,0.1,0,0.2-0.1
				c0.1,0,0.1-0.1,0.1-0.2s0-0.1-0.1-0.2c0,0,0,0,0-0.1c0,0,0-0.1,0.1-0.1c0.1-0.1,0.3-0.1,0.5-0.1s0.3,0,0.4,0.1
				c0.1,0.1,0.2,0.2,0.2,0.3c0,0.2,0,0.3-0.1,0.3c-0.1,0.1-0.3,0.1-0.6,0.1c-0.2,0-0.4,0-0.4,0.1c-0.1,0-0.2,0.1-0.3,0.1
				c-0.3,0.1-0.4,0.4-0.4,0.7c0,0.2,0.1,0.4,0.3,0.6c0.2,0.1,0.4,0.2,0.7,0.2c0.4,0,0.7-0.1,0.9-0.4c0.1,0.3,0.3,0.4,0.5,0.4l0,0
				l0,0c0.1,0,0.2-0.1,0.2-0.2C30.1,26.6,30,26.5,29.9,26.5z M29.3,25.8c0,0.2-0.1,0.4-0.2,0.5c-0.1,0.1-0.3,0.2-0.6,0.2
				c-0.2,0-0.3,0-0.4-0.1C28,26.3,28,26.2,28,26.1c0-0.3,0.2-0.4,0.6-0.5c0.2,0,0.4,0,0.5-0.1c0.1,0,0.2-0.1,0.3-0.1L29.3,25.8
				L29.3,25.8z"/>
		</g>
		<g>
			<path class="st0" d="M123.3,26.5L123.3,26.5L123.3,26.5c-0.1,0-0.2-0.1-0.2-0.2c0,0,0-0.1,0-0.3v-1c0-0.6-0.3-0.9-1-0.9
				c-0.3,0-0.5,0.1-0.7,0.2s-0.3,0.3-0.3,0.5c0,0.1,0,0.2,0.1,0.2c0.1,0.1,0.1,0.1,0.2,0.1s0.1,0,0.2-0.1c0.1,0,0.1-0.1,0.1-0.2
				s0-0.1-0.1-0.2c0,0,0,0,0-0.1c0,0,0-0.1,0.1-0.1c0.1-0.1,0.3-0.1,0.5-0.1s0.3,0,0.4,0.1s0.2,0.2,0.2,0.3c0,0.1,0,0.3-0.1,0.3
				c-0.1,0.1-0.3,0.1-0.6,0.1c-0.2,0-0.4,0-0.4,0.1c-0.1,0-0.2,0.1-0.3,0.1c-0.3,0.1-0.4,0.4-0.4,0.7c0,0.2,0.1,0.4,0.3,0.6
				c0.2,0.1,0.4,0.2,0.7,0.2c0.4,0,0.7-0.1,0.9-0.4c0.1,0.3,0.2,0.4,0.5,0.4l0,0l0,0c0.1,0,0.2-0.1,0.2-0.2
				C123.5,26.6,123.4,26.5,123.3,26.5z M122.7,25.8c0,0.2-0.1,0.4-0.2,0.5s-0.3,0.2-0.6,0.2c-0.2,0-0.3,0-0.4-0.1s-0.1-0.2-0.1-0.3
				c0-0.3,0.2-0.4,0.6-0.5c0.2,0,0.4,0,0.5-0.1c0.1,0,0.2-0.1,0.2-0.2V25.8z"/>
		</g>
		<g>
			<path class="st0" d="M59.1,26.5L59.1,26.5L59.1,26.5c-0.1,0-0.2-0.1-0.2-0.2c0,0,0-0.1,0-0.3v-1c0-0.6-0.3-0.9-1-0.9
				c-0.3,0-0.5,0.1-0.7,0.2s-0.3,0.3-0.3,0.5c0,0.1,0,0.2,0.1,0.2c0.1,0.1,0.1,0.1,0.2,0.1c0.1,0,0.1,0,0.2-0.1
				c0.1,0,0.1-0.1,0.1-0.2s0-0.1-0.1-0.2c0,0,0,0,0-0.1c0,0,0-0.1,0.1-0.1c0.1-0.1,0.3-0.1,0.5-0.1s0.3,0,0.4,0.1
				c0.1,0.1,0.2,0.2,0.2,0.3c0,0.2,0,0.3-0.1,0.3c-0.1,0.1-0.3,0.1-0.6,0.1c-0.2,0-0.4,0-0.4,0.1c-0.1,0-0.2,0.1-0.3,0.1
				c-0.3,0.1-0.4,0.4-0.4,0.7c0,0.2,0.1,0.4,0.3,0.6c0.2,0.1,0.4,0.2,0.7,0.2c0.4,0,0.7-0.1,0.9-0.4c0.1,0.3,0.3,0.4,0.5,0.4l0,0
				l0,0c0.1,0,0.2-0.1,0.2-0.2C59.2,26.6,59.2,26.5,59.1,26.5z M58.4,25.8c0,0.2-0.1,0.4-0.2,0.5c-0.1,0.1-0.3,0.2-0.6,0.2
				c-0.2,0-0.3,0-0.4-0.1c-0.1-0.1-0.1-0.2-0.1-0.3c0-0.3,0.2-0.4,0.6-0.5c0.2,0,0.4,0,0.5-0.1c0.1,0,0.2-0.1,0.2-0.1V25.8z"/>
		</g>
		<path class="st0" d="M92.8,24c0.2,0,0.4,0.1,0.6,0.2l0,0c0-0.1,0.1-0.2,0.2-0.2s0.2,0.1,0.2,0.2c0,0,0,0.1,0,0.2s0,0.1,0,0.2
			c0,0,0,0.1,0,0.2s0,0.1,0,0.2s-0.1,0.2-0.2,0.2s-0.2-0.1-0.2-0.2v-0.2c0-0.1-0.1-0.2-0.2-0.3c-0.1-0.1-0.3-0.1-0.4-0.1
			c-0.2,0-0.3,0-0.4,0.1s-0.2,0.2-0.2,0.3c0,0.2,0.2,0.4,0.5,0.4H93c0.6,0.1,0.9,0.3,0.9,0.8c0,0.3-0.1,0.5-0.3,0.6
			c-0.2,0.2-0.5,0.2-0.8,0.2s-0.6-0.1-0.8-0.3v0.1c0,0.1-0.1,0.2-0.2,0.2s-0.2-0.1-0.2-0.2c0,0,0-0.1,0-0.3c0-0.1,0-0.1,0-0.2
			s0-0.2,0-0.2c0-0.1,0-0.1,0-0.2s0.1-0.2,0.2-0.2s0.1,0,0.1,0.1c0,0,0,0.1,0,0.3c0,0.2,0.1,0.3,0.2,0.4c0.2,0.1,0.4,0.1,0.6,0.1
			s0.3,0,0.4-0.1s0.2-0.2,0.2-0.3c0-0.2-0.2-0.4-0.6-0.4s-0.6-0.1-0.8-0.2c-0.2-0.1-0.3-0.3-0.3-0.6c0-0.3,0.1-0.5,0.3-0.6
			C92.3,24.1,92.5,24,92.8,24z"/>
		<g>
			<path class="st0" d="M91.1,26.5L91.1,26.5L91.1,26.5c-0.1,0-0.2-0.1-0.2-0.2c0,0,0-0.1,0-0.3v-1c0-0.6-0.3-0.9-1-0.9
				c-0.3,0-0.5,0.1-0.7,0.2s-0.3,0.3-0.3,0.5c0,0.1,0,0.2,0.1,0.2c0.1,0.1,0.1,0.1,0.2,0.1s0.1,0,0.2-0.1c0.1,0,0.1-0.1,0.1-0.2
				s0-0.1-0.1-0.2c0,0,0,0,0-0.1c0,0,0-0.1,0.1-0.1c0.1-0.1,0.3-0.1,0.5-0.1s0.3,0,0.4,0.1s0.2,0.2,0.2,0.3c0,0.2,0,0.3-0.1,0.3
				c-0.1,0.1-0.3,0.1-0.6,0.1c-0.2,0-0.4,0-0.4,0.1c-0.1,0-0.2,0.1-0.3,0.1c-0.3,0.1-0.4,0.4-0.4,0.7c0,0.2,0.1,0.4,0.3,0.6
				c0.2,0.1,0.4,0.2,0.7,0.2c0.4,0,0.7-0.1,0.9-0.4c0.1,0.3,0.3,0.4,0.5,0.4l0,0l0,0c0.1,0,0.2-0.1,0.2-0.2
				C91.2,26.6,91.2,26.5,91.1,26.5z M90.4,25.8c0,0.2-0.1,0.4-0.2,0.5s-0.3,0.2-0.6,0.2c-0.2,0-0.3,0-0.4-0.1s-0.1-0.2-0.1-0.3
				c0-0.3,0.2-0.4,0.6-0.5c0.2,0,0.4,0,0.5-0.1c0.1,0,0.2-0.1,0.3-0.1v0.4H90.4z"/>
		</g>
	</g>
	<g>
		<g>
			<path class="st0" d="M66.5,7.1c-3.2,0-5.8,2.6-5.8,5.8c0,3.2,2.6,5.8,5.8,5.8h2.1c1,0,1.7-0.8,1.7-1.7c0-1-0.8-1.7-1.7-1.7l0,0
				l0,0h-2.1c-1.3,0-2.3-1-2.3-2.3s1-2.3,2.3-2.3h2.1c1,0,1.7-0.8,1.7-1.7c0-0.9-0.8-1.7-1.7-1.7h-2.1V7.1z"/>
			<path class="st0" d="M60.1,17.2c0,1-0.8,1.7-1.7,1.7c-1,0-1.7-0.8-1.7-1.7V13c0-5.5,4.4-9.9,9.9-9.9h2.1c3.2,0,5.8,2.6,5.8,5.8
				c0,3.2-2.6,5.8-5.8,5.8h-2.2c-1,0-1.7-0.8-1.7-1.7c0-1,0.8-1.7,1.7-1.7h2.1c1.3,0,2.3-1.1,2.3-2.3c0-1.3-1.1-2.3-2.4-2.3h-1.6
				h-0.5c-3.5,0-6.4,2.9-6.4,6.4L60.1,17.2L60.1,17.2z"/>
		</g>
		<g>
			<g>
				<g>
					<g>
						<path class="st0" d="M92,6.9c-2.6,0-4.7,2.1-4.7,4.7s2.1,4.7,4.7,4.7s4.7-2.1,4.7-4.7C96.8,9,94.6,6.9,92,6.9z M92,14.4
							c-1.5,0-2.8-1.2-2.8-2.8c0-1.5,1.2-2.8,2.8-2.8c1.5,0,2.8,1.2,2.8,2.8C94.8,13.2,93.6,14.4,92,14.4z"/>
					</g>
				</g>
				<g>
					<g>
						<path class="st0" d="M139.2,6.9c-2.6,0-4.7,2.1-4.7,4.7s2.1,4.7,4.7,4.7c2.6,0,4.7-2.1,4.7-4.7C144,9,141.9,6.9,139.2,6.9z
							 M139.2,14.4c-1.5,0-2.8-1.2-2.8-2.8c0-1.5,1.2-2.8,2.8-2.8c1.5,0,2.8,1.2,2.8,2.8C142,13.2,140.8,14.4,139.2,14.4z"/>
					</g>
				</g>
				<path class="st0" d="M98.2,11.8c0-2.5,2.1-4.6,4.6-4.6s4.6,2.1,4.6,4.6v0.6v2.8c0,0.6-0.5,1-1,1l0,0c-0.6,0-1-0.5-1-1v-2.8v-0.6
					c0-1.4-1.1-2.5-2.5-2.5s-2.5,1.1-2.5,2.5v0.6v2.8c0,0.6-0.5,1-1,1l0,0c-0.6,0-1-0.5-1-1v-2.8v-0.6H98.2z"/>
				<path class="st0" d="M83.2,16.1c-2.4,0-4.4-2-4.4-4.4s2-4.4,4.4-4.4h2c0.6,0,1,0.4,1,1l0,0c0,0.5-0.4,1-1,1h-2
					c-1.4,0-2.5,1.1-2.5,2.5s1.1,2.5,2.5,2.5h2c0.6,0,1,0.4,1,1l0,0c0,0.6-0.4,1-1,1h-2V16.1z"/>
				<path class="st0" d="M126.3,14.1h-3c-1,0-2.1-0.6-2.3-1.5h5.4c0.6,0,1.1-0.4,1.1-1s-0.5-1-1.1-1h-5.3c0.3-0.8,1.1-1.5,2.3-1.5h3
					c0.5,0,1-0.4,1-1s-0.4-1-1-1h-3c-2.5,0-4.4,2-4.4,4.5s2,4.4,4.4,4.4h3c0.6,0,1-0.4,1-1C127.3,14.6,126.9,14.1,126.3,14.1z"/>
				<path class="st0" d="M131.9,7.1c-0.6,0-1,0.5-1,1v6v0.8c0,1.4-1.1,2.5-2.5,2.5l0,0h-0.1c-0.6,0-1.1,0.4-1.1,1s0.5,1,1.1,1h0.1
					c0,0,0,0,0.1,0l0,0c2.5,0,4.6-2.1,4.6-4.6V14V8C132.9,7.6,132.5,7.1,131.9,7.1z"/>
				<path class="st0" d="M111.7,10.7c-0.4,0-0.8-0.3-0.8-0.8c0-0.4,0.3-0.8,0.8-0.8h4.4c0.6,0,1-0.4,1-1l0,0c0-0.6-0.5-1-1-1h-4.4
					c-1.5,0-2.7,1.2-2.7,2.7s1.2,2.7,2.7,2.7h3.2c0.4,0,0.8,0.3,0.8,0.7c0,0.4-0.4,0.8-0.8,0.8h-4.5c-0.6,0-1,0.4-1,1l0,0
					c0,0.6,0.5,1,1,1h4.4c1.5,0,2.7-1.2,2.7-2.7s-1.2-2.7-2.7-2.7h-3.1V10.7z"/>
			</g>
			<path class="st0" d="M130.9,4.9c0-0.5,0.4-1,1-1c0.5,0,1,0.4,1,1c0,0.5-0.4,1-1,1S130.9,5.4,130.9,4.9z"/>
		</g>
	</g>
</g>
</svg>
